<svg width="64" height="64" viewBox="0 0 64 64" fill="none" xmlns="http://www.w3.org/2000/svg">
<circle cx="32" cy="32" r="32" fill="black"/>
<path fill-rule="evenodd" clip-rule="evenodd" d="M21.701 47H44.765C45.997 47 47 45.998 47 44.767V39.721H22.72V44.689C22.72 45.605 22.322 46.44 21.701 47V47ZM17.72 17.721V44.767C17.72 45.41 17.962 45.998 18.402 46.421C18.792 46.796 19.307 47 19.86 47H19.882C19.905 47 19.927 47 19.95 46.999C21.08 46.954 22 45.918 22 44.689V39.36C22 39.161 22.161 39 22.36 39H42V17.721H17.72ZM19.86 47.721C19.12 47.721 18.429 47.445 17.903 46.939C17.329 46.388 17 45.596 17 44.767V17.36C17 17.161 17.161 17 17.36 17H42.36C42.558 17 42.72 17.161 42.72 17.36V39H47.36C47.558 39 47.72 39.161 47.72 39.36V44.767C47.72 46.396 46.394 47.721 44.765 47.721H19.887H19.86ZM37.3598 34.7207H39.3598V33.9997H37.3598V34.7207ZM20.3308 22.7207H33.3598V21.9997H20.3308V22.7207ZM37.3598 22.7207H39.3598V21.9997H37.3598V22.7207ZM20.3308 26.7207H33.3598V25.9997H20.3308V26.7207ZM37.3598 26.7207H39.3598V25.9997H37.3598V26.7207ZM20.3308 30.7367H33.3598V30.0157H20.3308V30.7367ZM37.3598 30.7367H39.3598V30.0157H37.3598V30.7367ZM20.3308 34.7207H33.3598V33.9997H20.3308V34.7207Z" fill="white"/>
</svg>
