<svg width="493" height="262" viewBox="0 0 493 262" fill="none" xmlns="http://www.w3.org/2000/svg">
<path d="M70.504 2.728H83.32C88.568 2.728 92.648 4.152 95.56 7C98.504 9.848 99.976 14.072 99.976 19.672C99.976 22.52 99.56 25.016 98.728 27.16C97.928 29.304 96.76 31.112 95.224 32.584C93.688 34.056 91.816 35.16 89.608 35.896C87.4 36.632 84.904 37 82.12 37H70.504V2.728ZM82.264 30.904C84.12 30.904 85.704 30.648 87.016 30.136C88.328 29.592 89.384 28.824 90.184 27.832C91.016 26.84 91.624 25.672 92.008 24.328C92.392 22.952 92.584 21.416 92.584 19.72C92.584 18.056 92.408 16.552 92.056 15.208C91.736 13.832 91.208 12.68 90.472 11.752C89.736 10.824 88.776 10.104 87.592 9.592C86.44 9.08 85.016 8.824 83.32 8.824H77.656V30.904H82.264Z" fill="white"/>
<path d="M114.565 37.768C110.533 37.768 107.413 36.616 105.205 34.312C102.997 32.008 101.893 28.712 101.893 24.424C101.893 22.376 102.181 20.536 102.757 18.904C103.365 17.24 104.213 15.848 105.301 14.728C106.421 13.576 107.765 12.696 109.333 12.088C110.901 11.48 112.645 11.176 114.565 11.176C116.517 11.176 118.277 11.48 119.845 12.088C121.413 12.696 122.741 13.576 123.829 14.728C124.949 15.848 125.797 17.24 126.373 18.904C126.949 20.536 127.237 22.376 127.237 24.424C127.237 26.504 126.933 28.376 126.325 30.04C125.749 31.672 124.901 33.064 123.781 34.216C122.693 35.368 121.365 36.248 119.797 36.856C118.229 37.464 116.485 37.768 114.565 37.768ZM114.565 32.392C116.485 32.392 117.909 31.704 118.837 30.328C119.797 28.952 120.277 26.984 120.277 24.424C120.277 21.864 119.797 19.912 118.837 18.568C117.909 17.224 116.485 16.552 114.565 16.552C112.645 16.552 111.205 17.224 110.245 18.568C109.317 19.912 108.853 21.864 108.853 24.424C108.853 27.016 109.317 29 110.245 30.376C111.173 31.72 112.613 32.392 114.565 32.392Z" fill="white"/>
<path d="M70.504 156.728H83.32C88.568 156.728 92.648 158.152 95.56 161C98.504 163.848 99.976 168.072 99.976 173.672C99.976 176.52 99.56 179.016 98.728 181.16C97.928 183.304 96.76 185.112 95.224 186.584C93.688 188.056 91.816 189.16 89.608 189.896C87.4 190.632 84.904 191 82.12 191H70.504V156.728ZM82.264 184.904C84.12 184.904 85.704 184.648 87.016 184.136C88.328 183.592 89.384 182.824 90.184 181.832C91.016 180.84 91.624 179.672 92.008 178.328C92.392 176.952 92.584 175.416 92.584 173.72C92.584 172.056 92.408 170.552 92.056 169.208C91.736 167.832 91.208 166.68 90.472 165.752C89.736 164.824 88.776 164.104 87.592 163.592C86.44 163.08 85.016 162.824 83.32 162.824H77.656V184.904H82.264Z" fill="white"/>
<path d="M114.565 191.768C110.533 191.768 107.413 190.616 105.205 188.312C102.997 186.008 101.893 182.712 101.893 178.424C101.893 176.376 102.181 174.536 102.757 172.904C103.365 171.24 104.213 169.848 105.301 168.728C106.421 167.576 107.765 166.696 109.333 166.088C110.901 165.48 112.645 165.176 114.565 165.176C116.517 165.176 118.277 165.48 119.845 166.088C121.413 166.696 122.741 167.576 123.829 168.728C124.949 169.848 125.797 171.24 126.373 172.904C126.949 174.536 127.237 176.376 127.237 178.424C127.237 180.504 126.933 182.376 126.325 184.04C125.749 185.672 124.901 187.064 123.781 188.216C122.693 189.368 121.365 190.248 119.797 190.856C118.229 191.464 116.485 191.768 114.565 191.768ZM114.565 186.392C116.485 186.392 117.909 185.704 118.837 184.328C119.797 182.952 120.277 180.984 120.277 178.424C120.277 175.864 119.797 173.912 118.837 172.568C117.909 171.224 116.485 170.552 114.565 170.552C112.645 170.552 111.205 171.224 110.245 172.568C109.317 173.912 108.853 175.864 108.853 178.424C108.853 181.016 109.317 183 110.245 184.376C111.173 185.72 112.613 186.392 114.565 186.392Z" fill="white"/>
<path d="M129.725 165.944H136.253V169.4C137.245 167.928 138.413 166.856 139.757 166.184C141.133 165.512 142.557 165.176 144.029 165.176C146.877 165.176 148.989 165.928 150.365 167.432C151.741 168.904 152.429 171.24 152.429 174.44V191H145.709V175.352C145.709 173.592 145.373 172.392 144.701 171.752C144.029 171.112 143.133 170.792 142.013 170.792C141.149 170.792 140.397 170.92 139.757 171.176C139.149 171.432 138.573 171.8 138.029 172.28C137.581 172.728 137.197 173.272 136.877 173.912C136.589 174.52 136.445 175.192 136.445 175.928V191H129.725V165.944Z" fill="white"/>
<path d="M154.679 156.728H161.207L158.231 168.968H153.095L154.679 156.728Z" fill="white"/>
<path d="M165.088 171.176H161.152V165.944H165.088V159.272H171.808V165.944H177.568V171.176H171.808V182.744C171.808 184.056 172.08 184.952 172.624 185.432C173.168 185.88 173.872 186.104 174.736 186.104C175.184 186.104 175.632 186.088 176.08 186.056C176.56 185.992 177.024 185.896 177.472 185.768L178.432 190.712C177.504 191 176.592 191.192 175.696 191.288C174.832 191.416 174 191.48 173.2 191.48C170.448 191.48 168.4 190.824 167.056 189.512C165.744 188.2 165.088 185.992 165.088 182.888V171.176Z" fill="white"/>
<path d="M70.752 209.864H82.44V212.912H74.328V216.656H81.96V219.728H74.328V223.952H82.944L82.584 227H70.752V209.864Z" fill="#808080"/>
<path d="M84.9724 214.472H88.2364V216.152C88.7004 215.448 89.2444 214.928 89.8684 214.592C90.4924 214.256 91.1484 214.088 91.8364 214.088C92.7484 214.088 93.4924 214.272 94.0684 214.64C94.6444 215.008 95.0524 215.544 95.2924 216.248C95.8684 215.48 96.4764 214.928 97.1164 214.592C97.7564 214.256 98.4604 214.088 99.2284 214.088C100.524 214.088 101.492 214.448 102.132 215.168C102.788 215.872 103.116 217.024 103.116 218.624V227H99.7564V219.08C99.7564 218.632 99.7164 218.272 99.6364 218C99.5564 217.712 99.4444 217.488 99.3004 217.328C99.1724 217.168 99.0124 217.056 98.8204 216.992C98.6284 216.928 98.4284 216.896 98.2204 216.896C97.8844 216.896 97.5724 216.952 97.2844 217.064C97.0124 217.176 96.7404 217.368 96.4684 217.64C96.2444 217.864 96.0604 218.12 95.9164 218.408C95.7884 218.696 95.7244 219 95.7244 219.32V227H92.3644V219.08C92.3644 218.632 92.3244 218.272 92.2444 218C92.1644 217.712 92.0524 217.488 91.9084 217.328C91.7804 217.168 91.6204 217.056 91.4284 216.992C91.2364 216.928 91.0364 216.896 90.8284 216.896C90.4924 216.896 90.1804 216.952 89.8924 217.064C89.6204 217.176 89.3484 217.368 89.0764 217.64C88.8524 217.864 88.6684 218.136 88.5244 218.456C88.3964 218.76 88.3324 219.096 88.3324 219.464V227H84.9724V214.472Z" fill="#808080"/>
<path d="M113.412 225.416C112.916 225.976 112.356 226.432 111.732 226.784C111.124 227.136 110.332 227.312 109.356 227.312C108.796 227.312 108.26 227.24 107.748 227.096C107.252 226.952 106.812 226.728 106.428 226.424C106.06 226.12 105.764 225.736 105.54 225.272C105.316 224.792 105.204 224.224 105.204 223.568C105.204 222.704 105.396 222 105.78 221.456C106.164 220.912 106.668 220.488 107.292 220.184C107.916 219.88 108.612 219.664 109.38 219.536C110.164 219.408 110.956 219.328 111.756 219.296L113.364 219.224V218.6C113.364 217.832 113.148 217.304 112.716 217.016C112.3 216.728 111.804 216.584 111.228 216.584C109.9 216.584 109.14 217.088 108.948 218.096L105.876 217.808C106.1 216.496 106.676 215.552 107.604 214.976C108.532 214.384 109.78 214.088 111.348 214.088C112.308 214.088 113.124 214.208 113.796 214.448C114.468 214.672 115.004 215 115.404 215.432C115.82 215.864 116.116 216.392 116.292 217.016C116.484 217.624 116.58 218.312 116.58 219.08V227H113.412V225.416ZM113.34 221.408L111.852 221.48C111.148 221.512 110.58 221.584 110.148 221.696C109.716 221.808 109.38 221.952 109.14 222.128C108.916 222.288 108.764 222.48 108.684 222.704C108.604 222.928 108.564 223.176 108.564 223.448C108.564 223.864 108.708 224.192 108.996 224.432C109.284 224.672 109.684 224.792 110.196 224.792C111.06 224.792 111.764 224.592 112.308 224.192C112.612 223.968 112.86 223.688 113.052 223.352C113.244 223 113.34 222.568 113.34 222.056V221.408Z" fill="#808080"/>
<path d="M119.45 214.472H122.81V227H119.45V214.472ZM119.402 209.864H122.858V212.888H119.402V209.864Z" fill="#808080"/>
<path d="M125.825 209.864H129.185V227H125.825V209.864Z" fill="#808080"/>
<path d="M137.519 209.864H140.879V215.984C141.823 214.72 143.103 214.088 144.719 214.088C146.463 214.088 147.767 214.68 148.631 215.864C149.495 217.048 149.927 218.672 149.927 220.736C149.927 221.728 149.799 222.632 149.543 223.448C149.303 224.264 148.943 224.968 148.463 225.56C147.999 226.136 147.431 226.584 146.759 226.904C146.087 227.224 145.327 227.384 144.479 227.384C143.807 227.384 143.159 227.256 142.535 227C141.911 226.744 141.327 226.28 140.783 225.608V227H137.519V209.864ZM140.855 220.832C140.855 221.648 140.919 222.304 141.047 222.8C141.191 223.28 141.415 223.672 141.719 223.976C142.039 224.264 142.359 224.456 142.679 224.552C143.015 224.632 143.351 224.672 143.687 224.672C144.055 224.672 144.407 224.6 144.743 224.456C145.079 224.312 145.367 224.088 145.607 223.784C145.863 223.464 146.063 223.056 146.207 222.56C146.351 222.064 146.423 221.464 146.423 220.76C146.423 220.024 146.351 219.408 146.207 218.912C146.079 218.416 145.895 218.016 145.655 217.712C145.415 217.392 145.127 217.168 144.791 217.04C144.471 216.896 144.127 216.824 143.759 216.824C143.343 216.824 142.983 216.88 142.679 216.992C142.375 217.104 142.079 217.28 141.791 217.52C141.471 217.824 141.231 218.208 141.071 218.672C140.927 219.136 140.855 219.728 140.855 220.448V220.832Z" fill="#808080"/>
<path d="M152.496 209.864H155.856V227H152.496V209.864Z" fill="#808080"/>
<path d="M166.287 225.416C165.791 225.976 165.231 226.432 164.607 226.784C163.999 227.136 163.207 227.312 162.231 227.312C161.671 227.312 161.135 227.24 160.623 227.096C160.127 226.952 159.687 226.728 159.303 226.424C158.935 226.12 158.639 225.736 158.415 225.272C158.191 224.792 158.079 224.224 158.079 223.568C158.079 222.704 158.271 222 158.655 221.456C159.039 220.912 159.543 220.488 160.167 220.184C160.791 219.88 161.487 219.664 162.255 219.536C163.039 219.408 163.831 219.328 164.631 219.296L166.239 219.224V218.6C166.239 217.832 166.023 217.304 165.591 217.016C165.175 216.728 164.679 216.584 164.103 216.584C162.775 216.584 162.015 217.088 161.823 218.096L158.751 217.808C158.975 216.496 159.551 215.552 160.479 214.976C161.407 214.384 162.655 214.088 164.223 214.088C165.183 214.088 165.999 214.208 166.671 214.448C167.343 214.672 167.879 215 168.279 215.432C168.695 215.864 168.991 216.392 169.167 217.016C169.359 217.624 169.455 218.312 169.455 219.08V227H166.287V225.416ZM166.215 221.408L164.727 221.48C164.023 221.512 163.455 221.584 163.023 221.696C162.591 221.808 162.255 221.952 162.015 222.128C161.791 222.288 161.639 222.48 161.559 222.704C161.479 222.928 161.439 223.176 161.439 223.448C161.439 223.864 161.583 224.192 161.871 224.432C162.159 224.672 162.559 224.792 163.071 224.792C163.935 224.792 164.639 224.592 165.183 224.192C165.487 223.968 165.735 223.688 165.927 223.352C166.119 223 166.215 222.568 166.215 222.056V221.408Z" fill="#808080"/>
<path d="M174.725 223.016C174.837 223.752 175.133 224.232 175.613 224.456C176.093 224.68 176.669 224.792 177.341 224.792C178.141 224.792 178.709 224.696 179.045 224.504C179.397 224.296 179.573 223.968 179.573 223.52C179.573 223.2 179.461 222.92 179.237 222.68C179.029 222.44 178.621 222.272 178.013 222.176L176.285 221.888C174.765 221.648 173.629 221.24 172.877 220.664C172.141 220.072 171.773 219.184 171.773 218C171.773 217.392 171.901 216.848 172.157 216.368C172.429 215.888 172.805 215.48 173.285 215.144C173.765 214.808 174.333 214.552 174.989 214.376C175.661 214.184 176.397 214.088 177.197 214.088C178.189 214.088 179.021 214.192 179.693 214.4C180.365 214.592 180.909 214.856 181.325 215.192C181.757 215.528 182.077 215.928 182.285 216.392C182.509 216.856 182.669 217.352 182.765 217.88L179.765 218.264C179.621 217.688 179.365 217.264 178.997 216.992C178.645 216.72 178.069 216.584 177.269 216.584C176.821 216.584 176.445 216.624 176.141 216.704C175.853 216.768 175.621 216.856 175.445 216.968C175.285 217.08 175.165 217.208 175.085 217.352C175.021 217.496 174.989 217.632 174.989 217.76C174.989 218.16 175.109 218.456 175.349 218.648C175.605 218.824 176.093 218.976 176.813 219.104L178.397 219.368C179.277 219.512 180.005 219.696 180.581 219.92C181.157 220.144 181.613 220.424 181.949 220.76C182.301 221.08 182.541 221.464 182.669 221.912C182.813 222.36 182.885 222.88 182.885 223.472C182.885 224.656 182.437 225.608 181.541 226.328C180.645 227.032 179.261 227.384 177.389 227.384C176.637 227.384 175.917 227.312 175.229 227.168C174.557 227.04 173.949 226.808 173.405 226.472C172.877 226.136 172.437 225.688 172.085 225.128C171.749 224.568 171.557 223.864 171.509 223.016H174.725Z" fill="#808080"/>
<path d="M185.959 217.088H183.991V214.472H185.959V211.136H189.319V214.472H192.199V217.088H189.319V222.872C189.319 223.528 189.455 223.976 189.727 224.216C189.999 224.44 190.351 224.552 190.783 224.552C191.007 224.552 191.231 224.544 191.455 224.528C191.695 224.496 191.927 224.448 192.151 224.384L192.631 226.856C192.167 227 191.711 227.096 191.263 227.144C190.831 227.208 190.415 227.24 190.015 227.24C188.639 227.24 187.615 226.912 186.943 226.256C186.287 225.6 185.959 224.496 185.959 222.944V217.088Z" fill="#808080"/>
<path d="M200.397 217.088H198.429V214.472H200.397V211.136H203.757V214.472H206.637V217.088H203.757V222.872C203.757 223.528 203.893 223.976 204.165 224.216C204.437 224.44 204.789 224.552 205.221 224.552C205.445 224.552 205.669 224.544 205.893 224.528C206.133 224.496 206.365 224.448 206.589 224.384L207.069 226.856C206.605 227 206.149 227.096 205.701 227.144C205.269 227.208 204.853 227.24 204.453 227.24C203.077 227.24 202.053 226.912 201.381 226.256C200.725 225.6 200.397 224.496 200.397 222.944V217.088Z" fill="#808080"/>
<path d="M208.722 209.864H212.082V216.056C212.578 215.384 213.154 214.888 213.81 214.568C214.466 214.248 215.154 214.088 215.874 214.088C217.298 214.088 218.354 214.464 219.042 215.216C219.73 215.952 220.074 217.12 220.074 218.72V227H216.714V219.176C216.714 218.296 216.546 217.696 216.21 217.376C215.874 217.056 215.426 216.896 214.866 216.896C214.434 216.896 214.058 216.96 213.738 217.088C213.434 217.216 213.146 217.4 212.874 217.64C212.65 217.864 212.458 218.136 212.298 218.456C212.154 218.76 212.082 219.096 212.082 219.464V227H208.722V209.864Z" fill="#808080"/>
<path d="M234.398 223.088C234.174 224.496 233.605 225.568 232.693 226.304C231.797 227.024 230.486 227.384 228.758 227.384C226.678 227.384 225.109 226.808 224.053 225.656C223.013 224.504 222.493 222.872 222.493 220.76C222.493 219.704 222.645 218.768 222.949 217.952C223.253 217.12 223.677 216.416 224.221 215.84C224.781 215.264 225.446 214.832 226.214 214.544C226.982 214.24 227.83 214.088 228.758 214.088C230.678 214.088 232.117 214.64 233.077 215.744C234.053 216.848 234.542 218.336 234.542 220.208V221.552H225.854C225.886 222.56 226.142 223.352 226.622 223.928C227.102 224.488 227.821 224.768 228.781 224.768C230.109 224.768 230.893 224.208 231.133 223.088H234.398ZM231.301 219.344C231.301 218.48 231.086 217.808 230.654 217.328C230.238 216.848 229.582 216.608 228.686 216.608C228.238 216.608 227.846 216.68 227.51 216.824C227.174 216.968 226.886 217.168 226.646 217.424C226.422 217.664 226.245 217.952 226.117 218.288C225.989 218.608 225.918 218.96 225.902 219.344H231.301Z" fill="#808080"/>
<path d="M244.826 223.016C244.938 223.752 245.234 224.232 245.714 224.456C246.194 224.68 246.77 224.792 247.442 224.792C248.242 224.792 248.81 224.696 249.146 224.504C249.498 224.296 249.674 223.968 249.674 223.52C249.674 223.2 249.562 222.92 249.338 222.68C249.13 222.44 248.722 222.272 248.114 222.176L246.386 221.888C244.866 221.648 243.73 221.24 242.978 220.664C242.242 220.072 241.874 219.184 241.874 218C241.874 217.392 242.002 216.848 242.258 216.368C242.53 215.888 242.906 215.48 243.386 215.144C243.866 214.808 244.434 214.552 245.09 214.376C245.762 214.184 246.498 214.088 247.298 214.088C248.29 214.088 249.122 214.192 249.794 214.4C250.466 214.592 251.01 214.856 251.426 215.192C251.858 215.528 252.178 215.928 252.386 216.392C252.61 216.856 252.77 217.352 252.866 217.88L249.866 218.264C249.722 217.688 249.466 217.264 249.098 216.992C248.746 216.72 248.17 216.584 247.37 216.584C246.922 216.584 246.546 216.624 246.242 216.704C245.954 216.768 245.722 216.856 245.546 216.968C245.386 217.08 245.266 217.208 245.186 217.352C245.122 217.496 245.09 217.632 245.09 217.76C245.09 218.16 245.21 218.456 245.45 218.648C245.706 218.824 246.194 218.976 246.914 219.104L248.498 219.368C249.378 219.512 250.106 219.696 250.682 219.92C251.258 220.144 251.714 220.424 252.05 220.76C252.402 221.08 252.642 221.464 252.77 221.912C252.914 222.36 252.986 222.88 252.986 223.472C252.986 224.656 252.538 225.608 251.642 226.328C250.746 227.032 249.362 227.384 247.49 227.384C246.738 227.384 246.018 227.312 245.33 227.168C244.658 227.04 244.05 226.808 243.506 226.472C242.978 226.136 242.538 225.688 242.186 225.128C241.85 224.568 241.658 223.864 241.61 223.016H244.826Z" fill="#808080"/>
<path d="M262.733 225.416C262.237 225.976 261.677 226.432 261.053 226.784C260.445 227.136 259.653 227.312 258.677 227.312C258.117 227.312 257.581 227.24 257.069 227.096C256.573 226.952 256.133 226.728 255.749 226.424C255.381 226.12 255.085 225.736 254.861 225.272C254.637 224.792 254.525 224.224 254.525 223.568C254.525 222.704 254.717 222 255.101 221.456C255.485 220.912 255.989 220.488 256.613 220.184C257.237 219.88 257.933 219.664 258.701 219.536C259.485 219.408 260.277 219.328 261.077 219.296L262.685 219.224V218.6C262.685 217.832 262.469 217.304 262.037 217.016C261.621 216.728 261.125 216.584 260.549 216.584C259.221 216.584 258.461 217.088 258.269 218.096L255.197 217.808C255.421 216.496 255.997 215.552 256.925 214.976C257.853 214.384 259.101 214.088 260.669 214.088C261.629 214.088 262.445 214.208 263.117 214.448C263.789 214.672 264.325 215 264.725 215.432C265.141 215.864 265.437 216.392 265.613 217.016C265.805 217.624 265.901 218.312 265.901 219.08V227H262.733V225.416ZM262.661 221.408L261.173 221.48C260.469 221.512 259.901 221.584 259.469 221.696C259.037 221.808 258.701 221.952 258.461 222.128C258.237 222.288 258.085 222.48 258.005 222.704C257.925 222.928 257.885 223.176 257.885 223.448C257.885 223.864 258.029 224.192 258.317 224.432C258.605 224.672 259.005 224.792 259.517 224.792C260.381 224.792 261.085 224.592 261.629 224.192C261.933 223.968 262.181 223.688 262.373 223.352C262.565 223 262.661 222.568 262.661 222.056V221.408Z" fill="#808080"/>
<path d="M268.746 214.472H272.01V216.152C272.474 215.448 273.018 214.928 273.642 214.592C274.266 214.256 274.922 214.088 275.61 214.088C276.522 214.088 277.266 214.272 277.842 214.64C278.418 215.008 278.826 215.544 279.066 216.248C279.642 215.48 280.25 214.928 280.89 214.592C281.53 214.256 282.234 214.088 283.002 214.088C284.298 214.088 285.266 214.448 285.906 215.168C286.562 215.872 286.89 217.024 286.89 218.624V227H283.53V219.08C283.53 218.632 283.49 218.272 283.41 218C283.33 217.712 283.218 217.488 283.074 217.328C282.946 217.168 282.786 217.056 282.594 216.992C282.402 216.928 282.202 216.896 281.994 216.896C281.658 216.896 281.346 216.952 281.058 217.064C280.786 217.176 280.514 217.368 280.242 217.64C280.018 217.864 279.834 218.12 279.69 218.408C279.562 218.696 279.498 219 279.498 219.32V227H276.138V219.08C276.138 218.632 276.098 218.272 276.018 218C275.938 217.712 275.826 217.488 275.682 217.328C275.554 217.168 275.394 217.056 275.202 216.992C275.01 216.928 274.81 216.896 274.602 216.896C274.266 216.896 273.954 216.952 273.666 217.064C273.394 217.176 273.122 217.368 272.85 217.64C272.626 217.864 272.442 218.136 272.298 218.456C272.17 218.76 272.106 219.096 272.106 219.464V227H268.746V214.472Z" fill="#808080"/>
<path d="M301.218 223.088C300.994 224.496 300.426 225.568 299.514 226.304C298.618 227.024 297.306 227.384 295.578 227.384C293.498 227.384 291.93 226.808 290.874 225.656C289.834 224.504 289.314 222.872 289.314 220.76C289.314 219.704 289.466 218.768 289.77 217.952C290.074 217.12 290.498 216.416 291.042 215.84C291.602 215.264 292.266 214.832 293.034 214.544C293.802 214.24 294.65 214.088 295.578 214.088C297.498 214.088 298.938 214.64 299.898 215.744C300.874 216.848 301.362 218.336 301.362 220.208V221.552H292.674C292.706 222.56 292.962 223.352 293.442 223.928C293.922 224.488 294.642 224.768 295.602 224.768C296.93 224.768 297.714 224.208 297.954 223.088H301.218ZM298.122 219.344C298.122 218.48 297.906 217.808 297.474 217.328C297.058 216.848 296.402 216.608 295.506 216.608C295.058 216.608 294.666 216.68 294.33 216.824C293.994 216.968 293.706 217.168 293.466 217.424C293.242 217.664 293.066 217.952 292.938 218.288C292.81 218.608 292.738 218.96 292.722 219.344H298.122Z" fill="#808080"/>
<path d="M309.222 214.472H312.486V216.2C312.982 215.464 313.566 214.928 314.238 214.592C314.926 214.256 315.638 214.088 316.374 214.088C317.798 214.088 318.854 214.464 319.542 215.216C320.23 215.952 320.574 217.12 320.574 218.72V227H317.214V219.176C317.214 218.296 317.046 217.696 316.71 217.376C316.374 217.056 315.926 216.896 315.366 216.896C314.934 216.896 314.558 216.96 314.238 217.088C313.934 217.216 313.646 217.4 313.374 217.64C313.15 217.864 312.958 218.136 312.798 218.456C312.654 218.76 312.582 219.096 312.582 219.464V227H309.222V214.472Z" fill="#808080"/>
<path d="M329.329 227.384C327.313 227.384 325.754 226.808 324.65 225.656C323.546 224.504 322.993 222.856 322.993 220.712C322.993 219.688 323.138 218.768 323.426 217.952C323.73 217.12 324.153 216.424 324.697 215.864C325.257 215.288 325.93 214.848 326.714 214.544C327.498 214.24 328.369 214.088 329.329 214.088C330.305 214.088 331.186 214.24 331.97 214.544C332.754 214.848 333.417 215.288 333.961 215.864C334.521 216.424 334.945 217.12 335.233 217.952C335.521 218.768 335.665 219.688 335.665 220.712C335.665 221.752 335.514 222.688 335.21 223.52C334.922 224.336 334.498 225.032 333.938 225.608C333.394 226.184 332.729 226.624 331.945 226.928C331.161 227.232 330.289 227.384 329.329 227.384ZM329.329 224.696C330.289 224.696 331.002 224.352 331.466 223.664C331.946 222.976 332.185 221.992 332.185 220.712C332.185 219.432 331.946 218.456 331.466 217.784C331.002 217.112 330.289 216.776 329.329 216.776C328.369 216.776 327.649 217.112 327.169 217.784C326.705 218.456 326.474 219.432 326.474 220.712C326.474 222.008 326.705 223 327.169 223.688C327.633 224.36 328.353 224.696 329.329 224.696Z" fill="#808080"/>
<path d="M338.983 217.088H337.015V214.472H338.983V211.136H342.343V214.472H345.223V217.088H342.343V222.872C342.343 223.528 342.479 223.976 342.751 224.216C343.023 224.44 343.375 224.552 343.807 224.552C344.031 224.552 344.255 224.544 344.479 224.528C344.719 224.496 344.951 224.448 345.175 224.384L345.655 226.856C345.191 227 344.735 227.096 344.287 227.144C343.855 227.208 343.439 227.24 343.039 227.24C341.663 227.24 340.639 226.912 339.967 226.256C339.311 225.6 338.983 224.496 338.983 222.944V217.088Z" fill="#808080"/>
<path d="M358.546 223.088C358.322 224.496 357.754 225.568 356.842 226.304C355.946 227.024 354.634 227.384 352.906 227.384C350.826 227.384 349.258 226.808 348.202 225.656C347.162 224.504 346.642 222.872 346.642 220.76C346.642 219.704 346.794 218.768 347.098 217.952C347.402 217.12 347.826 216.416 348.37 215.84C348.93 215.264 349.594 214.832 350.362 214.544C351.13 214.24 351.978 214.088 352.906 214.088C354.826 214.088 356.266 214.64 357.226 215.744C358.202 216.848 358.69 218.336 358.69 220.208V221.552H350.002C350.034 222.56 350.29 223.352 350.77 223.928C351.25 224.488 351.97 224.768 352.93 224.768C354.258 224.768 355.042 224.208 355.282 223.088H358.546ZM355.45 219.344C355.45 218.48 355.234 217.808 354.802 217.328C354.386 216.848 353.73 216.608 352.834 216.608C352.386 216.608 351.994 216.68 351.658 216.824C351.322 216.968 351.034 217.168 350.794 217.424C350.57 217.664 350.394 217.952 350.266 218.288C350.138 218.608 350.066 218.96 350.05 219.344H355.45Z" fill="#808080"/>
<path d="M373.991 225.416C373.495 225.976 372.934 226.432 372.31 226.784C371.702 227.136 370.911 227.312 369.935 227.312C369.375 227.312 368.839 227.24 368.327 227.096C367.831 226.952 367.391 226.728 367.007 226.424C366.639 226.12 366.342 225.736 366.118 225.272C365.894 224.792 365.783 224.224 365.783 223.568C365.783 222.704 365.974 222 366.358 221.456C366.742 220.912 367.247 220.488 367.871 220.184C368.495 219.88 369.19 219.664 369.958 219.536C370.742 219.408 371.535 219.328 372.335 219.296L373.943 219.224V218.6C373.943 217.832 373.726 217.304 373.294 217.016C372.878 216.728 372.382 216.584 371.806 216.584C370.478 216.584 369.718 217.088 369.526 218.096L366.454 217.808C366.678 216.496 367.254 215.552 368.182 214.976C369.11 214.384 370.359 214.088 371.927 214.088C372.887 214.088 373.703 214.208 374.375 214.448C375.047 214.672 375.583 215 375.983 215.432C376.399 215.864 376.695 216.392 376.871 217.016C377.063 217.624 377.159 218.312 377.159 219.08V227H373.991V225.416ZM373.918 221.408L372.431 221.48C371.727 221.512 371.159 221.584 370.727 221.696C370.295 221.808 369.959 221.952 369.719 222.128C369.495 222.288 369.343 222.48 369.263 222.704C369.183 222.928 369.142 223.176 369.142 223.448C369.142 223.864 369.286 224.192 369.574 224.432C369.862 224.672 370.263 224.792 370.775 224.792C371.639 224.792 372.343 224.592 372.887 224.192C373.191 223.968 373.438 223.688 373.63 223.352C373.822 223 373.918 222.568 373.918 222.056V221.408Z" fill="#808080"/>
<path d="M380.004 214.472H383.268V216.2C383.764 215.464 384.348 214.928 385.02 214.592C385.708 214.256 386.42 214.088 387.156 214.088C388.58 214.088 389.636 214.464 390.324 215.216C391.012 215.952 391.356 217.12 391.356 218.72V227H387.996V219.176C387.996 218.296 387.828 217.696 387.492 217.376C387.156 217.056 386.708 216.896 386.148 216.896C385.716 216.896 385.34 216.96 385.02 217.088C384.716 217.216 384.428 217.4 384.156 217.64C383.932 217.864 383.74 218.136 383.58 218.456C383.436 218.76 383.364 219.096 383.364 219.464V227H380.004V214.472Z" fill="#808080"/>
<path d="M402.895 225.344C401.935 226.704 400.639 227.384 399.007 227.384C397.247 227.384 395.935 226.792 395.071 225.608C394.207 224.424 393.775 222.784 393.775 220.688C393.775 219.712 393.895 218.824 394.135 218.024C394.391 217.208 394.751 216.512 395.215 215.936C395.679 215.344 396.247 214.888 396.919 214.568C397.591 214.248 398.351 214.088 399.199 214.088C399.823 214.088 400.439 214.2 401.047 214.424C401.671 214.648 402.255 215.08 402.799 215.72V209.864H406.159V227H402.895V225.344ZM402.823 220.592C402.823 219.792 402.751 219.152 402.607 218.672C402.479 218.192 402.263 217.8 401.959 217.496C401.671 217.208 401.351 217.024 400.999 216.944C400.663 216.848 400.327 216.8 399.991 216.8C399.623 216.8 399.271 216.872 398.935 217.016C398.615 217.16 398.327 217.384 398.071 217.688C397.831 217.992 397.639 218.392 397.495 218.888C397.351 219.384 397.279 219.976 397.279 220.664C397.279 221.416 397.343 222.048 397.471 222.56C397.615 223.056 397.807 223.464 398.047 223.784C398.287 224.088 398.567 224.312 398.887 224.456C399.207 224.584 399.551 224.648 399.919 224.648C400.719 224.648 401.375 224.416 401.887 223.952C402.207 223.632 402.439 223.248 402.583 222.8C402.743 222.336 402.823 221.744 402.823 221.024V220.592Z" fill="#808080"/>
<path d="M417.984 227.792C418.048 228.112 418.136 228.368 418.248 228.56C418.376 228.752 418.536 228.904 418.728 229.016C418.936 229.128 419.176 229.2 419.448 229.232C419.736 229.28 420.08 229.304 420.48 229.304C421.104 229.304 421.592 229.184 421.944 228.944C422.296 228.72 422.552 228.416 422.712 228.032C422.888 227.648 422.992 227.208 423.024 226.712C423.072 226.216 423.096 225.704 423.096 225.176V224.792C422.68 225.4 422.144 225.864 421.488 226.184C420.848 226.488 420.12 226.64 419.304 226.64C417.544 226.64 416.224 226.072 415.344 224.936C414.48 223.8 414.048 222.272 414.048 220.352C414.048 219.44 414.168 218.6 414.408 217.832C414.664 217.064 415.024 216.408 415.488 215.864C415.952 215.304 416.52 214.872 417.192 214.568C417.88 214.248 418.648 214.088 419.496 214.088C420.168 214.088 420.816 214.216 421.44 214.472C422.08 214.728 422.664 215.2 423.192 215.888V214.472H426.456V225.248C426.456 226.304 426.344 227.24 426.12 228.056C425.912 228.888 425.568 229.592 425.088 230.168C424.624 230.744 424.008 231.176 423.24 231.464C422.488 231.768 421.568 231.92 420.48 231.92C419.472 231.92 418.608 231.832 417.888 231.656C417.184 231.496 416.6 231.24 416.136 230.888C415.672 230.552 415.312 230.12 415.056 229.592C414.816 229.08 414.656 228.48 414.576 227.792H417.984ZM423.12 220.304C423.12 219.552 423.032 218.944 422.856 218.48C422.696 218.016 422.48 217.664 422.208 217.424C421.936 217.168 421.632 217 421.296 216.92C420.96 216.84 420.624 216.8 420.288 216.8C419.92 216.8 419.568 216.864 419.232 216.992C418.912 217.12 418.624 217.328 418.368 217.616C418.128 217.904 417.936 218.272 417.792 218.72C417.648 219.168 417.576 219.704 417.576 220.328C417.576 221.656 417.824 222.6 418.32 223.16C418.832 223.704 419.464 223.976 420.216 223.976C420.632 223.976 421.016 223.92 421.368 223.808C421.736 223.68 422.048 223.488 422.304 223.232C422.56 222.96 422.76 222.616 422.904 222.2C423.048 221.768 423.12 221.248 423.12 220.64V220.304Z" fill="#808080"/>
<path d="M440.905 223.088C440.681 224.496 440.113 225.568 439.201 226.304C438.305 227.024 436.993 227.384 435.265 227.384C433.185 227.384 431.617 226.808 430.561 225.656C429.521 224.504 429.001 222.872 429.001 220.76C429.001 219.704 429.153 218.768 429.457 217.952C429.761 217.12 430.185 216.416 430.729 215.84C431.289 215.264 431.953 214.832 432.721 214.544C433.489 214.24 434.337 214.088 435.265 214.088C437.185 214.088 438.625 214.64 439.585 215.744C440.561 216.848 441.049 218.336 441.049 220.208V221.552H432.361C432.393 222.56 432.649 223.352 433.129 223.928C433.609 224.488 434.329 224.768 435.289 224.768C436.617 224.768 437.401 224.208 437.641 223.088H440.905ZM437.809 219.344C437.809 218.48 437.593 217.808 437.161 217.328C436.745 216.848 436.089 216.608 435.193 216.608C434.745 216.608 434.353 216.68 434.017 216.824C433.681 216.968 433.393 217.168 433.153 217.424C432.929 217.664 432.753 217.952 432.625 218.288C432.497 218.608 432.425 218.96 432.409 219.344H437.809Z" fill="#808080"/>
<path d="M444.334 217.088H442.366V214.472H444.334V211.136H447.694V214.472H450.574V217.088H447.694V222.872C447.694 223.528 447.83 223.976 448.102 224.216C448.374 224.44 448.726 224.552 449.158 224.552C449.382 224.552 449.606 224.544 449.83 224.528C450.07 224.496 450.302 224.448 450.526 224.384L451.006 226.856C450.542 227 450.086 227.096 449.638 227.144C449.206 227.208 448.79 227.24 448.39 227.24C447.014 227.24 445.99 226.912 445.318 226.256C444.662 225.6 444.334 224.496 444.334 222.944V217.088Z" fill="#808080"/>
<path d="M458.772 217.088H456.804V214.472H458.772V211.136H462.132V214.472H465.012V217.088H462.132V222.872C462.132 223.528 462.268 223.976 462.54 224.216C462.812 224.44 463.164 224.552 463.596 224.552C463.82 224.552 464.044 224.544 464.268 224.528C464.508 224.496 464.74 224.448 464.964 224.384L465.444 226.856C464.98 227 464.524 227.096 464.076 227.144C463.644 227.208 463.228 227.24 462.828 227.24C461.452 227.24 460.428 226.912 459.756 226.256C459.1 225.6 458.772 224.496 458.772 222.944V217.088Z" fill="#808080"/>
<path d="M467.097 209.864H470.457V216.056C470.953 215.384 471.529 214.888 472.185 214.568C472.841 214.248 473.529 214.088 474.249 214.088C475.673 214.088 476.729 214.464 477.417 215.216C478.105 215.952 478.449 217.12 478.449 218.72V227H475.089V219.176C475.089 218.296 474.921 217.696 474.585 217.376C474.249 217.056 473.801 216.896 473.241 216.896C472.809 216.896 472.433 216.96 472.113 217.088C471.809 217.216 471.521 217.4 471.249 217.64C471.025 217.864 470.833 218.136 470.673 218.456C470.529 218.76 470.457 219.096 470.457 219.464V227H467.097V209.864Z" fill="#808080"/>
<path d="M492.772 223.088C492.548 224.496 491.981 225.568 491.069 226.304C490.173 227.024 488.861 227.384 487.133 227.384C485.053 227.384 483.484 226.808 482.428 225.656C481.388 224.504 480.868 222.872 480.868 220.76C480.868 219.704 481.02 218.768 481.324 217.952C481.628 217.12 482.052 216.416 482.596 215.84C483.156 215.264 483.821 214.832 484.589 214.544C485.357 214.24 486.205 214.088 487.133 214.088C489.053 214.088 490.493 214.64 491.453 215.744C492.429 216.848 492.917 218.336 492.917 220.208V221.552H484.229C484.261 222.56 484.516 223.352 484.996 223.928C485.476 224.488 486.196 224.768 487.156 224.768C488.484 224.768 489.269 224.208 489.509 223.088H492.772ZM489.677 219.344C489.677 218.48 489.461 217.808 489.029 217.328C488.613 216.848 487.956 216.608 487.06 216.608C486.612 216.608 486.22 216.68 485.884 216.824C485.548 216.968 485.261 217.168 485.021 217.424C484.797 217.664 484.62 217.952 484.492 218.288C484.364 218.608 484.292 218.96 484.276 219.344H489.677Z" fill="#808080"/>
<path d="M70.488 244.472H73.752V246.128C74.712 244.768 76.024 244.088 77.688 244.088C79.432 244.088 80.736 244.68 81.6 245.864C82.464 247.048 82.896 248.672 82.896 250.736C82.896 251.728 82.768 252.632 82.512 253.448C82.272 254.264 81.912 254.968 81.432 255.56C80.968 256.136 80.4 256.584 79.728 256.904C79.056 257.224 78.296 257.384 77.448 257.384C76.824 257.384 76.2 257.272 75.576 257.048C74.968 256.824 74.392 256.376 73.848 255.704V261.656H70.488V244.472ZM73.824 250.832C73.824 251.648 73.888 252.304 74.016 252.8C74.16 253.28 74.384 253.672 74.688 253.976C75.008 254.264 75.328 254.456 75.648 254.552C75.984 254.632 76.32 254.672 76.656 254.672C77.024 254.672 77.376 254.6 77.712 254.456C78.048 254.312 78.336 254.088 78.576 253.784C78.832 253.464 79.032 253.056 79.176 252.56C79.32 252.064 79.392 251.464 79.392 250.76C79.392 250.024 79.32 249.408 79.176 248.912C79.048 248.416 78.864 248.016 78.624 247.712C78.384 247.392 78.096 247.168 77.76 247.04C77.44 246.896 77.096 246.824 76.728 246.824C76.312 246.824 75.952 246.88 75.648 246.992C75.344 247.104 75.048 247.28 74.76 247.52C74.44 247.824 74.2 248.208 74.04 248.672C73.896 249.136 73.824 249.728 73.824 250.448V250.832Z" fill="#808080"/>
<path d="M96.6788 253.088C96.4548 254.496 95.8868 255.568 94.9748 256.304C94.0788 257.024 92.7668 257.384 91.0388 257.384C88.9588 257.384 87.3908 256.808 86.3348 255.656C85.2948 254.504 84.7748 252.872 84.7748 250.76C84.7748 249.704 84.9268 248.768 85.2308 247.952C85.5348 247.12 85.9588 246.416 86.5028 245.84C87.0628 245.264 87.7268 244.832 88.4948 244.544C89.2628 244.24 90.1108 244.088 91.0388 244.088C92.9588 244.088 94.3988 244.64 95.3588 245.744C96.3348 246.848 96.8228 248.336 96.8228 250.208V251.552H88.1348C88.1668 252.56 88.4228 253.352 88.9028 253.928C89.3828 254.488 90.1028 254.768 91.0628 254.768C92.3908 254.768 93.1748 254.208 93.4148 253.088H96.6788ZM93.5828 249.344C93.5828 248.48 93.3668 247.808 92.9348 247.328C92.5188 246.848 91.8628 246.608 90.9668 246.608C90.5188 246.608 90.1268 246.68 89.7908 246.824C89.4548 246.968 89.1668 247.168 88.9268 247.424C88.7028 247.664 88.5268 247.952 88.3988 248.288C88.2708 248.608 88.1988 248.96 88.1828 249.344H93.5828Z" fill="#808080"/>
<path d="M99.3396 244.472H102.604V246.224C103.02 245.568 103.524 245.08 104.116 244.76C104.708 244.424 105.332 244.256 105.988 244.256C106.308 244.256 106.572 244.272 106.78 244.304C106.988 244.32 107.172 244.344 107.332 244.376L106.924 247.424C106.54 247.328 106.068 247.28 105.508 247.28C105.14 247.28 104.788 247.328 104.452 247.424C104.116 247.504 103.812 247.664 103.54 247.904C103.252 248.16 103.036 248.448 102.892 248.768C102.764 249.088 102.7 249.416 102.7 249.752V257H99.3396V244.472Z" fill="#808080"/>
<path d="M111.584 253.016C111.696 253.752 111.992 254.232 112.472 254.456C112.952 254.68 113.528 254.792 114.2 254.792C115 254.792 115.568 254.696 115.904 254.504C116.256 254.296 116.432 253.968 116.432 253.52C116.432 253.2 116.32 252.92 116.096 252.68C115.888 252.44 115.48 252.272 114.872 252.176L113.144 251.888C111.624 251.648 110.488 251.24 109.736 250.664C109 250.072 108.632 249.184 108.632 248C108.632 247.392 108.76 246.848 109.016 246.368C109.288 245.888 109.664 245.48 110.144 245.144C110.624 244.808 111.192 244.552 111.848 244.376C112.52 244.184 113.256 244.088 114.056 244.088C115.048 244.088 115.88 244.192 116.552 244.4C117.224 244.592 117.768 244.856 118.184 245.192C118.616 245.528 118.936 245.928 119.144 246.392C119.368 246.856 119.528 247.352 119.624 247.88L116.624 248.264C116.48 247.688 116.224 247.264 115.856 246.992C115.504 246.72 114.928 246.584 114.128 246.584C113.68 246.584 113.304 246.624 113 246.704C112.712 246.768 112.48 246.856 112.304 246.968C112.144 247.08 112.024 247.208 111.944 247.352C111.88 247.496 111.848 247.632 111.848 247.76C111.848 248.16 111.968 248.456 112.208 248.648C112.464 248.824 112.952 248.976 113.672 249.104L115.256 249.368C116.136 249.512 116.864 249.696 117.44 249.92C118.016 250.144 118.472 250.424 118.808 250.76C119.16 251.08 119.4 251.464 119.528 251.912C119.672 252.36 119.744 252.88 119.744 253.472C119.744 254.656 119.296 255.608 118.4 256.328C117.504 257.032 116.12 257.384 114.248 257.384C113.496 257.384 112.776 257.312 112.088 257.168C111.416 257.04 110.808 256.808 110.264 256.472C109.736 256.136 109.296 255.688 108.944 255.128C108.608 254.568 108.416 253.864 108.368 253.016H111.584Z" fill="#808080"/>
<path d="M127.72 257.384C125.704 257.384 124.144 256.808 123.04 255.656C121.936 254.504 121.384 252.856 121.384 250.712C121.384 249.688 121.528 248.768 121.816 247.952C122.12 247.12 122.544 246.424 123.088 245.864C123.648 245.288 124.32 244.848 125.104 244.544C125.888 244.24 126.76 244.088 127.72 244.088C128.696 244.088 129.576 244.24 130.36 244.544C131.144 244.848 131.808 245.288 132.352 245.864C132.912 246.424 133.336 247.12 133.624 247.952C133.912 248.768 134.056 249.688 134.056 250.712C134.056 251.752 133.904 252.688 133.6 253.52C133.312 254.336 132.888 255.032 132.328 255.608C131.784 256.184 131.12 256.624 130.336 256.928C129.552 257.232 128.68 257.384 127.72 257.384ZM127.72 254.696C128.68 254.696 129.392 254.352 129.856 253.664C130.336 252.976 130.576 251.992 130.576 250.712C130.576 249.432 130.336 248.456 129.856 247.784C129.392 247.112 128.68 246.776 127.72 246.776C126.76 246.776 126.04 247.112 125.56 247.784C125.096 248.456 124.864 249.432 124.864 250.712C124.864 252.008 125.096 253 125.56 253.688C126.024 254.36 126.744 254.696 127.72 254.696Z" fill="#808080"/>
<path d="M136.605 244.472H139.869V246.2C140.365 245.464 140.949 244.928 141.621 244.592C142.309 244.256 143.021 244.088 143.757 244.088C145.181 244.088 146.237 244.464 146.925 245.216C147.613 245.952 147.957 247.12 147.957 248.72V257H144.597V249.176C144.597 248.296 144.429 247.696 144.093 247.376C143.757 247.056 143.309 246.896 142.749 246.896C142.317 246.896 141.941 246.96 141.621 247.088C141.317 247.216 141.029 247.4 140.757 247.64C140.533 247.864 140.341 248.136 140.181 248.456C140.037 248.76 139.965 249.096 139.965 249.464V257H136.605V244.472Z" fill="#808080"/>
<path d="M150.388 239.864H153.652L152.164 245.984H149.596L150.388 239.864Z" fill="#808080"/>
<path d="M158.553 253.016C158.665 253.752 158.961 254.232 159.441 254.456C159.921 254.68 160.497 254.792 161.169 254.792C161.969 254.792 162.537 254.696 162.873 254.504C163.225 254.296 163.401 253.968 163.401 253.52C163.401 253.2 163.289 252.92 163.065 252.68C162.857 252.44 162.449 252.272 161.841 252.176L160.113 251.888C158.593 251.648 157.457 251.24 156.705 250.664C155.969 250.072 155.601 249.184 155.601 248C155.601 247.392 155.729 246.848 155.985 246.368C156.257 245.888 156.633 245.48 157.113 245.144C157.593 244.808 158.161 244.552 158.817 244.376C159.489 244.184 160.225 244.088 161.025 244.088C162.017 244.088 162.849 244.192 163.521 244.4C164.193 244.592 164.737 244.856 165.153 245.192C165.585 245.528 165.905 245.928 166.113 246.392C166.337 246.856 166.497 247.352 166.593 247.88L163.593 248.264C163.449 247.688 163.193 247.264 162.825 246.992C162.473 246.72 161.897 246.584 161.097 246.584C160.649 246.584 160.273 246.624 159.969 246.704C159.681 246.768 159.449 246.856 159.273 246.968C159.113 247.08 158.993 247.208 158.913 247.352C158.849 247.496 158.817 247.632 158.817 247.76C158.817 248.16 158.937 248.456 159.177 248.648C159.433 248.824 159.921 248.976 160.641 249.104L162.225 249.368C163.105 249.512 163.833 249.696 164.409 249.92C164.985 250.144 165.441 250.424 165.777 250.76C166.129 251.08 166.369 251.464 166.497 251.912C166.641 252.36 166.713 252.88 166.713 253.472C166.713 254.656 166.265 255.608 165.369 256.328C164.473 257.032 163.089 257.384 161.217 257.384C160.465 257.384 159.745 257.312 159.057 257.168C158.385 257.04 157.777 256.808 157.233 256.472C156.705 256.136 156.265 255.688 155.913 255.128C155.577 254.568 155.385 253.864 155.337 253.016H158.553Z" fill="#808080"/>
<path d="M174.363 244.472H177.627V246.2C178.123 245.464 178.707 244.928 179.379 244.592C180.067 244.256 180.779 244.088 181.515 244.088C182.939 244.088 183.995 244.464 184.683 245.216C185.371 245.952 185.715 247.12 185.715 248.72V257H182.355V249.176C182.355 248.296 182.187 247.696 181.851 247.376C181.515 247.056 181.067 246.896 180.507 246.896C180.075 246.896 179.699 246.96 179.379 247.088C179.075 247.216 178.787 247.4 178.515 247.64C178.291 247.864 178.099 248.136 177.939 248.456C177.795 248.76 177.723 249.096 177.723 249.464V257H174.363V244.472Z" fill="#808080"/>
<path d="M196.006 255.416C195.51 255.976 194.95 256.432 194.326 256.784C193.718 257.136 192.926 257.312 191.95 257.312C191.39 257.312 190.854 257.24 190.342 257.096C189.846 256.952 189.406 256.728 189.022 256.424C188.654 256.12 188.358 255.736 188.134 255.272C187.91 254.792 187.798 254.224 187.798 253.568C187.798 252.704 187.99 252 188.374 251.456C188.758 250.912 189.262 250.488 189.886 250.184C190.51 249.88 191.206 249.664 191.974 249.536C192.758 249.408 193.55 249.328 194.35 249.296L195.958 249.224V248.6C195.958 247.832 195.742 247.304 195.31 247.016C194.894 246.728 194.398 246.584 193.822 246.584C192.494 246.584 191.734 247.088 191.542 248.096L188.47 247.808C188.694 246.496 189.27 245.552 190.198 244.976C191.126 244.384 192.374 244.088 193.942 244.088C194.902 244.088 195.718 244.208 196.39 244.448C197.062 244.672 197.598 245 197.998 245.432C198.414 245.864 198.71 246.392 198.886 247.016C199.078 247.624 199.174 248.312 199.174 249.08V257H196.006V255.416ZM195.934 251.408L194.446 251.48C193.742 251.512 193.174 251.584 192.742 251.696C192.31 251.808 191.974 251.952 191.734 252.128C191.51 252.288 191.358 252.48 191.278 252.704C191.198 252.928 191.158 253.176 191.158 253.448C191.158 253.864 191.302 254.192 191.59 254.432C191.878 254.672 192.278 254.792 192.79 254.792C193.654 254.792 194.358 254.592 194.902 254.192C195.206 253.968 195.454 253.688 195.646 253.352C195.838 253 195.934 252.568 195.934 252.056V251.408Z" fill="#808080"/>
<path d="M202.019 244.472H205.283V246.152C205.747 245.448 206.291 244.928 206.915 244.592C207.539 244.256 208.195 244.088 208.883 244.088C209.795 244.088 210.539 244.272 211.115 244.64C211.691 245.008 212.099 245.544 212.339 246.248C212.915 245.48 213.523 244.928 214.163 244.592C214.803 244.256 215.507 244.088 216.275 244.088C217.571 244.088 218.539 244.448 219.179 245.168C219.835 245.872 220.163 247.024 220.163 248.624V257H216.803V249.08C216.803 248.632 216.763 248.272 216.683 248C216.603 247.712 216.491 247.488 216.347 247.328C216.219 247.168 216.059 247.056 215.867 246.992C215.675 246.928 215.475 246.896 215.267 246.896C214.931 246.896 214.619 246.952 214.331 247.064C214.059 247.176 213.787 247.368 213.515 247.64C213.291 247.864 213.107 248.12 212.963 248.408C212.835 248.696 212.771 249 212.771 249.32V257H209.411V249.08C209.411 248.632 209.371 248.272 209.291 248C209.211 247.712 209.099 247.488 208.955 247.328C208.827 247.168 208.667 247.056 208.475 246.992C208.283 246.928 208.083 246.896 207.875 246.896C207.539 246.896 207.227 246.952 206.939 247.064C206.667 247.176 206.395 247.368 206.123 247.64C205.899 247.864 205.715 248.136 205.571 248.456C205.443 248.76 205.379 249.096 205.379 249.464V257H202.019V244.472Z" fill="#808080"/>
<path d="M234.491 253.088C234.267 254.496 233.699 255.568 232.787 256.304C231.891 257.024 230.579 257.384 228.851 257.384C226.771 257.384 225.203 256.808 224.147 255.656C223.107 254.504 222.587 252.872 222.587 250.76C222.587 249.704 222.739 248.768 223.043 247.952C223.347 247.12 223.771 246.416 224.315 245.84C224.875 245.264 225.539 244.832 226.307 244.544C227.075 244.24 227.923 244.088 228.851 244.088C230.771 244.088 232.211 244.64 233.171 245.744C234.147 246.848 234.635 248.336 234.635 250.208V251.552H225.947C225.979 252.56 226.235 253.352 226.715 253.928C227.195 254.488 227.915 254.768 228.875 254.768C230.203 254.768 230.987 254.208 231.227 253.088H234.491ZM231.395 249.344C231.395 248.48 231.179 247.808 230.747 247.328C230.331 246.848 229.675 246.608 228.779 246.608C228.331 246.608 227.939 246.68 227.603 246.824C227.267 246.968 226.979 247.168 226.739 247.424C226.515 247.664 226.339 247.952 226.211 248.288C226.083 248.608 226.011 248.96 225.995 249.344H231.395Z" fill="#808080"/>
<path d="M241.152 244.472H244.8L246.552 252.776L248.952 244.568H251.88L254.16 252.776L255.912 244.472H259.416L255.768 257H252.504L250.272 248.744L248.016 257H244.8L241.152 244.472Z" fill="#808080"/>
<path d="M261.058 244.472H264.322V246.224C264.738 245.568 265.242 245.08 265.834 244.76C266.426 244.424 267.05 244.256 267.706 244.256C268.026 244.256 268.29 244.272 268.498 244.304C268.706 244.32 268.89 244.344 269.05 244.376L268.642 247.424C268.258 247.328 267.786 247.28 267.226 247.28C266.858 247.28 266.506 247.328 266.17 247.424C265.834 247.504 265.53 247.664 265.258 247.904C264.97 248.16 264.754 248.448 264.61 248.768C264.482 249.088 264.418 249.416 264.418 249.752V257H261.058V244.472Z" fill="#808080"/>
<path d="M276.408 257.384C274.392 257.384 272.832 256.808 271.728 255.656C270.624 254.504 270.072 252.856 270.072 250.712C270.072 249.688 270.216 248.768 270.504 247.952C270.808 247.12 271.232 246.424 271.776 245.864C272.336 245.288 273.008 244.848 273.792 244.544C274.576 244.24 275.448 244.088 276.408 244.088C277.384 244.088 278.264 244.24 279.048 244.544C279.832 244.848 280.496 245.288 281.04 245.864C281.6 246.424 282.024 247.12 282.312 247.952C282.6 248.768 282.744 249.688 282.744 250.712C282.744 251.752 282.592 252.688 282.288 253.52C282 254.336 281.576 255.032 281.016 255.608C280.472 256.184 279.808 256.624 279.024 256.928C278.24 257.232 277.368 257.384 276.408 257.384ZM276.408 254.696C277.368 254.696 278.08 254.352 278.544 253.664C279.024 252.976 279.264 251.992 279.264 250.712C279.264 249.432 279.024 248.456 278.544 247.784C278.08 247.112 277.368 246.776 276.408 246.776C275.448 246.776 274.728 247.112 274.248 247.784C273.784 248.456 273.552 249.432 273.552 250.712C273.552 252.008 273.784 253 274.248 253.688C274.712 254.36 275.432 254.696 276.408 254.696Z" fill="#808080"/>
<path d="M285.293 244.472H288.557V246.2C289.053 245.464 289.637 244.928 290.309 244.592C290.997 244.256 291.709 244.088 292.445 244.088C293.869 244.088 294.925 244.464 295.613 245.216C296.301 245.952 296.645 247.12 296.645 248.72V257H293.285V249.176C293.285 248.296 293.117 247.696 292.781 247.376C292.445 247.056 291.997 246.896 291.437 246.896C291.005 246.896 290.629 246.96 290.309 247.088C290.005 247.216 289.717 247.4 289.445 247.64C289.221 247.864 289.029 248.136 288.869 248.456C288.725 248.76 288.653 249.096 288.653 249.464V257H285.293V244.472Z" fill="#808080"/>
<path d="M303 257.792C303.064 258.112 303.152 258.368 303.264 258.56C303.392 258.752 303.552 258.904 303.744 259.016C303.952 259.128 304.192 259.2 304.464 259.232C304.752 259.28 305.096 259.304 305.496 259.304C306.12 259.304 306.608 259.184 306.96 258.944C307.312 258.72 307.568 258.416 307.728 258.032C307.904 257.648 308.008 257.208 308.04 256.712C308.088 256.216 308.112 255.704 308.112 255.176V254.792C307.696 255.4 307.16 255.864 306.504 256.184C305.864 256.488 305.136 256.64 304.32 256.64C302.56 256.64 301.24 256.072 300.36 254.936C299.496 253.8 299.064 252.272 299.064 250.352C299.064 249.44 299.184 248.6 299.424 247.832C299.68 247.064 300.04 246.408 300.504 245.864C300.968 245.304 301.536 244.872 302.208 244.568C302.896 244.248 303.664 244.088 304.512 244.088C305.184 244.088 305.832 244.216 306.456 244.472C307.096 244.728 307.68 245.2 308.208 245.888V244.472H311.472V255.248C311.472 256.304 311.36 257.24 311.136 258.056C310.928 258.888 310.584 259.592 310.104 260.168C309.64 260.744 309.024 261.176 308.256 261.464C307.504 261.768 306.584 261.92 305.496 261.92C304.488 261.92 303.624 261.832 302.904 261.656C302.2 261.496 301.616 261.24 301.152 260.888C300.688 260.552 300.328 260.12 300.072 259.592C299.832 259.08 299.672 258.48 299.592 257.792H303ZM308.136 250.304C308.136 249.552 308.048 248.944 307.872 248.48C307.712 248.016 307.496 247.664 307.224 247.424C306.952 247.168 306.648 247 306.312 246.92C305.976 246.84 305.64 246.8 305.304 246.8C304.936 246.8 304.584 246.864 304.248 246.992C303.928 247.12 303.64 247.328 303.384 247.616C303.144 247.904 302.952 248.272 302.808 248.72C302.664 249.168 302.592 249.704 302.592 250.328C302.592 251.656 302.84 252.6 303.336 253.16C303.848 253.704 304.48 253.976 305.232 253.976C305.648 253.976 306.032 253.92 306.384 253.808C306.752 253.68 307.064 253.488 307.32 253.232C307.576 252.96 307.776 252.616 307.92 252.2C308.064 251.768 308.136 251.248 308.136 250.64V250.304Z" fill="#808080"/>
<path d="M313.975 253.136H317.407V257H313.975V253.136Z" fill="#808080"/>
<path d="M68 55.192H72.032L74.792 67.096L77.6 55.288H81.392L84.32 67.096L86.912 55.192H90.752L86.096 72.328H82.616L79.424 59.656L76.328 72.328H72.944L68 55.192Z" fill="white" fill-opacity="0.5"/>
<path d="M92.123 59.8H95.387V61.552C95.803 60.896 96.307 60.408 96.899 60.088C97.491 59.752 98.115 59.584 98.771 59.584C99.091 59.584 99.355 59.6 99.563 59.632C99.771 59.648 99.955 59.672 100.115 59.704L99.707 62.752C99.323 62.656 98.851 62.608 98.291 62.608C97.923 62.608 97.571 62.656 97.235 62.752C96.899 62.832 96.595 62.992 96.323 63.232C96.035 63.488 95.819 63.776 95.675 64.096C95.547 64.416 95.483 64.744 95.483 65.08V72.328H92.123V59.8Z" fill="white" fill-opacity="0.5"/>
<path d="M102.202 59.8H105.562V72.328H102.202V59.8ZM102.154 55.192H105.61V58.216H102.154V55.192Z" fill="white" fill-opacity="0.5"/>
<path d="M109.321 62.416H107.353V59.8H109.321V56.464H112.681V59.8H115.561V62.416H112.681V68.2C112.681 68.856 112.817 69.304 113.089 69.544C113.361 69.768 113.713 69.88 114.145 69.88C114.369 69.88 114.593 69.872 114.817 69.856C115.057 69.824 115.289 69.776 115.513 69.712L115.993 72.184C115.529 72.328 115.073 72.424 114.625 72.472C114.193 72.536 113.777 72.568 113.377 72.568C112.001 72.568 110.977 72.24 110.305 71.584C109.649 70.928 109.321 69.824 109.321 68.272V62.416Z" fill="white" fill-opacity="0.5"/>
<path d="M128.884 68.416C128.66 69.824 128.092 70.896 127.18 71.632C126.284 72.352 124.972 72.712 123.244 72.712C121.164 72.712 119.596 72.136 118.54 70.984C117.5 69.832 116.98 68.2 116.98 66.088C116.98 65.032 117.132 64.096 117.436 63.28C117.74 62.448 118.164 61.744 118.708 61.168C119.268 60.592 119.932 60.16 120.7 59.872C121.468 59.568 122.316 59.416 123.244 59.416C125.164 59.416 126.604 59.968 127.564 61.072C128.54 62.176 129.028 63.664 129.028 65.536V66.88H120.34C120.372 67.888 120.628 68.68 121.108 69.256C121.588 69.816 122.308 70.096 123.268 70.096C124.596 70.096 125.38 69.536 125.62 68.416H128.884ZM125.788 64.672C125.788 63.808 125.572 63.136 125.14 62.656C124.724 62.176 124.068 61.936 123.172 61.936C122.724 61.936 122.332 62.008 121.996 62.152C121.66 62.296 121.372 62.496 121.132 62.752C120.908 62.992 120.732 63.28 120.604 63.616C120.476 63.936 120.404 64.288 120.388 64.672H125.788Z" fill="white" fill-opacity="0.5"/>
<path d="M144.329 70.744C143.833 71.304 143.273 71.76 142.649 72.112C142.041 72.464 141.249 72.64 140.273 72.64C139.713 72.64 139.177 72.568 138.665 72.424C138.169 72.28 137.729 72.056 137.345 71.752C136.977 71.448 136.681 71.064 136.457 70.6C136.233 70.12 136.121 69.552 136.121 68.896C136.121 68.032 136.313 67.328 136.697 66.784C137.081 66.24 137.585 65.816 138.209 65.512C138.833 65.208 139.529 64.992 140.297 64.864C141.081 64.736 141.873 64.656 142.673 64.624L144.281 64.552V63.928C144.281 63.16 144.065 62.632 143.633 62.344C143.217 62.056 142.721 61.912 142.145 61.912C140.817 61.912 140.057 62.416 139.865 63.424L136.793 63.136C137.017 61.824 137.593 60.88 138.521 60.304C139.449 59.712 140.697 59.416 142.265 59.416C143.225 59.416 144.041 59.536 144.713 59.776C145.385 60 145.921 60.328 146.321 60.76C146.737 61.192 147.033 61.72 147.209 62.344C147.401 62.952 147.497 63.64 147.497 64.408V72.328H144.329V70.744ZM144.257 66.736L142.769 66.808C142.065 66.84 141.497 66.912 141.065 67.024C140.633 67.136 140.297 67.28 140.057 67.456C139.833 67.616 139.681 67.808 139.601 68.032C139.521 68.256 139.481 68.504 139.481 68.776C139.481 69.192 139.625 69.52 139.913 69.76C140.201 70 140.601 70.12 141.113 70.12C141.977 70.12 142.681 69.92 143.225 69.52C143.529 69.296 143.777 69.016 143.969 68.68C144.161 68.328 144.257 67.896 144.257 67.384V66.736Z" fill="white" fill-opacity="0.5"/>
<path d="M156.453 62.416H154.486V59.8H156.453V56.464H159.813V59.8H162.694V62.416H159.813V68.2C159.813 68.856 159.95 69.304 160.222 69.544C160.494 69.768 160.846 69.88 161.278 69.88C161.502 69.88 161.726 69.872 161.95 69.856C162.189 69.824 162.422 69.776 162.646 69.712L163.126 72.184C162.662 72.328 162.205 72.424 161.757 72.472C161.326 72.536 160.91 72.568 160.509 72.568C159.133 72.568 158.109 72.24 157.438 71.584C156.782 70.928 156.453 69.824 156.453 68.272V62.416Z" fill="white" fill-opacity="0.5"/>
<path d="M164.779 55.192H168.139V61.384C168.635 60.712 169.211 60.216 169.867 59.896C170.523 59.576 171.211 59.416 171.931 59.416C173.355 59.416 174.411 59.792 175.099 60.544C175.787 61.28 176.131 62.448 176.131 64.048V72.328H172.771V64.504C172.771 63.624 172.603 63.024 172.267 62.704C171.931 62.384 171.483 62.224 170.923 62.224C170.491 62.224 170.115 62.288 169.795 62.416C169.491 62.544 169.203 62.728 168.931 62.968C168.707 63.192 168.515 63.464 168.355 63.784C168.211 64.088 168.139 64.424 168.139 64.792V72.328H164.779V55.192Z" fill="white" fill-opacity="0.5"/>
<path d="M184.886 72.712C182.87 72.712 181.31 72.136 180.206 70.984C179.102 69.832 178.55 68.184 178.55 66.04C178.55 65.016 178.694 64.096 178.982 63.28C179.286 62.448 179.71 61.752 180.254 61.192C180.814 60.616 181.486 60.176 182.27 59.872C183.054 59.568 183.926 59.416 184.886 59.416C185.862 59.416 186.742 59.568 187.526 59.872C188.31 60.176 188.974 60.616 189.518 61.192C190.078 61.752 190.502 62.448 190.79 63.28C191.078 64.096 191.222 65.016 191.222 66.04C191.222 67.08 191.07 68.016 190.766 68.848C190.478 69.664 190.054 70.36 189.494 70.936C188.95 71.512 188.286 71.952 187.502 72.256C186.718 72.56 185.846 72.712 184.886 72.712ZM184.886 70.024C185.846 70.024 186.558 69.68 187.022 68.992C187.502 68.304 187.742 67.32 187.742 66.04C187.742 64.76 187.502 63.784 187.022 63.112C186.558 62.44 185.846 62.104 184.886 62.104C183.926 62.104 183.206 62.44 182.726 63.112C182.262 63.784 182.03 64.76 182.03 66.04C182.03 67.336 182.262 68.328 182.726 69.016C183.19 69.688 183.91 70.024 184.886 70.024Z" fill="white" fill-opacity="0.5"/>
<path d="M193.651 59.8H197.011V67.624C197.011 68.52 197.171 69.128 197.491 69.448C197.811 69.752 198.251 69.904 198.811 69.904C199.243 69.904 199.595 69.84 199.867 69.712C200.155 69.584 200.427 69.4 200.683 69.16C200.939 68.936 201.139 68.672 201.283 68.368C201.443 68.048 201.523 67.704 201.523 67.336V59.8H204.883V72.328H201.619V70.6C201.107 71.336 200.523 71.872 199.867 72.208C199.227 72.544 198.539 72.712 197.803 72.712C196.379 72.712 195.331 72.344 194.659 71.608C193.987 70.856 193.651 69.68 193.651 68.08V59.8Z" fill="white" fill-opacity="0.5"/>
<path d="M211.361 73.12C211.425 73.44 211.513 73.696 211.625 73.888C211.753 74.08 211.913 74.232 212.105 74.344C212.313 74.456 212.553 74.528 212.825 74.56C213.113 74.608 213.457 74.632 213.857 74.632C214.481 74.632 214.969 74.512 215.321 74.272C215.673 74.048 215.929 73.744 216.089 73.36C216.265 72.976 216.369 72.536 216.401 72.04C216.449 71.544 216.473 71.032 216.473 70.504V70.12C216.057 70.728 215.521 71.192 214.865 71.512C214.225 71.816 213.497 71.968 212.681 71.968C210.921 71.968 209.601 71.4 208.721 70.264C207.857 69.128 207.425 67.6 207.425 65.68C207.425 64.768 207.545 63.928 207.785 63.16C208.041 62.392 208.401 61.736 208.865 61.192C209.329 60.632 209.897 60.2 210.569 59.896C211.257 59.576 212.025 59.416 212.873 59.416C213.545 59.416 214.193 59.544 214.817 59.8C215.457 60.056 216.041 60.528 216.569 61.216V59.8H219.833V70.576C219.833 71.632 219.721 72.568 219.497 73.384C219.289 74.216 218.945 74.92 218.465 75.496C218.001 76.072 217.385 76.504 216.617 76.792C215.865 77.096 214.945 77.248 213.857 77.248C212.849 77.248 211.985 77.16 211.265 76.984C210.561 76.824 209.977 76.568 209.513 76.216C209.049 75.88 208.689 75.448 208.433 74.92C208.193 74.408 208.033 73.808 207.953 73.12H211.361ZM216.497 65.632C216.497 64.88 216.409 64.272 216.233 63.808C216.073 63.344 215.857 62.992 215.585 62.752C215.313 62.496 215.009 62.328 214.673 62.248C214.337 62.168 214.001 62.128 213.665 62.128C213.297 62.128 212.945 62.192 212.609 62.32C212.289 62.448 212.001 62.656 211.745 62.944C211.505 63.232 211.313 63.6 211.169 64.048C211.025 64.496 210.953 65.032 210.953 65.656C210.953 66.984 211.201 67.928 211.697 68.488C212.209 69.032 212.841 69.304 213.593 69.304C214.009 69.304 214.393 69.248 214.745 69.136C215.113 69.008 215.425 68.816 215.681 68.56C215.937 68.288 216.137 67.944 216.281 67.528C216.425 67.096 216.497 66.576 216.497 65.968V65.632Z" fill="white" fill-opacity="0.5"/>
<path d="M222.811 55.192H226.171V61.384C226.667 60.712 227.242 60.216 227.898 59.896C228.555 59.576 229.242 59.416 229.962 59.416C231.386 59.416 232.442 59.792 233.13 60.544C233.818 61.28 234.162 62.448 234.162 64.048V72.328H230.802V64.504C230.802 63.624 230.634 63.024 230.298 62.704C229.962 62.384 229.514 62.224 228.954 62.224C228.522 62.224 228.146 62.288 227.826 62.416C227.522 62.544 227.234 62.728 226.962 62.968C226.738 63.192 226.546 63.464 226.386 63.784C226.242 64.088 226.171 64.424 226.171 64.792V72.328H222.811V55.192Z" fill="white" fill-opacity="0.5"/>
<path d="M237.782 62.416H235.814V59.8H237.782V56.464H241.142V59.8H244.022V62.416H241.142V68.2C241.142 68.856 241.278 69.304 241.55 69.544C241.822 69.768 242.174 69.88 242.606 69.88C242.83 69.88 243.054 69.872 243.278 69.856C243.518 69.824 243.75 69.776 243.974 69.712L244.454 72.184C243.99 72.328 243.534 72.424 243.086 72.472C242.654 72.536 242.238 72.568 241.838 72.568C240.462 72.568 239.438 72.24 238.766 71.584C238.11 70.928 237.782 69.824 237.782 68.272V62.416Z" fill="white" fill-opacity="0.5"/>
<path d="M247.275 62.416H245.307V59.8H247.275V59.392C247.275 58.624 247.387 57.96 247.611 57.4C247.835 56.84 248.139 56.384 248.523 56.032C248.923 55.68 249.387 55.424 249.915 55.264C250.443 55.088 251.019 55 251.643 55C252.043 55 252.459 55.024 252.891 55.072C253.339 55.12 253.795 55.216 254.259 55.36L253.803 57.808C253.291 57.68 252.803 57.616 252.339 57.616C251.907 57.616 251.515 57.744 251.163 58C250.811 58.24 250.635 58.68 250.635 59.32V59.8H253.539V62.416H250.635V72.328H247.275V62.416Z" fill="white" fill-opacity="0.5"/>
<path d="M255.433 59.8H258.793V67.624C258.793 68.52 258.953 69.128 259.273 69.448C259.593 69.752 260.033 69.904 260.593 69.904C261.025 69.904 261.377 69.84 261.649 69.712C261.937 69.584 262.209 69.4 262.465 69.16C262.721 68.936 262.921 68.672 263.065 68.368C263.225 68.048 263.305 67.704 263.305 67.336V59.8H266.665V72.328H263.401V70.6C262.889 71.336 262.305 71.872 261.649 72.208C261.009 72.544 260.321 72.712 259.585 72.712C258.161 72.712 257.113 72.344 256.441 71.608C255.769 70.856 255.433 69.68 255.433 68.08V59.8Z" fill="white" fill-opacity="0.5"/>
<path d="M269.663 55.192H273.023V72.328H269.663V55.192Z" fill="white" fill-opacity="0.5"/>
<path d="M281.357 59.8H284.621V61.456C285.581 60.096 286.893 59.416 288.557 59.416C290.301 59.416 291.605 60.008 292.469 61.192C293.333 62.376 293.765 64 293.765 66.064C293.765 67.056 293.637 67.96 293.381 68.776C293.141 69.592 292.781 70.296 292.301 70.888C291.837 71.464 291.269 71.912 290.597 72.232C289.925 72.552 289.165 72.712 288.317 72.712C287.693 72.712 287.069 72.6 286.445 72.376C285.837 72.152 285.261 71.704 284.717 71.032V76.984H281.357V59.8ZM284.693 66.16C284.693 66.976 284.757 67.632 284.885 68.128C285.029 68.608 285.253 69 285.557 69.304C285.877 69.592 286.197 69.784 286.517 69.88C286.853 69.96 287.189 70 287.525 70C287.893 70 288.245 69.928 288.581 69.784C288.917 69.64 289.205 69.416 289.445 69.112C289.701 68.792 289.901 68.384 290.045 67.888C290.189 67.392 290.261 66.792 290.261 66.088C290.261 65.352 290.189 64.736 290.045 64.24C289.917 63.744 289.733 63.344 289.493 63.04C289.253 62.72 288.965 62.496 288.629 62.368C288.309 62.224 287.965 62.152 287.597 62.152C287.181 62.152 286.821 62.208 286.517 62.32C286.213 62.432 285.917 62.608 285.629 62.848C285.309 63.152 285.069 63.536 284.909 64C284.765 64.464 284.693 65.056 284.693 65.776V66.16Z" fill="white" fill-opacity="0.5"/>
<path d="M307.548 68.416C307.324 69.824 306.756 70.896 305.844 71.632C304.948 72.352 303.636 72.712 301.908 72.712C299.828 72.712 298.26 72.136 297.204 70.984C296.164 69.832 295.644 68.2 295.644 66.088C295.644 65.032 295.796 64.096 296.1 63.28C296.404 62.448 296.828 61.744 297.372 61.168C297.932 60.592 298.596 60.16 299.364 59.872C300.132 59.568 300.98 59.416 301.908 59.416C303.828 59.416 305.268 59.968 306.228 61.072C307.204 62.176 307.692 63.664 307.692 65.536V66.88H299.004C299.036 67.888 299.292 68.68 299.772 69.256C300.252 69.816 300.972 70.096 301.932 70.096C303.26 70.096 304.044 69.536 304.284 68.416H307.548ZM304.452 64.672C304.452 63.808 304.236 63.136 303.804 62.656C303.388 62.176 302.732 61.936 301.836 61.936C301.388 61.936 300.996 62.008 300.66 62.152C300.324 62.296 300.036 62.496 299.796 62.752C299.572 62.992 299.396 63.28 299.268 63.616C299.14 63.936 299.068 64.288 299.052 64.672H304.452Z" fill="white" fill-opacity="0.5"/>
<path d="M310.209 59.8H313.473V61.552C313.889 60.896 314.393 60.408 314.985 60.088C315.577 59.752 316.201 59.584 316.857 59.584C317.177 59.584 317.441 59.6 317.649 59.632C317.857 59.648 318.041 59.672 318.201 59.704L317.793 62.752C317.409 62.656 316.937 62.608 316.377 62.608C316.009 62.608 315.657 62.656 315.321 62.752C314.985 62.832 314.681 62.992 314.409 63.232C314.121 63.488 313.905 63.776 313.761 64.096C313.633 64.416 313.569 64.744 313.569 65.08V72.328H310.209V59.8Z" fill="white" fill-opacity="0.5"/>
<path d="M322.453 68.344C322.565 69.08 322.861 69.56 323.341 69.784C323.821 70.008 324.397 70.12 325.069 70.12C325.869 70.12 326.437 70.024 326.773 69.832C327.125 69.624 327.301 69.296 327.301 68.848C327.301 68.528 327.189 68.248 326.965 68.008C326.757 67.768 326.349 67.6 325.741 67.504L324.013 67.216C322.493 66.976 321.357 66.568 320.605 65.992C319.869 65.4 319.501 64.512 319.501 63.328C319.501 62.72 319.629 62.176 319.885 61.696C320.157 61.216 320.533 60.808 321.013 60.472C321.493 60.136 322.061 59.88 322.717 59.704C323.389 59.512 324.125 59.416 324.925 59.416C325.917 59.416 326.749 59.52 327.421 59.728C328.093 59.92 328.637 60.184 329.053 60.52C329.485 60.856 329.805 61.256 330.013 61.72C330.237 62.184 330.397 62.68 330.493 63.208L327.493 63.592C327.349 63.016 327.093 62.592 326.725 62.32C326.373 62.048 325.797 61.912 324.997 61.912C324.549 61.912 324.173 61.952 323.869 62.032C323.581 62.096 323.349 62.184 323.173 62.296C323.013 62.408 322.893 62.536 322.813 62.68C322.749 62.824 322.717 62.96 322.717 63.088C322.717 63.488 322.837 63.784 323.077 63.976C323.333 64.152 323.821 64.304 324.541 64.432L326.125 64.696C327.005 64.84 327.733 65.024 328.309 65.248C328.885 65.472 329.341 65.752 329.677 66.088C330.029 66.408 330.269 66.792 330.397 67.24C330.541 67.688 330.613 68.208 330.613 68.8C330.613 69.984 330.165 70.936 329.269 71.656C328.373 72.36 326.989 72.712 325.117 72.712C324.365 72.712 323.645 72.64 322.957 72.496C322.285 72.368 321.677 72.136 321.133 71.8C320.605 71.464 320.165 71.016 319.813 70.456C319.477 69.896 319.285 69.192 319.237 68.344H322.453Z" fill="white" fill-opacity="0.5"/>
<path d="M338.59 72.712C336.574 72.712 335.014 72.136 333.91 70.984C332.806 69.832 332.254 68.184 332.254 66.04C332.254 65.016 332.398 64.096 332.686 63.28C332.99 62.448 333.414 61.752 333.958 61.192C334.518 60.616 335.19 60.176 335.974 59.872C336.758 59.568 337.63 59.416 338.59 59.416C339.566 59.416 340.446 59.568 341.23 59.872C342.014 60.176 342.677 60.616 343.221 61.192C343.781 61.752 344.206 62.448 344.493 63.28C344.781 64.096 344.926 65.016 344.926 66.04C344.926 67.08 344.773 68.016 344.47 68.848C344.182 69.664 343.758 70.36 343.198 70.936C342.654 71.512 341.99 71.952 341.206 72.256C340.422 72.56 339.549 72.712 338.59 72.712ZM338.59 70.024C339.549 70.024 340.262 69.68 340.726 68.992C341.206 68.304 341.445 67.32 341.445 66.04C341.445 64.76 341.206 63.784 340.726 63.112C340.262 62.44 339.549 62.104 338.59 62.104C337.63 62.104 336.91 62.44 336.43 63.112C335.966 63.784 335.734 64.76 335.734 66.04C335.734 67.336 335.966 68.328 336.43 69.016C336.893 69.688 337.613 70.024 338.59 70.024Z" fill="white" fill-opacity="0.5"/>
<path d="M347.475 59.8H350.739V61.528C351.235 60.792 351.819 60.256 352.491 59.92C353.179 59.584 353.891 59.416 354.627 59.416C356.051 59.416 357.107 59.792 357.795 60.544C358.483 61.28 358.827 62.448 358.827 64.048V72.328H355.467V64.504C355.467 63.624 355.299 63.024 354.963 62.704C354.627 62.384 354.179 62.224 353.619 62.224C353.187 62.224 352.811 62.288 352.491 62.416C352.187 62.544 351.899 62.728 351.627 62.968C351.403 63.192 351.211 63.464 351.051 63.784C350.907 64.088 350.835 64.424 350.835 64.792V72.328H347.475V59.8Z" fill="white" fill-opacity="0.5"/>
<path d="M369.118 70.744C368.622 71.304 368.062 71.76 367.438 72.112C366.83 72.464 366.038 72.64 365.062 72.64C364.502 72.64 363.966 72.568 363.454 72.424C362.958 72.28 362.518 72.056 362.134 71.752C361.766 71.448 361.47 71.064 361.246 70.6C361.022 70.12 360.91 69.552 360.91 68.896C360.91 68.032 361.102 67.328 361.486 66.784C361.87 66.24 362.374 65.816 362.998 65.512C363.622 65.208 364.318 64.992 365.086 64.864C365.87 64.736 366.662 64.656 367.462 64.624L369.07 64.552V63.928C369.07 63.16 368.854 62.632 368.422 62.344C368.006 62.056 367.51 61.912 366.934 61.912C365.606 61.912 364.846 62.416 364.654 63.424L361.582 63.136C361.806 61.824 362.382 60.88 363.31 60.304C364.238 59.712 365.486 59.416 367.054 59.416C368.014 59.416 368.83 59.536 369.502 59.776C370.174 60 370.71 60.328 371.11 60.76C371.526 61.192 371.822 61.72 371.998 62.344C372.19 62.952 372.286 63.64 372.286 64.408V72.328H369.118V70.744ZM369.046 66.736L367.558 66.808C366.854 66.84 366.286 66.912 365.854 67.024C365.422 67.136 365.086 67.28 364.846 67.456C364.622 67.616 364.47 67.808 364.39 68.032C364.31 68.256 364.27 68.504 364.27 68.776C364.27 69.192 364.414 69.52 364.702 69.76C364.99 70 365.39 70.12 365.902 70.12C366.766 70.12 367.47 69.92 368.014 69.52C368.318 69.296 368.566 69.016 368.758 68.68C368.95 68.328 369.046 67.896 369.046 67.384V66.736Z" fill="white" fill-opacity="0.5"/>
<path d="M375.155 55.192H378.515V72.328H375.155V55.192Z" fill="white" fill-opacity="0.5"/>
<path d="M381.53 59.8H384.89V72.328H381.53V59.8ZM381.482 55.192H384.938V58.216H381.482V55.192Z" fill="white" fill-opacity="0.5"/>
<path d="M387.281 70.048L393.377 62.416H387.401V59.8H397.649V62.08L391.577 69.712H397.937L397.625 72.328H387.281V70.048Z" fill="white" fill-opacity="0.5"/>
<path d="M411.118 68.416C410.894 69.824 410.326 70.896 409.414 71.632C408.518 72.352 407.206 72.712 405.478 72.712C403.398 72.712 401.83 72.136 400.774 70.984C399.734 69.832 399.214 68.2 399.214 66.088C399.214 65.032 399.366 64.096 399.67 63.28C399.974 62.448 400.398 61.744 400.942 61.168C401.502 60.592 402.166 60.16 402.934 59.872C403.702 59.568 404.55 59.416 405.478 59.416C407.398 59.416 408.838 59.968 409.798 61.072C410.774 62.176 411.262 63.664 411.262 65.536V66.88H402.574C402.606 67.888 402.862 68.68 403.342 69.256C403.822 69.816 404.542 70.096 405.502 70.096C406.83 70.096 407.614 69.536 407.854 68.416H411.118ZM408.022 64.672C408.022 63.808 407.806 63.136 407.374 62.656C406.958 62.176 406.302 61.936 405.406 61.936C404.958 61.936 404.566 62.008 404.23 62.152C403.894 62.296 403.606 62.496 403.366 62.752C403.142 62.992 402.966 63.28 402.838 63.616C402.71 63.936 402.638 64.288 402.622 64.672H408.022Z" fill="white" fill-opacity="0.5"/>
<path d="M422.467 70.672C421.507 72.032 420.211 72.712 418.579 72.712C416.819 72.712 415.507 72.12 414.643 70.936C413.779 69.752 413.347 68.112 413.347 66.016C413.347 65.04 413.467 64.152 413.707 63.352C413.963 62.536 414.323 61.84 414.787 61.264C415.251 60.672 415.819 60.216 416.491 59.896C417.163 59.576 417.923 59.416 418.771 59.416C419.395 59.416 420.011 59.528 420.619 59.752C421.243 59.976 421.827 60.408 422.371 61.048V55.192H425.731V72.328H422.467V70.672ZM422.395 65.92C422.395 65.12 422.323 64.48 422.179 64C422.051 63.52 421.835 63.128 421.531 62.824C421.243 62.536 420.923 62.352 420.571 62.272C420.235 62.176 419.899 62.128 419.563 62.128C419.195 62.128 418.843 62.2 418.507 62.344C418.187 62.488 417.899 62.712 417.643 63.016C417.403 63.32 417.211 63.72 417.067 64.216C416.923 64.712 416.851 65.304 416.851 65.992C416.851 66.744 416.915 67.376 417.043 67.888C417.187 68.384 417.379 68.792 417.619 69.112C417.859 69.416 418.139 69.64 418.459 69.784C418.779 69.912 419.123 69.976 419.491 69.976C420.291 69.976 420.947 69.744 421.459 69.28C421.779 68.96 422.011 68.576 422.155 68.128C422.315 67.664 422.395 67.072 422.395 66.352V65.92Z" fill="white" fill-opacity="0.5"/>
<path d="M69.272 90.8H72.632V103.328H69.272V90.8ZM69.224 86.192H72.68V89.216H69.224V86.192Z" fill="white" fill-opacity="0.5"/>
<path d="M75.623 90.8H78.887V92.528C79.383 91.792 79.967 91.256 80.639 90.92C81.327 90.584 82.039 90.416 82.775 90.416C84.199 90.416 85.255 90.792 85.943 91.544C86.631 92.28 86.975 93.448 86.975 95.048V103.328H83.615V95.504C83.615 94.624 83.447 94.024 83.111 93.704C82.775 93.384 82.327 93.224 81.767 93.224C81.335 93.224 80.959 93.288 80.639 93.416C80.335 93.544 80.047 93.728 79.775 93.968C79.551 94.192 79.359 94.464 79.199 94.784C79.055 95.088 78.983 95.424 78.983 95.792V103.328H75.623V90.8Z" fill="white" fill-opacity="0.5"/>
<path d="M90.5941 93.416H88.6261V90.8H90.5941V87.464H93.9541V90.8H96.8341V93.416H93.9541V99.2C93.9541 99.856 94.0901 100.304 94.3621 100.544C94.6341 100.768 94.9861 100.88 95.4181 100.88C95.6421 100.88 95.8661 100.872 96.0901 100.856C96.3301 100.824 96.5621 100.776 96.7861 100.712L97.2661 103.184C96.8021 103.328 96.3461 103.424 95.8981 103.472C95.4661 103.536 95.0501 103.568 94.6501 103.568C93.2741 103.568 92.2501 103.24 91.5781 102.584C90.9221 101.928 90.5941 100.824 90.5941 99.272V93.416Z" fill="white" fill-opacity="0.5"/>
<path d="M98.9199 90.8H102.184V92.552C102.6 91.896 103.104 91.408 103.696 91.088C104.288 90.752 104.912 90.584 105.568 90.584C105.888 90.584 106.152 90.6 106.36 90.632C106.568 90.648 106.752 90.672 106.912 90.704L106.504 93.752C106.12 93.656 105.648 93.608 105.088 93.608C104.72 93.608 104.368 93.656 104.032 93.752C103.696 93.832 103.392 93.992 103.12 94.232C102.832 94.488 102.616 94.776 102.472 95.096C102.344 95.416 102.28 95.744 102.28 96.08V103.328H98.9199V90.8Z" fill="white" fill-opacity="0.5"/>
<path d="M114.269 103.712C112.253 103.712 110.693 103.136 109.589 101.984C108.485 100.832 107.933 99.184 107.933 97.04C107.933 96.016 108.077 95.096 108.365 94.28C108.669 93.448 109.093 92.752 109.637 92.192C110.197 91.616 110.869 91.176 111.653 90.872C112.437 90.568 113.309 90.416 114.269 90.416C115.245 90.416 116.125 90.568 116.909 90.872C117.693 91.176 118.357 91.616 118.901 92.192C119.461 92.752 119.885 93.448 120.173 94.28C120.461 95.096 120.605 96.016 120.605 97.04C120.605 98.08 120.453 99.016 120.149 99.848C119.861 100.664 119.437 101.36 118.877 101.936C118.333 102.512 117.669 102.952 116.885 103.256C116.101 103.56 115.229 103.712 114.269 103.712ZM114.269 101.024C115.229 101.024 115.941 100.68 116.405 99.992C116.885 99.304 117.125 98.32 117.125 97.04C117.125 95.76 116.885 94.784 116.405 94.112C115.941 93.44 115.229 93.104 114.269 93.104C113.309 93.104 112.589 93.44 112.109 94.112C111.645 94.784 111.413 95.76 111.413 97.04C111.413 98.336 111.645 99.328 112.109 100.016C112.573 100.688 113.293 101.024 114.269 101.024Z" fill="white" fill-opacity="0.5"/>
<path d="M131.608 101.672C130.648 103.032 129.352 103.712 127.72 103.712C125.96 103.712 124.648 103.12 123.784 101.936C122.92 100.752 122.488 99.112 122.488 97.016C122.488 96.04 122.608 95.152 122.848 94.352C123.104 93.536 123.464 92.84 123.928 92.264C124.392 91.672 124.96 91.216 125.632 90.896C126.304 90.576 127.064 90.416 127.912 90.416C128.536 90.416 129.152 90.528 129.76 90.752C130.384 90.976 130.968 91.408 131.512 92.048V86.192H134.872V103.328H131.608V101.672ZM131.536 96.92C131.536 96.12 131.464 95.48 131.32 95C131.192 94.52 130.976 94.128 130.672 93.824C130.384 93.536 130.064 93.352 129.712 93.272C129.376 93.176 129.04 93.128 128.704 93.128C128.336 93.128 127.984 93.2 127.648 93.344C127.328 93.488 127.04 93.712 126.784 94.016C126.544 94.32 126.352 94.72 126.208 95.216C126.064 95.712 125.992 96.304 125.992 96.992C125.992 97.744 126.056 98.376 126.184 98.888C126.328 99.384 126.52 99.792 126.76 100.112C127 100.416 127.28 100.64 127.6 100.784C127.92 100.912 128.264 100.976 128.632 100.976C129.432 100.976 130.088 100.744 130.6 100.28C130.92 99.96 131.152 99.576 131.296 99.128C131.456 98.664 131.536 98.072 131.536 97.352V96.92Z" fill="white" fill-opacity="0.5"/>
<path d="M137.73 90.8H141.09V98.624C141.09 99.52 141.25 100.128 141.57 100.448C141.89 100.752 142.33 100.904 142.89 100.904C143.322 100.904 143.674 100.84 143.946 100.712C144.234 100.584 144.506 100.4 144.762 100.16C145.018 99.936 145.218 99.672 145.362 99.368C145.522 99.048 145.602 98.704 145.602 98.336V90.8H148.962V103.328H145.698V101.6C145.186 102.336 144.602 102.872 143.946 103.208C143.306 103.544 142.618 103.712 141.882 103.712C140.458 103.712 139.41 103.344 138.738 102.608C138.066 101.856 137.73 100.68 137.73 99.08V90.8Z" fill="white" fill-opacity="0.5"/>
<path d="M163.192 98.792C163.064 100.296 162.544 101.496 161.632 102.392C160.736 103.272 159.383 103.712 157.576 103.712C156.52 103.712 155.607 103.552 154.84 103.232C154.072 102.912 153.44 102.464 152.944 101.888C152.464 101.312 152.104 100.616 151.864 99.8C151.624 98.984 151.504 98.08 151.504 97.088C151.504 96.096 151.639 95.192 151.911 94.376C152.2 93.544 152.608 92.84 153.136 92.264C153.664 91.672 154.312 91.216 155.08 90.896C155.848 90.576 156.728 90.416 157.72 90.416C158.568 90.416 159.304 90.528 159.928 90.752C160.568 90.96 161.104 91.256 161.535 91.64C161.967 92.024 162.304 92.488 162.544 93.032C162.784 93.56 162.944 94.144 163.024 94.784L159.64 95.24C159.56 94.6 159.376 94.088 159.088 93.704C158.799 93.304 158.304 93.104 157.6 93.104C157.088 93.104 156.663 93.216 156.327 93.44C155.992 93.648 155.72 93.936 155.512 94.304C155.32 94.672 155.184 95.096 155.104 95.576C155.023 96.04 154.984 96.528 154.984 97.04C154.984 97.568 155.023 98.072 155.104 98.552C155.184 99.032 155.32 99.456 155.512 99.824C155.704 100.192 155.968 100.488 156.304 100.712C156.64 100.92 157.063 101.024 157.576 101.024C158.247 101.024 158.768 100.832 159.136 100.448C159.504 100.064 159.719 99.512 159.784 98.792H163.192Z" fill="white" fill-opacity="0.5"/>
<path d="M166.368 93.416H164.4V90.8H166.368V87.464H169.728V90.8H172.608V93.416H169.728V99.2C169.728 99.856 169.864 100.304 170.136 100.544C170.408 100.768 170.76 100.88 171.192 100.88C171.416 100.88 171.64 100.872 171.864 100.856C172.104 100.824 172.336 100.776 172.56 100.712L173.04 103.184C172.576 103.328 172.12 103.424 171.672 103.472C171.24 103.536 170.824 103.568 170.424 103.568C169.048 103.568 168.024 103.24 167.352 102.584C166.696 101.928 166.368 100.824 166.368 99.272V93.416Z" fill="white" fill-opacity="0.5"/>
<path d="M174.717 90.8H178.077V103.328H174.717V90.8ZM174.669 86.192H178.125V89.216H174.669V86.192Z" fill="white" fill-opacity="0.5"/>
<path d="M186.972 103.712C184.956 103.712 183.396 103.136 182.292 101.984C181.188 100.832 180.636 99.184 180.636 97.04C180.636 96.016 180.78 95.096 181.068 94.28C181.372 93.448 181.796 92.752 182.34 92.192C182.9 91.616 183.572 91.176 184.356 90.872C185.14 90.568 186.012 90.416 186.972 90.416C187.948 90.416 188.828 90.568 189.612 90.872C190.396 91.176 191.06 91.616 191.604 92.192C192.164 92.752 192.588 93.448 192.876 94.28C193.164 95.096 193.308 96.016 193.308 97.04C193.308 98.08 193.156 99.016 192.852 99.848C192.564 100.664 192.14 101.36 191.58 101.936C191.036 102.512 190.372 102.952 189.588 103.256C188.804 103.56 187.932 103.712 186.972 103.712ZM186.972 101.024C187.932 101.024 188.644 100.68 189.108 99.992C189.588 99.304 189.828 98.32 189.828 97.04C189.828 95.76 189.588 94.784 189.108 94.112C188.644 93.44 187.932 93.104 186.972 93.104C186.012 93.104 185.292 93.44 184.812 94.112C184.348 94.784 184.116 95.76 184.116 97.04C184.116 98.336 184.348 99.328 184.812 100.016C185.276 100.688 185.996 101.024 186.972 101.024Z" fill="white" fill-opacity="0.5"/>
<path d="M195.857 90.8H199.121V92.528C199.617 91.792 200.201 91.256 200.873 90.92C201.561 90.584 202.273 90.416 203.009 90.416C204.433 90.416 205.489 90.792 206.177 91.544C206.865 92.28 207.209 93.448 207.209 95.048V103.328H203.849V95.504C203.849 94.624 203.681 94.024 203.345 93.704C203.009 93.384 202.561 93.224 202.001 93.224C201.569 93.224 201.193 93.288 200.873 93.416C200.569 93.544 200.281 93.728 200.009 93.968C199.785 94.192 199.593 94.464 199.433 94.784C199.289 95.088 199.217 95.424 199.217 95.792V103.328H195.857V90.8Z" fill="white" fill-opacity="0.5"/>
<path d="M226.876 99.416C226.652 100.824 226.084 101.896 225.172 102.632C224.276 103.352 222.964 103.712 221.236 103.712C219.156 103.712 217.588 103.136 216.532 101.984C215.492 100.832 214.972 99.2 214.972 97.088C214.972 96.032 215.124 95.096 215.428 94.28C215.732 93.448 216.156 92.744 216.7 92.168C217.26 91.592 217.924 91.16 218.692 90.872C219.46 90.568 220.308 90.416 221.236 90.416C223.156 90.416 224.596 90.968 225.556 92.072C226.532 93.176 227.02 94.664 227.02 96.536V97.88H218.332C218.364 98.888 218.62 99.68 219.1 100.256C219.58 100.816 220.3 101.096 221.26 101.096C222.588 101.096 223.372 100.536 223.612 99.416H226.876ZM223.78 95.672C223.78 94.808 223.564 94.136 223.132 93.656C222.716 93.176 222.06 92.936 221.164 92.936C220.716 92.936 220.324 93.008 219.988 93.152C219.652 93.296 219.364 93.496 219.124 93.752C218.9 93.992 218.724 94.28 218.596 94.616C218.468 94.936 218.396 95.288 218.38 95.672H223.78Z" fill="white" fill-opacity="0.5"/>
<path d="M229.537 90.8H232.801V92.48C233.265 91.776 233.809 91.256 234.433 90.92C235.057 90.584 235.713 90.416 236.401 90.416C237.313 90.416 238.057 90.6 238.633 90.968C239.209 91.336 239.617 91.872 239.857 92.576C240.433 91.808 241.041 91.256 241.681 90.92C242.321 90.584 243.025 90.416 243.793 90.416C245.089 90.416 246.057 90.776 246.697 91.496C247.353 92.2 247.681 93.352 247.681 94.952V103.328H244.321V95.408C244.321 94.96 244.281 94.6 244.201 94.328C244.121 94.04 244.009 93.816 243.865 93.656C243.737 93.496 243.577 93.384 243.385 93.32C243.193 93.256 242.993 93.224 242.785 93.224C242.449 93.224 242.137 93.28 241.849 93.392C241.577 93.504 241.305 93.696 241.033 93.968C240.809 94.192 240.625 94.448 240.481 94.736C240.353 95.024 240.289 95.328 240.289 95.648V103.328H236.929V95.408C236.929 94.96 236.889 94.6 236.809 94.328C236.729 94.04 236.617 93.816 236.473 93.656C236.345 93.496 236.185 93.384 235.993 93.32C235.801 93.256 235.601 93.224 235.393 93.224C235.057 93.224 234.745 93.28 234.457 93.392C234.185 93.504 233.913 93.696 233.641 93.968C233.417 94.192 233.233 94.464 233.089 94.784C232.961 95.088 232.897 95.424 232.897 95.792V103.328H229.537V90.8Z" fill="white" fill-opacity="0.5"/>
<path d="M257.977 101.744C257.481 102.304 256.921 102.76 256.297 103.112C255.689 103.464 254.897 103.64 253.921 103.64C253.361 103.64 252.825 103.568 252.313 103.424C251.817 103.28 251.377 103.056 250.993 102.752C250.625 102.448 250.329 102.064 250.105 101.6C249.881 101.12 249.769 100.552 249.769 99.896C249.769 99.032 249.961 98.328 250.345 97.784C250.729 97.24 251.233 96.816 251.857 96.512C252.481 96.208 253.177 95.992 253.945 95.864C254.729 95.736 255.521 95.656 256.321 95.624L257.929 95.552V94.928C257.929 94.16 257.713 93.632 257.281 93.344C256.865 93.056 256.369 92.912 255.793 92.912C254.465 92.912 253.705 93.416 253.513 94.424L250.441 94.136C250.665 92.824 251.241 91.88 252.169 91.304C253.097 90.712 254.345 90.416 255.913 90.416C256.873 90.416 257.689 90.536 258.361 90.776C259.033 91 259.569 91.328 259.969 91.76C260.385 92.192 260.681 92.72 260.857 93.344C261.049 93.952 261.145 94.64 261.145 95.408V103.328H257.977V101.744ZM257.905 97.736L256.417 97.808C255.713 97.84 255.145 97.912 254.713 98.024C254.281 98.136 253.945 98.28 253.705 98.456C253.481 98.616 253.329 98.808 253.249 99.032C253.169 99.256 253.129 99.504 253.129 99.776C253.129 100.192 253.273 100.52 253.561 100.76C253.849 101 254.249 101.12 254.761 101.12C255.625 101.12 256.329 100.92 256.873 100.52C257.177 100.296 257.425 100.016 257.617 99.68C257.809 99.328 257.905 98.896 257.905 98.384V97.736Z" fill="white" fill-opacity="0.5"/>
<path d="M264.014 90.8H267.374V103.328H264.014V90.8ZM263.966 86.192H267.422V89.216H263.966V86.192Z" fill="white" fill-opacity="0.5"/>
<path d="M270.389 86.192H273.749V103.328H270.389V86.192Z" fill="white" fill-opacity="0.5"/>
<path d="M276.5 99.464H279.932V103.328H276.5V99.464Z" fill="white" fill-opacity="0.5"/>
<path fill-rule="evenodd" clip-rule="evenodd" d="M21.5 40.3125C31.8899 40.3125 40.3125 31.8899 40.3125 21.5C40.3125 11.1101 31.8899 2.6875 21.5 2.6875C11.1101 2.6875 2.6875 11.1101 2.6875 21.5C2.6875 31.8899 11.1101 40.3125 21.5 40.3125Z" fill="white"/>
<path fill-rule="evenodd" clip-rule="evenodd" d="M15.4531 21.5C17.3085 21.5 18.8125 19.996 18.8125 18.1406C18.8125 16.2853 17.3085 14.7812 15.4531 14.7812C13.5978 14.7812 12.0938 16.2853 12.0938 18.1406C12.0938 19.996 13.5978 21.5 15.4531 21.5ZM21.5 32.25C17.7271 32.2436 14.2337 30.2598 12.2953 27.0228L14.5931 25.6791C16.0517 28.1012 18.6726 29.5824 21.5 29.5824C24.3274 29.5824 26.9483 28.1012 28.4069 25.6791L30.7047 27.0228C28.7663 30.2598 25.2729 32.2436 21.5 32.25ZM30.9062 18.1406C30.9062 19.996 29.4022 21.5 27.5469 21.5C25.6915 21.5 24.1875 19.996 24.1875 18.1406C24.1875 16.2853 25.6915 14.7812 27.5469 14.7812C29.4022 14.7812 30.9062 16.2853 30.9062 18.1406Z" fill="black"/>
<mask id="mask0" mask-type="alpha" maskUnits="userSpaceOnUse" x="12" y="14" width="19" height="19">
<path fill-rule="evenodd" clip-rule="evenodd" d="M15.4531 21.5C17.3085 21.5 18.8125 19.996 18.8125 18.1406C18.8125 16.2853 17.3085 14.7812 15.4531 14.7812C13.5978 14.7812 12.0938 16.2853 12.0938 18.1406C12.0938 19.996 13.5978 21.5 15.4531 21.5ZM21.5 32.25C17.7271 32.2436 14.2337 30.2598 12.2953 27.0228L14.5931 25.6791C16.0517 28.1012 18.6726 29.5824 21.5 29.5824C24.3274 29.5824 26.9483 28.1012 28.4069 25.6791L30.7047 27.0228C28.7663 30.2598 25.2729 32.2436 21.5 32.25ZM30.9062 18.1406C30.9062 19.996 29.4022 21.5 27.5469 21.5C25.6915 21.5 24.1875 19.996 24.1875 18.1406C24.1875 16.2853 25.6915 14.7812 27.5469 14.7812C29.4022 14.7812 30.9062 16.2853 30.9062 18.1406Z" fill="white"/>
</mask>
<g mask="url(#mask0)">
</g>
<path fill-rule="evenodd" clip-rule="evenodd" d="M21.5 193.312C31.8899 193.312 40.3125 184.89 40.3125 174.5C40.3125 164.11 31.8899 155.688 21.5 155.688C11.1101 155.688 2.6875 164.11 2.6875 174.5C2.6875 184.89 11.1101 193.312 21.5 193.312Z" fill="white"/>
<path fill-rule="evenodd" clip-rule="evenodd" d="M12.0938 175.051L10.1991 173.156L12.8866 170.469L10.1991 167.781L12.0938 165.887L14.7813 168.574L17.4688 165.887L19.3634 167.781L16.6759 170.469L19.3634 173.156L17.4688 175.051L14.7813 172.363L12.0938 175.051ZM21.5 186.594C23.7264 186.594 25.5313 184.789 25.5313 182.563C25.5313 180.336 23.7264 178.531 21.5 178.531C19.2736 178.531 17.4688 180.336 17.4688 182.563C17.4688 184.789 19.2736 186.594 21.5 186.594ZM30.9063 175.051L32.8009 173.156L30.1134 170.469L32.8009 167.781L30.9063 165.887L28.2188 168.574L25.5313 165.887L23.6366 167.781L26.3241 170.469L23.6366 173.156L25.5313 175.051L28.2188 172.363L30.9063 175.051Z" fill="black"/>
<mask id="mask1" mask-type="alpha" maskUnits="userSpaceOnUse" x="10" y="165" width="23" height="22">
<path fill-rule="evenodd" clip-rule="evenodd" d="M12.0938 175.051L10.1991 173.156L12.8866 170.469L10.1991 167.781L12.0938 165.887L14.7813 168.574L17.4688 165.887L19.3634 167.781L16.6759 170.469L19.3634 173.156L17.4688 175.051L14.7813 172.363L12.0938 175.051ZM21.5 186.594C23.7264 186.594 25.5313 184.789 25.5313 182.563C25.5313 180.336 23.7264 178.531 21.5 178.531C19.2736 178.531 17.4688 180.336 17.4688 182.563C17.4688 184.789 19.2736 186.594 21.5 186.594ZM30.9063 175.051L32.8009 173.156L30.1134 170.469L32.8009 167.781L30.9063 165.887L28.2188 168.574L25.5313 165.887L23.6366 167.781L26.3241 170.469L23.6366 173.156L25.5313 175.051L28.2188 172.363L30.9063 175.051Z" fill="white"/>
</mask>
<g mask="url(#mask1)">
</g>
</svg>
