<svg width="32" height="32" viewBox="0 0 32 32" fill="none" xmlns="http://www.w3.org/2000/svg">
<path fill-rule="evenodd" clip-rule="evenodd" d="M9 9.36551H9.721V8.85851C9.721 7.14451 8.689 5.59551 7.147 4.90051C7.513 4.47751 7.721 3.93351 7.721 3.35951C7.721 2.05751 6.662 0.999512 5.361 0.999512C4.06 0.999512 3.001 2.05751 3.001 3.35951C3.001 3.93351 3.209 4.47751 3.575 4.90051C2.034 5.59551 1 7.14451 1 8.85851V9.36551H1.721V8.85851C1.721 7.25351 2.808 5.82151 4.365 5.37651C4.5 5.33751 4.601 5.22351 4.621 5.08451C4.643 4.94551 4.581 4.80651 4.463 4.72951C3.999 4.42451 3.722 3.91151 3.722 3.35951C3.722 2.45551 4.457 1.71951 5.361 1.71951C6.265 1.71951 7 2.45551 7 3.35951C7 3.91151 6.723 4.42451 6.259 4.72951C6.141 4.80651 6.079 4.94551 6.101 5.08451C6.121 5.22351 6.222 5.33751 6.358 5.37651C7.913 5.82151 9 7.25351 9 8.85851V9.36551ZM25.8607 5.71951L11.3613 5.71951V4.99951H25.8607H25.8613C29.092 4.99984 31.7207 7.62871 31.7207 10.8595C31.7207 14.0915 29.0917 16.7195 25.8607 16.7195V15.9995C28.6947 15.9995 31.0007 13.6935 31.0007 10.8595C31.0007 8.02551 28.6947 5.71951 25.8607 5.71951ZM11.3603 16.7195H6.8603V16.719C4.02648 16.7192 1.7207 19.0251 1.7207 21.859C1.7207 24.693 4.0267 26.999 6.8607 26.999V26.9995H20.4963L18.1065 24.6175L18.6145 24.1075L21.8695 27.3515L18.6155 30.6165L18.1055 30.1075L20.4866 27.7195H6.8603V27.719C3.62948 27.7188 1.0007 25.0909 1.0007 21.859C1.0007 18.628 3.6297 15.999 6.8607 15.999V15.9995H11.3603V16.7195ZM13.7213 18.9995H19.0003V13.7195H13.7213V18.9995ZM19.3603 19.7195H13.3603C13.1613 19.7195 13.0003 19.5585 13.0003 19.3595V13.3595C13.0003 13.1605 13.1613 12.9995 13.3603 12.9995H19.3603C19.5603 12.9995 19.7213 13.1605 19.7213 13.3595V19.3595C19.7213 19.5585 19.5603 19.7195 19.3603 19.7195ZM31.721 31.3655H31V30.8585C31 29.2535 29.913 27.8215 28.358 27.3765C28.222 27.3375 28.121 27.2235 28.101 27.0845C28.079 26.9455 28.141 26.8065 28.259 26.7295C28.723 26.4245 29 25.9115 29 25.3595C29 24.4555 28.265 23.7195 27.361 23.7195C26.457 23.7195 25.722 24.4555 25.722 25.3595C25.722 25.9115 25.999 26.4245 26.463 26.7295C26.581 26.8065 26.643 26.9455 26.621 27.0845C26.601 27.2235 26.5 27.3375 26.365 27.3765C24.808 27.8215 23.721 29.2535 23.721 30.8585V31.3655H23V30.8585C23 29.1445 24.034 27.5955 25.575 26.9005C25.209 26.4775 25.001 25.9335 25.001 25.3595C25.001 24.0575 26.06 22.9995 27.361 22.9995C28.662 22.9995 29.721 24.0575 29.721 25.3595C29.721 25.9335 29.513 26.4775 29.147 26.9005C30.689 27.5955 31.721 29.1445 31.721 30.8585V31.3655ZM25.8603 16.7195H21.3603V15.9995H25.8603V16.7195Z" fill="white"/>
</svg>
