<svg width="13" height="14" viewBox="0 0 13 14" fill="none" xmlns="http://www.w3.org/2000/svg">
<path fill-rule="evenodd" clip-rule="evenodd" d="M6.33406 0.415039C2.84167 0.415039 0 3.25671 0 6.74939C0 10.2418 2.84167 13.0835 6.33406 13.0835C9.82645 13.0835 12.6681 10.2418 12.6681 6.74939C12.6681 3.25671 9.82645 0.415039 6.33406 0.415039ZM6.33433 12.0615C3.4051 12.0615 1.02083 9.67839 1.02083 6.74916C1.02083 3.81851 3.4051 1.43538 6.33433 1.43538C9.26384 1.43538 11.647 3.81964 11.647 6.74916C11.647 9.67839 9.26384 12.0615 6.33433 12.0615Z" fill="white"/>
<path fill-rule="evenodd" clip-rule="evenodd" d="M8.35463 4.7296L5.39839 7.68698L4.31585 6.60415C4.11714 6.40544 3.79391 6.40544 3.5952 6.60415C3.39535 6.804 3.39535 7.12723 3.5952 7.32594L5.03764 8.76952C5.13742 8.86845 5.26734 8.91848 5.39839 8.91848C5.52831 8.91848 5.65936 8.86845 5.75943 8.76952L9.07642 5.45139C9.27627 5.25154 9.27627 4.92945 9.07642 4.7296C8.87771 4.53089 8.55448 4.53089 8.35463 4.7296Z" fill="white"/>
</svg>
