<?xml version="1.0" encoding="UTF-8"?>
<svg width="31px" height="32px" viewBox="0 0 31 32" version="1.1" xmlns="http://www.w3.org/2000/svg" xmlns:xlink="http://www.w3.org/1999/xlink">
    <!-- Generator: Sketch 53.2 (72643) - https://sketchapp.com -->
    <title>curated-list</title>
    <desc>Created with Sketch.</desc>
    <g stroke="none" stroke-width="1" fill="none" fill-rule="evenodd">
        <g fill="#000000">
            <path d="M20.34375,5.5408625 L1.66625,5.5408625 L1.66625,19.375 L15.7554679,19.375 C15.5887591,18.8677186 15.5002906,18.3322715 15.5002906,17.7861531 C15.5002906,15.0407793 17.6431387,12.7854539 20.34375,12.6052616 L20.34375,5.5408625 Z M20.34375,4.8433625 L20.34375,1.66625 L1.66625,1.66625 L1.66625,4.8433625 L20.34375,4.8433625 Z M15.914625,19.7963128 L15.914625,20.0725 L1.3175,20.0725 C1.12471875,20.0725 0.96875,19.9165312 0.96875,19.72375 L0.96875,1.3175 C0.96875,1.12471875 1.12471875,0.96875 1.3175,0.96875 L20.6925,0.96875 C20.8843125,0.96875 21.04125,1.12471875 21.04125,1.3175 L21.04125,12.6052156 C23.7429684,12.7850694 25.8852906,15.0405453 25.8852906,17.7861531 C25.8852906,19.3729656 25.1383844,20.8696844 23.8954781,21.8471531 C27.9477594,23.2092156 30.7174156,27.0096219 30.7174156,31.3370281 L30.0199156,31.3370281 C30.0199156,27.0774344 27.1340094,23.3651844 23.0022906,22.3102156 C22.8647281,22.2753406 22.7620406,22.1600594 22.7426656,22.0195906 C22.7242594,21.8791219 22.7920719,21.7405906 22.9151031,21.6698719 C24.3168844,20.8658094 25.1877906,19.3778094 25.1877906,17.7861531 C25.1877906,15.3080906 23.1718219,13.2911531 20.6927906,13.2911531 C18.2147281,13.2911531 16.1977906,15.3080906 16.1977906,17.7861531 C16.1977906,19.3778094 17.0686969,20.8658094 18.4704781,21.6698719 C18.5935094,21.7405906 18.6622906,21.8791219 18.6429156,22.0195906 C18.6235406,22.1600594 18.5208531,22.2753406 18.3832906,22.3102156 C14.2515719,23.3651844 11.3656656,27.0774344 11.3656656,31.3370281 L10.6681656,31.3370281 C10.6681656,27.0096219 13.4378219,23.2092156 17.4901031,21.8471531 C16.7953704,21.3007889 16.2556052,20.5921932 15.914625,19.7963128 Z M19.3369281,3.25509687 C19.3369281,3.57575312 19.0763344,3.83634687 18.7556781,3.83634687 C18.4340531,3.83634687 18.1744281,3.57575312 18.1744281,3.25509687 C18.1744281,2.93347187 18.4340531,2.67384687 18.7556781,2.67384687 C19.0763344,2.67384687 19.3369281,2.93347187 19.3369281,3.25509687 Z M17.3994281,3.25509687 C17.3994281,3.57575312 17.1388344,3.83634687 16.8181781,3.83634687 C16.4965531,3.83634687 16.2369281,3.57575312 16.2369281,3.25509687 C16.2369281,2.93347187 16.4965531,2.67384687 16.8181781,2.67384687 C17.1388344,2.67384687 17.3994281,2.93347187 17.3994281,3.25509687 Z M15.4619281,3.25509687 C15.4619281,3.57575312 15.2013344,3.83634687 14.8806781,3.83634687 C14.5590531,3.83634687 14.2994281,3.57575312 14.2994281,3.25509687 C14.2994281,2.93347187 14.5590531,2.67384687 14.8806781,2.67384687 C15.2013344,2.67384687 15.4619281,2.93347187 15.4619281,3.25509687 Z M3.25480625,8.4471125 L3.25480625,7.7496125 L11.0048062,7.7496125 L11.0048062,8.4471125 L3.25480625,8.4471125 Z M3.255775,11.3533625 L3.255775,10.6558625 L11.005775,10.6558625 L11.005775,11.3533625 L3.255775,11.3533625 Z M3.255775,14.2596125 L3.255775,13.5621125 L11.005775,13.5621125 L11.005775,14.2596125 L3.255775,14.2596125 Z"></path>
        </g>
    </g>
</svg>