<?xml version="1.0" encoding="UTF-8"?>
<svg width="163px" height="30px" viewBox="0 0 163 30" version="1.1" xmlns="http://www.w3.org/2000/svg" xmlns:xlink="http://www.w3.org/1999/xlink">
    <!-- Generator: sketchtool 53 (72520) - https://sketchapp.com -->
    <title>697F83F3-F555-4988-A9C8-FA923B509928</title>
    <desc>Created with sketchtool.</desc>
    <g id="Page-1-Copy" stroke="none" stroke-width="1" fill="none" fill-rule="evenodd">
        <g id="Homepage" transform="translate(-41.000000, -28.000000)">
            <g id="Header-01">
                <g id="Group-10">
                    <g id="logo/black" transform="translate(41.000000, 28.000000)">
                        <g id="Group-7">
                            <text id="Dream-Projects" font-family="AktivGrotesk-Bold, Aktiv Grotesk" font-size="18" font-weight="bold" letter-spacing="-0.4285714" fill="#000000">
                                <tspan x="36" y="22">Dream Projects</tspan>
                            </text>
                            <g id="dream_projects_logo" transform="translate(-0.000000, 0.000000)">
                                <path d="M14,1 C17.7,1 21.2,2.5 23.9,5.1 C26.6,7.7 28,11.3 28,15 C28,22.7 21.7,29 14,29 L1,29 L1,1 L14,1 L14,1 Z M14,0 L0,0 L0,30 L14,30 C14,30 14,30 14,30 C22.3,30 29,23.3 29,15 C29,6.7 22.3,0 14,0 L14,0 Z" id="Shape" fill="#000000" fill-rule="nonzero"></path>
                                <path d="M13.3,0 L13.3,30" id="Path" stroke="#000000"></path>
                                <circle id="Oval" stroke="#000000" cx="19.3" cy="8.3" r="5.4"></circle>
                            </g>
                        </g>
                    </g>
                </g>
            </g>
        </g>
    </g>
</svg>