<svg width="64" height="64" viewBox="0 0 64 64" fill="none" xmlns="http://www.w3.org/2000/svg">
<circle cx="32" cy="32" r="32" fill="black"/>
<path fill-rule="evenodd" clip-rule="evenodd" d="M40.3599 33.7198C44.0209 33.7198 46.9999 36.6988 46.9999 40.3598C46.9999 44.0208 44.0209 46.9998 40.3599 46.9998C36.6989 46.9998 33.7199 44.0208 33.7199 40.3598C33.7199 39.3038 33.9749 38.2558 34.4589 37.3268C34.9689 36.3208 35.7339 35.4618 36.6719 34.8408C37.7639 34.1078 39.0399 33.7198 40.3599 33.7198V33.7198ZM17.7199 42.4098C17.7199 37.9508 20.5849 33.9478 24.8489 32.4498C24.9839 32.4018 25.0779 32.2788 25.0889 32.1358C25.0989 31.9928 25.0239 31.8568 24.8959 31.7908C22.4009 30.4878 20.8499 27.9588 20.8499 25.1898C20.8499 21.0708 24.2009 17.7198 28.3199 17.7198C32.4389 17.7198 35.7899 21.0708 35.7899 25.1898C35.7899 27.9628 34.2399 30.4878 31.7439 31.7808C31.6169 31.8468 31.5409 31.9818 31.5509 32.1258C31.5609 32.2688 31.6549 32.3928 31.7909 32.4398C33.1979 32.9328 34.4959 33.7398 35.5859 34.7628C34.8579 35.3828 34.2529 36.1408 33.8179 36.9968C33.2829 38.0258 32.9999 39.1888 32.9999 40.3598C32.9999 44.4178 36.3019 47.7198 40.3599 47.7198C44.4179 47.7198 47.7199 44.4178 47.7199 40.3598C47.7199 36.3018 44.4179 32.9998 40.3599 32.9998C38.8959 32.9998 37.4819 33.4298 36.2719 34.2418C36.2359 34.2648 36.2059 34.2948 36.1709 34.3188C35.1739 33.3628 34.0069 32.5788 32.7389 32.0368C35.0829 30.5378 36.5099 27.9778 36.5099 25.1898C36.5099 20.6738 32.8359 16.9998 28.3199 16.9998C23.8039 16.9998 20.1299 20.6738 20.1299 25.1898C20.1299 27.9748 21.5579 30.5378 23.9019 32.0458C19.7439 33.8228 16.9999 37.8968 16.9999 42.4098V48.3598H17.7199V42.4098ZM39.3594 40.7198H41.3594C41.7134 40.7198 42.0004 41.0068 42.0004 41.3598C42.0004 41.7128 41.7134 41.9998 41.3594 41.9998H38.3594V42.7198H40.0004V43.8598H40.7194V42.7198H41.3594C42.1094 42.7198 42.7194 42.1098 42.7194 41.3598C42.7194 40.6098 42.1094 39.9998 41.3594 39.9998H39.3594C39.0064 39.9998 38.7194 39.7128 38.7194 39.3598C38.7194 39.0068 39.0064 38.7198 39.3594 38.7198H42.3594V37.9998H40.7194V36.8598H40.0004V37.9998H39.3594C38.6094 37.9998 38.0004 38.6098 38.0004 39.3598C38.0004 40.1098 38.6094 40.7198 39.3594 40.7198" fill="white"/>
</svg>
