<?xml version="1.0" encoding="UTF-8"?>
<svg width="30px" height="28px" viewBox="0 0 30 28" version="1.1" xmlns="http://www.w3.org/2000/svg" xmlns:xlink="http://www.w3.org/1999/xlink">
    <!-- Generator: Sketch 53.2 (72643) - https://sketchapp.com -->
    <title>interview</title>
    <desc>Created with Sketch.</desc>
    <g stroke="none" stroke-width="1" fill="none" fill-rule="evenodd">
        <g transform="translate(0.000000, -1.000000)" fill="#000000">
            <path d="M19.2113437,15.6749063 L11.4660938,15.6749063 L12.8784375,17.08725 L12.40125,17.5644375 L10.17375,15.337875 L12.40125,13.110375 L12.8784375,13.586625 L11.4666694,14.9999063 L19.2107681,14.9999063 L17.799,13.586625 L18.2761875,13.110375 L20.5036875,15.337875 L18.2761875,17.5644375 L17.799,17.08725 L19.2113437,15.6749063 Z M7.238625,28.4624063 L6.563625,28.4624063 L6.563625,19.8655313 C6.563625,19.7230313 6.6526875,19.5964688 6.78675,19.5477188 C7.85175,19.1642813 8.438625,18.3439688 8.438625,17.2395938 L8.438625,12.8455313 C8.438625,10.7867813 6.9076875,9.11240625 5.026125,9.11240625 C3.143625,9.11240625 1.6126875,10.7914688 1.6126875,12.8558438 L1.6126875,17.2499063 C1.6126875,18.3467813 2.1995625,19.1633438 3.2655,19.5486563 C3.3995625,19.5964688 3.488625,19.7230313 3.488625,19.8655313 L3.488625,28.4624063 L2.813625,28.4624063 L2.813625,20.0952188 C1.617375,19.5786563 0.9376875,18.5539688 0.9376875,17.2499063 L0.9376875,12.8558438 C0.9376875,10.4192813 2.7714375,8.43740625 5.026125,8.43740625 C7.279875,8.43740625 9.113625,10.4145938 9.113625,12.8455313 L9.113625,17.2395938 C9.113625,18.5502188 8.4339375,19.5777188 7.238625,20.0952188 L7.238625,28.4624063 Z M5.02575,2.5498125 C3.9195,2.5498125 3.0195,3.4498125 3.0195,4.5560625 C3.0195,5.6623125 3.9195,6.5623125 5.02575,6.5623125 C6.132,6.5623125 7.032,5.6623125 7.032,4.5560625 C7.032,3.4498125 6.132,2.5498125 5.02575,2.5498125 Z M5.02575,7.2373125 C3.5473125,7.2373125 2.3445,6.0345 2.3445,4.5560625 C2.3445,3.077625 3.5473125,1.8748125 5.02575,1.8748125 C6.5041875,1.8748125 7.707,3.077625 7.707,4.5560625 C7.707,6.0345 6.5041875,7.2373125 5.02575,7.2373125 Z M27.8640937,28.4624063 L27.1890937,28.4624063 L27.1890937,19.8655313 C27.1890937,19.7230313 27.2781562,19.5964688 27.4122187,19.5477188 C28.4772187,19.1642813 29.0640937,18.3439688 29.0640937,17.2395938 L29.0640937,12.8455313 C29.0640937,10.7867813 27.5331562,9.11240625 25.6515937,9.11240625 C23.7690937,9.11240625 22.2381562,10.7914688 22.2381562,12.8558438 L22.2381562,17.2499063 C22.2381562,18.3467813 22.8250312,19.1633438 23.8909687,19.5486563 C24.0250312,19.5964688 24.1140937,19.7230313 24.1140937,19.8655313 L24.1140937,28.4624063 L23.4390937,28.4624063 L23.4390937,20.0952188 C22.2437812,19.5786563 21.5631562,18.5539688 21.5631562,17.2499063 L21.5631562,12.8558438 C21.5631562,10.4192813 23.3969062,8.43740625 25.6515937,8.43740625 C27.9053437,8.43740625 29.7390937,10.4145938 29.7390937,12.8455313 L29.7390937,17.2395938 C29.7390937,18.5502188 29.0594062,19.5777188 27.8640937,20.0952188 L27.8640937,28.4624063 Z M25.6512188,2.5498125 C24.5449688,2.5498125 23.6449688,3.4498125 23.6449688,4.5560625 C23.6449688,5.6623125 24.5449688,6.5623125 25.6512188,6.5623125 C26.7574688,6.5623125 27.6574688,5.6623125 27.6574688,4.5560625 C27.6574688,3.4498125 26.7574688,2.5498125 25.6512188,2.5498125 Z M25.6512188,7.2373125 C24.1727813,7.2373125 22.9699688,6.0345 22.9699688,4.5560625 C22.9699688,3.077625 24.1727813,1.8748125 25.6512188,1.8748125 C27.1296563,1.8748125 28.3324688,3.077625 28.3324688,4.5560625 C28.3324688,6.0345 27.1296563,7.2373125 25.6512188,7.2373125 Z"></path>
        </g>
    </g>
</svg>