<svg width="64" height="64" viewBox="0 0 64 64" fill="none" xmlns="http://www.w3.org/2000/svg">
<circle cx="32" cy="32" r="32" fill="black"/>
<path fill-rule="evenodd" clip-rule="evenodd" d="M42.7123 43.8445C42.7823 43.9145 42.8743 43.9495 42.9663 43.9495C43.0583 43.9495 43.1503 43.9145 43.2203 43.8445C46.1223 40.9425 47.7193 37.0855 47.7193 32.9825C47.7193 28.8715 46.1163 25.0085 43.2053 22.1055C43.0643 21.9655 42.8363 21.9645 42.6963 22.1065C42.5553 22.2475 42.5563 22.4745 42.6963 22.6155C45.4713 25.3825 47.0003 29.0635 47.0003 32.9825C47.0003 36.8925 45.4773 40.5695 42.7123 43.3345C42.5713 43.4745 42.5713 43.7035 42.7123 43.8445ZM21.7534 43.9495C21.6614 43.9495 21.5694 43.9145 21.4994 43.8445C18.5974 40.9415 17.0004 37.0855 17.0004 32.9825C17.0004 28.8795 18.5974 25.0225 21.4994 22.1215C21.6394 21.9805 21.8674 21.9805 22.0074 22.1215C22.1484 22.2625 22.1484 22.4905 22.0074 22.6315C19.2424 25.3955 17.7194 29.0715 17.7194 32.9825C17.7194 36.8925 19.2424 40.5685 22.0074 43.3345C22.1484 43.4745 22.1484 43.7035 22.0074 43.8445C21.9374 43.9145 21.8454 43.9495 21.7534 43.9495ZM23.6891 32.9831C23.6891 28.2191 27.5651 24.3431 32.3291 24.3431C37.0931 24.3431 40.9691 28.2191 40.9691 32.9831C40.9691 37.7461 37.0931 41.6221 32.3291 41.6221C27.5651 41.6221 23.6891 37.7461 23.6891 32.9831ZM22.9691 32.9831C22.9691 38.1441 27.1681 42.3431 32.3291 42.3431C37.4901 42.3431 41.6891 38.1441 41.6891 32.9831C41.6891 27.8221 37.4901 23.6221 32.3291 23.6221C27.1681 23.6221 22.9691 27.8221 22.9691 32.9831ZM31.045 38.7683L31.644 39.1663L33.538 36.3273H35.345C36.646 36.3273 37.705 35.2693 37.705 33.9673V30.9673C37.705 29.6653 36.646 28.6063 35.345 28.6063H29.345C28.043 28.6063 26.985 29.6653 26.985 30.9673V33.9673C26.985 35.2693 28.043 36.3273 29.345 36.3273H31.345V35.6063H29.345C28.44 35.6063 27.705 34.8713 27.705 33.9673V30.9673C27.705 30.0623 28.44 29.3273 29.345 29.3273H35.345C36.249 29.3273 36.985 30.0623 36.985 30.9673V33.9673C36.985 34.8713 36.249 35.6063 35.345 35.6063H33.345C33.224 35.6063 33.112 35.6673 33.045 35.7683L31.045 38.7683ZM23.876 41.8284C23.784 41.8284 23.692 41.7934 23.622 41.7234C21.287 39.3884 20.001 36.2834 20.001 32.9824C20.001 29.6824 21.286 26.5774 23.621 24.2434C23.761 24.1024 23.989 24.1024 24.129 24.2434C24.27 24.3844 24.27 24.6124 24.129 24.7534C21.932 26.9514 20.721 29.8734 20.721 32.9824C20.721 36.0924 21.932 39.0154 24.13 41.2134C24.271 41.3534 24.271 41.5824 24.13 41.7234C24.06 41.7934 23.968 41.8284 23.876 41.8284ZM40.5922 41.7234C40.6622 41.7934 40.7542 41.8284 40.8462 41.8284C40.9382 41.8284 41.0302 41.7934 41.1002 41.7234C43.4352 39.3884 44.7212 36.2844 44.7212 32.9824C44.7212 29.6734 43.4292 26.5624 41.0842 24.2264C40.9442 24.0864 40.7162 24.0874 40.5752 24.2274C40.4352 24.3684 40.4352 24.5964 40.5762 24.7364C42.7842 26.9364 44.0012 29.8654 44.0012 32.9824C44.0012 36.0924 42.7902 39.0154 40.5922 41.2134C40.4512 41.3534 40.4512 41.5824 40.5922 41.7234Z" fill="white"/>
</svg>
