<?xml version="1.0" encoding="UTF-8"?>
<svg width="28px" height="31px" viewBox="0 0 28 31" version="1.1" xmlns="http://www.w3.org/2000/svg" xmlns:xlink="http://www.w3.org/1999/xlink">
    <!-- Generator: Sketch 53.2 (72643) - https://sketchapp.com -->
    <title>judges</title>
    <desc>Created with Sketch.</desc>
    <g stroke="none" stroke-width="1" fill="none" fill-rule="evenodd">
        <g transform="translate(-1.000000, 0.000000)" fill="#000000">
            <path d="M17.3007184,7.00183525 C18.865589,7.74082406 19.9506562,9.33442714 19.9506562,11.1763125 C19.9506562,12.712875 19.1819062,14.13225 17.9387812,14.9825625 C21.0587812,16.071 23.1747187,19.005375 23.1747187,22.3775625 L23.1747187,30.337875 L22.4997187,30.337875 L22.4997187,22.3775625 C22.4997187,19.042875 20.2365937,16.177875 16.9947187,15.4100625 C16.8540937,15.3763125 16.7500312,15.25725 16.7369062,15.112875 C16.7228437,14.9685 16.8034687,14.8325625 16.9356562,14.7725625 C18.3569062,14.13975 19.2756562,12.727875 19.2756562,11.1763125 C19.2756562,9.004125 17.5094062,7.237875 15.3372187,7.237875 C13.1659687,7.237875 11.3987812,9.004125 11.3987812,11.1763125 C11.3987812,12.727875 12.3175312,14.13975 13.7397187,14.7725625 C13.8719062,14.8325625 13.9515937,14.9685 13.9375312,15.112875 C13.9244062,15.25725 13.8203437,15.3763125 13.6797187,15.4100625 C10.4387812,16.177875 8.17471875,19.042875 8.17471875,22.3775625 L8.17471875,30.337875 L7.50065625,30.337875 L7.50065625,22.3775625 C7.50065625,19.005375 9.61565625,16.071 12.7365937,14.9825625 C11.4934687,14.13225 10.7247187,12.712875 10.7247187,11.1763125 C10.7247187,9.33467721 11.8094914,7.74125678 13.3736634,7.00213629 C13.5572099,6.54183348 13.6497187,6.05454789 13.6497187,5.5513125 C13.6497187,3.379125 11.8834687,1.612875 9.71221875,1.612875 C7.54096875,1.612875 5.77378125,3.379125 5.77378125,5.5513125 C5.77378125,7.102875 6.69253125,8.51475 8.11471875,9.1475625 C8.24690625,9.2075625 8.32659375,9.3435 8.31253125,9.487875 C8.29940625,9.63225 8.19534375,9.7513125 8.05471875,9.7850625 C4.81378125,10.552875 2.54971875,13.417875 2.54971875,16.7525625 L2.54971875,24.712875 L1.87471875,24.712875 L1.87471875,16.7525625 C1.87471875,13.380375 3.99065625,10.446 7.11159375,9.3575625 C5.86846875,8.50725 5.09971875,7.087875 5.09971875,5.5513125 C5.09971875,3.007875 7.16878125,0.937875 9.71221875,0.937875 C12.2556562,0.937875 14.3247187,3.007875 14.3247187,5.5513125 C14.3247187,5.9469521 14.2753952,6.33467113 14.1778636,6.71045364 C14.5484229,6.61414216 14.9369464,6.562875 15.3372187,6.562875 C15.7374673,6.562875 16.1259541,6.61409832 16.496475,6.71033009 C16.3987867,6.33389264 16.3497187,5.94621051 16.3497187,5.5513125 C16.3497187,3.007875 18.4187812,0.937875 20.9622187,0.937875 C23.5065937,0.937875 25.5756562,3.007875 25.5756562,5.5513125 C25.5756562,7.087875 24.8069062,8.50725 23.5637812,9.3575625 C26.6837812,10.446 28.7997187,13.380375 28.7997187,16.7525625 L28.7997187,24.712875 L28.1247187,24.712875 L28.1247187,16.7525625 C28.1247187,13.417875 25.8615937,10.552875 22.6197187,9.7850625 C22.4790937,9.7513125 22.3750312,9.63225 22.3619062,9.487875 C22.3478437,9.3435 22.4284687,9.2075625 22.5606562,9.1475625 C23.9819062,8.51475 24.9006562,7.102875 24.9006562,5.5513125 C24.9006562,3.379125 23.1344062,1.612875 20.9622187,1.612875 C18.7909687,1.612875 17.0237812,3.379125 17.0237812,5.5513125 C17.0237812,6.05364708 17.1170741,6.54083153 17.3007184,7.00183525 Z"></path>
        </g>
    </g>
</svg>