<svg width="32" height="32" viewBox="0 0 32 32" fill="none" xmlns="http://www.w3.org/2000/svg">
<path fill-rule="evenodd" clip-rule="evenodd" d="M14.4928 5.753L13.9838 5.243L15.4591 3.76766C8.90796 4.2311 3.72 9.70876 3.72 16.3759C3.72 22.2669 7.718 27.3249 13.443 28.6779L13.277 29.3789C7.226 27.9489 3 22.6029 3 16.3759C3 9.29208 8.54113 3.47865 15.5168 3.0422L13.9838 1.51L14.4928 1L16.8688 3.376L14.4928 5.753ZM9.7223 21.376H9.0023V17.629C9.0023 15.864 10.0453 14.314 11.6143 13.634C11.0563 13.141 10.7223 12.424 10.7223 11.656C10.7223 10.2 11.9063 9.016 13.3613 9.016C14.8173 9.016 16.0013 10.2 16.0013 11.656C16.0013 11.7873 15.9919 11.9169 15.9732 12.0445C16.0999 12.0257 16.2295 12.016 16.3613 12.016C16.4931 12.016 16.6227 12.0257 16.7494 12.0444C16.7307 11.9168 16.7213 11.7872 16.7213 11.656C16.7213 10.2 17.9053 9.016 19.3613 9.016C20.8163 9.016 22.0003 10.2 22.0003 11.656C22.0003 12.424 21.6663 13.141 21.1083 13.634C22.6783 14.314 23.7203 15.864 23.7203 17.629V21.376H23.0003V17.629C23.0003 15.935 21.8503 14.48 20.2033 14.089C20.0533 14.053 19.9423 13.926 19.9283 13.772C19.9133 13.618 19.9983 13.472 20.1393 13.409C20.8333 13.102 21.2813 12.413 21.2813 11.656C21.2813 10.598 20.4193 9.736 19.3613 9.736C18.3023 9.736 17.4413 10.598 17.4413 11.656C17.4413 11.8792 17.4783 12.0953 17.5518 12.2998C18.4112 12.7357 19.0013 13.6281 19.0013 14.656C19.0013 15.424 18.6663 16.141 18.1083 16.634C19.6783 17.314 20.7203 18.864 20.7203 20.629V24.376H20.0003V20.629C20.0003 18.935 18.8503 17.48 17.2033 17.089C17.0533 17.053 16.9423 16.926 16.9283 16.772C16.9143 16.618 16.9993 16.472 17.1403 16.409C17.8333 16.102 18.2813 15.413 18.2813 14.656C18.2813 13.598 17.4203 12.736 16.3613 12.736C15.3033 12.736 14.4413 13.598 14.4413 14.656C14.4413 15.413 14.8893 16.102 15.5823 16.409C15.7233 16.472 15.8083 16.618 15.7943 16.772C15.7803 16.926 15.6693 17.053 15.5193 17.089C13.8723 17.48 12.7213 18.935 12.7213 20.629V24.376H12.0023V20.629C12.0023 18.864 13.0443 17.314 14.6143 16.634C14.0563 16.141 13.7213 15.424 13.7213 14.656C13.7213 13.6283 14.3117 12.7361 15.1706 12.3002C15.2445 12.0949 15.2823 11.8786 15.2823 11.656C15.2823 10.598 14.4203 9.736 13.3613 9.736C12.3033 9.736 11.4413 10.598 11.4413 11.656C11.4413 12.413 11.8893 13.102 12.5823 13.409C12.7233 13.472 12.8083 13.618 12.7943 13.772C12.7803 13.926 12.6693 14.053 12.5193 14.089C10.8723 14.48 9.7223 15.935 9.7223 17.629V21.376ZM18.2272 31.7559L15.8512 29.3799L18.2272 27.0039L18.7362 27.5139L17.2618 28.9875C23.8126 28.5236 29 23.0462 29 16.3803C29 10.4893 25.002 5.4303 19.277 4.0783L19.443 3.3773C25.494 4.8063 29.72 10.1533 29.72 16.3803C29.72 23.464 24.179 29.2774 17.2035 29.714L18.7362 31.2459L18.2272 31.7559Z" fill="white"/>
</svg>
