<svg width="32" height="32" viewBox="0 0 32 32" fill="none" xmlns="http://www.w3.org/2000/svg">
<path fill-rule="evenodd" clip-rule="evenodd" d="M13.596 18.7702C11.132 17.6752 9.54 15.2292 9.54 12.5392C9.54 11.5472 9.757 10.5982 10.166 9.70925C14.203 9.70625 21.241 9.70425 22.554 9.70725C22.964 10.5972 23.18 11.5472 23.18 12.5392C23.18 15.2282 21.592 17.6732 19.134 18.7702C18.992 18.8332 18.908 18.9792 18.922 19.1332C18.936 19.2862 19.047 19.4143 19.197 19.4493C20.848 19.8423 22.363 20.5522 23.688 21.4862L20.578 26.8682L16.54 24.5372C16.429 24.4742 16.292 24.4742 16.18 24.5372L12.142 26.8682L9.034 21.4893C10.361 20.5533 11.878 19.8423 13.533 19.4493C13.683 19.4143 13.794 19.2862 13.808 19.1322C13.823 18.9782 13.737 18.8332 13.596 18.7702V18.7702ZM16.36 0.77525L26.64 6.70925L23.15 8.72525V7.40925C23.15 7.27825 23.079 7.15725 22.964 7.09425L22.511 6.84025C21.057 6.02025 19.249 4.99925 16.39 4.99925C13.491 4.99925 11.645 6.03525 10.162 6.86725L9.757 7.09425C9.641 7.15725 9.57 7.27825 9.57 7.40925V8.72625L6.08 6.70925L16.36 0.77525ZM22.43 9.01425C21.704 8.99225 20.062 8.98725 16.247 8.98725C14.667 8.98725 12.702 8.98825 10.29 8.98925V7.62125L10.515 7.49525C11.925 6.70425 13.679 5.71925 16.39 5.71925C19.06 5.71925 20.777 6.68825 22.157 7.46725L22.43 7.62025V9.01425ZM3 31.3592H3.72C3.72 27.6652 5.554 24.2183 8.453 21.9223L11.699 27.5403C11.797 27.7123 12.017 27.7712 12.19 27.6712L16.36 25.2652L20.531 27.6712C20.587 27.7042 20.649 27.7192 20.71 27.7192C20.834 27.7192 20.955 27.6553 21.022 27.5403L24.268 21.9202C27.166 24.2162 29 27.6642 29 31.3592H29.72C29.72 25.7752 25.792 20.7112 20.257 18.9942C22.497 17.6392 23.9 15.1963 23.9 12.5393C23.9 11.4773 23.673 10.4583 23.247 9.50125L27.54 7.02025C27.652 6.95725 27.72 6.83725 27.72 6.70925C27.72 6.58025 27.652 6.46125 27.54 6.39725L16.54 0.04725C16.429 -0.01575 16.291 -0.01575 16.18 0.04725L5.18 6.39725C5.069 6.46125 5 6.58025 5 6.70925C5 6.72325 5.009 6.73425 5.011 6.74825V15.3593H5.73V7.33825L9.473 9.50125C9.048 10.4583 8.82 11.4773 8.82 12.5393C8.82 15.1983 10.226 17.6412 12.471 18.9942C6.931 20.7112 3 25.7752 3 31.3592V31.3592Z" fill="white"/>
</svg>
