<?xml version="1.0" encoding="UTF-8"?>
<svg width="30px" height="25px" viewBox="0 0 30 25" version="1.1" xmlns="http://www.w3.org/2000/svg" xmlns:xlink="http://www.w3.org/1999/xlink">
    <!-- Generator: Sketch 53.2 (72643) - https://sketchapp.com -->
    <title>specialized</title>
    <desc>Created with Sketch.</desc>
    <g stroke="none" stroke-width="1" fill="none" fill-rule="evenodd">
        <g transform="translate(-1.000000, -3.000000)" fill="#000000">
            <path d="M23.47934,21.5287117 L30.5498219,25.6105531 L30.2010719,26.2140844 L23.1307429,22.1323312 C20.8814561,25.7814988 16.9511064,27.8175594 12.9197344,27.8175594 C10.8892344,27.8175594 8.83451562,27.3021844 6.95320312,26.2162156 C1.23564062,22.9147156 -0.730921875,15.5764344 2.57057812,9.85984063 C5.87207812,4.14324688 13.2093906,2.17474688 18.9269531,5.47721563 C21.6966094,7.07565313 23.6777031,9.65737188 24.5059844,12.7467156 C25.3032047,15.7246228 24.9372963,18.8293677 23.47934,21.5287117 Z M19.3704469,25.1087209 L19.3704469,24.0448594 C19.3704469,21.0640156 17.3447906,18.4948906 14.4453219,17.7973906 C14.3000094,17.7634844 14.1934469,17.6394844 14.1798844,17.4902969 C14.1663219,17.3420781 14.2476969,17.2006406 14.3842906,17.1405781 C15.6591656,16.5680469 16.4826031,15.3018906 16.4826031,13.9117344 C16.4826031,11.9567969 14.8919156,10.3680469 12.9379469,10.3680469 C10.9839781,10.3680469 9.39329063,11.9567969 9.39329063,13.9117344 C9.39329063,15.3018906 10.2176969,16.5680469 11.4916031,17.1405781 C11.6281969,17.2006406 11.7105406,17.3420781 11.6960094,17.4902969 C11.6824469,17.6394844 11.5758844,17.7634844 11.4305719,17.7973906 C8.53110313,18.4948906 6.50544688,21.0640156 6.50544688,24.0448594 L6.50544688,25.107637 C6.76162446,25.285411 7.02718988,25.453996 7.30195312,25.6126844 C11.1985833,27.8638681 15.8948373,27.5142446 19.3704469,25.1087209 Z M5.80794688,24.5824444 L5.80794688,24.0448594 C5.80794688,21.0194531 7.69119688,18.3757344 10.4763531,17.3585469 C9.37488438,16.5719219 8.69675938,15.2922031 8.69675938,13.9117344 C8.69675938,11.5731719 10.5993844,9.66957813 12.9379469,9.66957813 C15.2774781,9.66957813 17.1801031,11.5731719 17.1801031,13.9117344 C17.1801031,15.2922031 16.5010094,16.5709531 15.3995406,17.3585469 C18.1856656,18.3757344 20.0679469,21.0184844 20.0679469,24.0448594 L20.0679469,24.5847298 C21.1009906,23.7438289 22.0007193,22.7049534 22.7050781,21.4848406 C24.2114844,18.8769656 24.6115781,15.8370281 23.8317344,12.9278719 C23.0518906,10.0177469 21.1870469,7.58618438 18.5782031,6.08074688 C16.8073281,5.05871563 14.8707969,4.57240313 12.9594531,4.57240313 C9.05926562,4.57240313 5.26079687,6.59418438 3.17507812,10.2076219 C0.373273228,15.0597195 1.59950647,21.1496407 5.80794688,24.5824444 Z"></path>
        </g>
    </g>
</svg>