<?xml version="1.0" encoding="UTF-8"?>
<svg width="30px" height="30px" viewBox="0 0 30 30" version="1.1" xmlns="http://www.w3.org/2000/svg" xmlns:xlink="http://www.w3.org/1999/xlink">
    <!-- Generator: Sketch 53.2 (72643) - https://sketchapp.com -->
    <title>storage</title>
    <desc>Created with Sketch.</desc>
    <g stroke="none" stroke-width="1" fill="none" fill-rule="evenodd">
        <g fill="#000000">
            <path d="M5.34571875,29.0625 L26.9682187,29.0625 C28.1232187,29.0625 29.0625938,28.123125 29.0625938,26.9690625 L29.0625938,6.3009375 L6.30103125,6.3009375 L6.30103125,26.8959375 C6.30103125,27.7546875 5.92790625,28.5375 5.34571875,29.0625 L5.34571875,29.0625 Z M1.61353125,1.6134375 L1.61353125,26.9690625 C1.61353125,27.571875 1.84040625,28.1221875 2.25196875,28.51875 C2.61665625,28.869375 3.09759375,29.060625 3.61134375,29.0625 L3.61884375,29.0625 L3.64134375,29.0625 C3.66196875,29.0625 3.68353125,29.0625 3.70415625,29.0615625 C4.76353125,29.019375 5.62509375,28.048125 5.62509375,26.8959375 L5.62509375,5.9625 C5.62509375,5.7759375 5.77603125,5.625 5.96259375,5.625 L24.3750938,5.625 L24.3750938,3.4884375 L12.5250937,3.4884375 C12.4585313,3.4884375 12.3938437,3.4678125 12.3385312,3.43125 L9.61040625,1.6134375 L1.61353125,1.6134375 Z M3.61978125,29.7384375 C2.92603125,29.7384375 2.27915625,29.4796875 1.78415625,29.0053125 C1.24603125,28.48875 0.93759375,27.74625 0.93759375,26.9690625 L0.93759375,1.275 C0.93759375,1.0884375 1.08853125,0.9375 1.27509375,0.9375 L9.71259375,0.9375 C9.77915625,0.9375 9.84478125,0.9571875 9.89915625,0.9946875 L12.6282187,2.8125 L24.7125937,2.8125 C24.8991563,2.8125 25.0510313,2.9634375 25.0510313,3.15 L25.0510313,5.625 L29.4000937,5.625 C29.5866563,5.625 29.7385313,5.7759375 29.7385313,5.9625 L29.7385313,26.9690625 C29.7385313,28.49625 28.4954062,29.7384375 26.9682187,29.7384375 L3.64509375,29.7384375 L3.61978125,29.7384375 Z"></path>
        </g>
    </g>
</svg>