<svg width="154" height="62" viewBox="0 0 154 62" fill="none" xmlns="http://www.w3.org/2000/svg">
<path d="M44.7746 25.8062C44.8346 26.5982 45.0866 27.1742 45.5306 27.5342C45.9866 27.8942 46.6526 28.0742 47.5286 28.0742C47.9486 28.0742 48.3026 28.0322 48.5906 27.9482C48.8786 27.8522 49.1126 27.7322 49.2926 27.5882C49.4726 27.4322 49.5986 27.2522 49.6706 27.0482C49.7546 26.8442 49.7966 26.6222 49.7966 26.3822C49.7966 26.0462 49.6706 25.7342 49.4186 25.4462C49.1666 25.1462 48.7046 24.9302 48.0326 24.7982L46.3586 24.4922C45.6986 24.3722 45.1166 24.2162 44.6126 24.0242C44.1086 23.8322 43.6826 23.5862 43.3346 23.2862C42.9986 22.9742 42.7406 22.5962 42.5606 22.1522C42.3806 21.7082 42.2906 21.1802 42.2906 20.5682C42.2906 19.9562 42.4106 19.4162 42.6506 18.9482C42.9026 18.4802 43.2446 18.0902 43.6766 17.7782C44.1206 17.4662 44.6486 17.2322 45.2606 17.0762C45.8726 16.9082 46.5446 16.8242 47.2766 16.8242C48.2126 16.8242 48.9926 16.9322 49.6166 17.1482C50.2406 17.3642 50.7446 17.6522 51.1286 18.0122C51.5126 18.3602 51.7946 18.7682 51.9746 19.2362C52.1666 19.7042 52.2926 20.1902 52.3526 20.6942L49.8146 21.0182C49.6826 20.3102 49.4246 19.8002 49.0406 19.4882C48.6686 19.1762 48.0986 19.0202 47.3306 19.0202C46.8746 19.0202 46.4966 19.0622 46.1966 19.1462C45.9086 19.2182 45.6746 19.3202 45.4946 19.4522C45.3146 19.5722 45.1886 19.7162 45.1166 19.8842C45.0446 20.0522 45.0086 20.2262 45.0086 20.4062C45.0086 20.8862 45.1406 21.2462 45.4046 21.4862C45.6806 21.7262 46.1426 21.9122 46.7906 22.0442L48.5546 22.3862C49.9466 22.6622 50.9666 23.1122 51.6146 23.7362C52.2626 24.3482 52.5866 25.2362 52.5866 26.4002C52.5866 26.9642 52.4786 27.4862 52.2626 27.9662C52.0586 28.4342 51.7466 28.8482 51.3266 29.2082C50.9186 29.5562 50.4026 29.8262 49.7786 30.0182C49.1546 30.2222 48.4226 30.3242 47.5826 30.3242C45.8306 30.3242 44.4866 29.9522 43.5506 29.2082C42.6266 28.4522 42.1286 27.3182 42.0566 25.8062H44.7746Z" fill="white"/>
<path d="M54.1802 20.6042H56.7002V26.4722C56.7002 27.1442 56.8202 27.6002 57.0602 27.8402C57.3002 28.0682 57.6302 28.1822 58.0502 28.1822C58.3742 28.1822 58.6382 28.1342 58.8422 28.0382C59.0582 27.9422 59.2622 27.8042 59.4542 27.6242C59.6462 27.4562 59.7962 27.2582 59.9042 27.0302C60.0242 26.7902 60.0842 26.5322 60.0842 26.2562V20.6042H62.6042V30.0002H60.1562V28.7042C59.7722 29.2562 59.3342 29.6582 58.8422 29.9102C58.3622 30.1622 57.8462 30.2882 57.2942 30.2882C56.2262 30.2882 55.4402 30.0122 54.9362 29.4602C54.4322 28.8962 54.1802 28.0142 54.1802 26.8142V20.6042Z" fill="white"/>
<path d="M73.2767 26.5982C73.1807 27.7262 72.7907 28.6262 72.1067 29.2982C71.4347 29.9582 70.4207 30.2882 69.0647 30.2882C68.2727 30.2882 67.5887 30.1682 67.0127 29.9282C66.4367 29.6882 65.9627 29.3522 65.5907 28.9202C65.2307 28.4882 64.9607 27.9662 64.7807 27.3542C64.6007 26.7422 64.5107 26.0642 64.5107 25.3202C64.5107 24.5762 64.6127 23.8982 64.8167 23.2862C65.0327 22.6622 65.3387 22.1342 65.7347 21.7022C66.1307 21.2582 66.6167 20.9162 67.1927 20.6762C67.7687 20.4362 68.4287 20.3162 69.1727 20.3162C69.8087 20.3162 70.3607 20.4002 70.8287 20.5682C71.3087 20.7242 71.7107 20.9462 72.0347 21.2342C72.3587 21.5222 72.6107 21.8702 72.7907 22.2782C72.9707 22.6742 73.0907 23.1122 73.1507 23.5922L70.6127 23.9342C70.5527 23.4542 70.4147 23.0702 70.1987 22.7822C69.9827 22.4822 69.6107 22.3322 69.0827 22.3322C68.6987 22.3322 68.3807 22.4162 68.1287 22.5842C67.8767 22.7402 67.6727 22.9562 67.5167 23.2322C67.3727 23.5082 67.2707 23.8262 67.2107 24.1862C67.1507 24.5342 67.1207 24.9002 67.1207 25.2842C67.1207 25.6802 67.1507 26.0582 67.2107 26.4182C67.2707 26.7782 67.3727 27.0962 67.5167 27.3722C67.6607 27.6482 67.8587 27.8702 68.1107 28.0382C68.3627 28.1942 68.6807 28.2722 69.0647 28.2722C69.5687 28.2722 69.9587 28.1282 70.2347 27.8402C70.5107 27.5522 70.6727 27.1382 70.7207 26.5982H73.2767Z" fill="white"/>
<path d="M83.1731 26.5982C83.0771 27.7262 82.6871 28.6262 82.0031 29.2982C81.3311 29.9582 80.3171 30.2882 78.9611 30.2882C78.1691 30.2882 77.4851 30.1682 76.9091 29.9282C76.3331 29.6882 75.8591 29.3522 75.4871 28.9202C75.1271 28.4882 74.8571 27.9662 74.6771 27.3542C74.4971 26.7422 74.4071 26.0642 74.4071 25.3202C74.4071 24.5762 74.5091 23.8982 74.7131 23.2862C74.9291 22.6622 75.2351 22.1342 75.6311 21.7022C76.0271 21.2582 76.5131 20.9162 77.0891 20.6762C77.6651 20.4362 78.3251 20.3162 79.0691 20.3162C79.7051 20.3162 80.2571 20.4002 80.7251 20.5682C81.2051 20.7242 81.6071 20.9462 81.9311 21.2342C82.2551 21.5222 82.5071 21.8702 82.6871 22.2782C82.8671 22.6742 82.9871 23.1122 83.0471 23.5922L80.5091 23.9342C80.4491 23.4542 80.3111 23.0702 80.0951 22.7822C79.8791 22.4822 79.5071 22.3322 78.9791 22.3322C78.5951 22.3322 78.2771 22.4162 78.0251 22.5842C77.7731 22.7402 77.5691 22.9562 77.4131 23.2322C77.2691 23.5082 77.1671 23.8262 77.1071 24.1862C77.0471 24.5342 77.0171 24.9002 77.0171 25.2842C77.0171 25.6802 77.0471 26.0582 77.1071 26.4182C77.1671 26.7782 77.2691 27.0962 77.4131 27.3722C77.5571 27.6482 77.7551 27.8702 78.0071 28.0382C78.2591 28.1942 78.5771 28.2722 78.9611 28.2722C79.4651 28.2722 79.8551 28.1282 80.1311 27.8402C80.4071 27.5522 80.5691 27.1382 80.6171 26.5982H83.1731Z" fill="white"/>
<path d="M93.2316 27.0662C93.0636 28.1222 92.6376 28.9262 91.9536 29.4782C91.2816 30.0182 90.2976 30.2882 89.0016 30.2882C87.4416 30.2882 86.2656 29.8562 85.4736 28.9922C84.6936 28.1282 84.3036 26.9042 84.3036 25.3202C84.3036 24.5282 84.4176 23.8262 84.6456 23.2142C84.8736 22.5902 85.1916 22.0622 85.5996 21.6302C86.0196 21.1982 86.5176 20.8742 87.0936 20.6582C87.6696 20.4302 88.3056 20.3162 89.0016 20.3162C90.4416 20.3162 91.5216 20.7302 92.2416 21.5582C92.9736 22.3862 93.3396 23.5022 93.3396 24.9062V25.9142H86.8236C86.8476 26.6702 87.0396 27.2642 87.3996 27.6962C87.7596 28.1162 88.2996 28.3262 89.0196 28.3262C90.0156 28.3262 90.6036 27.9062 90.7836 27.0662H93.2316ZM90.9096 24.2582C90.9096 23.6102 90.7476 23.1062 90.4236 22.7462C90.1116 22.3862 89.6196 22.2062 88.9476 22.2062C88.6116 22.2062 88.3176 22.2602 88.0656 22.3682C87.8136 22.4762 87.5976 22.6262 87.4176 22.8182C87.2496 22.9982 87.1176 23.2142 87.0216 23.4662C86.9256 23.7062 86.8716 23.9702 86.8596 24.2582H90.9096Z" fill="white"/>
<path d="M97.0452 27.0122C97.1292 27.5642 97.3512 27.9242 97.7112 28.0922C98.0712 28.2602 98.5032 28.3442 99.0072 28.3442C99.6072 28.3442 100.033 28.2722 100.285 28.1282C100.549 27.9722 100.681 27.7262 100.681 27.3902C100.681 27.1502 100.597 26.9402 100.429 26.7602C100.273 26.5802 99.9672 26.4542 99.5112 26.3822L98.2152 26.1662C97.0752 25.9862 96.2232 25.6802 95.6592 25.2482C95.1072 24.8042 94.8312 24.1382 94.8312 23.2502C94.8312 22.7942 94.9272 22.3862 95.1192 22.0262C95.3232 21.6662 95.6052 21.3602 95.9652 21.1082C96.3252 20.8562 96.7512 20.6642 97.2432 20.5322C97.7472 20.3882 98.2992 20.3162 98.8992 20.3162C99.6432 20.3162 100.267 20.3942 100.771 20.5502C101.275 20.6942 101.683 20.8922 101.995 21.1442C102.319 21.3962 102.559 21.6962 102.715 22.0442C102.883 22.3922 103.003 22.7642 103.075 23.1602L100.825 23.4482C100.717 23.0162 100.525 22.6982 100.249 22.4942C99.9852 22.2902 99.5532 22.1882 98.9532 22.1882C98.6172 22.1882 98.3352 22.2182 98.1072 22.2782C97.8912 22.3262 97.7172 22.3922 97.5852 22.4762C97.4652 22.5602 97.3752 22.6562 97.3152 22.7642C97.2672 22.8722 97.2432 22.9742 97.2432 23.0702C97.2432 23.3702 97.3332 23.5922 97.5132 23.7362C97.7052 23.8682 98.0712 23.9822 98.6112 24.0782L99.7992 24.2762C100.459 24.3842 101.005 24.5222 101.437 24.6902C101.869 24.8582 102.211 25.0682 102.463 25.3202C102.727 25.5602 102.907 25.8482 103.003 26.1842C103.111 26.5202 103.165 26.9102 103.165 27.3542C103.165 28.2422 102.829 28.9562 102.157 29.4962C101.485 30.0242 100.447 30.2882 99.0432 30.2882C98.4792 30.2882 97.9392 30.2342 97.4232 30.1262C96.9192 30.0302 96.4632 29.8562 96.0552 29.6042C95.6592 29.3522 95.3292 29.0162 95.0652 28.5962C94.8132 28.1762 94.6692 27.6482 94.6332 27.0122H97.0452Z" fill="white"/>
<path d="M106.713 27.0122C106.797 27.5642 107.019 27.9242 107.379 28.0922C107.739 28.2602 108.171 28.3442 108.675 28.3442C109.275 28.3442 109.701 28.2722 109.953 28.1282C110.217 27.9722 110.349 27.7262 110.349 27.3902C110.349 27.1502 110.265 26.9402 110.097 26.7602C109.941 26.5802 109.635 26.4542 109.179 26.3822L107.883 26.1662C106.743 25.9862 105.891 25.6802 105.327 25.2482C104.775 24.8042 104.499 24.1382 104.499 23.2502C104.499 22.7942 104.595 22.3862 104.787 22.0262C104.991 21.6662 105.273 21.3602 105.633 21.1082C105.993 20.8562 106.419 20.6642 106.911 20.5322C107.415 20.3882 107.967 20.3162 108.567 20.3162C109.311 20.3162 109.935 20.3942 110.439 20.5502C110.943 20.6942 111.351 20.8922 111.663 21.1442C111.987 21.3962 112.227 21.6962 112.383 22.0442C112.551 22.3922 112.671 22.7642 112.743 23.1602L110.493 23.4482C110.385 23.0162 110.193 22.6982 109.917 22.4942C109.653 22.2902 109.221 22.1882 108.621 22.1882C108.285 22.1882 108.003 22.2182 107.775 22.2782C107.559 22.3262 107.385 22.3922 107.253 22.4762C107.133 22.5602 107.043 22.6562 106.983 22.7642C106.935 22.8722 106.911 22.9742 106.911 23.0702C106.911 23.3702 107.001 23.5922 107.181 23.7362C107.373 23.8682 107.739 23.9822 108.279 24.0782L109.467 24.2762C110.127 24.3842 110.673 24.5222 111.105 24.6902C111.537 24.8582 111.879 25.0682 112.131 25.3202C112.395 25.5602 112.575 25.8482 112.671 26.1842C112.779 26.5202 112.833 26.9102 112.833 27.3542C112.833 28.2422 112.497 28.9562 111.825 29.4962C111.153 30.0242 110.115 30.2882 108.711 30.2882C108.147 30.2882 107.607 30.2342 107.091 30.1262C106.587 30.0302 106.131 29.8562 105.723 29.6042C105.327 29.3522 104.997 29.0162 104.733 28.5962C104.481 28.1762 104.337 27.6482 104.301 27.0122H106.713Z" fill="white"/>
<path d="M49.6701 42.8062C49.7301 43.5982 49.9821 44.1742 50.4261 44.5342C50.8821 44.8942 51.5481 45.0742 52.4241 45.0742C52.8441 45.0742 53.1981 45.0322 53.4861 44.9482C53.7741 44.8522 54.0081 44.7322 54.1881 44.5882C54.3681 44.4322 54.4941 44.2522 54.5661 44.0482C54.6501 43.8442 54.6922 43.6222 54.6922 43.3822C54.6922 43.0462 54.5661 42.7342 54.3141 42.4462C54.0621 42.1462 53.6001 41.9302 52.9281 41.7982L51.2541 41.4922C50.5941 41.3722 50.0121 41.2162 49.5081 41.0242C49.0041 40.8322 48.5781 40.5862 48.2301 40.2862C47.8941 39.9742 47.6361 39.5962 47.4561 39.1522C47.2761 38.7082 47.1861 38.1802 47.1861 37.5682C47.1861 36.9562 47.3061 36.4162 47.5461 35.9482C47.7981 35.4802 48.1401 35.0902 48.5721 34.7782C49.0161 34.4662 49.5441 34.2322 50.1561 34.0762C50.7681 33.9082 51.4401 33.8242 52.1721 33.8242C53.1081 33.8242 53.8881 33.9322 54.5121 34.1482C55.1361 34.3642 55.6401 34.6522 56.0241 35.0122C56.4081 35.3602 56.6901 35.7682 56.8701 36.2362C57.0621 36.7042 57.1881 37.1902 57.2481 37.6942L54.7101 38.0182C54.5781 37.3102 54.3201 36.8002 53.9361 36.4882C53.5641 36.1762 52.9941 36.0202 52.2261 36.0202C51.7701 36.0202 51.3921 36.0622 51.0921 36.1462C50.8041 36.2182 50.5701 36.3202 50.3901 36.4522C50.2101 36.5722 50.0841 36.7162 50.0121 36.8842C49.9401 37.0522 49.9041 37.2262 49.9041 37.4062C49.9041 37.8862 50.0361 38.2462 50.3001 38.4862C50.5761 38.7262 51.0381 38.9122 51.6861 39.0442L53.4501 39.3862C54.8421 39.6622 55.8621 40.1122 56.5101 40.7362C57.1581 41.3482 57.4821 42.2362 57.4821 43.4002C57.4821 43.9642 57.3741 44.4862 57.1581 44.9662C56.9541 45.4342 56.6421 45.8482 56.2221 46.2082C55.8141 46.5562 55.2981 46.8262 54.6741 47.0182C54.0501 47.2222 53.3181 47.3242 52.4781 47.3242C50.7261 47.3242 49.3821 46.9522 48.4461 46.2082C47.5221 45.4522 47.0241 44.3182 46.9521 42.8062H49.6701Z" fill="white"/>
<path d="M59.9175 39.5662H58.4415V37.6042H59.9175V35.1022H62.4375V37.6042H64.5975V39.5662H62.4375V43.9042C62.4375 44.3962 62.5395 44.7322 62.7435 44.9122C62.9475 45.0802 63.2115 45.1642 63.5355 45.1642C63.7035 45.1642 63.8715 45.1582 64.0395 45.1462C64.2195 45.1222 64.3935 45.0862 64.5615 45.0382L64.9215 46.8922C64.5735 47.0002 64.2315 47.0722 63.8955 47.1082C63.5715 47.1562 63.2595 47.1802 62.9595 47.1802C61.9275 47.1802 61.1595 46.9342 60.6555 46.4422C60.1635 45.9502 59.9175 45.1222 59.9175 43.9582V39.5662Z" fill="white"/>
<path d="M70.414 47.2882C68.902 47.2882 67.732 46.8562 66.904 45.9922C66.076 45.1282 65.662 43.8922 65.662 42.2842C65.662 41.5162 65.77 40.8262 65.986 40.2142C66.214 39.5902 66.532 39.0682 66.94 38.6482C67.36 38.2162 67.864 37.8862 68.452 37.6582C69.04 37.4302 69.694 37.3162 70.414 37.3162C71.146 37.3162 71.806 37.4302 72.394 37.6582C72.982 37.8862 73.48 38.2162 73.888 38.6482C74.308 39.0682 74.626 39.5902 74.842 40.2142C75.058 40.8262 75.166 41.5162 75.166 42.2842C75.166 43.0642 75.052 43.7662 74.824 44.3902C74.608 45.0022 74.29 45.5242 73.87 45.9562C73.462 46.3882 72.964 46.7182 72.376 46.9462C71.788 47.1742 71.134 47.2882 70.414 47.2882ZM70.414 45.2722C71.134 45.2722 71.668 45.0142 72.016 44.4982C72.376 43.9822 72.556 43.2442 72.556 42.2842C72.556 41.3242 72.376 40.5922 72.016 40.0882C71.668 39.5842 71.134 39.3322 70.414 39.3322C69.694 39.3322 69.154 39.5842 68.794 40.0882C68.446 40.5922 68.272 41.3242 68.272 42.2842C68.272 43.2562 68.446 44.0002 68.794 44.5162C69.142 45.0202 69.682 45.2722 70.414 45.2722Z" fill="white"/>
<path d="M77.0778 37.6042H79.5258V38.9182C79.8378 38.4262 80.2158 38.0602 80.6598 37.8202C81.1038 37.5682 81.5718 37.4422 82.0638 37.4422C82.3038 37.4422 82.5018 37.4542 82.6578 37.4782C82.8138 37.4902 82.9518 37.5082 83.0718 37.5322L82.7658 39.8182C82.4778 39.7462 82.1238 39.7102 81.7038 39.7102C81.4278 39.7102 81.1638 39.7462 80.9118 39.8182C80.6598 39.8782 80.4318 39.9982 80.2278 40.1782C80.0118 40.3702 79.8498 40.5862 79.7418 40.8262C79.6458 41.0662 79.5978 41.3122 79.5978 41.5642V47.0002H77.0778V37.6042Z" fill="white"/>
<path d="M84.6368 37.6042H87.1568V47.0002H84.6368V37.6042ZM84.6008 34.1482H87.1928V36.4162H84.6008V34.1482Z" fill="white"/>
<path d="M98.0041 44.0662C97.8361 45.1222 97.4101 45.9262 96.7261 46.4782C96.0541 47.0182 95.0701 47.2882 93.7741 47.2882C92.2141 47.2882 91.0381 46.8562 90.2461 45.9922C89.4661 45.1282 89.0761 43.9042 89.0761 42.3202C89.0761 41.5282 89.1901 40.8262 89.4181 40.2142C89.6461 39.5902 89.9641 39.0622 90.3721 38.6302C90.7921 38.1982 91.2901 37.8742 91.8661 37.6582C92.4421 37.4302 93.0781 37.3162 93.7741 37.3162C95.2141 37.3162 96.2941 37.7302 97.0141 38.5582C97.7461 39.3862 98.1121 40.5022 98.1121 41.9062V42.9142H91.5961C91.6201 43.6702 91.8121 44.2642 92.1721 44.6962C92.5321 45.1162 93.0721 45.3262 93.7921 45.3262C94.7881 45.3262 95.3761 44.9062 95.5561 44.0662H98.0041ZM95.6821 41.2582C95.6821 40.6102 95.5201 40.1062 95.1961 39.7462C94.8841 39.3862 94.3921 39.2062 93.7201 39.2062C93.3841 39.2062 93.0901 39.2602 92.8381 39.3682C92.5861 39.4762 92.3701 39.6262 92.1901 39.8182C92.0221 39.9982 91.8901 40.2142 91.7941 40.4662C91.6981 40.7062 91.6441 40.9702 91.6321 41.2582H95.6821Z" fill="white"/>
<path d="M101.818 44.0122C101.902 44.5642 102.124 44.9242 102.484 45.0922C102.844 45.2602 103.276 45.3442 103.78 45.3442C104.38 45.3442 104.806 45.2722 105.058 45.1282C105.322 44.9722 105.454 44.7262 105.454 44.3902C105.454 44.1502 105.37 43.9402 105.202 43.7602C105.046 43.5802 104.74 43.4542 104.284 43.3822L102.988 43.1662C101.848 42.9862 100.996 42.6802 100.432 42.2482C99.8797 41.8042 99.6037 41.1382 99.6037 40.2502C99.6037 39.7942 99.6997 39.3862 99.8917 39.0262C100.096 38.6662 100.378 38.3602 100.738 38.1082C101.098 37.8562 101.524 37.6642 102.016 37.5322C102.52 37.3882 103.072 37.3162 103.672 37.3162C104.416 37.3162 105.04 37.3942 105.544 37.5502C106.048 37.6942 106.456 37.8922 106.768 38.1442C107.092 38.3962 107.332 38.6962 107.488 39.0442C107.656 39.3922 107.776 39.7642 107.848 40.1602L105.598 40.4482C105.49 40.0162 105.298 39.6982 105.022 39.4942C104.758 39.2902 104.326 39.1882 103.726 39.1882C103.39 39.1882 103.108 39.2182 102.88 39.2782C102.664 39.3262 102.49 39.3922 102.358 39.4762C102.238 39.5602 102.148 39.6562 102.088 39.7642C102.04 39.8722 102.016 39.9742 102.016 40.0702C102.016 40.3702 102.106 40.5922 102.286 40.7362C102.478 40.8682 102.844 40.9822 103.384 41.0782L104.572 41.2762C105.232 41.3842 105.778 41.5222 106.21 41.6902C106.642 41.8582 106.984 42.0682 107.236 42.3202C107.5 42.5602 107.68 42.8482 107.776 43.1842C107.884 43.5202 107.938 43.9102 107.938 44.3542C107.938 45.2422 107.602 45.9562 106.93 46.4962C106.258 47.0242 105.22 47.2882 103.816 47.2882C103.252 47.2882 102.712 47.2342 102.196 47.1262C101.692 47.0302 101.236 46.8562 100.828 46.6042C100.432 46.3522 100.102 46.0162 99.8377 45.5962C99.5857 45.1762 99.4417 44.6482 99.4057 44.0122H101.818Z" fill="white"/>
<path d="M124.774 60.5176C124.907 60.5544 124.949 60.9127 125.049 61.1137C125.108 61.2306 125.189 61.4144 125.277 61.4255C126.867 61.629 128.461 61.8113 130.054 61.9959C130.138 62.0017 130.222 62.0013 130.305 61.9947L130.787 61.9739C130.686 61.8278 130.616 61.6194 130.478 61.5463C129.632 61.0349 128.745 60.5995 127.826 60.245C127.064 60.0896 126.287 60.0235 125.511 60.0478L124.831 59.9947L125.011 59.8968L125.356 59.8737C125.744 59.8537 126.129 59.7809 126.499 59.6573C127.212 59.3563 127.993 59.2699 128.752 59.4084C129.51 59.5468 130.215 59.9044 130.785 60.4394C131.863 60.8567 133.014 61.0414 134.165 60.9818C134.229 60.8646 134.256 60.7296 134.243 60.5956C133.862 60.0381 133.367 59.5727 132.794 59.2316C132.22 58.8906 131.582 58.6821 130.922 58.6205C130.705 58.6342 130.487 58.6283 130.271 58.6029C130.456 58.4285 130.669 58.2878 130.9 58.1869C131.728 57.9548 132.575 57.8024 133.43 57.7318C134.035 57.6794 134.639 57.8455 135.138 58.2017C135.518 58.5029 135.966 58.7014 136.44 58.7792C136.914 58.8569 137.399 58.8115 137.851 58.6469C138.26 58.5839 138.673 58.5468 139.075 58.4573L139.144 58.0605C138.54 57.5952 137.84 57.2791 137.098 57.1368C136.356 56.9944 135.593 57.0296 134.866 57.2395L134.705 57.2462L134.848 57.1291C136.167 56.5202 137.539 56.0078 138.786 55.2717C139.03 55.1222 139.256 54.9435 139.459 54.7393L139.613 54.6865C139.745 54.6464 139.962 54.9293 140.15 55.0465C140.259 55.1147 140.421 55.2275 140.502 55.1899C141.961 54.5067 143.412 53.8039 144.864 53.1036L145.077 52.9671L145.477 52.69C145.317 52.6196 145.151 52.48 144.997 52.4917C144.016 52.5115 143.038 52.6184 142.075 52.8111C141.499 53.0047 140.952 53.2802 140.45 53.6296L140.64 53.4164C140.661 53.3937 140.613 53.2565 140.548 53.1444L140.645 53.0242C141.1 52.3834 141.723 51.8889 142.44 51.5983C143.157 51.3077 143.94 51.2329 144.697 51.3826C145.74 51.4113 146.806 50.5199 147.853 50.0246C147.848 49.8906 147.803 49.7614 147.724 49.6547C147.116 49.3851 146.458 49.2549 145.796 49.2731C145.134 49.2914 144.484 49.4576 143.891 49.7604C143.713 49.8891 143.524 50.0016 143.327 50.0968C143.396 49.8483 143.506 49.6137 143.651 49.4032C144.239 48.7597 144.884 48.1738 145.577 47.6531C146.066 47.2827 146.665 47.0991 147.271 47.1339C148.421 47.3591 149.077 46.6864 149.81 46.0522C150.126 45.779 150.459 45.524 150.757 45.2316C150.796 45.1938 150.681 44.8658 150.614 44.8568C149.862 44.7856 149.105 44.8932 148.401 45.1713C147.696 45.4493 147.063 45.8904 146.551 46.4605L146.417 46.5529L146.479 46.3769C147.294 45.148 148.203 43.9724 148.893 42.6731C149.025 42.4139 149.127 42.1394 149.197 41.8553L149.302 41.7275C149.394 41.6219 149.723 41.7463 149.942 41.7451C150.07 41.7451 150.265 41.7534 150.315 41.6775C151.212 40.3092 152.093 38.929 152.974 37.5502L153.087 37.3188L153.287 36.867C153.115 36.8938 152.903 36.8633 152.777 36.9567C151.951 37.5018 151.172 38.1193 150.449 38.8023C150.056 39.2765 149.73 39.8048 149.479 40.372L149.533 40.0912C149.539 40.0604 149.429 39.9692 149.316 39.9086L149.338 39.7537C149.406 37.9081 150.496 37.0424 151.958 36.1732C152.861 35.6367 153.318 34.3026 153.959 33.3159C153.967 33.3038 153.769 33.0753 153.66 33.0695C153.005 33.1669 152.378 33.41 151.823 33.7818C151.268 34.1537 150.798 34.6454 150.446 35.2228C150.36 35.4285 150.256 35.6261 150.136 35.8135C150.069 35.5642 150.044 35.305 150.061 35.047C150.235 34.1819 150.487 33.3354 150.813 32.5184C151.042 31.939 151.46 31.4597 151.994 31.1627C153.089 30.7351 153.306 29.8085 153.609 28.874C153.74 28.4706 153.895 28.0745 154 27.6643L153.688 27.422C152.708 27.8711 151.006 29.6007 151.038 30.9772L150.971 31.1279L150.934 30.9437C151.005 29.4573 151.183 27.9655 151.112 26.4866C151.093 26.1949 151.041 25.9066 150.956 25.6276L150.98 25.4623C151.006 25.3229 151.349 25.251 151.535 25.1325C151.644 25.0632 151.815 24.9655 151.819 24.8741C151.89 23.2248 151.939 21.5744 151.99 19.924C151.989 19.8377 151.982 19.7515 151.969 19.6663L151.91 19.1733C151.777 19.2891 151.581 19.3774 151.521 19.5254C151.094 20.4351 150.743 21.3809 150.473 22.3526C150.38 22.9688 150.371 23.5954 150.446 24.2142L150.348 23.9431C150.337 23.9135 150.197 23.8954 150.07 23.9042L150.01 23.7603C149.662 23.0523 149.516 22.257 149.59 21.467C149.663 20.6769 149.953 19.9246 150.426 19.2976C150.744 18.1569 150.831 16.961 150.681 15.7842C150.563 15.7272 150.43 15.7099 150.301 15.7345C149.792 16.1704 149.381 16.7151 149.097 17.331C148.812 17.9468 148.661 18.619 148.654 19.3009C148.685 19.523 148.697 19.7473 148.69 19.9714C148.534 19.7686 148.306 19.5888 148.237 19.3582C147.946 18.527 147.731 17.6698 147.595 16.7976C147.496 16.1805 147.608 15.5471 147.914 15.0063C148.175 14.5918 148.331 14.1165 148.369 13.6238C148.406 13.1311 148.324 12.6366 148.128 12.1852C148.035 11.7707 147.966 11.3494 147.847 10.9436L147.458 10.9056C147.056 11.563 146.806 12.3068 146.727 13.0795C146.648 13.8523 146.743 14.6333 147.004 15.3623L147.023 15.5271L146.899 15.3898C146.204 14.0847 145.6 12.717 144.787 11.4948C144.623 11.2564 144.432 11.0389 144.218 10.8468L144.155 10.6929C144.106 10.5603 144.362 10.3147 144.461 10.113C144.518 9.99535 144.615 9.81964 144.572 9.73971C143.794 8.29602 142.999 6.86255 142.205 5.4282L142.056 5.21975L141.755 4.83101C141.7 5.00126 141.578 5.18312 141.602 5.33982C141.699 6.34547 141.88 7.3406 142.144 8.31416C142.376 8.88977 142.685 9.42904 143.063 9.91629L142.844 9.74024C142.82 9.72034 142.691 9.78038 142.587 9.85661L142.464 9.76524C141.808 9.34928 141.279 8.74987 140.941 8.0368C140.603 7.32372 140.468 6.5263 140.552 5.73736C140.497 4.66516 139.55 3.64085 138.986 2.60509C138.856 2.62037 138.734 2.67705 138.637 2.76724C138.424 3.41291 138.351 4.0985 138.421 4.77645C138.491 5.4544 138.704 6.10849 139.044 6.69336C139.183 6.86624 139.307 7.05108 139.415 7.24583C139.169 7.19427 138.933 7.10003 138.717 6.96713C138.048 6.415 137.429 5.79996 136.87 5.12996C136.473 4.65745 136.247 4.05719 136.233 3.43222C136.359 2.23291 135.655 1.61353 134.983 0.911759C134.694 0.609642 134.421 0.287806 134.114 0.0061118C134.074 -0.0312127 133.766 0.111748 133.763 0.182172C133.754 0.959192 133.918 1.72796 134.244 2.4291C134.569 3.13024 135.046 3.745 135.639 4.22589L135.739 4.35565L135.563 4.306C134.309 3.56743 133.098 2.72763 131.785 2.12287C130.961 1.8504 130.104 1.69856 129.238 1.67181C129.178 1.72709 129.129 1.7948 129.095 1.87059C129.062 1.94639 129.044 2.02859 129.043 2.11195C129.159 2.5694 129.372 2.99468 129.667 3.35736C129.962 3.72004 130.33 4.01116 130.747 4.20989C131.164 4.40862 131.618 4.51004 132.077 4.5069C132.536 4.50376 132.989 4.39614 133.403 4.19174C134.034 3.98628 134.952 4.69562 135.729 5.00795C135.898 5.09781 136.048 5.21954 136.172 5.36676C136.302 5.49545 136.41 5.64845 136.528 5.7893C136.31 5.7606 136.038 5.8069 135.883 5.69035C135.472 5.39355 134.993 5.20982 134.494 5.15658C133.994 5.10334 133.49 5.18235 133.028 5.38612C132.679 5.50373 132.042 5.56377 132.023 5.71659C131.935 6.39635 131.476 6.04458 131.191 6.1474L131.056 6.3018C131.084 6.40145 131.143 6.48883 131.224 6.55075C131.85 7.04177 132.606 7.32585 133.392 7.36551C134.178 7.40518 134.957 7.19857 135.627 6.77294C136.502 6.09247 136.84 6.71836 137.333 6.90305C137.957 7.20293 138.548 7.57114 139.095 8.0013L139.144 8.16909L139.032 8.19532C137.968 8.33881 136.902 8.47226 135.84 8.63054C135.536 8.64666 135.239 8.73718 134.976 8.89462C134.572 9.24771 134.19 9.62732 133.834 10.0311C134.013 10.1411 134.183 10.3233 134.373 10.348C135.05 10.4393 135.731 10.4957 136.413 10.5168C136.88 10.529 137.35 10.4515 137.888 10.4086C138.302 9.98866 138.68 9.55995 139.109 9.19674C139.306 9.08791 139.532 9.0487 139.753 9.08512C140.762 9.18093 141.703 9.65042 142.401 10.4064L142.373 10.9087C141.755 10.6224 141.083 10.4759 140.405 10.4793C139.727 10.4826 139.057 10.6357 138.441 10.9281C138.234 11.0655 138.048 11.2351 137.891 11.4311C138.227 11.6953 138.583 11.9309 138.956 12.1353C139.519 12.3963 140.139 12.499 140.754 12.4331C141.368 12.3672 141.954 12.135 142.453 11.7602C142.614 12.3846 142.955 12.9444 143.43 13.3669C143.904 13.7894 144.492 14.0549 145.115 14.129C145.757 14.2935 146.179 15.3926 146.684 16.0775C146.781 16.2448 146.848 16.4295 146.879 16.622C146.924 16.8016 146.939 16.9896 146.967 17.1738C146.796 17.0319 146.541 16.9254 146.468 16.7423C146.268 16.2682 145.954 15.8545 145.555 15.5403C145.157 15.2261 144.687 15.0218 144.19 14.9468C143.834 14.8588 143.26 14.5676 143.166 14.687C142.746 15.2194 142.533 14.6722 142.238 14.6063L142.044 14.665C142.018 14.7653 142.024 14.8718 142.061 14.9683C142.346 15.7239 142.846 16.373 143.496 16.83C144.145 17.287 144.914 17.5304 145.701 17.5282C146.793 17.4199 146.763 18.1349 147.09 18.5581C147.469 19.1498 147.786 19.7819 148.034 20.4434L147.991 20.6122L147.883 20.5749C146.903 20.1238 145.927 19.6636 144.941 19.2268C144.673 19.0766 144.375 18.9943 144.07 18.9865C143.547 19.0699 143.029 19.1882 142.52 19.3406C142.617 19.5307 142.669 19.7775 142.818 19.901C143.35 20.3411 143.9 20.761 144.472 21.1434C144.865 21.4057 145.304 21.5925 145.784 21.8457C146.35 21.711 146.889 21.5483 147.44 21.4703C147.663 21.4835 147.876 21.5719 148.046 21.7219C148.857 22.3468 149.42 23.2535 149.632 24.2737L149.353 24.6869C148.971 24.1098 148.473 23.6236 147.893 23.2613C147.314 22.8989 146.665 22.6688 145.991 22.5864C145.745 22.5914 145.5 22.636 145.266 22.7184C145.419 23.1247 145.603 23.5176 145.816 23.8933C146.164 24.4189 146.641 24.8404 147.198 25.115C147.754 25.3895 148.372 25.5073 148.988 25.4563C148.808 26.0757 148.814 26.7362 149.005 27.352C149.195 27.9679 149.561 28.5105 150.054 28.9094C150.518 29.3953 150.32 30.5597 150.402 31.415C150.401 31.6102 150.363 31.8033 150.292 31.9842C150.24 32.1619 150.157 32.3298 150.087 32.502C150.014 32.2892 149.85 32.0608 149.881 31.8656C149.952 31.3536 149.894 30.8315 149.714 30.3489C149.534 29.8662 149.237 29.4388 148.852 29.1073C148.593 28.8405 148.252 28.2829 148.111 28.3344C147.483 28.562 147.579 27.981 147.361 27.7657L147.165 27.7111C147.091 27.7823 147.042 27.8764 147.026 27.9789C146.884 28.7761 146.981 29.5988 147.303 30.3383C147.625 31.0778 148.157 31.6994 148.829 32.1212C149.814 32.6168 149.426 33.2103 149.49 33.7469C149.513 34.4557 149.462 35.1649 149.338 35.8625L149.215 35.9829L149.141 35.8922C148.534 34.98 147.936 34.0612 147.318 33.1587C147.166 32.8866 146.953 32.6556 146.697 32.4849C146.209 32.2741 145.707 32.0961 145.196 31.952C145.148 32.1609 145.138 32.3773 145.166 32.59C145.394 33.2529 145.654 33.9036 145.945 34.5395C146.146 34.9744 146.426 35.3705 146.707 35.8448C147.258 36.035 147.801 36.1868 148.309 36.4165C148.492 36.5482 148.629 36.7382 148.698 36.9574C149.072 37.9268 149.092 39.0031 148.754 39.9866L148.307 40.1889C148.274 39.4912 148.097 38.8087 147.786 38.1876C147.476 37.5664 147.04 37.021 146.508 36.5882C146.295 36.4595 146.064 36.3659 145.823 36.3105C145.746 36.7387 145.703 37.1727 145.695 37.6081C145.725 38.2433 145.917 38.8591 146.252 39.393C146.587 39.927 147.054 40.3599 147.605 40.6479C147.138 41.0795 146.807 41.6458 146.657 42.2732C146.507 42.9006 146.543 43.56 146.761 44.1659C146.91 44.8297 146.15 45.7152 145.786 46.489C145.685 46.6546 145.555 46.7991 145.403 46.9151C145.268 47.0383 145.112 47.1367 144.965 47.2461C145.011 47.0246 144.987 46.742 145.113 46.5922C145.432 46.1938 145.648 45.7179 145.74 45.2096C145.832 44.7013 145.796 44.1773 145.636 43.6872C145.55 43.3205 145.542 42.6613 145.396 42.6291C144.745 42.4851 145.123 42.0416 145.045 41.7409L144.907 41.5893C144.808 41.6107 144.718 41.6646 144.652 41.743C144.127 42.3465 143.792 43.0998 143.691 43.9034C143.59 44.7071 143.727 45.5235 144.086 46.2448C144.675 47.1982 144.042 47.4948 143.824 47.9866C143.484 48.6033 143.081 49.1805 142.621 49.7083L142.454 49.7445L142.437 49.6276C142.383 48.5236 142.339 47.4188 142.271 46.3158C142.279 46.002 142.215 45.6907 142.084 45.4075C141.774 44.9646 141.438 44.5428 141.075 44.1446C140.955 44.3198 140.765 44.4791 140.726 44.6728C140.583 45.3605 140.474 46.0551 140.4 46.754C140.351 47.233 140.388 47.7213 140.387 48.2771C140.76 48.7359 141.145 49.1574 141.462 49.6269C141.552 49.838 141.572 50.0735 141.519 50.2974C141.346 51.3252 140.817 52.2535 140.029 52.9097L139.546 52.8414C139.872 52.2291 140.068 51.5518 140.118 50.8552C140.169 50.1586 140.074 49.4588 139.84 48.8031C139.724 48.5789 139.575 48.3746 139.398 48.1975C139.115 48.5213 138.858 48.8683 138.63 49.235C138.333 49.7923 138.184 50.4208 138.199 51.0565C138.213 51.6923 138.391 52.3126 138.714 52.8546C137.622 53.0106 136.746 53.7515 136.209 55.399C135.999 56.0448 134.902 56.3911 134.198 56.8541C134.029 56.9413 133.845 56.9946 133.656 57.0114C133.479 57.0438 133.296 57.0438 133.115 57.058C133.266 56.8938 133.389 56.6399 133.572 56.5798C134.047 56.4126 134.473 56.1232 134.809 55.7391C135.145 55.355 135.381 54.8889 135.493 54.3849C135.606 54.0261 135.934 53.4601 135.826 53.3539C135.344 52.8807 135.891 52.7055 135.978 52.4076L135.937 52.2041C135.842 52.1691 135.738 52.167 135.642 52.1979C134.888 52.4295 134.22 52.8911 133.726 53.5217C133.232 54.1524 132.935 54.9225 132.874 55.7305C132.892 56.86 132.202 56.7724 131.767 57.0742C131.164 57.4167 130.527 57.6914 129.867 57.8936L129.706 57.835L129.752 57.7265C130.266 56.7564 130.79 55.7909 131.29 54.8136C131.457 54.5509 131.561 54.251 131.592 53.9388C131.553 53.3946 131.48 52.8535 131.373 52.319C131.17 52.3693 130.978 52.458 130.807 52.5807C130.336 53.0901 129.891 53.6237 129.473 54.1793C129.187 54.5608 128.972 54.9976 128.688 55.4707C128.774 56.0628 128.888 56.6291 128.92 57.2006C128.889 57.4287 128.787 57.6402 128.628 57.8026C127.716 58.7808 126.464 59.3463 125.147 59.3748L124.903 59.389C124.963 59.3279 125.013 59.2427 125.085 59.2093C125.812 58.8999 126.454 58.4112 126.955 57.7861C127.455 57.161 127.799 56.4187 127.955 55.6247C127.97 55.371 127.946 55.1164 127.885 54.8701C127.479 54.9938 127.085 55.1513 126.704 55.3413C126.165 55.6578 125.717 56.1162 125.407 56.6695C125.096 57.2228 124.934 57.8511 124.936 58.4903C124.909 58.8876 123.949 59.2757 123.366 59.5526C122.965 59.6694 122.551 59.7307 122.135 59.735L122 59.911L122.193 59.9287C123.057 60.1156 123.925 60.2822 124.774 60.5176Z" fill="white"/>
<path d="M2.0689 31.1627C2.62013 31.4595 3.0506 31.9389 3.28634 32.5183C3.62274 33.3353 3.88241 34.1818 4.062 35.0468C4.07989 35.3049 4.05378 35.564 3.98479 35.8134C3.86137 35.6257 3.75427 35.4277 3.66465 35.2218C3.30159 34.6444 2.81712 34.1529 2.24483 33.7812C1.67254 33.4094 1.02614 33.1665 0.350458 33.0692C0.238163 33.0757 0.0341993 33.3042 0.0423085 33.3157C0.703913 34.3016 1.17495 35.6364 2.1061 36.1729C3.61353 37.0413 4.73647 37.9077 4.80769 39.7533L4.83026 39.9082C4.71408 39.9688 4.6002 40.06 4.6069 40.0908L4.6619 40.3716C4.40366 39.8043 4.06715 39.276 3.66218 38.8019C2.91634 38.1189 2.1129 37.5014 1.2608 36.9563C1.13194 36.8628 0.913165 36.8931 0.735644 36.8665L0.942429 37.3183L1.0586 37.5496C1.96807 38.9285 2.87559 40.3086 3.80074 41.6769C3.85187 41.7527 4.05371 41.7439 4.18558 41.7445C4.41175 41.7455 4.75075 41.6212 4.84595 41.7269L4.95419 41.8543C5.02562 42.1378 5.1306 42.4117 5.26692 42.6703C5.97806 43.9696 6.91608 45.1451 7.75609 46.374L7.82008 46.55L7.6824 46.4576C7.15372 45.8876 6.50094 45.4465 5.77444 45.1684C5.04794 44.8904 4.26717 44.7828 3.49242 44.8539C3.42296 44.8629 3.30467 45.1909 3.34434 45.2288C3.65143 45.5217 3.99519 45.7761 4.32114 46.0494C5.07688 46.6831 5.75294 47.3562 6.93953 47.131C7.56463 47.0962 8.18237 47.2797 8.68671 47.6502C9.40144 48.1707 10.0661 48.7566 10.672 49.4002C10.8222 49.6108 10.9355 49.8454 11.007 50.0939C10.8037 49.9986 10.6091 49.8861 10.4252 49.7574C9.81337 49.455 9.14297 49.2891 8.46052 49.2712C7.77806 49.2533 7.09985 49.3837 6.4729 49.6535C6.39096 49.7606 6.34444 49.8905 6.3398 50.0252C7.42009 50.521 8.52012 51.4118 9.59494 51.3831C10.3755 51.2334 11.1826 51.3082 11.9223 51.5988C12.662 51.8894 13.3037 52.3839 13.7729 53.0246L13.8732 53.1449C13.8061 53.2574 13.7565 53.394 13.7782 53.4169L13.9743 53.6301C13.4565 53.2807 12.8925 53.0052 12.2985 52.8116C11.3051 52.6189 10.2969 52.5121 9.2852 52.4923C9.12654 52.4803 8.95519 52.6204 8.78983 52.6905L9.2027 52.9676L9.42288 53.104C10.9201 53.8046 12.4161 54.5072 13.921 55.1903C14.0042 55.2281 14.1715 55.1151 14.2843 55.047C14.4783 54.9296 14.7016 54.6468 14.8381 54.687L14.9967 54.7398C15.2061 54.944 15.439 55.1227 15.6906 55.2722C16.9775 56.0081 18.3918 56.5204 19.7517 57.1295L19.8987 57.2466L19.7327 57.2399C18.9836 57.03 18.1962 56.9948 17.4313 57.1372C16.6664 57.2795 15.9445 57.5956 15.3214 58.0609L15.3919 58.4577C15.8069 58.5471 16.2328 58.5843 16.6542 58.6473C17.1208 58.8118 17.6212 58.8573 18.11 58.7795C18.5987 58.7018 19.0602 58.5033 19.4525 58.2021C19.967 57.8459 20.5897 57.6798 21.2135 57.7322C22.0954 57.8028 22.9688 57.9552 23.8225 58.1873C24.0609 58.2882 24.2803 58.4289 24.4714 58.6033C24.2484 58.6286 24.0235 58.6345 23.7994 58.6209C23.1194 58.6825 22.4609 58.891 21.8695 59.232C21.2782 59.5731 20.7682 60.0384 20.3749 60.5959C20.3611 60.7299 20.3894 60.8649 20.4558 60.9821C21.6426 61.0417 22.8291 60.8571 23.9415 60.4397C24.5285 59.9046 25.2556 59.5471 26.0382 59.4086C26.8207 59.2702 27.6266 59.3565 28.3619 59.6577C28.7434 59.7813 29.1395 59.854 29.54 59.874L29.8961 59.8971L30.0823 59.995L29.3807 60.0489C28.58 60.0245 27.7792 60.0907 26.9934 60.2461C26.0458 60.6006 25.1305 61.0359 24.2578 61.5473C24.1167 61.6203 24.0438 61.829 23.9392 61.9749L24.4365 61.9957C24.5228 62.0017 24.6094 62.0014 24.6957 61.995C26.3385 61.8103 27.9816 61.6283 29.6223 61.4246C29.7131 61.4135 29.7967 61.2295 29.8568 61.1128C29.9603 60.9117 30.0033 60.5534 30.1406 60.5166C31.0168 60.2807 31.9116 60.1142 32.8008 59.9265L33 59.9089L32.8609 59.7329C32.4316 59.7286 32.0048 59.6672 31.5916 59.5505C30.9898 59.2735 30.0001 58.8855 29.9721 58.4881C29.9746 57.8492 29.8071 57.2211 29.4869 56.6679C29.1666 56.1148 28.7049 55.6566 28.1491 55.3401C27.7568 55.1502 27.3497 54.9927 26.9317 54.869C26.8683 55.1152 26.8439 55.3698 26.8592 55.6236C27.0203 56.4176 27.3744 57.1598 27.8904 57.7849C28.4064 58.41 29.0685 58.8987 29.8182 59.208C29.8929 59.2415 29.9446 59.3267 30.0068 59.3878L29.7551 59.3732C28.3971 59.3447 27.106 58.7792 26.165 57.801C26.0015 57.6386 25.8958 57.4272 25.8641 57.1991C25.8967 56.6276 26.0148 56.0614 26.1028 55.4692C25.8107 54.9961 25.5878 54.5595 25.294 54.1778C24.8623 53.6223 24.403 53.0887 23.9177 52.5792C23.7411 52.4566 23.5432 52.3679 23.334 52.3176C23.2239 52.8521 23.1485 53.3931 23.108 53.9373C23.1408 54.2495 23.2476 54.5494 23.4195 54.8121C23.9364 55.7894 24.4762 56.7549 25.0061 57.7249L25.0528 57.8334L24.8882 57.8929C24.2075 57.6907 23.5506 57.416 22.9287 57.0735C22.4796 56.7718 21.7682 56.8593 21.7868 55.7299C21.7244 54.9219 21.4182 54.1517 20.9086 53.521C20.399 52.8904 19.71 52.4288 18.9323 52.1972C18.833 52.1662 18.7264 52.1684 18.6284 52.2033L18.5859 52.4069C18.6762 52.7047 19.2396 52.8799 18.7426 53.3532C18.631 53.4588 18.9695 54.0253 19.086 54.3841C19.2019 54.8881 19.4447 55.3542 19.7914 55.7383C20.1381 56.1224 20.5772 56.4118 21.0671 56.579C21.256 56.639 21.3831 56.8929 21.5389 57.0572C21.3524 57.0429 21.1636 57.0429 20.9808 57.0105C20.786 56.9938 20.5962 56.9404 20.4212 56.8533C19.6963 56.3905 18.5646 56.0435 18.3476 55.3982C17.794 53.7507 16.8909 53.0099 15.7644 52.8539C16.0975 52.3119 16.281 51.6915 16.2962 51.0558C16.3114 50.42 16.1578 49.7916 15.851 49.2344C15.6159 48.8676 15.3513 48.5207 15.0598 48.1969C14.877 48.3738 14.7229 48.5781 14.6031 48.8025C14.3618 49.4581 14.264 50.1577 14.3163 50.8542C14.3687 51.5507 14.5699 52.2279 14.9065 52.8401L14.4074 52.9083C13.5954 52.252 13.0495 51.3238 12.871 50.296C12.8166 50.0721 12.8373 49.8366 12.9298 49.6255C13.2566 49.1557 13.6538 48.7345 14.0388 48.2757C14.0372 47.7199 14.0761 47.2316 14.0252 46.7527C13.9481 46.0537 13.836 45.359 13.6892 44.6712C13.6487 44.4788 13.4531 44.3191 13.3287 44.143C12.955 44.5411 12.6076 44.9629 12.2886 45.4059C12.153 45.689 12.087 46.0004 12.0961 46.3141C12.0256 47.4171 11.9796 48.5219 11.9239 49.6259L11.9062 49.7428L11.7351 49.7064C11.2606 49.1786 10.8444 48.6014 10.4936 47.9847C10.2687 47.493 9.61644 47.1962 10.2236 46.243C10.5933 45.5218 10.7355 44.7057 10.6315 43.9022C10.5274 43.0987 10.182 42.3455 9.64077 41.742C9.57229 41.6637 9.48014 41.6099 9.37828 41.5886L9.23531 41.7402C9.15616 42.0409 9.54505 42.4844 8.87375 42.6284C8.72285 42.6608 8.71509 43.3198 8.62694 43.6865C8.46201 44.1766 8.42499 44.7005 8.51939 45.2088C8.61378 45.7172 8.83647 46.193 9.16638 46.5914C9.29578 46.7411 9.27215 47.0238 9.31834 47.2453C9.16691 47.136 9.00614 47.0374 8.86669 46.9143C8.70952 46.7983 8.57567 46.6538 8.47217 46.4883C8.09579 45.7154 7.31237 44.8296 7.46557 44.1656C7.69077 43.5597 7.72824 42.9003 7.57308 42.2729C7.41792 41.6455 7.07733 41.0793 6.59559 40.6478C7.16329 40.3598 7.6445 39.9267 7.99033 39.3928C8.33615 38.8588 8.53427 38.2429 8.56454 37.6077C8.55613 37.1724 8.51227 36.7384 8.43338 36.3102C8.18485 36.3655 7.94647 36.4592 7.72683 36.5878C7.17786 37.0207 6.72819 37.5661 6.40813 38.1872C6.08807 38.8083 5.90505 39.4908 5.87141 40.1885L5.40989 39.9862C5.0614 39.0027 5.08207 37.9264 5.46806 36.957C5.53881 36.7377 5.67972 36.5477 5.86912 36.4162C6.39392 36.1864 6.95275 36.0347 7.5211 35.8445C7.81109 35.3702 8.09985 34.9741 8.30734 34.5392C8.60756 33.9033 8.8755 33.2527 9.11015 32.5898C9.13968 32.3771 9.12922 32.1607 9.0793 31.9518C8.55228 32.0959 8.03515 32.2739 7.53115 32.4847C7.26718 32.6553 7.04765 32.8862 6.8907 33.1583C6.25289 34.0616 5.63589 34.9796 5.01025 35.8917L4.93444 35.9824L4.80822 35.8619C4.68026 35.1644 4.62784 34.4551 4.65185 33.7463C4.71708 33.21 4.31691 32.6162 5.3332 32.1206C6.02606 31.6988 6.57463 31.0772 6.90658 30.3377C7.23854 29.5982 7.33829 28.7756 7.19268 27.9784C7.17525 27.8759 7.12495 27.7819 7.04935 27.7104L6.84803 27.7648C6.62309 27.9802 6.72252 28.5611 6.07484 28.3335C5.92941 28.2823 5.57754 28.8397 5.31011 29.1064C4.91283 29.438 4.60684 29.8653 4.4211 30.348C4.23536 30.8306 4.17602 31.3527 4.24869 31.8646C4.28077 32.0599 4.11206 32.2882 4.03591 32.5011C3.96434 32.3298 3.87848 32.1611 3.82454 31.9833C3.75122 31.8024 3.71276 31.6094 3.71119 31.4143C3.79581 30.559 3.59184 29.3946 4.06993 28.9087C4.57904 28.5098 4.95621 27.9672 5.15242 27.3514C5.34863 26.7356 5.35481 26.0751 5.17014 25.4557C5.80483 25.5066 6.44171 25.3889 7.01605 25.1143C7.59039 24.8398 8.08171 24.4183 8.44008 23.8927C8.66097 23.5169 8.85076 23.1238 9.00755 22.7172C8.76675 22.6347 8.51459 22.5902 8.26009 22.5851C7.56537 22.6676 6.89642 22.8978 6.29833 23.2602C5.70023 23.6227 5.18688 24.109 4.79288 24.6863L4.50624 24.2728C4.7241 23.2525 5.30518 22.3459 6.14165 21.7211C6.3169 21.5709 6.53675 21.4825 6.7673 21.4695C7.33476 21.5475 7.89095 21.7101 8.47481 21.8448C8.97017 21.5917 9.42394 21.4047 9.82816 21.1425C10.4167 20.7571 10.9855 20.3425 11.5325 19.9003C11.686 19.7771 11.7403 19.5306 11.8401 19.3399C11.3155 19.1876 10.7815 19.0693 10.2416 18.9859C9.92701 18.9935 9.6188 19.0759 9.34249 19.2262C8.32602 19.663 7.31943 20.1241 6.30877 20.5742L6.19648 20.6117L6.15223 20.4431C6.40816 19.7816 6.7347 19.1495 7.12622 18.5579C7.4631 18.1353 7.4326 17.4197 8.55855 17.528C9.36996 17.5302 10.163 17.2868 10.8331 16.8298C11.5032 16.3728 12.0188 15.7237 12.312 14.9681C12.3509 14.8716 12.3571 14.7651 12.3297 14.6648L12.1298 14.6062C11.8255 14.672 11.6055 15.219 11.1729 14.6868C11.0756 14.5674 10.484 14.859 10.1164 14.9466C9.60414 15.0218 9.11956 15.2263 8.70856 15.5408C8.29756 15.8552 7.97372 16.2692 7.76772 16.7436C7.6928 16.9267 7.42925 17.0332 7.25314 17.1751C7.28188 16.991 7.29704 16.803 7.34393 16.6234C7.37607 16.4308 7.44444 16.246 7.54543 16.0789C8.0653 15.394 8.5009 14.2949 9.16286 14.1305C9.80562 14.0563 10.4112 13.7908 10.9008 13.3683C11.3905 12.9459 11.7415 12.3862 11.9083 11.7618C12.4228 12.1366 13.0274 12.3687 13.6607 12.4345C14.2941 12.5003 14.9336 12.3976 15.5143 12.1366C15.899 11.9321 16.2664 11.6966 16.6127 11.4324C16.4507 11.2363 16.2591 11.0667 16.0447 10.9294C15.4095 10.6371 14.719 10.484 14.0195 10.4807C13.3201 10.4774 12.6281 10.6238 11.9901 10.9101L11.9619 10.4078C12.6817 9.65177 13.6518 9.18229 14.6919 9.08649C14.9197 9.05001 15.1532 9.08923 15.3565 9.19811C15.7995 9.56131 16.1884 9.99035 16.6156 10.4099C17.1703 10.4528 17.6556 10.5303 18.1367 10.5182C18.8405 10.497 19.5428 10.4407 20.2409 10.3493C20.4362 10.3245 20.6111 10.1423 20.7962 10.0324C20.4286 9.62824 20.0352 9.24816 19.6186 8.89459C19.3466 8.73716 19.0411 8.64664 18.7271 8.6305C17.6318 8.47206 16.5327 8.33878 15.4353 8.1953L15.3198 8.16907L15.3701 8.00128C15.9346 7.57113 16.5438 7.20293 17.1873 6.90306C17.6962 6.71837 18.0442 6.0932 18.9471 6.77295C19.6376 7.1986 20.4411 7.40521 21.2516 7.36555C22.0621 7.32588 22.8415 7.0418 23.487 6.55077C23.5706 6.48892 23.6317 6.40152 23.661 6.30183L23.5214 6.14743C23.2272 6.04461 22.7537 6.39637 22.6636 5.71662C22.6437 5.56363 21.9868 5.5036 21.6283 5.38599C21.1522 5.18268 20.6321 5.10405 20.1171 5.15753C19.6021 5.21101 19.1093 5.39484 18.6853 5.69162C18.5256 5.8087 18.2446 5.76205 18.0207 5.79057C18.1418 5.64867 18.2529 5.49638 18.3871 5.36803C18.5152 5.2209 18.6698 5.09907 18.8429 5.00888C19.6447 4.69656 20.5917 3.98777 21.2418 4.19269C21.6689 4.39712 22.1359 4.50476 22.6094 4.50791C23.083 4.51105 23.5514 4.40962 23.9811 4.21088C24.4108 4.01213 24.7912 3.72099 25.0951 3.35828C25.399 2.99557 25.6188 2.57026 25.7389 2.11278C25.7378 2.02943 25.7193 1.94722 25.6845 1.87143C25.6498 1.79563 25.5996 1.72793 25.5371 1.67265C24.6447 1.69942 23.7605 1.85126 22.9104 2.1237C21.5571 2.72827 20.3091 3.56735 19.0145 4.30678L18.8329 4.35642L18.9362 4.22667C19.5474 3.74563 20.0396 3.13071 20.375 2.42943C20.7103 1.72814 20.8798 0.959258 20.8702 0.182167C20.8672 0.111745 20.5496 -0.031212 20.5085 0.00611165C20.1912 0.287799 19.9104 0.610508 19.6114 0.913322C18.9186 1.61508 18.1931 2.23373 18.3231 3.43372C18.3082 4.0587 18.0758 4.65899 17.6659 5.13142C17.0893 5.80141 16.4515 6.41643 15.7609 6.96855C15.5387 7.1014 15.2955 7.19564 15.0417 7.24724C15.1527 7.05222 15.2802 6.86709 15.423 6.6939C15.7738 6.10902 15.993 5.45496 16.0655 4.77704C16.138 4.09912 16.0621 3.41356 15.8429 2.76788C15.7429 2.67768 15.6173 2.62077 15.4834 2.60503C14.9017 3.64094 13.9254 4.66487 13.8685 5.73722C13.9556 6.52611 13.8166 7.32348 13.4676 8.03654C13.1186 8.7496 12.574 9.34901 11.8972 9.765L11.7691 9.85532C11.6633 9.77909 11.5297 9.71905 11.5046 9.73895L11.279 9.915C11.6682 9.4277 11.9873 8.88844 12.2271 8.3129C12.4984 7.33997 12.6855 6.34553 12.7861 5.34057C12.8109 5.183 12.6844 5.00202 12.6274 4.83177L12.318 5.2205L12.1647 5.4286C11.346 6.86292 10.5252 8.29635 9.72362 9.74C9.6792 9.82011 9.77863 9.99563 9.83768 10.1132C9.9394 10.315 10.204 10.5606 10.1529 10.6932L10.088 10.8472C9.86756 11.0394 9.67063 11.2569 9.50133 11.4953C8.66432 12.7174 8.04026 14.085 7.32383 15.3901L7.19514 15.5274L7.21506 15.3627C7.48432 14.6337 7.58218 13.8527 7.50109 13.0799C7.42 12.3072 7.16212 11.5634 6.74738 10.906L6.34562 10.944C6.22328 11.35 6.1517 11.7715 6.05598 12.1856C5.85465 12.6369 5.76943 13.1313 5.80807 13.6238C5.84671 14.1164 6.00798 14.5915 6.27722 15.006C6.5918 15.5465 6.70799 16.1796 6.60582 16.7965C6.46507 17.6686 6.24347 18.5258 5.94386 19.357C5.87246 19.5885 5.63695 19.7683 5.47652 19.9707C5.46942 19.7466 5.48163 19.5223 5.51302 19.3003C5.50589 18.6185 5.35034 17.9463 5.05717 17.3305C4.76399 16.7147 4.34021 16.1699 3.8152 15.734C3.68247 15.7093 3.54534 15.7267 3.42296 15.7836C3.26888 16.9604 3.35858 18.1562 3.68651 19.297C4.17375 19.9239 4.47267 20.6762 4.54848 21.4663C4.62428 22.2563 4.47386 23.0516 4.11471 23.7596L4.05248 23.9038C3.92167 23.895 3.77694 23.9131 3.76637 23.9427L3.66588 24.2136C3.74304 23.5943 3.73325 22.9673 3.6368 22.3506C3.35844 21.3791 2.99689 20.4332 2.55616 19.5235C2.49446 19.3764 2.29173 19.2882 2.15458 19.1714L2.09446 19.6644C2.08083 19.7496 2.07347 19.8358 2.07243 19.9221C2.12531 21.5725 2.17661 23.2228 2.24871 24.8721C2.25259 24.9635 2.42923 25.0612 2.54135 25.1305C2.73385 25.2494 3.08784 25.3208 3.11375 25.4603L3.13914 25.6256C3.05172 25.9046 2.99775 26.1929 2.97837 26.4846C2.9045 27.9634 3.08854 29.4551 3.16117 30.9416L3.12327 31.1257L3.05452 30.9764C3.08801 29.6002 1.33326 27.8706 0.322076 27.4214L0 27.6643C0.108416 28.0747 0.268132 28.4706 0.402991 28.874C0.715371 29.8085 0.939608 30.7351 2.0689 31.1627Z" fill="white"/>
</svg>
