<?xml version="1.0" encoding="UTF-8"?>
<svg width="29px" height="31px" viewBox="0 0 29 31" version="1.1" xmlns="http://www.w3.org/2000/svg" xmlns:xlink="http://www.w3.org/1999/xlink">
    <!-- Generator: Sketch 53.2 (72643) - https://sketchapp.com -->
    <title>vetted</title>
    <desc>Created with Sketch.</desc>
    <g stroke="none" stroke-width="1" fill="none" fill-rule="evenodd">
        <g transform="translate(-1.000000, 0.000000)" fill="#000000">
            <path d="M2.63567813,1.66692813 L15.4997094,1.66692813 L15.4997094,30.0135219 C8.37649063,29.8255844 2.63567813,23.9859594 2.63567813,16.8181781 L2.63567813,1.66692813 Z M16.1981781,5.81220938 L29.0622094,5.81220938 L29.0622094,1.66692813 L16.1981781,1.66692813 L16.1981781,5.81220938 Z M28.5700844,20.3434594 L16.1981781,20.3434594 L16.1981781,16.1981781 L29.0622094,16.1981781 L29.0622094,16.8181781 C29.0622094,18.0397719 28.8829906,19.2187406 28.5700844,20.3434594 L28.5700844,20.3434594 Z M16.1981781,30.0135219 L16.1981781,25.8856781 L25.4352094,25.8856781 C23.1005219,28.3530844 19.8329281,29.9176156 16.1981781,30.0135219 L16.1981781,30.0135219 Z M16.1981781,10.6559594 L29.0622094,10.6559594 L29.0622094,6.51067813 L16.1981781,6.51067813 L16.1981781,10.6559594 Z M16.1981781,15.4997094 L29.0622094,15.4997094 L29.0622094,11.3544281 L16.1981781,11.3544281 L16.1981781,15.4997094 Z M16.1981781,21.0419281 L28.3579281,21.0419281 C27.8425531,22.5648031 27.0646469,23.9685219 26.0648969,25.1872094 L16.1981781,25.1872094 L16.1981781,21.0419281 Z M15.8494281,30.7294281 C23.5199906,30.7294281 29.7606781,24.4887406 29.7606781,16.8181781 L29.7606781,1.31817813 C29.7606781,1.12442813 29.6047094,0.968459375 29.4119281,0.968459375 L2.28692813,0.968459375 C2.09317813,0.968459375 1.93720938,1.12442813 1.93720938,1.31817813 L1.93720938,16.8181781 C1.93720938,24.4887406 8.17886563,30.7294281 15.8494281,30.7294281 L15.8494281,30.7294281 Z"></path>
        </g>
    </g>
</svg>
