<?xml version="1.0" encoding="UTF-8"?>
<svg width="163px" height="30px" viewBox="0 0 163 30" version="1.1" xmlns="http://www.w3.org/2000/svg" xmlns:xlink="http://www.w3.org/1999/xlink">
    <!-- Generator: Sketch 53 (72520) - https://sketchapp.com -->
    <title>logo/black</title>
    <desc>Created with Sketch.</desc>
    <g stroke="none" stroke-width="1" fill="none" fill-rule="evenodd">
        <g>
            <path d="M37.314,9.148 L42.12,9.148 C44.0880098,9.148 45.6209945,9.68199466 46.719,10.75 C47.8170055,11.8180053 48.366,13.4019895 48.366,15.502 C48.366,16.5700053 48.2130015,17.505996 47.907,18.31 C47.6009985,19.114004 47.1600029,19.7919972 46.584,20.344 C46.0079971,20.8960028 45.3060041,21.3099986 44.478,21.586 C43.6499959,21.8620014 42.7140052,22 41.67,22 L37.314,22 L37.314,9.148 Z M41.724,19.714 C42.4200035,19.714 43.0139975,19.615001 43.506,19.417 C43.9980025,19.218999 44.3969985,18.9340019 44.703,18.562 C45.0090015,18.1899981 45.2339993,17.7490026 45.378,17.239 C45.5220007,16.7289975 45.594,16.1560032 45.594,15.52 C45.594,14.8959969 45.5310006,14.3290025 45.405,13.819 C45.2789994,13.3089974 45.0780014,12.8800017 44.802,12.532 C44.5259986,12.1839983 44.1690022,11.914001 43.731,11.722 C43.2929978,11.529999 42.7560032,11.434 42.12,11.434 L39.996,11.434 L39.996,19.714 L41.724,19.714 Z M49.9534286,12.604 L52.4014286,12.604 L52.4014286,13.918 C52.7134302,13.4259975 53.0914264,13.0570012 53.5354286,12.811 C53.9794308,12.5649988 54.4474261,12.442 54.9394286,12.442 C55.1794298,12.442 55.3774278,12.4509999 55.5334286,12.469 C55.6894294,12.4870001 55.827428,12.5079999 55.9474286,12.532 L55.6414286,14.818 C55.3534272,14.7459996 54.9994307,14.71 54.5794286,14.71 C54.3034272,14.71 54.0394299,14.7429997 53.7874286,14.809 C53.5354273,14.8750003 53.3074296,14.9979991 53.1034286,15.178 C52.8874275,15.370001 52.7284291,15.5859988 52.6264286,15.826 C52.5244281,16.0660012 52.4734286,16.3119987 52.4734286,16.564 L52.4734286,22 L49.9534286,22 L49.9534286,12.604 Z M65.2208572,19.066 C65.0528564,20.1220053 64.6298606,20.9229973 63.9518572,21.469 C63.2738538,22.0150027 62.2868637,22.288 60.9908572,22.288 C59.4308494,22.288 58.2578611,21.8560043 57.4718572,20.992 C56.6858533,20.1279957 56.2928572,18.9040079 56.2928572,17.32 C56.2928572,16.527996 56.4068561,15.8230031 56.6348572,15.205 C56.8628583,14.5869969 57.1838551,14.0620022 57.5978572,13.63 C58.0118593,13.1979978 58.5068543,12.8710011 59.0828572,12.649 C59.6588601,12.4269989 60.2948537,12.316 60.9908572,12.316 C62.4308644,12.316 63.5138536,12.7299959 64.2398572,13.558 C64.9658608,14.3860041 65.3288572,15.501993 65.3288572,16.906 L65.3288572,17.914 L58.8128572,17.914 C58.8368573,18.6700038 59.0288554,19.2609979 59.3888572,19.687 C59.748859,20.1130021 60.2888536,20.326 61.0088572,20.326 C62.0048622,20.326 62.5928563,19.9060042 62.7728572,19.066 L65.2208572,19.066 Z M62.8988572,16.258 C62.8988572,15.6099968 62.7398588,15.1060018 62.4218572,14.746 C62.1038556,14.3859982 61.6088606,14.206 60.9368572,14.206 C60.6008555,14.206 60.3068585,14.2599995 60.0548572,14.368 C59.8028559,14.4760005 59.5898581,14.6229991 59.4158572,14.809 C59.2418563,14.9950009 59.1068577,15.2109988 59.0108572,15.457 C58.9148567,15.7030012 58.8608573,15.9699986 58.8488572,16.258 L62.8988572,16.258 Z M72.3702858,20.812 C71.9982839,21.2320021 71.5812881,21.5739987 71.1192858,21.838 C70.6572835,22.1020013 70.0602895,22.234 69.3282858,22.234 C68.9082837,22.234 68.5092877,22.1800005 68.1312858,22.072 C67.7532839,21.9639995 67.4232872,21.7960011 67.1412858,21.568 C66.8592844,21.3399989 66.6342866,21.0490018 66.4662858,20.695 C66.298285,20.3409982 66.2142858,19.9180025 66.2142858,19.426 C66.2142858,18.7779968 66.3582844,18.250002 66.6462858,17.842 C66.9342872,17.433998 67.3122835,17.1160011 67.7802858,16.888 C68.2482881,16.6599989 68.7732829,16.4980005 69.3552858,16.402 C69.9372887,16.3059995 70.5282828,16.2460001 71.1282858,16.222 L72.3342858,16.168 L72.3342858,15.7 C72.3342858,15.1239971 72.1752874,14.7280011 71.8572858,14.512 C71.5392842,14.2959989 71.164288,14.188 70.7322858,14.188 C69.7362808,14.188 69.1662865,14.5659962 69.0222858,15.322 L66.7182858,15.106 C66.8862866,14.1219951 67.3182823,13.4110022 68.0142858,12.973 C68.7102893,12.5349978 69.6462799,12.316 70.8222858,12.316 C71.5422894,12.316 72.1542833,12.4029991 72.6582858,12.577 C73.1622883,12.7510009 73.5672843,12.9999984 73.8732858,13.324 C74.1792873,13.6480016 74.4012851,14.0409977 74.5392858,14.503 C74.6772865,14.9650023 74.7462858,15.4839971 74.7462858,16.06 L74.7462858,22 L72.3702858,22 L72.3702858,20.812 Z M72.3162858,17.806 L71.2002858,17.86 C70.6722832,17.8840001 70.2462874,17.9379996 69.9222858,18.022 C69.5982842,18.1060004 69.3492867,18.2109994 69.1752858,18.337 C69.0012849,18.4630006 68.8842861,18.6099992 68.8242858,18.778 C68.7642855,18.9460008 68.7342858,19.131999 68.7342858,19.336 C68.7342858,19.6480016 68.8422847,19.8939991 69.0582858,20.074 C69.2742869,20.2540009 69.5742839,20.344 69.9582858,20.344 C70.606289,20.344 71.1342838,20.1940015 71.5422858,19.894 C71.7702869,19.7259992 71.9562851,19.5130013 72.1002858,19.255 C72.2442865,18.9969987 72.3162858,18.6760019 72.3162858,18.292 L72.3162858,17.806 Z M76.4597144,12.604 L78.9077144,12.604 L78.9077144,13.864 C79.2557161,13.3359974 79.6637121,12.9460013 80.1317144,12.694 C80.5997167,12.4419987 81.0917118,12.316 81.6077144,12.316 C82.2917178,12.316 82.8497122,12.4539986 83.2817144,12.73 C83.7137166,13.0060014 84.0197135,13.4079974 84.1997144,13.936 C84.6317166,13.3599971 85.087712,12.9460013 85.5677144,12.694 C86.0477168,12.4419987 86.5757115,12.316 87.1517144,12.316 C88.1237193,12.316 88.852712,12.5829973 89.3387144,13.117 C89.8247168,13.6510027 90.0677144,14.517994 90.0677144,15.718 L90.0677144,22 L87.5477144,22 L87.5477144,16.06 C87.5477144,15.7239983 87.5177147,15.451001 87.4577144,15.241 C87.3977141,15.0309989 87.3167149,14.8660006 87.2147144,14.746 C87.1127139,14.6259994 86.9897151,14.5420002 86.8457144,14.494 C86.7017137,14.4459998 86.5517152,14.422 86.3957144,14.422 C86.1437131,14.422 85.9127155,14.4639996 85.7027144,14.548 C85.4927134,14.6320004 85.2857154,14.775999 85.0817144,14.98 C84.9137136,15.1480008 84.7787149,15.3399989 84.6767144,15.556 C84.5747139,15.7720011 84.5237144,15.9999988 84.5237144,16.24 L84.5237144,22 L82.0037144,22 L82.0037144,16.06 C82.0037144,15.7239983 81.9737147,15.451001 81.9137144,15.241 C81.8537141,15.0309989 81.7727149,14.8660006 81.6707144,14.746 C81.5687139,14.6259994 81.4457151,14.5420002 81.3017144,14.494 C81.1577137,14.4459998 81.0077152,14.422 80.8517144,14.422 C80.5997131,14.422 80.3687155,14.4639996 80.1587144,14.548 C79.9487134,14.6320004 79.7417154,14.775999 79.5377144,14.98 C79.3697136,15.1480008 79.2347149,15.3489988 79.1327144,15.583 C79.0307139,15.8170012 78.9797144,16.0719986 78.9797144,16.348 L78.9797144,22 L76.4597144,22 L76.4597144,12.604 Z M95.5465716,9.148 L100.136572,9.148 C101.120577,9.148 101.933568,9.25899889 102.575572,9.481 C103.217575,9.70300111 103.72757,9.99699817 104.105572,10.363 C104.483573,10.7290018 104.747571,11.1549976 104.897572,11.641 C105.047572,12.1270024 105.122572,12.6339974 105.122572,13.162 C105.122572,13.7260028 105.047572,14.2659974 104.897572,14.782 C104.747571,15.2980026 104.483573,15.750998 104.105572,16.141 C103.72757,16.5310019 103.223575,16.8399989 102.593572,17.068 C101.963568,17.2960011 101.168576,17.41 100.208572,17.41 L98.1925716,17.41 L98.1925716,22 L95.5465716,22 L95.5465716,9.148 Z M100.118572,15.178 C100.586574,15.178 100.97357,15.1300005 101.279572,15.034 C101.585573,14.9379995 101.828571,14.8060008 102.008572,14.638 C102.188573,14.4699992 102.311571,14.2630012 102.377572,14.017 C102.443572,13.7709988 102.476572,13.5040014 102.476572,13.216 C102.476572,12.9159985 102.440572,12.6520011 102.368572,12.424 C102.296571,12.1959989 102.170573,12.0040008 101.990572,11.848 C101.810571,11.6919992 101.567573,11.5720004 101.261572,11.488 C100.95557,11.4039996 100.568574,11.362 100.100572,11.362 L98.1925716,11.362 L98.1925716,15.178 L100.118572,15.178 Z M106.44,12.604 L108.888,12.604 L108.888,13.918 C109.200002,13.4259975 109.577998,13.0570012 110.022,12.811 C110.466002,12.5649988 110.933998,12.442 111.426,12.442 C111.666001,12.442 111.863999,12.4509999 112.02,12.469 C112.176001,12.4870001 112.314,12.5079999 112.434,12.532 L112.128,14.818 C111.839999,14.7459996 111.486002,14.71 111.066,14.71 C110.789999,14.71 110.526001,14.7429997 110.274,14.809 C110.021999,14.8750003 109.794001,14.9979991 109.59,15.178 C109.373999,15.370001 109.215001,15.5859988 109.113,15.826 C109.011,16.0660012 108.96,16.3119987 108.96,16.564 L108.96,22 L106.44,22 L106.44,12.604 Z M117.531429,22.288 C116.019421,22.288 114.849433,21.8560043 114.021429,20.992 C113.193425,20.1279957 112.779429,18.892008 112.779429,17.284 C112.779429,16.5159962 112.890428,15.8230031 113.112429,15.205 C113.33443,14.5869969 113.652427,14.0650021 114.066429,13.639 C114.480431,13.2129979 114.981426,12.8860011 115.569429,12.658 C116.157432,12.4299989 116.811425,12.316 117.531429,12.316 C118.263432,12.316 118.923426,12.4299989 119.511429,12.658 C120.099432,12.8860011 120.600427,13.2129979 121.014429,13.639 C121.428431,14.0650021 121.743428,14.5869969 121.959429,15.205 C122.17543,15.8230031 122.283429,16.5159962 122.283429,17.284 C122.283429,18.0640039 122.17243,18.7629969 121.950429,19.381 C121.728428,19.9990031 121.410431,20.5239978 120.996429,20.956 C120.582427,21.3880022 120.081432,21.7179989 119.493429,21.946 C118.905426,22.1740011 118.251432,22.288 117.531429,22.288 Z M117.531429,20.272 C118.251432,20.272 118.788427,20.0140026 119.142429,19.498 C119.496431,18.9819974 119.673429,18.2440048 119.673429,17.284 C119.673429,16.3239952 119.496431,15.5920025 119.142429,15.088 C118.788427,14.5839975 118.251432,14.332 117.531429,14.332 C116.811425,14.332 116.274431,14.5839975 115.920429,15.088 C115.566427,15.5920025 115.389429,16.3239952 115.389429,17.284 C115.389429,18.2560049 115.563427,18.9969974 115.911429,19.507 C116.259431,20.0170026 116.799425,20.272 117.531429,20.272 Z M123.744857,9.148 L126.336857,9.148 L126.336857,11.416 L123.744857,11.416 L123.744857,9.148 Z M121.638857,23.134 C122.022859,23.2300005 122.376856,23.278 122.700857,23.278 C123.024859,23.278 123.285856,23.2030008 123.483857,23.053 C123.681858,22.9029993 123.780857,22.5820025 123.780857,22.09 L123.780857,12.604 L126.300857,12.604 L126.300857,22.036 C126.300857,23.1880058 126.03986,24.0249974 125.517857,24.547 C124.995855,25.0690026 124.224863,25.33 123.204857,25.33 C122.904856,25.33 122.595859,25.3060002 122.277857,25.258 C121.959856,25.2099998 121.626859,25.1320005 121.278857,25.024 L121.638857,23.134 Z M136.726286,19.066 C136.558285,20.1220053 136.135289,20.9229973 135.457286,21.469 C134.779283,22.0150027 133.792292,22.288 132.496286,22.288 C130.936278,22.288 129.76329,21.8560043 128.977286,20.992 C128.191282,20.1279957 127.798286,18.9040079 127.798286,17.32 C127.798286,16.527996 127.912285,15.8230031 128.140286,15.205 C128.368287,14.5869969 128.689284,14.0620022 129.103286,13.63 C129.517288,13.1979978 130.012283,12.8710011 130.588286,12.649 C131.164289,12.4269989 131.800283,12.316 132.496286,12.316 C133.936293,12.316 135.019282,12.7299959 135.745286,13.558 C136.47129,14.3860041 136.834286,15.501993 136.834286,16.906 L136.834286,17.914 L130.318286,17.914 C130.342286,18.6700038 130.534284,19.2609979 130.894286,19.687 C131.254288,20.1130021 131.794282,20.326 132.514286,20.326 C133.510291,20.326 134.098285,19.9060042 134.278286,19.066 L136.726286,19.066 Z M134.404286,16.258 C134.404286,15.6099968 134.245288,15.1060018 133.927286,14.746 C133.609284,14.3859982 133.114289,14.206 132.442286,14.206 C132.106284,14.206 131.812287,14.2599995 131.560286,14.368 C131.308285,14.4760005 131.095287,14.6229991 130.921286,14.809 C130.747285,14.9950009 130.612286,15.2109988 130.516286,15.457 C130.420286,15.7030012 130.366286,15.9699986 130.354286,16.258 L134.404286,16.258 Z M146.737715,18.598 C146.641714,19.7260056 146.254718,20.6229967 145.576715,21.289 C144.898711,21.9550033 143.881721,22.288 142.525715,22.288 C141.733711,22.288 141.049717,22.1680012 140.473715,21.928 C139.897712,21.6879988 139.426716,21.3520022 139.060715,20.92 C138.694713,20.4879978 138.421716,19.9660031 138.241715,19.354 C138.061714,18.7419969 137.971715,18.0640037 137.971715,17.32 C137.971715,16.5759963 138.076714,15.8950031 138.286715,15.277 C138.496716,14.6589969 138.799713,14.1310022 139.195715,13.693 C139.591717,13.2549978 140.077712,12.9160012 140.653715,12.676 C141.229717,12.4359988 141.889711,12.316 142.633715,12.316 C143.269718,12.316 143.824712,12.3969992 144.298715,12.559 C144.772717,12.7210008 145.171713,12.9459986 145.495715,13.234 C145.819716,13.5220014 146.071714,13.866998 146.251715,14.269 C146.431716,14.671002 146.551714,15.1119976 146.611715,15.592 L144.073715,15.934 C144.013714,15.4539976 143.875716,15.0670015 143.659715,14.773 C143.443714,14.4789985 143.071717,14.332 142.543715,14.332 C142.159713,14.332 141.841716,14.4129992 141.589715,14.575 C141.337713,14.7370008 141.136715,14.9559986 140.986715,15.232 C140.836714,15.5080014 140.731715,15.8229982 140.671715,16.177 C140.611714,16.5310018 140.581715,16.8999981 140.581715,17.284 C140.581715,17.680002 140.611714,18.0579982 140.671715,18.418 C140.731715,18.7780018 140.833714,19.0959986 140.977715,19.372 C141.121715,19.6480014 141.319713,19.8669992 141.571715,20.029 C141.823716,20.1910008 142.141713,20.272 142.525715,20.272 C143.029717,20.272 143.419713,20.1280014 143.695715,19.84 C143.971716,19.5519986 144.133714,19.1380027 144.181715,18.598 L146.737715,18.598 Z M148.685143,14.566 L147.209143,14.566 L147.209143,12.604 L148.685143,12.604 L148.685143,10.102 L151.205143,10.102 L151.205143,12.604 L153.365143,12.604 L153.365143,14.566 L151.205143,14.566 L151.205143,18.904 C151.205143,19.3960025 151.307142,19.7289991 151.511143,19.903 C151.715144,20.0770009 151.979142,20.164 152.303143,20.164 C152.471144,20.164 152.642142,20.1550001 152.816143,20.137 C152.990144,20.1189999 153.161142,20.0860002 153.329143,20.038 L153.689143,21.892 C153.341141,22.0000005 153.002145,22.0749998 152.672143,22.117 C152.342142,22.1590002 152.027145,22.18 151.727143,22.18 C150.695138,22.18 149.930146,21.9340025 149.432143,21.442 C148.934141,20.9499975 148.685143,20.1220058 148.685143,18.958 L148.685143,14.566 Z M156.320572,19.012 C156.404572,19.5640028 156.62657,19.9239992 156.986572,20.092 C157.346574,20.2600008 157.778569,20.344 158.282572,20.344 C158.882575,20.344 159.311571,20.2690008 159.569572,20.119 C159.827573,19.9689992 159.956572,19.7260017 159.956572,19.39 C159.956572,19.1499988 159.875573,18.9400009 159.713572,18.76 C159.551571,18.5799991 159.242574,18.4540004 158.786572,18.382 L157.490572,18.166 C156.350566,17.9859991 155.501575,17.6770022 154.943572,17.239 C154.385569,16.8009978 154.106572,16.1380044 154.106572,15.25 C154.106572,14.7939977 154.205571,14.3860018 154.403572,14.026 C154.601573,13.6659982 154.88057,13.3600013 155.240572,13.108 C155.600574,12.8559987 156.029569,12.6610007 156.527572,12.523 C157.025574,12.3849993 157.574569,12.316 158.174572,12.316 C158.918576,12.316 159.542569,12.3909993 160.046572,12.541 C160.550574,12.6910007 160.96157,12.8919987 161.279572,13.144 C161.597573,13.3960013 161.837571,13.6959983 161.999572,14.044 C162.161573,14.3920017 162.278571,14.763998 162.350572,15.16 L160.100572,15.448 C159.992571,15.0159978 159.803573,14.698001 159.533572,14.494 C159.26357,14.289999 158.828575,14.188 158.228572,14.188 C157.89257,14.188 157.613573,14.2149997 157.391572,14.269 C157.169571,14.3230003 156.995572,14.3919996 156.869572,14.476 C156.743571,14.5600004 156.653572,14.6559995 156.599572,14.764 C156.545572,14.8720005 156.518572,14.9739995 156.518572,15.07 C156.518572,15.3700015 156.611571,15.5889993 156.797572,15.727 C156.983573,15.8650007 157.346569,15.9819995 157.886572,16.078 L159.074572,16.276 C159.734575,16.3840005 160.28057,16.5219992 160.712572,16.69 C161.144574,16.8580008 161.489571,17.0649988 161.747572,17.311 C162.005573,17.5570012 162.185571,17.8479983 162.287572,18.184 C162.389572,18.5200017 162.440572,18.9099978 162.440572,19.354 C162.440572,20.2420044 162.104575,20.9529973 161.432572,21.487 C160.760568,22.0210027 159.722579,22.288 158.318572,22.288 C157.754569,22.288 157.217574,22.2370005 156.707572,22.135 C156.197569,22.0329995 155.741574,21.8560013 155.339572,21.604 C154.93757,21.3519987 154.607573,21.0160021 154.349572,20.596 C154.091571,20.1759979 153.944572,19.6480032 153.908572,19.012 L156.320572,19.012 Z" fill="#000000" fill-rule="nonzero"></path>
            <g transform="translate(-0.000000, 0.000000)">
                <path d="M14,1 C17.7,1 21.2,2.5 23.9,5.1 C26.6,7.7 28,11.3 28,15 C28,22.7 21.7,29 14,29 L1,29 L1,1 L14,1 L14,1 Z M14,0 L0,0 L0,30 L14,30 C14,30 14,30 14,30 C22.3,30 29,23.3 29,15 C29,6.7 22.3,0 14,0 L14,0 Z" fill="#000000" fill-rule="nonzero"></path>
                <path d="M13.3,0 L13.3,30" stroke="#000000"></path>
                <circle stroke="#000000" cx="19.3" cy="8.3" r="5.4"></circle>
            </g>
        </g>
    </g>
</svg>