<?xml version="1.0" encoding="UTF-8"?>
<svg width="50px" height="50px" viewBox="0 0 50 50" version="1.1" xmlns="http://www.w3.org/2000/svg" xmlns:xlink="http://www.w3.org/1999/xlink">
    <!-- Generator: Sketch 53 (72520) - https://sketchapp.com -->
    <title>flowkit</title>
    <desc>Created with Sketch.</desc>
    <g stroke="none" stroke-width="1" fill="none" fill-rule="evenodd">
        <g transform="translate(1.572000, 7.860000)">
            <path d="M4.25971169,32.0085738 C7.94313678,35.691999 13.9151489,35.691999 17.5985739,32.0085738 C21.2819991,28.3251489 21.2819991,22.3531366 17.5985739,18.6697117 C13.9151489,14.9862865 7.94313678,14.9862865 4.25971169,18.6697117 C0.576286571,22.3531366 0.576286571,28.3251489 4.25971169,32.0085738 Z" fill-opacity="0.75" fill="#006DFF" fill-rule="nonzero"></path>
            <path d="M41.1804252,4.20281778 L41.1804252,1.56117178 L41.1804252,1.56117178 C41.1804252,1.42246184 41.3082099,1.31001523 41.4658405,1.31001523 C41.5163747,1.31001523 41.5660027,1.32182169 41.609653,1.34422805 L44.1827759,2.66505105 L44.1827759,2.66505105 C44.3189339,2.73494297 44.3649245,2.88873057 44.2854992,3.00854528 C44.2606912,3.04596854 44.225304,3.07710828 44.1827759,3.09893851 L41.609653,4.41976151 L41.609653,4.41976151 C41.473495,4.48965343 41.2987301,4.44918299 41.2193048,4.32936828 C41.193842,4.2909574 41.1804252,4.2472862 41.1804252,4.20281778 Z" fill="#252525" fill-rule="nonzero"></path>
            <path d="M9.81757097,26.4507147 C10.4314752,27.0646188 11.4268105,27.0646188 12.0407147,26.4507147 C12.6546189,25.8368103 12.6546189,24.8414752 12.0407147,24.2275708 C11.4268105,23.6136667 10.4314752,23.6136667 9.81757097,24.2275708 C9.20366677,24.8414752 9.20366677,25.8368103 9.81757097,26.4507147 Z" fill="#252525" fill-rule="nonzero"></path>
            <path d="M10.9291428,25.3391428 L18.6273008,25.3391428 C22.9269165,25.3391428 26.4124437,21.9876743 26.4124437,17.8534285 L26.4124437,10.3677142 C26.4124437,6.23346842 29.8979709,2.88199999 34.1975865,2.88199999 L42.0697141,2.88199999" stroke="#252525" stroke-width="1.57199999" stroke-linecap="round"></path>
        </g>
    </g>
</svg>