<?xml version="1.0" standalone="no"?>
<!DOCTYPE svg PUBLIC "-//W3C//DTD SVG 20010904//EN"
 "http://www.w3.org/TR/2001/REC-SVG-20010904/DTD/svg10.dtd">
<svg version="1.0" xmlns="http://www.w3.org/2000/svg"
 width="260.000000pt" height="260.000000pt" viewBox="0 0 260.000000 260.000000"
 preserveAspectRatio="xMidYMid meet">
<metadata>
Created by potrace 1.11, written by Peter Selinger 2001-2013
</metadata>
<g transform="translate(0.000000,260.000000) scale(0.100000,-0.100000)"
fill="#000000" stroke="none">
<path d="M39 2588 c0 -7 -1 -593 -2 -1301 l-2 -1288 700 4 c385 2 714 7 730
10 150 36 210 54 275 79 490 194 823 678 822 1198 -1 390 -152 725 -445 987
-157 140 -364 245 -583 294 -96 22 -119 23 -796 26 -570 3 -698 2 -699 -9z
m1109 -1287 l-3 -1214 -510 0 -510 0 0 1211 0 1211 30 3 c16 2 247 3 513 3
l482 0 -2 -1214z m358 1185 c76 -16 173 -48 239 -77 l40 -19 -70 0 c-139 -1
-257 -50 -356 -149 -36 -36 -78 -89 -92 -116 l-26 -50 -1 220 0 221 98 -8 c53
-4 129 -14 168 -22z m304 -192 c62 -10 156 -62 209 -116 83 -84 132 -209 124
-318 -26 -374 -478 -539 -734 -268 -225 238 -102 634 218 702 64 13 100 13
183 0z m465 -325 c75 -112 153 -294 170 -398 3 -19 8 -37 10 -41 6 -10 18
-146 19 -225 9 -449 -271 -895 -689 -1095 -93 -45 -199 -82 -270 -94 -16 -3
-41 -8 -55 -11 -14 -3 -69 -9 -122 -12 l-98 -6 0 798 0 799 35 -60 c145 -246
461 -325 711 -179 97 57 204 199 231 305 13 56 12 220 -2 261 -8 23 -15 44
-15 46 0 14 35 -27 75 -88z"/>
</g>
</svg>
