<?xml version="1.0" encoding="UTF-8"?>
<svg width="31px" height="30px" viewBox="0 0 31 30" version="1.1" xmlns="http://www.w3.org/2000/svg" xmlns:xlink="http://www.w3.org/1999/xlink">
    <!-- Generator: Sketch 53.2 (72643) - https://sketchapp.com -->
    <title>judges</title>
    <desc>Created with Sketch.</desc>
    <g stroke="none" stroke-width="1" fill="none" fill-rule="evenodd">
        <g transform="translate(0.000000, -1.000000)" fill="#000000">
            <path d="M18.3826125,30.032025 L13.3150812,30.032025 C13.4855812,28.7862125 14.5570187,27.823275 15.8483625,27.823275 C17.140675,27.823275 18.2121125,28.7862125 18.3826125,30.032025 L18.3826125,30.032025 Z M15.4996125,12.943275 L16.1971125,12.943275 L16.1971125,27.16065 C17.7103,27.3253375 18.9038,28.5188375 19.0684875,30.032025 L25.5358625,30.032025 L25.5358625,30.729525 L18.7546125,30.729525 L12.9421125,30.729525 L6.1608625,30.729525 L6.1608625,30.032025 L12.6292062,30.032025 C12.792925,28.5188375 13.986425,27.3253375 15.4996125,27.16065 L15.4996125,12.943275 Z M26.0205281,13.9270406 C28.0713719,13.9270406 29.7482781,12.3741344 29.9836844,10.3862594 L22.0573719,10.3862594 C22.2927781,12.3741344 23.9696844,13.9270406 26.0205281,13.9270406 Z M29.8480594,9.68875938 L26.0205281,2.98985313 L22.1929969,9.68875938 L29.8480594,9.68875938 Z M5.67677813,8.46232188 L1.84924688,15.1612281 L9.50430938,15.1612281 L5.67677813,8.46232188 Z M5.67677813,19.3995094 C7.72762188,19.3995094 9.40452813,17.8466031 9.63993438,15.8587281 L1.71362188,15.8587281 C1.94902813,17.8466031 3.62593438,19.3995094 5.67677813,19.3995094 Z M17.4761531,10.6371656 C17.4761531,9.82729063 16.8639031,9.16369688 16.0782469,9.06779063 L15.6955906,9.06779063 C14.9099344,9.16369688 14.2976844,9.82729063 14.2976844,10.6371656 C14.2976844,11.5138844 15.0106844,12.2268844 15.8874031,12.2268844 C16.7631531,12.2268844 17.4761531,11.5138844 17.4761531,10.6371656 Z M5.67677813,20.0970094 C3.08052813,20.0970094 0.968653125,17.9841656 0.968653125,15.3888844 C0.968653125,15.3278531 0.984153125,15.2687594 1.01515313,15.2154781 L5.34934063,7.63016563 C5.38324688,7.51972813 5.46655938,7.42672813 5.58668438,7.39475938 L25.9304344,1.95038438 C26.0815594,1.90775938 26.2307469,1.97654063 26.3101844,2.10150938 C26.3130906,2.10635313 26.3198719,2.10829063 26.3227781,2.11410313 L30.6821531,9.74300938 C30.7131531,9.79629063 30.7286531,9.85538438 30.7286531,9.91641563 C30.7286531,12.5126656 28.6167781,14.6245406 26.0205281,14.6245406 C23.4242781,14.6245406 21.3124031,12.5126656 21.3124031,9.91641563 C21.3124031,9.85538438 21.3279031,9.79629063 21.3589031,9.74300938 L25.3036531,2.83969688 L16.1974031,5.27610313 L16.1974031,8.38288438 C17.3104969,8.53594688 18.1726844,9.48338438 18.1726844,10.6371656 C18.1726844,11.8984781 17.1477469,12.9234156 15.8874031,12.9234156 C14.6260906,12.9234156 13.6011531,11.8984781 13.6011531,10.6371656 C13.6011531,9.50954063 14.4236219,8.57566563 15.4999031,8.39063438 L15.4999031,5.46307188 L6.19021563,7.95469688 L10.3393719,15.2154781 C10.3694031,15.2687594 10.3849031,15.3278531 10.3849031,15.3888844 C10.3849031,17.9841656 8.27302813,20.0970094 5.67677813,20.0970094 Z"></path>
        </g>
    </g>
</svg>
