<?xml version="1.0" encoding="UTF-8"?>
<svg width="52px" height="52px" viewBox="0 0 52 52" version="1.1" xmlns="http://www.w3.org/2000/svg" xmlns:xlink="http://www.w3.org/1999/xlink">
    <!-- Generator: Sketch 53.2 (72643) - https://sketchapp.com -->
    <title>winner</title>
    <desc>Created with Sketch.</desc>
    <g stroke="none" stroke-width="1" fill="none" fill-rule="evenodd">
        <g>
            <path d="M49.9643259,15.9014919 C49.9507792,15.8320649 49.9236857,15.7677178 49.8881255,15.7067575 C49.4901898,14.7872721 49.0533073,13.8762535 48.538531,12.9872483 C45.0654841,6.96910669 39.4571315,2.66632169 32.7464125,0.867991236 C31.5915525,0.558109436 30.4282257,0.359988285 29.264899,0.210974085 C29.1649917,0.173720536 29.0600044,0.156787104 28.9550172,0.175413879 C23.4448785,-0.462976497 17.8991796,0.642776594 13.0088045,3.46557966 C6.99235621,6.94031985 2.68787787,12.5486724 0.88954742,19.2593914 C-0.625994719,24.9151576 -0.185725494,30.7758184 2.06303424,36.0844492 C2.07658098,36.1538763 2.10367448,36.21653 2.14092802,36.2774903 C2.54055701,37.2003623 2.97743955,38.111381 3.48882919,38.9969995 C7.73573387,46.3511889 15.0560564,50.8436283 22.9013153,51.7986738 C22.9267155,51.8020605 22.9504223,51.818994 22.9758224,51.818994 C22.9876758,51.818994 22.9978359,51.8105272 23.0096893,51.8088339 C24.0189218,51.9290613 25.0366211,51.996795 26.057707,51.996795 C30.4671726,51.996795 34.9325186,50.8758018 39.0185556,48.5169748 L39.0185556,48.5169748 C50.4875689,41.8943096 54.9850884,27.8023077 49.9643259,15.9014919" fill="#000000"></path>
            <g transform="translate(16.250000, 14.625000)">
                <g>
                    <path d="M10.9827586,0.758333333 C13.8853448,0.758333333 16.6310345,1.89583333 18.7491379,3.8675 C20.8672414,5.83916667 21.9655172,8.56916667 21.9655172,11.375 C21.9655172,17.2141667 17.0232759,21.9916667 10.9827586,21.9916667 L0.784482759,21.9916667 L0.784482759,0.758333333 L10.9827586,0.758333333 L10.9827586,0.758333333 Z M10.9827586,0 L0,0 L0,22.75 L10.9827586,22.75 C10.9827586,22.75 10.9827586,22.75 10.9827586,22.75 C17.4939655,22.75 22.75,17.6691667 22.75,11.375 C22.75,5.08083333 17.4939655,0 10.9827586,0 L10.9827586,0 Z" fill="#FFFFFF" fill-rule="nonzero"></path>
                    <path d="M10.4336207,0 L10.4336207,22.75" stroke="#FFFFFF" stroke-width="0.524999976"></path>
                    <ellipse stroke="#FFFFFF" stroke-width="0.524999976" cx="15.1405172" cy="6.29416667" rx="4.2362069" ry="4.095"></ellipse>
                </g>
            </g>
        </g>
    </g>
</svg>