<svg id="Layer_1" data-name="Layer 1" xmlns="http://www.w3.org/2000/svg" viewBox="0 0 536.49 139.07"><title>academy-logo-black</title><path d="M106.2,88.47a18.23,18.23,0,0,1-12.58-4.81q-5.39-4.8-5.38-13.46t5.38-13.53a18.44,18.44,0,0,1,12.83-4.87A22.71,22.71,0,0,1,115.87,54a22.42,22.42,0,0,1,8,6.07l9.86-12.9a37.47,37.47,0,0,0-13.21-9,39.59,39.59,0,0,0-14.86-3,36.2,36.2,0,0,0-25.35,9.8q-10.7,9.8-10.69,25.41T80.21,95.61q10.56,9.67,25.86,9.68t28.45-13.66L123.27,79Q115.68,88.47,106.2,88.47Z"/><path d="M189.53,41.3q-7.84-6.19-20.23-6.19a50.77,50.77,0,0,0-30.61,9.73l8.48,12.27a33.85,33.85,0,0,1,9.29-4.87,31.06,31.06,0,0,1,10.43-2q11.51,0,11.51,10.88v.38H164.24q-13.16,0-20.74,5.18t-7.59,15.62q0,10.43,7.34,16.69t18.14,6.26q10.81,0,18.15-9.23v8.22h17.83V60.9Q197.37,47.51,189.53,41.3ZM178.27,78.35a10.09,10.09,0,0,1-3.85,8.29,13.88,13.88,0,0,1-8.92,3.09q-5.06,0-7.77-2A6.48,6.48,0,0,1,155,82.15q0-7.08,11.38-7.08h11.88Z"/><path d="M254.4,43.83q-7.85-8.71-20.24-8.72t-21.62,9.67q-9.22,9.67-9.23,24.85t9.48,25.42q9.5,10.23,21.57,10.24t20-10v9h19V10.45h-19Zm-4.36,40a14.39,14.39,0,0,1-11.2,5.25,15.3,15.3,0,0,1-11.5-5.25q-4.93-5.23-4.93-13.46a20.38,20.38,0,0,1,4.8-13.79A14.71,14.71,0,0,1,238.72,51,14.25,14.25,0,0,1,250,56.54a20.74,20.74,0,0,1,4.61,13.78Q254.65,78.61,250,83.85Z"/><path d="M338.42,43.58q-9.8-8.47-23.83-8.47a34.78,34.78,0,0,0-24.35,9.48q-10.31,9.48-10.3,25.54t10.11,25.61q10.13,9.56,25.61,9.55a38,38,0,0,0,27-10.88L332,82.91a21.86,21.86,0,0,1-16.44,6.7,18.63,18.63,0,0,1-11.13-3.54A13.53,13.53,0,0,1,298.65,77h49.57V66.85Q348.22,52,338.42,43.58ZM299.16,63.43a13.09,13.09,0,0,1,5.44-9.23,17,17,0,0,1,10.3-3.41,14.37,14.37,0,0,1,9.55,3.28A13.5,13.5,0,0,1,329,63.43Z"/><path d="M434.72,35.11a28.91,28.91,0,0,0-13.35,3.41,26.73,26.73,0,0,0-10.55,9.61,24.72,24.72,0,0,0-7.91-9.23,19.49,19.49,0,0,0-11.69-3.79q-10.12,0-18,8.85V36.24h-19v68h19V67.6q0-8,4.24-12.07a13.56,13.56,0,0,1,9.73-4.11q5.5,0,8,3.79t2.47,11.89v37.18h19.09V67.6q0-8,4.17-12.07a13.59,13.59,0,0,1,9.87-4.11q11.51,0,11.5,15.68v37.18h19.1V62.93q0-13.53-7.34-20.68T434.72,35.11Z"/><path d="M515.9,36.24,499.33,78.61,482.77,36.24H462.53q26.31,66.39,26.31,69.3a9.19,9.19,0,0,1-1.9,5.5,5.53,5.53,0,0,1-4.55,2.59c-3.38,0-6.66-1.56-9.87-4.68l-8.6,14q8.85,8.08,18.85,8.09a23.34,23.34,0,0,0,13.08-3.85,22.69,22.69,0,0,0,8.67-10.81l31.61-80.18Z"/><polygon points="25.47 42.24 36.49 67.95 14.15 67.95 7.13 85.36 44.18 85.36 52.4 104.45 73.39 104.45 35.19 19.2 25.47 42.24"/></svg>