<svg width="494" height="264" viewBox="0 0 494 264" fill="none" xmlns="http://www.w3.org/2000/svg">
<path d="M70.5039 2.72803H83.3199C88.5679 2.72803 92.6479 4.15203 95.5599 7.00003C98.5039 9.84803 99.9759 14.072 99.9759 19.672C99.9759 22.52 99.5599 25.016 98.7279 27.16C97.9279 29.304 96.7599 31.112 95.2239 32.584C93.6879 34.056 91.8159 35.16 89.6079 35.896C87.3999 36.632 84.9039 37 82.1199 37H70.5039V2.72803ZM82.2639 30.904C84.1199 30.904 85.7039 30.648 87.0159 30.136C88.3279 29.592 89.3839 28.824 90.1839 27.832C91.0159 26.84 91.6239 25.672 92.0079 24.328C92.3919 22.952 92.5839 21.416 92.5839 19.72C92.5839 18.056 92.4079 16.552 92.0559 15.208C91.7359 13.832 91.2079 12.68 90.4719 11.752C89.7359 10.824 88.7759 10.104 87.5919 9.59203C86.4399 9.08003 85.0159 8.82403 83.3199 8.82403H77.6559V30.904H82.2639Z" fill="white"/>
<path d="M114.565 37.768C110.533 37.768 107.413 36.616 105.205 34.312C102.997 32.008 101.893 28.712 101.893 24.424C101.893 22.376 102.181 20.536 102.757 18.904C103.365 17.24 104.213 15.848 105.301 14.728C106.421 13.576 107.765 12.696 109.333 12.088C110.901 11.48 112.645 11.176 114.565 11.176C116.517 11.176 118.277 11.48 119.845 12.088C121.413 12.696 122.741 13.576 123.829 14.728C124.949 15.848 125.797 17.24 126.373 18.904C126.949 20.536 127.237 22.376 127.237 24.424C127.237 26.504 126.933 28.376 126.325 30.04C125.749 31.672 124.901 33.064 123.781 34.216C122.693 35.368 121.365 36.248 119.797 36.856C118.229 37.464 116.485 37.768 114.565 37.768ZM114.565 32.392C116.485 32.392 117.909 31.704 118.837 30.328C119.797 28.952 120.277 26.984 120.277 24.424C120.277 21.864 119.797 19.912 118.837 18.568C117.909 17.224 116.485 16.552 114.565 16.552C112.645 16.552 111.205 17.224 110.245 18.568C109.317 19.912 108.853 21.864 108.853 24.424C108.853 27.016 109.317 29 110.245 30.376C111.173 31.72 112.613 32.392 114.565 32.392Z" fill="white"/>
<path d="M70.5039 156.728H83.3199C88.5679 156.728 92.6479 158.152 95.5599 161C98.5039 163.848 99.9759 168.072 99.9759 173.672C99.9759 176.52 99.5599 179.016 98.7279 181.16C97.9279 183.304 96.7599 185.112 95.2239 186.584C93.6879 188.056 91.8159 189.16 89.6079 189.896C87.3999 190.632 84.9039 191 82.1199 191H70.5039V156.728ZM82.2639 184.904C84.1199 184.904 85.7039 184.648 87.0159 184.136C88.3279 183.592 89.3839 182.824 90.1839 181.832C91.0159 180.84 91.6239 179.672 92.0079 178.328C92.3919 176.952 92.5839 175.416 92.5839 173.72C92.5839 172.056 92.4079 170.552 92.0559 169.208C91.7359 167.832 91.2079 166.68 90.4719 165.752C89.7359 164.824 88.7759 164.104 87.5919 163.592C86.4399 163.08 85.0159 162.824 83.3199 162.824H77.6559V184.904H82.2639Z" fill="white"/>
<path d="M114.565 191.768C110.533 191.768 107.413 190.616 105.205 188.312C102.997 186.008 101.893 182.712 101.893 178.424C101.893 176.376 102.181 174.536 102.757 172.904C103.365 171.24 104.213 169.848 105.301 168.728C106.421 167.576 107.765 166.696 109.333 166.088C110.901 165.48 112.645 165.176 114.565 165.176C116.517 165.176 118.277 165.48 119.845 166.088C121.413 166.696 122.741 167.576 123.829 168.728C124.949 169.848 125.797 171.24 126.373 172.904C126.949 174.536 127.237 176.376 127.237 178.424C127.237 180.504 126.933 182.376 126.325 184.04C125.749 185.672 124.901 187.064 123.781 188.216C122.693 189.368 121.365 190.248 119.797 190.856C118.229 191.464 116.485 191.768 114.565 191.768ZM114.565 186.392C116.485 186.392 117.909 185.704 118.837 184.328C119.797 182.952 120.277 180.984 120.277 178.424C120.277 175.864 119.797 173.912 118.837 172.568C117.909 171.224 116.485 170.552 114.565 170.552C112.645 170.552 111.205 171.224 110.245 172.568C109.317 173.912 108.853 175.864 108.853 178.424C108.853 181.016 109.317 183 110.245 184.376C111.173 185.72 112.613 186.392 114.565 186.392Z" fill="white"/>
<path d="M129.725 165.944H136.253V169.4C137.245 167.928 138.413 166.856 139.757 166.184C141.133 165.512 142.557 165.176 144.029 165.176C146.877 165.176 148.989 165.928 150.365 167.432C151.741 168.904 152.429 171.24 152.429 174.44V191H145.709V175.352C145.709 173.592 145.373 172.392 144.701 171.752C144.029 171.112 143.133 170.792 142.013 170.792C141.149 170.792 140.397 170.92 139.757 171.176C139.149 171.432 138.573 171.8 138.029 172.28C137.581 172.728 137.197 173.272 136.877 173.912C136.589 174.52 136.445 175.192 136.445 175.928V191H129.725V165.944Z" fill="white"/>
<path d="M154.679 156.728H161.207L158.231 168.968H153.095L154.679 156.728Z" fill="white"/>
<path d="M165.088 171.176H161.152V165.944H165.088V159.272H171.808V165.944H177.568V171.176H171.808V182.744C171.808 184.056 172.08 184.952 172.624 185.432C173.168 185.88 173.872 186.104 174.736 186.104C175.184 186.104 175.632 186.088 176.08 186.056C176.56 185.992 177.024 185.896 177.472 185.768L178.432 190.712C177.504 191 176.592 191.192 175.696 191.288C174.832 191.416 174 191.48 173.2 191.48C170.448 191.48 168.4 190.824 167.056 189.512C165.744 188.2 165.088 185.992 165.088 182.888V171.176Z" fill="white"/>
<path d="M71.264 210H82.952V213.048H74.84V216.792H82.472V219.864H74.84V224.088H83.456L83.096 227.136H71.264V210Z" fill="white" fill-opacity="0.5"/>
<path d="M85.4844 214.608H88.7484V216.288C89.2124 215.584 89.7564 215.064 90.3804 214.728C91.0044 214.392 91.6604 214.224 92.3484 214.224C93.2604 214.224 94.0044 214.408 94.5804 214.776C95.1564 215.144 95.5644 215.68 95.8044 216.384C96.3804 215.616 96.9884 215.064 97.6284 214.728C98.2684 214.392 98.9724 214.224 99.7404 214.224C101.036 214.224 102.004 214.584 102.644 215.304C103.3 216.008 103.628 217.16 103.628 218.76V227.136H100.268V219.216C100.268 218.768 100.228 218.408 100.148 218.136C100.068 217.848 99.9564 217.624 99.8124 217.464C99.6844 217.304 99.5244 217.192 99.3324 217.128C99.1404 217.064 98.9404 217.032 98.7324 217.032C98.3964 217.032 98.0844 217.088 97.7964 217.2C97.5244 217.312 97.2524 217.504 96.9804 217.776C96.7564 218 96.5724 218.256 96.4284 218.544C96.3004 218.832 96.2364 219.136 96.2364 219.456V227.136H92.8764V219.216C92.8764 218.768 92.8364 218.408 92.7564 218.136C92.6764 217.848 92.5644 217.624 92.4204 217.464C92.2924 217.304 92.1324 217.192 91.9404 217.128C91.7484 217.064 91.5484 217.032 91.3404 217.032C91.0044 217.032 90.6924 217.088 90.4044 217.2C90.1324 217.312 89.8604 217.504 89.5884 217.776C89.3644 218 89.1804 218.272 89.0364 218.592C88.9084 218.896 88.8444 219.232 88.8444 219.6V227.136H85.4844V214.608Z" fill="white" fill-opacity="0.5"/>
<path d="M113.924 225.552C113.428 226.112 112.868 226.568 112.244 226.92C111.636 227.272 110.844 227.448 109.868 227.448C109.308 227.448 108.772 227.376 108.26 227.232C107.764 227.088 107.324 226.864 106.94 226.56C106.572 226.256 106.276 225.872 106.052 225.408C105.828 224.928 105.716 224.36 105.716 223.704C105.716 222.84 105.908 222.136 106.292 221.592C106.676 221.048 107.18 220.624 107.804 220.32C108.428 220.016 109.124 219.8 109.892 219.672C110.676 219.544 111.468 219.464 112.268 219.432L113.876 219.36V218.736C113.876 217.968 113.66 217.44 113.228 217.152C112.812 216.864 112.316 216.72 111.74 216.72C110.412 216.72 109.652 217.224 109.46 218.232L106.388 217.944C106.612 216.632 107.188 215.688 108.116 215.112C109.044 214.52 110.292 214.224 111.86 214.224C112.82 214.224 113.636 214.344 114.308 214.584C114.98 214.808 115.516 215.136 115.916 215.568C116.332 216 116.628 216.528 116.804 217.152C116.996 217.76 117.092 218.448 117.092 219.216V227.136H113.924V225.552ZM113.852 221.544L112.364 221.616C111.66 221.648 111.092 221.72 110.66 221.832C110.228 221.944 109.892 222.088 109.652 222.264C109.428 222.424 109.276 222.616 109.196 222.84C109.116 223.064 109.076 223.312 109.076 223.584C109.076 224 109.22 224.328 109.508 224.568C109.796 224.808 110.196 224.928 110.708 224.928C111.572 224.928 112.276 224.728 112.82 224.328C113.124 224.104 113.372 223.824 113.564 223.488C113.756 223.136 113.852 222.704 113.852 222.192V221.544Z" fill="white" fill-opacity="0.5"/>
<path d="M119.961 214.608H123.321V227.136H119.961V214.608ZM119.913 210H123.369V213.024H119.913V210Z" fill="white" fill-opacity="0.5"/>
<path d="M126.336 210H129.696V227.136H126.336V210Z" fill="white" fill-opacity="0.5"/>
<path d="M138.031 210H141.391V216.12C142.335 214.856 143.615 214.224 145.231 214.224C146.975 214.224 148.279 214.816 149.143 216C150.007 217.184 150.439 218.808 150.439 220.872C150.439 221.864 150.311 222.768 150.055 223.584C149.815 224.4 149.455 225.104 148.975 225.696C148.511 226.272 147.943 226.72 147.271 227.04C146.599 227.36 145.839 227.52 144.991 227.52C144.319 227.52 143.671 227.392 143.047 227.136C142.423 226.88 141.839 226.416 141.295 225.744V227.136H138.031V210ZM141.367 220.968C141.367 221.784 141.431 222.44 141.559 222.936C141.703 223.416 141.927 223.808 142.231 224.112C142.551 224.4 142.871 224.592 143.191 224.688C143.527 224.768 143.863 224.808 144.199 224.808C144.567 224.808 144.919 224.736 145.255 224.592C145.591 224.448 145.879 224.224 146.119 223.92C146.375 223.6 146.575 223.192 146.719 222.696C146.863 222.2 146.935 221.6 146.935 220.896C146.935 220.16 146.863 219.544 146.719 219.048C146.591 218.552 146.407 218.152 146.167 217.848C145.927 217.528 145.639 217.304 145.303 217.176C144.983 217.032 144.639 216.96 144.271 216.96C143.855 216.96 143.495 217.016 143.191 217.128C142.887 217.24 142.591 217.416 142.303 217.656C141.983 217.96 141.743 218.344 141.583 218.808C141.439 219.272 141.367 219.864 141.367 220.584V220.968Z" fill="white" fill-opacity="0.5"/>
<path d="M153.008 210H156.368V227.136H153.008V210Z" fill="white" fill-opacity="0.5"/>
<path d="M166.799 225.552C166.303 226.112 165.743 226.568 165.119 226.92C164.511 227.272 163.719 227.448 162.743 227.448C162.183 227.448 161.647 227.376 161.135 227.232C160.639 227.088 160.199 226.864 159.815 226.56C159.447 226.256 159.151 225.872 158.927 225.408C158.703 224.928 158.591 224.36 158.591 223.704C158.591 222.84 158.783 222.136 159.167 221.592C159.551 221.048 160.055 220.624 160.679 220.32C161.303 220.016 161.999 219.8 162.767 219.672C163.551 219.544 164.343 219.464 165.143 219.432L166.751 219.36V218.736C166.751 217.968 166.535 217.44 166.103 217.152C165.687 216.864 165.191 216.72 164.615 216.72C163.287 216.72 162.527 217.224 162.335 218.232L159.263 217.944C159.487 216.632 160.063 215.688 160.991 215.112C161.919 214.52 163.167 214.224 164.735 214.224C165.695 214.224 166.511 214.344 167.183 214.584C167.855 214.808 168.391 215.136 168.791 215.568C169.207 216 169.503 216.528 169.679 217.152C169.871 217.76 169.967 218.448 169.967 219.216V227.136H166.799V225.552ZM166.727 221.544L165.239 221.616C164.535 221.648 163.967 221.72 163.535 221.832C163.103 221.944 162.767 222.088 162.527 222.264C162.303 222.424 162.151 222.616 162.071 222.84C161.991 223.064 161.951 223.312 161.951 223.584C161.951 224 162.095 224.328 162.383 224.568C162.671 224.808 163.071 224.928 163.583 224.928C164.447 224.928 165.151 224.728 165.695 224.328C165.999 224.104 166.247 223.824 166.439 223.488C166.631 223.136 166.727 222.704 166.727 222.192V221.544Z" fill="white" fill-opacity="0.5"/>
<path d="M175.237 223.152C175.349 223.888 175.645 224.368 176.125 224.592C176.605 224.816 177.181 224.928 177.853 224.928C178.653 224.928 179.221 224.832 179.557 224.64C179.909 224.432 180.085 224.104 180.085 223.656C180.085 223.336 179.973 223.056 179.749 222.816C179.541 222.576 179.132 222.408 178.524 222.312L176.797 222.024C175.277 221.784 174.141 221.376 173.389 220.8C172.653 220.208 172.285 219.32 172.285 218.136C172.285 217.528 172.413 216.984 172.669 216.504C172.941 216.024 173.317 215.616 173.797 215.28C174.277 214.944 174.845 214.688 175.501 214.512C176.173 214.32 176.909 214.224 177.709 214.224C178.701 214.224 179.532 214.328 180.204 214.536C180.876 214.728 181.421 214.992 181.837 215.328C182.269 215.664 182.589 216.064 182.797 216.528C183.021 216.992 183.181 217.488 183.277 218.016L180.277 218.4C180.133 217.824 179.876 217.4 179.508 217.128C179.156 216.856 178.581 216.72 177.781 216.72C177.333 216.72 176.957 216.76 176.653 216.84C176.365 216.904 176.133 216.992 175.957 217.104C175.797 217.216 175.677 217.344 175.597 217.488C175.533 217.632 175.501 217.768 175.501 217.896C175.501 218.296 175.621 218.592 175.861 218.784C176.117 218.96 176.605 219.112 177.325 219.24L178.909 219.504C179.789 219.648 180.516 219.832 181.092 220.056C181.668 220.28 182.125 220.56 182.461 220.896C182.813 221.216 183.053 221.6 183.181 222.048C183.325 222.496 183.396 223.016 183.396 223.608C183.396 224.792 182.948 225.744 182.052 226.464C181.156 227.168 179.773 227.52 177.901 227.52C177.149 227.52 176.429 227.448 175.741 227.304C175.069 227.176 174.461 226.944 173.917 226.608C173.389 226.272 172.949 225.824 172.597 225.264C172.261 224.704 172.069 224 172.021 223.152H175.237Z" fill="white" fill-opacity="0.5"/>
<path d="M186.471 217.224H184.503V214.608H186.471V211.272H189.831V214.608H192.711V217.224H189.831V223.008C189.831 223.664 189.967 224.112 190.239 224.352C190.511 224.576 190.863 224.688 191.295 224.688C191.519 224.688 191.743 224.68 191.967 224.664C192.207 224.632 192.439 224.584 192.663 224.52L193.143 226.992C192.679 227.136 192.223 227.232 191.775 227.28C191.343 227.344 190.927 227.376 190.527 227.376C189.151 227.376 188.127 227.048 187.455 226.392C186.799 225.736 186.471 224.632 186.471 223.08V217.224Z" fill="white" fill-opacity="0.5"/>
<path d="M200.909 217.224H198.941V214.608H200.909V211.272H204.269V214.608H207.149V217.224H204.269V223.008C204.269 223.664 204.405 224.112 204.677 224.352C204.949 224.576 205.301 224.688 205.733 224.688C205.957 224.688 206.181 224.68 206.405 224.664C206.645 224.632 206.877 224.584 207.101 224.52L207.581 226.992C207.117 227.136 206.661 227.232 206.213 227.28C205.781 227.344 205.365 227.376 204.965 227.376C203.589 227.376 202.565 227.048 201.893 226.392C201.237 225.736 200.909 224.632 200.909 223.08V217.224Z" fill="white" fill-opacity="0.5"/>
<path d="M209.234 210H212.594V216.192C213.09 215.52 213.666 215.024 214.322 214.704C214.978 214.384 215.666 214.224 216.386 214.224C217.81 214.224 218.866 214.6 219.554 215.352C220.242 216.088 220.586 217.256 220.586 218.856V227.136H217.226V219.312C217.226 218.432 217.058 217.832 216.722 217.512C216.386 217.192 215.938 217.032 215.378 217.032C214.946 217.032 214.57 217.096 214.25 217.224C213.946 217.352 213.658 217.536 213.386 217.776C213.162 218 212.97 218.272 212.81 218.592C212.666 218.896 212.594 219.232 212.594 219.6V227.136H209.234V210Z" fill="white" fill-opacity="0.5"/>
<path d="M234.91 223.224C234.686 224.632 234.117 225.704 233.205 226.44C232.309 227.16 230.998 227.52 229.27 227.52C227.19 227.52 225.621 226.944 224.565 225.792C223.525 224.64 223.005 223.008 223.005 220.896C223.005 219.84 223.157 218.904 223.461 218.088C223.765 217.256 224.189 216.552 224.733 215.976C225.293 215.4 225.957 214.968 226.725 214.68C227.493 214.376 228.342 214.224 229.27 214.224C231.19 214.224 232.629 214.776 233.589 215.88C234.565 216.984 235.053 218.472 235.053 220.344V221.688H226.365C226.397 222.696 226.653 223.488 227.133 224.064C227.613 224.624 228.333 224.904 229.293 224.904C230.621 224.904 231.405 224.344 231.645 223.224H234.91ZM231.813 219.48C231.813 218.616 231.597 217.944 231.165 217.464C230.749 216.984 230.093 216.744 229.197 216.744C228.749 216.744 228.357 216.816 228.021 216.96C227.685 217.104 227.398 217.304 227.158 217.56C226.934 217.8 226.757 218.088 226.629 218.424C226.501 218.744 226.429 219.096 226.413 219.48H231.813Z" fill="white" fill-opacity="0.5"/>
<path d="M245.338 223.152C245.45 223.888 245.746 224.368 246.226 224.592C246.706 224.816 247.282 224.928 247.954 224.928C248.754 224.928 249.322 224.832 249.658 224.64C250.01 224.432 250.186 224.104 250.186 223.656C250.186 223.336 250.074 223.056 249.85 222.816C249.642 222.576 249.234 222.408 248.626 222.312L246.898 222.024C245.378 221.784 244.242 221.376 243.49 220.8C242.754 220.208 242.386 219.32 242.386 218.136C242.386 217.528 242.514 216.984 242.77 216.504C243.042 216.024 243.418 215.616 243.898 215.28C244.378 214.944 244.946 214.688 245.602 214.512C246.274 214.32 247.01 214.224 247.81 214.224C248.802 214.224 249.634 214.328 250.306 214.536C250.978 214.728 251.522 214.992 251.938 215.328C252.37 215.664 252.69 216.064 252.898 216.528C253.122 216.992 253.282 217.488 253.378 218.016L250.378 218.4C250.234 217.824 249.978 217.4 249.61 217.128C249.258 216.856 248.682 216.72 247.882 216.72C247.434 216.72 247.058 216.76 246.754 216.84C246.466 216.904 246.234 216.992 246.058 217.104C245.898 217.216 245.778 217.344 245.698 217.488C245.634 217.632 245.602 217.768 245.602 217.896C245.602 218.296 245.722 218.592 245.962 218.784C246.218 218.96 246.706 219.112 247.426 219.24L249.01 219.504C249.89 219.648 250.618 219.832 251.194 220.056C251.77 220.28 252.226 220.56 252.562 220.896C252.914 221.216 253.154 221.6 253.282 222.048C253.426 222.496 253.498 223.016 253.498 223.608C253.498 224.792 253.05 225.744 252.154 226.464C251.258 227.168 249.874 227.52 248.002 227.52C247.25 227.52 246.53 227.448 245.842 227.304C245.17 227.176 244.562 226.944 244.018 226.608C243.49 226.272 243.05 225.824 242.698 225.264C242.362 224.704 242.17 224 242.122 223.152H245.338Z" fill="white" fill-opacity="0.5"/>
<path d="M263.245 225.552C262.749 226.112 262.189 226.568 261.565 226.92C260.957 227.272 260.165 227.448 259.189 227.448C258.629 227.448 258.093 227.376 257.581 227.232C257.085 227.088 256.645 226.864 256.261 226.56C255.893 226.256 255.597 225.872 255.373 225.408C255.149 224.928 255.037 224.36 255.037 223.704C255.037 222.84 255.229 222.136 255.613 221.592C255.997 221.048 256.501 220.624 257.125 220.32C257.749 220.016 258.445 219.8 259.213 219.672C259.997 219.544 260.789 219.464 261.589 219.432L263.197 219.36V218.736C263.197 217.968 262.981 217.44 262.549 217.152C262.133 216.864 261.637 216.72 261.061 216.72C259.733 216.72 258.973 217.224 258.781 218.232L255.709 217.944C255.933 216.632 256.509 215.688 257.437 215.112C258.365 214.52 259.613 214.224 261.181 214.224C262.141 214.224 262.957 214.344 263.629 214.584C264.301 214.808 264.837 215.136 265.237 215.568C265.653 216 265.949 216.528 266.125 217.152C266.317 217.76 266.413 218.448 266.413 219.216V227.136H263.245V225.552ZM263.173 221.544L261.685 221.616C260.981 221.648 260.413 221.72 259.981 221.832C259.549 221.944 259.213 222.088 258.973 222.264C258.749 222.424 258.597 222.616 258.517 222.84C258.437 223.064 258.397 223.312 258.397 223.584C258.397 224 258.541 224.328 258.829 224.568C259.117 224.808 259.517 224.928 260.029 224.928C260.893 224.928 261.597 224.728 262.141 224.328C262.445 224.104 262.693 223.824 262.885 223.488C263.077 223.136 263.173 222.704 263.173 222.192V221.544Z" fill="white" fill-opacity="0.5"/>
<path d="M269.258 214.608H272.522V216.288C272.986 215.584 273.53 215.064 274.154 214.728C274.778 214.392 275.434 214.224 276.122 214.224C277.034 214.224 277.778 214.408 278.354 214.776C278.93 215.144 279.338 215.68 279.578 216.384C280.154 215.616 280.762 215.064 281.402 214.728C282.042 214.392 282.746 214.224 283.514 214.224C284.81 214.224 285.778 214.584 286.418 215.304C287.074 216.008 287.402 217.16 287.402 218.76V227.136H284.042V219.216C284.042 218.768 284.002 218.408 283.922 218.136C283.842 217.848 283.73 217.624 283.586 217.464C283.458 217.304 283.298 217.192 283.106 217.128C282.914 217.064 282.714 217.032 282.506 217.032C282.17 217.032 281.858 217.088 281.57 217.2C281.298 217.312 281.026 217.504 280.754 217.776C280.53 218 280.346 218.256 280.202 218.544C280.074 218.832 280.01 219.136 280.01 219.456V227.136H276.65V219.216C276.65 218.768 276.61 218.408 276.53 218.136C276.45 217.848 276.338 217.624 276.194 217.464C276.066 217.304 275.906 217.192 275.714 217.128C275.522 217.064 275.322 217.032 275.114 217.032C274.778 217.032 274.466 217.088 274.178 217.2C273.906 217.312 273.634 217.504 273.362 217.776C273.138 218 272.954 218.272 272.81 218.592C272.682 218.896 272.618 219.232 272.618 219.6V227.136H269.258V214.608Z" fill="white" fill-opacity="0.5"/>
<path d="M301.73 223.224C301.506 224.632 300.938 225.704 300.026 226.44C299.13 227.16 297.818 227.52 296.09 227.52C294.01 227.52 292.442 226.944 291.386 225.792C290.346 224.64 289.826 223.008 289.826 220.896C289.826 219.84 289.978 218.904 290.282 218.088C290.586 217.256 291.01 216.552 291.554 215.976C292.114 215.4 292.778 214.968 293.546 214.68C294.314 214.376 295.162 214.224 296.09 214.224C298.01 214.224 299.45 214.776 300.41 215.88C301.386 216.984 301.874 218.472 301.874 220.344V221.688H293.186C293.218 222.696 293.474 223.488 293.954 224.064C294.434 224.624 295.154 224.904 296.114 224.904C297.442 224.904 298.226 224.344 298.466 223.224H301.73ZM298.634 219.48C298.634 218.616 298.418 217.944 297.986 217.464C297.57 216.984 296.914 216.744 296.018 216.744C295.57 216.744 295.178 216.816 294.842 216.96C294.506 217.104 294.218 217.304 293.978 217.56C293.754 217.8 293.578 218.088 293.45 218.424C293.322 218.744 293.25 219.096 293.234 219.48H298.634Z" fill="white" fill-opacity="0.5"/>
<path d="M309.734 214.608H312.998V216.336C313.494 215.6 314.078 215.064 314.75 214.728C315.438 214.392 316.15 214.224 316.886 214.224C318.31 214.224 319.366 214.6 320.054 215.352C320.742 216.088 321.086 217.256 321.086 218.856V227.136H317.726V219.312C317.726 218.432 317.558 217.832 317.222 217.512C316.886 217.192 316.438 217.032 315.878 217.032C315.446 217.032 315.07 217.096 314.75 217.224C314.446 217.352 314.158 217.536 313.886 217.776C313.662 218 313.47 218.272 313.31 218.592C313.166 218.896 313.094 219.232 313.094 219.6V227.136H309.734V214.608Z" fill="white" fill-opacity="0.5"/>
<path d="M329.842 227.52C327.826 227.52 326.265 226.944 325.161 225.792C324.057 224.64 323.505 222.992 323.505 220.848C323.505 219.824 323.65 218.904 323.938 218.088C324.241 217.256 324.665 216.56 325.209 216C325.769 215.424 326.442 214.984 327.226 214.68C328.01 214.376 328.882 214.224 329.842 214.224C330.818 214.224 331.698 214.376 332.482 214.68C333.266 214.984 333.93 215.424 334.474 216C335.034 216.56 335.458 217.256 335.746 218.088C336.034 218.904 336.178 219.824 336.178 220.848C336.178 221.888 336.026 222.824 335.722 223.656C335.434 224.472 335.01 225.168 334.45 225.744C333.906 226.32 333.242 226.76 332.458 227.064C331.674 227.368 330.802 227.52 329.842 227.52ZM329.842 224.832C330.802 224.832 331.514 224.488 331.978 223.8C332.458 223.112 332.698 222.128 332.698 220.848C332.698 219.568 332.458 218.592 331.978 217.92C331.514 217.248 330.802 216.912 329.842 216.912C328.882 216.912 328.162 217.248 327.682 217.92C327.218 218.592 326.986 219.568 326.986 220.848C326.986 222.144 327.218 223.136 327.682 223.824C328.146 224.496 328.866 224.832 329.842 224.832Z" fill="white" fill-opacity="0.5"/>
<path d="M339.495 217.224H337.527V214.608H339.495V211.272H342.855V214.608H345.735V217.224H342.855V223.008C342.855 223.664 342.991 224.112 343.263 224.352C343.535 224.576 343.887 224.688 344.319 224.688C344.543 224.688 344.767 224.68 344.991 224.664C345.231 224.632 345.463 224.584 345.687 224.52L346.167 226.992C345.703 227.136 345.247 227.232 344.799 227.28C344.367 227.344 343.951 227.376 343.551 227.376C342.175 227.376 341.151 227.048 340.479 226.392C339.823 225.736 339.495 224.632 339.495 223.08V217.224Z" fill="white" fill-opacity="0.5"/>
<path d="M359.058 223.224C358.834 224.632 358.266 225.704 357.354 226.44C356.458 227.16 355.146 227.52 353.418 227.52C351.338 227.52 349.77 226.944 348.714 225.792C347.674 224.64 347.154 223.008 347.154 220.896C347.154 219.84 347.306 218.904 347.61 218.088C347.914 217.256 348.338 216.552 348.882 215.976C349.442 215.4 350.106 214.968 350.874 214.68C351.642 214.376 352.49 214.224 353.418 214.224C355.338 214.224 356.778 214.776 357.738 215.88C358.714 216.984 359.202 218.472 359.202 220.344V221.688H350.514C350.546 222.696 350.802 223.488 351.282 224.064C351.762 224.624 352.482 224.904 353.442 224.904C354.77 224.904 355.554 224.344 355.794 223.224H359.058ZM355.962 219.48C355.962 218.616 355.746 217.944 355.314 217.464C354.898 216.984 354.242 216.744 353.346 216.744C352.898 216.744 352.506 216.816 352.17 216.96C351.834 217.104 351.546 217.304 351.306 217.56C351.082 217.8 350.906 218.088 350.778 218.424C350.65 218.744 350.578 219.096 350.562 219.48H355.962Z" fill="white" fill-opacity="0.5"/>
<path d="M374.503 225.552C374.007 226.112 373.447 226.568 372.823 226.92C372.215 227.272 371.423 227.448 370.447 227.448C369.887 227.448 369.351 227.376 368.839 227.232C368.343 227.088 367.903 226.864 367.519 226.56C367.151 226.256 366.855 225.872 366.631 225.408C366.407 224.928 366.295 224.36 366.295 223.704C366.295 222.84 366.487 222.136 366.871 221.592C367.255 221.048 367.759 220.624 368.383 220.32C369.007 220.016 369.703 219.8 370.471 219.672C371.255 219.544 372.047 219.464 372.847 219.432L374.455 219.36V218.736C374.455 217.968 374.239 217.44 373.807 217.152C373.391 216.864 372.895 216.72 372.319 216.72C370.991 216.72 370.231 217.224 370.039 218.232L366.967 217.944C367.191 216.632 367.767 215.688 368.695 215.112C369.623 214.52 370.871 214.224 372.439 214.224C373.399 214.224 374.215 214.344 374.887 214.584C375.559 214.808 376.095 215.136 376.495 215.568C376.911 216 377.207 216.528 377.383 217.152C377.575 217.76 377.671 218.448 377.671 219.216V227.136H374.503V225.552ZM374.431 221.544L372.943 221.616C372.239 221.648 371.671 221.72 371.239 221.832C370.807 221.944 370.471 222.088 370.231 222.264C370.007 222.424 369.855 222.616 369.775 222.84C369.695 223.064 369.655 223.312 369.655 223.584C369.655 224 369.799 224.328 370.087 224.568C370.375 224.808 370.775 224.928 371.287 224.928C372.151 224.928 372.855 224.728 373.399 224.328C373.703 224.104 373.951 223.824 374.143 223.488C374.335 223.136 374.431 222.704 374.431 222.192V221.544Z" fill="white" fill-opacity="0.5"/>
<path d="M380.516 214.608H383.78V216.336C384.276 215.6 384.86 215.064 385.532 214.728C386.22 214.392 386.932 214.224 387.668 214.224C389.092 214.224 390.148 214.6 390.836 215.352C391.524 216.088 391.868 217.256 391.868 218.856V227.136H388.508V219.312C388.508 218.432 388.34 217.832 388.004 217.512C387.668 217.192 387.22 217.032 386.66 217.032C386.228 217.032 385.852 217.096 385.532 217.224C385.228 217.352 384.94 217.536 384.668 217.776C384.444 218 384.252 218.272 384.092 218.592C383.948 218.896 383.876 219.232 383.876 219.6V227.136H380.516V214.608Z" fill="white" fill-opacity="0.5"/>
<path d="M403.407 225.48C402.447 226.84 401.151 227.52 399.519 227.52C397.759 227.52 396.447 226.928 395.583 225.744C394.719 224.56 394.287 222.92 394.287 220.824C394.287 219.848 394.407 218.96 394.647 218.16C394.903 217.344 395.263 216.648 395.727 216.072C396.191 215.48 396.759 215.024 397.431 214.704C398.103 214.384 398.863 214.224 399.711 214.224C400.335 214.224 400.951 214.336 401.559 214.56C402.183 214.784 402.767 215.216 403.311 215.856V210H406.671V227.136H403.407V225.48ZM403.335 220.728C403.335 219.928 403.263 219.288 403.119 218.808C402.991 218.328 402.775 217.936 402.471 217.632C402.183 217.344 401.863 217.16 401.511 217.08C401.175 216.984 400.839 216.936 400.503 216.936C400.135 216.936 399.783 217.008 399.447 217.152C399.127 217.296 398.839 217.52 398.583 217.824C398.343 218.128 398.151 218.528 398.007 219.024C397.863 219.52 397.791 220.112 397.791 220.8C397.791 221.552 397.855 222.184 397.983 222.696C398.127 223.192 398.319 223.6 398.559 223.92C398.799 224.224 399.079 224.448 399.399 224.592C399.719 224.72 400.063 224.784 400.431 224.784C401.231 224.784 401.887 224.552 402.399 224.088C402.719 223.768 402.951 223.384 403.095 222.936C403.255 222.472 403.335 221.88 403.335 221.16V220.728Z" fill="white" fill-opacity="0.5"/>
<path d="M418.496 227.928C418.56 228.248 418.648 228.504 418.76 228.696C418.888 228.888 419.048 229.04 419.24 229.152C419.448 229.264 419.688 229.336 419.96 229.368C420.248 229.416 420.592 229.44 420.992 229.44C421.616 229.44 422.104 229.32 422.456 229.08C422.808 228.856 423.064 228.552 423.224 228.168C423.4 227.784 423.504 227.344 423.536 226.848C423.584 226.352 423.608 225.84 423.608 225.312V224.928C423.192 225.536 422.656 226 422 226.32C421.36 226.624 420.632 226.776 419.816 226.776C418.056 226.776 416.736 226.208 415.856 225.072C414.992 223.936 414.56 222.408 414.56 220.488C414.56 219.576 414.68 218.736 414.92 217.968C415.176 217.2 415.536 216.544 416 216C416.464 215.44 417.032 215.008 417.704 214.704C418.392 214.384 419.16 214.224 420.008 214.224C420.68 214.224 421.328 214.352 421.952 214.608C422.592 214.864 423.176 215.336 423.704 216.024V214.608H426.968V225.384C426.968 226.44 426.856 227.376 426.632 228.192C426.424 229.024 426.08 229.728 425.6 230.304C425.136 230.88 424.52 231.312 423.752 231.6C423 231.904 422.08 232.056 420.992 232.056C419.984 232.056 419.12 231.968 418.4 231.792C417.696 231.632 417.112 231.376 416.648 231.024C416.184 230.688 415.824 230.256 415.568 229.728C415.328 229.216 415.168 228.616 415.088 227.928H418.496ZM423.632 220.44C423.632 219.688 423.544 219.08 423.368 218.616C423.208 218.152 422.992 217.8 422.72 217.56C422.448 217.304 422.144 217.136 421.808 217.056C421.472 216.976 421.136 216.936 420.8 216.936C420.432 216.936 420.08 217 419.744 217.128C419.424 217.256 419.136 217.464 418.88 217.752C418.64 218.04 418.448 218.408 418.304 218.856C418.16 219.304 418.088 219.84 418.088 220.464C418.088 221.792 418.336 222.736 418.832 223.296C419.344 223.84 419.976 224.112 420.728 224.112C421.144 224.112 421.528 224.056 421.88 223.944C422.248 223.816 422.56 223.624 422.816 223.368C423.072 223.096 423.272 222.752 423.416 222.336C423.56 221.904 423.632 221.384 423.632 220.776V220.44Z" fill="white" fill-opacity="0.5"/>
<path d="M441.417 223.224C441.193 224.632 440.625 225.704 439.713 226.44C438.817 227.16 437.505 227.52 435.777 227.52C433.697 227.52 432.129 226.944 431.073 225.792C430.033 224.64 429.513 223.008 429.513 220.896C429.513 219.84 429.665 218.904 429.969 218.088C430.273 217.256 430.697 216.552 431.241 215.976C431.801 215.4 432.465 214.968 433.233 214.68C434.001 214.376 434.849 214.224 435.777 214.224C437.697 214.224 439.137 214.776 440.097 215.88C441.073 216.984 441.561 218.472 441.561 220.344V221.688H432.873C432.905 222.696 433.161 223.488 433.641 224.064C434.121 224.624 434.841 224.904 435.801 224.904C437.129 224.904 437.913 224.344 438.153 223.224H441.417ZM438.321 219.48C438.321 218.616 438.105 217.944 437.673 217.464C437.257 216.984 436.601 216.744 435.705 216.744C435.257 216.744 434.865 216.816 434.529 216.96C434.193 217.104 433.905 217.304 433.665 217.56C433.441 217.8 433.265 218.088 433.137 218.424C433.009 218.744 432.937 219.096 432.921 219.48H438.321Z" fill="white" fill-opacity="0.5"/>
<path d="M444.846 217.224H442.878V214.608H444.846V211.272H448.206V214.608H451.086V217.224H448.206V223.008C448.206 223.664 448.342 224.112 448.614 224.352C448.886 224.576 449.238 224.688 449.67 224.688C449.894 224.688 450.118 224.68 450.342 224.664C450.582 224.632 450.814 224.584 451.038 224.52L451.518 226.992C451.054 227.136 450.598 227.232 450.15 227.28C449.718 227.344 449.302 227.376 448.902 227.376C447.526 227.376 446.502 227.048 445.83 226.392C445.174 225.736 444.846 224.632 444.846 223.08V217.224Z" fill="white" fill-opacity="0.5"/>
<path d="M459.284 217.224H457.316V214.608H459.284V211.272H462.644V214.608H465.524V217.224H462.644V223.008C462.644 223.664 462.78 224.112 463.052 224.352C463.324 224.576 463.676 224.688 464.108 224.688C464.332 224.688 464.556 224.68 464.78 224.664C465.02 224.632 465.252 224.584 465.476 224.52L465.956 226.992C465.492 227.136 465.036 227.232 464.588 227.28C464.156 227.344 463.74 227.376 463.34 227.376C461.964 227.376 460.94 227.048 460.268 226.392C459.612 225.736 459.284 224.632 459.284 223.08V217.224Z" fill="white" fill-opacity="0.5"/>
<path d="M467.609 210H470.969V216.192C471.465 215.52 472.041 215.024 472.697 214.704C473.353 214.384 474.041 214.224 474.761 214.224C476.185 214.224 477.241 214.6 477.929 215.352C478.617 216.088 478.961 217.256 478.961 218.856V227.136H475.601V219.312C475.601 218.432 475.433 217.832 475.097 217.512C474.761 217.192 474.313 217.032 473.753 217.032C473.321 217.032 472.945 217.096 472.625 217.224C472.321 217.352 472.033 217.536 471.761 217.776C471.537 218 471.345 218.272 471.185 218.592C471.041 218.896 470.969 219.232 470.969 219.6V227.136H467.609V210Z" fill="white" fill-opacity="0.5"/>
<path d="M493.285 223.224C493.061 224.632 492.493 225.704 491.581 226.44C490.685 227.16 489.373 227.52 487.645 227.52C485.565 227.52 483.997 226.944 482.941 225.792C481.901 224.64 481.381 223.008 481.381 220.896C481.381 219.84 481.533 218.904 481.837 218.088C482.141 217.256 482.565 216.552 483.109 215.976C483.669 215.4 484.333 214.968 485.101 214.68C485.869 214.376 486.717 214.224 487.645 214.224C489.565 214.224 491.005 214.776 491.965 215.88C492.941 216.984 493.429 218.472 493.429 220.344V221.688H484.741C484.773 222.696 485.029 223.488 485.509 224.064C485.989 224.624 486.709 224.904 487.669 224.904C488.997 224.904 489.781 224.344 490.021 223.224H493.285ZM490.189 219.48C490.189 218.616 489.973 217.944 489.541 217.464C489.125 216.984 488.469 216.744 487.573 216.744C487.125 216.744 486.733 216.816 486.397 216.96C486.061 217.104 485.773 217.304 485.533 217.56C485.309 217.8 485.133 218.088 485.005 218.424C484.877 218.744 484.805 219.096 484.789 219.48H490.189Z" fill="white" fill-opacity="0.5"/>
<path d="M71 245.608H74.264V247.264C75.224 245.904 76.536 245.224 78.2 245.224C79.944 245.224 81.248 245.816 82.112 247C82.976 248.184 83.408 249.808 83.408 251.872C83.408 252.864 83.28 253.768 83.024 254.584C82.784 255.4 82.424 256.104 81.944 256.696C81.48 257.272 80.912 257.72 80.24 258.04C79.568 258.36 78.808 258.52 77.96 258.52C77.336 258.52 76.712 258.408 76.088 258.184C75.48 257.96 74.904 257.512 74.36 256.84V262.792H71V245.608ZM74.336 251.968C74.336 252.784 74.4 253.44 74.528 253.936C74.672 254.416 74.896 254.808 75.2 255.112C75.52 255.4 75.84 255.592 76.16 255.688C76.496 255.768 76.832 255.808 77.168 255.808C77.536 255.808 77.888 255.736 78.224 255.592C78.56 255.448 78.848 255.224 79.088 254.92C79.344 254.6 79.544 254.192 79.688 253.696C79.832 253.2 79.904 252.6 79.904 251.896C79.904 251.16 79.832 250.544 79.688 250.048C79.56 249.552 79.376 249.152 79.136 248.848C78.896 248.528 78.608 248.304 78.272 248.176C77.952 248.032 77.608 247.96 77.24 247.96C76.824 247.96 76.464 248.016 76.16 248.128C75.856 248.24 75.56 248.416 75.272 248.656C74.952 248.96 74.712 249.344 74.552 249.808C74.408 250.272 74.336 250.864 74.336 251.584V251.968Z" fill="white" fill-opacity="0.5"/>
<path d="M97.1908 254.224C96.9668 255.632 96.3988 256.704 95.4868 257.44C94.5908 258.16 93.2788 258.52 91.5508 258.52C89.4708 258.52 87.9027 257.944 86.8467 256.792C85.8067 255.64 85.2867 254.008 85.2867 251.896C85.2867 250.84 85.4387 249.904 85.7427 249.088C86.0467 248.256 86.4708 247.552 87.0148 246.976C87.5748 246.4 88.2388 245.968 89.0068 245.68C89.7748 245.376 90.6228 245.224 91.5508 245.224C93.4708 245.224 94.9108 245.776 95.8708 246.88C96.8468 247.984 97.3348 249.472 97.3348 251.344V252.688H88.6468C88.6788 253.696 88.9348 254.488 89.4148 255.064C89.8948 255.624 90.6148 255.904 91.5748 255.904C92.9028 255.904 93.6868 255.344 93.9268 254.224H97.1908ZM94.0948 250.48C94.0948 249.616 93.8788 248.944 93.4468 248.464C93.0308 247.984 92.3748 247.744 91.4788 247.744C91.0308 247.744 90.6388 247.816 90.3028 247.96C89.9668 248.104 89.6788 248.304 89.4388 248.56C89.2148 248.8 89.0388 249.088 88.9108 249.424C88.7828 249.744 88.7108 250.096 88.6948 250.48H94.0948Z" fill="white" fill-opacity="0.5"/>
<path d="M99.8516 245.608H103.116V247.36C103.532 246.704 104.036 246.216 104.628 245.896C105.22 245.56 105.844 245.392 106.5 245.392C106.82 245.392 107.084 245.408 107.292 245.44C107.5 245.456 107.684 245.48 107.844 245.512L107.436 248.56C107.052 248.464 106.58 248.416 106.02 248.416C105.652 248.416 105.3 248.464 104.964 248.56C104.628 248.64 104.324 248.8 104.052 249.04C103.764 249.296 103.548 249.584 103.404 249.904C103.276 250.224 103.212 250.552 103.212 250.888V258.136H99.8516V245.608Z" fill="white" fill-opacity="0.5"/>
<path d="M112.096 254.152C112.208 254.888 112.504 255.368 112.984 255.592C113.464 255.816 114.04 255.928 114.712 255.928C115.512 255.928 116.08 255.832 116.416 255.64C116.768 255.432 116.944 255.104 116.944 254.656C116.944 254.336 116.832 254.056 116.608 253.816C116.4 253.576 115.992 253.408 115.384 253.312L113.656 253.024C112.136 252.784 111 252.376 110.248 251.8C109.512 251.208 109.144 250.32 109.144 249.136C109.144 248.528 109.272 247.984 109.528 247.504C109.8 247.024 110.176 246.616 110.656 246.28C111.136 245.944 111.704 245.688 112.36 245.512C113.032 245.32 113.768 245.224 114.568 245.224C115.56 245.224 116.392 245.328 117.064 245.536C117.736 245.728 118.28 245.992 118.696 246.328C119.128 246.664 119.448 247.064 119.656 247.528C119.88 247.992 120.04 248.488 120.136 249.016L117.136 249.4C116.992 248.824 116.736 248.4 116.368 248.128C116.016 247.856 115.44 247.72 114.64 247.72C114.192 247.72 113.816 247.76 113.512 247.84C113.224 247.904 112.992 247.992 112.816 248.104C112.656 248.216 112.536 248.344 112.456 248.488C112.392 248.632 112.36 248.768 112.36 248.896C112.36 249.296 112.48 249.592 112.72 249.784C112.976 249.96 113.464 250.112 114.184 250.24L115.768 250.504C116.648 250.648 117.376 250.832 117.952 251.056C118.528 251.28 118.984 251.56 119.32 251.896C119.672 252.216 119.912 252.6 120.04 253.048C120.184 253.496 120.256 254.016 120.256 254.608C120.256 255.792 119.808 256.744 118.912 257.464C118.016 258.168 116.632 258.52 114.76 258.52C114.008 258.52 113.288 258.448 112.6 258.304C111.928 258.176 111.32 257.944 110.776 257.608C110.248 257.272 109.808 256.824 109.456 256.264C109.12 255.704 108.928 255 108.88 254.152H112.096Z" fill="white" fill-opacity="0.5"/>
<path d="M128.232 258.52C126.216 258.52 124.656 257.944 123.552 256.792C122.448 255.64 121.896 253.992 121.896 251.848C121.896 250.824 122.04 249.904 122.328 249.088C122.632 248.256 123.056 247.56 123.6 247C124.16 246.424 124.832 245.984 125.616 245.68C126.4 245.376 127.272 245.224 128.232 245.224C129.208 245.224 130.088 245.376 130.872 245.68C131.656 245.984 132.32 246.424 132.864 247C133.424 247.56 133.848 248.256 134.136 249.088C134.424 249.904 134.568 250.824 134.568 251.848C134.568 252.888 134.416 253.824 134.112 254.656C133.824 255.472 133.4 256.168 132.84 256.744C132.296 257.32 131.632 257.76 130.848 258.064C130.064 258.368 129.192 258.52 128.232 258.52ZM128.232 255.832C129.192 255.832 129.904 255.488 130.368 254.8C130.848 254.112 131.088 253.128 131.088 251.848C131.088 250.568 130.848 249.592 130.368 248.92C129.904 248.248 129.192 247.912 128.232 247.912C127.272 247.912 126.552 248.248 126.072 248.92C125.608 249.592 125.376 250.568 125.376 251.848C125.376 253.144 125.608 254.136 126.072 254.824C126.536 255.496 127.256 255.832 128.232 255.832Z" fill="white" fill-opacity="0.5"/>
<path d="M137.117 245.608H140.381V247.336C140.877 246.6 141.461 246.064 142.133 245.728C142.821 245.392 143.533 245.224 144.269 245.224C145.693 245.224 146.749 245.6 147.437 246.352C148.125 247.088 148.469 248.256 148.469 249.856V258.136H145.109V250.312C145.109 249.432 144.941 248.832 144.605 248.512C144.269 248.192 143.821 248.032 143.261 248.032C142.829 248.032 142.453 248.096 142.133 248.224C141.829 248.352 141.541 248.536 141.269 248.776C141.045 249 140.853 249.272 140.693 249.592C140.549 249.896 140.477 250.232 140.477 250.6V258.136H137.117V245.608Z" fill="white" fill-opacity="0.5"/>
<path d="M153.744 254.152C153.856 254.888 154.152 255.368 154.632 255.592C155.112 255.816 155.688 255.928 156.36 255.928C157.16 255.928 157.728 255.832 158.064 255.64C158.416 255.432 158.592 255.104 158.592 254.656C158.592 254.336 158.48 254.056 158.256 253.816C158.048 253.576 157.64 253.408 157.032 253.312L155.304 253.024C153.784 252.784 152.648 252.376 151.896 251.8C151.16 251.208 150.792 250.32 150.792 249.136C150.792 248.528 150.92 247.984 151.176 247.504C151.448 247.024 151.824 246.616 152.304 246.28C152.784 245.944 153.352 245.688 154.008 245.512C154.68 245.32 155.416 245.224 156.216 245.224C157.208 245.224 158.04 245.328 158.712 245.536C159.384 245.728 159.928 245.992 160.344 246.328C160.776 246.664 161.096 247.064 161.304 247.528C161.528 247.992 161.688 248.488 161.784 249.016L158.784 249.4C158.64 248.824 158.384 248.4 158.016 248.128C157.664 247.856 157.088 247.72 156.288 247.72C155.84 247.72 155.464 247.76 155.16 247.84C154.872 247.904 154.64 247.992 154.464 248.104C154.304 248.216 154.184 248.344 154.104 248.488C154.04 248.632 154.008 248.768 154.008 248.896C154.008 249.296 154.128 249.592 154.368 249.784C154.624 249.96 155.112 250.112 155.832 250.24L157.416 250.504C158.296 250.648 159.024 250.832 159.6 251.056C160.176 251.28 160.632 251.56 160.968 251.896C161.32 252.216 161.56 252.6 161.688 253.048C161.832 253.496 161.904 254.016 161.904 254.608C161.904 255.792 161.456 256.744 160.56 257.464C159.664 258.168 158.28 258.52 156.408 258.52C155.656 258.52 154.936 258.448 154.248 258.304C153.576 258.176 152.968 257.944 152.424 257.608C151.896 257.272 151.456 256.824 151.104 256.264C150.768 255.704 150.576 255 150.528 254.152H153.744Z" fill="white" fill-opacity="0.5"/>
<path d="M169.555 245.608H172.819V247.336C173.315 246.6 173.899 246.064 174.571 245.728C175.259 245.392 175.971 245.224 176.707 245.224C178.131 245.224 179.187 245.6 179.875 246.352C180.563 247.088 180.907 248.256 180.907 249.856V258.136H177.547V250.312C177.547 249.432 177.379 248.832 177.043 248.512C176.707 248.192 176.259 248.032 175.699 248.032C175.267 248.032 174.891 248.096 174.571 248.224C174.267 248.352 173.979 248.536 173.707 248.776C173.483 249 173.291 249.272 173.131 249.592C172.987 249.896 172.915 250.232 172.915 250.6V258.136H169.555V245.608Z" fill="white" fill-opacity="0.5"/>
<path d="M191.198 256.552C190.702 257.112 190.142 257.568 189.518 257.92C188.91 258.272 188.118 258.448 187.142 258.448C186.582 258.448 186.046 258.376 185.534 258.232C185.038 258.088 184.598 257.864 184.214 257.56C183.846 257.256 183.55 256.872 183.326 256.408C183.102 255.928 182.99 255.36 182.99 254.704C182.99 253.84 183.182 253.136 183.566 252.592C183.95 252.048 184.454 251.624 185.078 251.32C185.702 251.016 186.398 250.8 187.166 250.672C187.95 250.544 188.742 250.464 189.542 250.432L191.15 250.36V249.736C191.15 248.968 190.934 248.44 190.502 248.152C190.086 247.864 189.59 247.72 189.014 247.72C187.686 247.72 186.926 248.224 186.734 249.232L183.662 248.944C183.886 247.632 184.462 246.688 185.39 246.112C186.318 245.52 187.566 245.224 189.134 245.224C190.094 245.224 190.91 245.344 191.582 245.584C192.254 245.808 192.79 246.136 193.19 246.568C193.606 247 193.902 247.528 194.078 248.152C194.27 248.76 194.366 249.448 194.366 250.216V258.136H191.198V256.552ZM191.126 252.544L189.638 252.616C188.934 252.648 188.366 252.72 187.934 252.832C187.502 252.944 187.166 253.088 186.926 253.264C186.702 253.424 186.55 253.616 186.47 253.84C186.39 254.064 186.35 254.312 186.35 254.584C186.35 255 186.494 255.328 186.782 255.568C187.07 255.808 187.47 255.928 187.982 255.928C188.846 255.928 189.55 255.728 190.094 255.328C190.398 255.104 190.646 254.824 190.838 254.488C191.03 254.136 191.126 253.704 191.126 253.192V252.544Z" fill="white" fill-opacity="0.5"/>
<path d="M197.211 245.608H200.475V247.288C200.939 246.584 201.483 246.064 202.107 245.728C202.731 245.392 203.387 245.224 204.075 245.224C204.987 245.224 205.731 245.408 206.307 245.776C206.883 246.144 207.291 246.68 207.531 247.384C208.107 246.616 208.715 246.064 209.355 245.728C209.995 245.392 210.699 245.224 211.467 245.224C212.763 245.224 213.731 245.584 214.371 246.304C215.027 247.008 215.355 248.16 215.355 249.76V258.136H211.995V250.216C211.995 249.768 211.955 249.408 211.875 249.136C211.795 248.848 211.683 248.624 211.539 248.464C211.411 248.304 211.251 248.192 211.059 248.128C210.867 248.064 210.667 248.032 210.459 248.032C210.123 248.032 209.811 248.088 209.523 248.2C209.251 248.312 208.979 248.504 208.707 248.776C208.483 249 208.299 249.256 208.155 249.544C208.027 249.832 207.963 250.136 207.963 250.456V258.136H204.603V250.216C204.603 249.768 204.563 249.408 204.483 249.136C204.403 248.848 204.291 248.624 204.147 248.464C204.019 248.304 203.859 248.192 203.667 248.128C203.475 248.064 203.275 248.032 203.067 248.032C202.731 248.032 202.419 248.088 202.131 248.2C201.859 248.312 201.587 248.504 201.315 248.776C201.091 249 200.907 249.272 200.763 249.592C200.635 249.896 200.571 250.232 200.571 250.6V258.136H197.211V245.608Z" fill="white" fill-opacity="0.5"/>
<path d="M229.683 254.224C229.459 255.632 228.891 256.704 227.979 257.44C227.083 258.16 225.771 258.52 224.043 258.52C221.963 258.52 220.395 257.944 219.339 256.792C218.299 255.64 217.779 254.008 217.779 251.896C217.779 250.84 217.931 249.904 218.235 249.088C218.539 248.256 218.963 247.552 219.507 246.976C220.067 246.4 220.731 245.968 221.499 245.68C222.267 245.376 223.115 245.224 224.043 245.224C225.963 245.224 227.403 245.776 228.363 246.88C229.339 247.984 229.827 249.472 229.827 251.344V252.688H221.139C221.171 253.696 221.427 254.488 221.907 255.064C222.387 255.624 223.107 255.904 224.067 255.904C225.395 255.904 226.179 255.344 226.419 254.224H229.683ZM226.587 250.48C226.587 249.616 226.371 248.944 225.939 248.464C225.523 247.984 224.867 247.744 223.971 247.744C223.523 247.744 223.131 247.816 222.795 247.96C222.459 248.104 222.171 248.304 221.931 248.56C221.707 248.8 221.531 249.088 221.403 249.424C221.275 249.744 221.203 250.096 221.187 250.48H226.587Z" fill="white" fill-opacity="0.5"/>
<path d="M236.343 245.608H239.992L241.743 253.912L244.143 245.704H247.071L249.352 253.912L251.104 245.608H254.607L250.959 258.136H247.695L245.464 249.88L243.207 258.136H239.992L236.343 245.608Z" fill="white" fill-opacity="0.5"/>
<path d="M256.25 245.608H259.514V247.36C259.93 246.704 260.434 246.216 261.026 245.896C261.618 245.56 262.242 245.392 262.898 245.392C263.218 245.392 263.482 245.408 263.69 245.44C263.898 245.456 264.082 245.48 264.242 245.512L263.834 248.56C263.45 248.464 262.978 248.416 262.418 248.416C262.05 248.416 261.698 248.464 261.362 248.56C261.026 248.64 260.722 248.8 260.45 249.04C260.162 249.296 259.946 249.584 259.802 249.904C259.674 250.224 259.61 250.552 259.61 250.888V258.136H256.25V245.608Z" fill="white" fill-opacity="0.5"/>
<path d="M271.599 258.52C269.583 258.52 268.023 257.944 266.919 256.792C265.815 255.64 265.263 253.992 265.263 251.848C265.263 250.824 265.407 249.904 265.695 249.088C265.999 248.256 266.423 247.56 266.967 247C267.527 246.424 268.199 245.984 268.983 245.68C269.767 245.376 270.639 245.224 271.599 245.224C272.575 245.224 273.455 245.376 274.239 245.68C275.023 245.984 275.687 246.424 276.231 247C276.791 247.56 277.215 248.256 277.503 249.088C277.791 249.904 277.935 250.824 277.935 251.848C277.935 252.888 277.783 253.824 277.479 254.656C277.191 255.472 276.767 256.168 276.207 256.744C275.663 257.32 274.999 257.76 274.215 258.064C273.431 258.368 272.559 258.52 271.599 258.52ZM271.599 255.832C272.559 255.832 273.271 255.488 273.735 254.8C274.215 254.112 274.455 253.128 274.455 251.848C274.455 250.568 274.215 249.592 273.735 248.92C273.271 248.248 272.559 247.912 271.599 247.912C270.639 247.912 269.919 248.248 269.439 248.92C268.975 249.592 268.743 250.568 268.743 251.848C268.743 253.144 268.975 254.136 269.439 254.824C269.903 255.496 270.623 255.832 271.599 255.832Z" fill="white" fill-opacity="0.5"/>
<path d="M280.484 245.608H283.748V247.336C284.244 246.6 284.828 246.064 285.5 245.728C286.188 245.392 286.9 245.224 287.636 245.224C289.06 245.224 290.116 245.6 290.804 246.352C291.492 247.088 291.836 248.256 291.836 249.856V258.136H288.476V250.312C288.476 249.432 288.308 248.832 287.972 248.512C287.636 248.192 287.188 248.032 286.628 248.032C286.196 248.032 285.82 248.096 285.5 248.224C285.196 248.352 284.908 248.536 284.636 248.776C284.412 249 284.22 249.272 284.06 249.592C283.916 249.896 283.844 250.232 283.844 250.6V258.136H280.484V245.608Z" fill="white" fill-opacity="0.5"/>
<path d="M298.191 258.928C298.255 259.248 298.343 259.504 298.455 259.696C298.583 259.888 298.744 260.04 298.936 260.152C299.144 260.264 299.383 260.336 299.655 260.368C299.943 260.416 300.287 260.44 300.688 260.44C301.312 260.44 301.799 260.32 302.151 260.08C302.503 259.856 302.759 259.552 302.919 259.168C303.095 258.784 303.199 258.344 303.231 257.848C303.279 257.352 303.303 256.84 303.303 256.312V255.928C302.887 256.536 302.351 257 301.695 257.32C301.055 257.624 300.327 257.776 299.511 257.776C297.751 257.776 296.431 257.208 295.551 256.072C294.687 254.936 294.255 253.408 294.255 251.488C294.255 250.576 294.375 249.736 294.615 248.968C294.871 248.2 295.231 247.544 295.695 247C296.159 246.44 296.727 246.008 297.399 245.704C298.087 245.384 298.855 245.224 299.703 245.224C300.375 245.224 301.023 245.352 301.647 245.608C302.287 245.864 302.871 246.336 303.399 247.024V245.608H306.663V256.384C306.663 257.44 306.551 258.376 306.327 259.192C306.119 260.024 305.775 260.728 305.295 261.304C304.831 261.88 304.215 262.312 303.447 262.6C302.695 262.904 301.776 263.056 300.688 263.056C299.68 263.056 298.815 262.968 298.095 262.792C297.391 262.632 296.807 262.376 296.343 262.024C295.879 261.688 295.519 261.256 295.263 260.728C295.023 260.216 294.863 259.616 294.783 258.928H298.191ZM303.327 251.44C303.327 250.688 303.239 250.08 303.063 249.616C302.903 249.152 302.687 248.8 302.415 248.56C302.143 248.304 301.839 248.136 301.503 248.056C301.167 247.976 300.831 247.936 300.495 247.936C300.127 247.936 299.775 248 299.439 248.128C299.119 248.256 298.832 248.464 298.576 248.752C298.336 249.04 298.143 249.408 297.999 249.856C297.855 250.304 297.783 250.84 297.783 251.464C297.783 252.792 298.031 253.736 298.527 254.296C299.039 254.84 299.671 255.112 300.423 255.112C300.839 255.112 301.224 255.056 301.576 254.944C301.944 254.816 302.255 254.624 302.511 254.368C302.767 254.096 302.967 253.752 303.111 253.336C303.255 252.904 303.327 252.384 303.327 251.776V251.44Z" fill="white" fill-opacity="0.5"/>
<path d="M309.166 254.272H312.598V258.136H309.166V254.272Z" fill="white" fill-opacity="0.5"/>
<path d="M68 55.192H72.032L74.792 67.096L77.6 55.288H81.392L84.32 67.096L86.912 55.192H90.752L86.096 72.328H82.616L79.424 59.656L76.328 72.328H72.944L68 55.192Z" fill="white" fill-opacity="0.5"/>
<path d="M92.123 59.8H95.387V61.552C95.803 60.896 96.307 60.408 96.899 60.088C97.491 59.752 98.115 59.584 98.771 59.584C99.091 59.584 99.355 59.6 99.563 59.632C99.771 59.648 99.955 59.672 100.115 59.704L99.707 62.752C99.323 62.656 98.851 62.608 98.291 62.608C97.923 62.608 97.571 62.656 97.235 62.752C96.899 62.832 96.595 62.992 96.323 63.232C96.035 63.488 95.819 63.776 95.675 64.096C95.547 64.416 95.483 64.744 95.483 65.08V72.328H92.123V59.8Z" fill="white" fill-opacity="0.5"/>
<path d="M102.202 59.8H105.562V72.328H102.202V59.8ZM102.154 55.192H105.61V58.216H102.154V55.192Z" fill="white" fill-opacity="0.5"/>
<path d="M109.321 62.416H107.353V59.8H109.321V56.464H112.681V59.8H115.561V62.416H112.681V68.2C112.681 68.856 112.817 69.304 113.089 69.544C113.361 69.768 113.713 69.88 114.145 69.88C114.369 69.88 114.593 69.872 114.817 69.856C115.057 69.824 115.289 69.776 115.513 69.712L115.993 72.184C115.529 72.328 115.073 72.424 114.625 72.472C114.193 72.536 113.777 72.568 113.377 72.568C112.001 72.568 110.977 72.24 110.305 71.584C109.649 70.928 109.321 69.824 109.321 68.272V62.416Z" fill="white" fill-opacity="0.5"/>
<path d="M128.884 68.416C128.66 69.824 128.092 70.896 127.18 71.632C126.284 72.352 124.972 72.712 123.244 72.712C121.164 72.712 119.596 72.136 118.54 70.984C117.5 69.832 116.98 68.2 116.98 66.088C116.98 65.032 117.132 64.096 117.436 63.28C117.74 62.448 118.164 61.744 118.708 61.168C119.268 60.592 119.932 60.16 120.7 59.872C121.468 59.568 122.316 59.416 123.244 59.416C125.164 59.416 126.604 59.968 127.564 61.072C128.54 62.176 129.028 63.664 129.028 65.536V66.88H120.34C120.372 67.888 120.628 68.68 121.108 69.256C121.588 69.816 122.308 70.096 123.268 70.096C124.596 70.096 125.38 69.536 125.62 68.416H128.884ZM125.788 64.672C125.788 63.808 125.572 63.136 125.14 62.656C124.724 62.176 124.068 61.936 123.172 61.936C122.724 61.936 122.332 62.008 121.996 62.152C121.66 62.296 121.372 62.496 121.132 62.752C120.908 62.992 120.732 63.28 120.604 63.616C120.476 63.936 120.404 64.288 120.388 64.672H125.788Z" fill="white" fill-opacity="0.5"/>
<path d="M144.329 70.744C143.833 71.304 143.273 71.76 142.649 72.112C142.041 72.464 141.249 72.64 140.273 72.64C139.713 72.64 139.177 72.568 138.665 72.424C138.169 72.28 137.729 72.056 137.345 71.752C136.977 71.448 136.681 71.064 136.457 70.6C136.233 70.12 136.121 69.552 136.121 68.896C136.121 68.032 136.313 67.328 136.697 66.784C137.081 66.24 137.585 65.816 138.209 65.512C138.833 65.208 139.529 64.992 140.297 64.864C141.081 64.736 141.873 64.656 142.673 64.624L144.281 64.552V63.928C144.281 63.16 144.065 62.632 143.633 62.344C143.217 62.056 142.721 61.912 142.145 61.912C140.817 61.912 140.057 62.416 139.865 63.424L136.793 63.136C137.017 61.824 137.593 60.88 138.521 60.304C139.449 59.712 140.697 59.416 142.265 59.416C143.225 59.416 144.041 59.536 144.713 59.776C145.385 60 145.921 60.328 146.321 60.76C146.737 61.192 147.033 61.72 147.209 62.344C147.401 62.952 147.497 63.64 147.497 64.408V72.328H144.329V70.744ZM144.257 66.736L142.769 66.808C142.065 66.84 141.497 66.912 141.065 67.024C140.633 67.136 140.297 67.28 140.057 67.456C139.833 67.616 139.681 67.808 139.601 68.032C139.521 68.256 139.481 68.504 139.481 68.776C139.481 69.192 139.625 69.52 139.913 69.76C140.201 70 140.601 70.12 141.113 70.12C141.977 70.12 142.681 69.92 143.225 69.52C143.529 69.296 143.777 69.016 143.969 68.68C144.161 68.328 144.257 67.896 144.257 67.384V66.736Z" fill="white" fill-opacity="0.5"/>
<path d="M156.453 62.416H154.486V59.8H156.453V56.464H159.813V59.8H162.694V62.416H159.813V68.2C159.813 68.856 159.95 69.304 160.222 69.544C160.494 69.768 160.846 69.88 161.278 69.88C161.502 69.88 161.726 69.872 161.95 69.856C162.19 69.824 162.422 69.776 162.646 69.712L163.126 72.184C162.662 72.328 162.205 72.424 161.757 72.472C161.325 72.536 160.909 72.568 160.509 72.568C159.133 72.568 158.109 72.24 157.438 71.584C156.781 70.928 156.453 69.824 156.453 68.272V62.416Z" fill="white" fill-opacity="0.5"/>
<path d="M164.779 55.192H168.139V61.384C168.635 60.712 169.211 60.216 169.867 59.896C170.523 59.576 171.211 59.416 171.931 59.416C173.355 59.416 174.411 59.792 175.099 60.544C175.787 61.28 176.131 62.448 176.131 64.048V72.328H172.771V64.504C172.771 63.624 172.603 63.024 172.267 62.704C171.931 62.384 171.483 62.224 170.923 62.224C170.491 62.224 170.115 62.288 169.795 62.416C169.491 62.544 169.203 62.728 168.931 62.968C168.707 63.192 168.515 63.464 168.355 63.784C168.211 64.088 168.139 64.424 168.139 64.792V72.328H164.779V55.192Z" fill="white" fill-opacity="0.5"/>
<path d="M184.886 72.712C182.87 72.712 181.31 72.136 180.206 70.984C179.102 69.832 178.55 68.184 178.55 66.04C178.55 65.016 178.694 64.096 178.982 63.28C179.286 62.448 179.71 61.752 180.254 61.192C180.814 60.616 181.486 60.176 182.27 59.872C183.054 59.568 183.926 59.416 184.886 59.416C185.862 59.416 186.742 59.568 187.526 59.872C188.31 60.176 188.974 60.616 189.518 61.192C190.078 61.752 190.502 62.448 190.79 63.28C191.078 64.096 191.222 65.016 191.222 66.04C191.222 67.08 191.07 68.016 190.766 68.848C190.478 69.664 190.054 70.36 189.494 70.936C188.95 71.512 188.286 71.952 187.502 72.256C186.718 72.56 185.846 72.712 184.886 72.712ZM184.886 70.024C185.846 70.024 186.558 69.68 187.022 68.992C187.502 68.304 187.742 67.32 187.742 66.04C187.742 64.76 187.502 63.784 187.022 63.112C186.558 62.44 185.846 62.104 184.886 62.104C183.926 62.104 183.206 62.44 182.726 63.112C182.262 63.784 182.03 64.76 182.03 66.04C182.03 67.336 182.262 68.328 182.726 69.016C183.19 69.688 183.91 70.024 184.886 70.024Z" fill="white" fill-opacity="0.5"/>
<path d="M193.651 59.8H197.011V67.624C197.011 68.52 197.171 69.128 197.491 69.448C197.811 69.752 198.251 69.904 198.811 69.904C199.243 69.904 199.595 69.84 199.867 69.712C200.155 69.584 200.427 69.4 200.683 69.16C200.939 68.936 201.139 68.672 201.283 68.368C201.443 68.048 201.523 67.704 201.523 67.336V59.8H204.883V72.328H201.619V70.6C201.107 71.336 200.523 71.872 199.867 72.208C199.227 72.544 198.539 72.712 197.803 72.712C196.379 72.712 195.331 72.344 194.659 71.608C193.987 70.856 193.651 69.68 193.651 68.08V59.8Z" fill="white" fill-opacity="0.5"/>
<path d="M211.361 73.12C211.425 73.44 211.513 73.696 211.625 73.888C211.753 74.08 211.913 74.232 212.105 74.344C212.313 74.456 212.553 74.528 212.825 74.56C213.113 74.608 213.457 74.632 213.857 74.632C214.481 74.632 214.969 74.512 215.321 74.272C215.673 74.048 215.929 73.744 216.089 73.36C216.265 72.976 216.369 72.536 216.401 72.04C216.449 71.544 216.473 71.032 216.473 70.504V70.12C216.057 70.728 215.521 71.192 214.865 71.512C214.225 71.816 213.497 71.968 212.681 71.968C210.921 71.968 209.601 71.4 208.721 70.264C207.857 69.128 207.425 67.6 207.425 65.68C207.425 64.768 207.545 63.928 207.785 63.16C208.041 62.392 208.401 61.736 208.865 61.192C209.329 60.632 209.897 60.2 210.569 59.896C211.257 59.576 212.025 59.416 212.873 59.416C213.545 59.416 214.193 59.544 214.817 59.8C215.457 60.056 216.041 60.528 216.569 61.216V59.8H219.833V70.576C219.833 71.632 219.721 72.568 219.497 73.384C219.289 74.216 218.945 74.92 218.465 75.496C218.001 76.072 217.385 76.504 216.617 76.792C215.865 77.096 214.945 77.248 213.857 77.248C212.849 77.248 211.985 77.16 211.265 76.984C210.561 76.824 209.977 76.568 209.513 76.216C209.049 75.88 208.689 75.448 208.433 74.92C208.193 74.408 208.033 73.808 207.953 73.12H211.361ZM216.497 65.632C216.497 64.88 216.409 64.272 216.233 63.808C216.073 63.344 215.857 62.992 215.585 62.752C215.313 62.496 215.009 62.328 214.673 62.248C214.337 62.168 214.001 62.128 213.665 62.128C213.297 62.128 212.945 62.192 212.609 62.32C212.289 62.448 212.001 62.656 211.745 62.944C211.505 63.232 211.313 63.6 211.169 64.048C211.025 64.496 210.953 65.032 210.953 65.656C210.953 66.984 211.201 67.928 211.697 68.488C212.209 69.032 212.841 69.304 213.593 69.304C214.009 69.304 214.393 69.248 214.745 69.136C215.113 69.008 215.425 68.816 215.681 68.56C215.937 68.288 216.137 67.944 216.281 67.528C216.425 67.096 216.497 66.576 216.497 65.968V65.632Z" fill="white" fill-opacity="0.5"/>
<path d="M222.811 55.192H226.171V61.384C226.667 60.712 227.242 60.216 227.898 59.896C228.554 59.576 229.242 59.416 229.962 59.416C231.386 59.416 232.442 59.792 233.13 60.544C233.818 61.28 234.162 62.448 234.162 64.048V72.328H230.802V64.504C230.802 63.624 230.634 63.024 230.298 62.704C229.962 62.384 229.514 62.224 228.954 62.224C228.522 62.224 228.146 62.288 227.826 62.416C227.522 62.544 227.234 62.728 226.962 62.968C226.738 63.192 226.546 63.464 226.386 63.784C226.242 64.088 226.171 64.424 226.171 64.792V72.328H222.811V55.192Z" fill="white" fill-opacity="0.5"/>
<path d="M237.782 62.416H235.814V59.8H237.782V56.464H241.142V59.8H244.022V62.416H241.142V68.2C241.142 68.856 241.278 69.304 241.55 69.544C241.822 69.768 242.174 69.88 242.606 69.88C242.83 69.88 243.054 69.872 243.278 69.856C243.518 69.824 243.75 69.776 243.974 69.712L244.454 72.184C243.99 72.328 243.534 72.424 243.086 72.472C242.654 72.536 242.238 72.568 241.838 72.568C240.462 72.568 239.438 72.24 238.766 71.584C238.11 70.928 237.782 69.824 237.782 68.272V62.416Z" fill="white" fill-opacity="0.5"/>
<path d="M247.275 62.416H245.307V59.8H247.275V59.392C247.275 58.624 247.387 57.96 247.611 57.4C247.835 56.84 248.139 56.384 248.523 56.032C248.923 55.68 249.387 55.424 249.915 55.264C250.443 55.088 251.019 55 251.643 55C252.043 55 252.459 55.024 252.891 55.072C253.339 55.12 253.795 55.216 254.259 55.36L253.803 57.808C253.291 57.68 252.803 57.616 252.339 57.616C251.907 57.616 251.515 57.744 251.163 58C250.811 58.24 250.635 58.68 250.635 59.32V59.8H253.539V62.416H250.635V72.328H247.275V62.416Z" fill="white" fill-opacity="0.5"/>
<path d="M255.433 59.8H258.793V67.624C258.793 68.52 258.953 69.128 259.273 69.448C259.593 69.752 260.033 69.904 260.593 69.904C261.025 69.904 261.377 69.84 261.649 69.712C261.937 69.584 262.209 69.4 262.465 69.16C262.721 68.936 262.921 68.672 263.065 68.368C263.225 68.048 263.305 67.704 263.305 67.336V59.8H266.665V72.328H263.401V70.6C262.889 71.336 262.305 71.872 261.649 72.208C261.009 72.544 260.321 72.712 259.585 72.712C258.161 72.712 257.113 72.344 256.441 71.608C255.769 70.856 255.433 69.68 255.433 68.08V59.8Z" fill="white" fill-opacity="0.5"/>
<path d="M269.663 55.192H273.023V72.328H269.663V55.192Z" fill="white" fill-opacity="0.5"/>
<path d="M281.357 59.8H284.621V61.456C285.581 60.096 286.893 59.416 288.557 59.416C290.301 59.416 291.605 60.008 292.469 61.192C293.333 62.376 293.765 64 293.765 66.064C293.765 67.056 293.637 67.96 293.381 68.776C293.141 69.592 292.781 70.296 292.301 70.888C291.837 71.464 291.269 71.912 290.597 72.232C289.925 72.552 289.165 72.712 288.317 72.712C287.693 72.712 287.069 72.6 286.445 72.376C285.837 72.152 285.261 71.704 284.717 71.032V76.984H281.357V59.8ZM284.693 66.16C284.693 66.976 284.757 67.632 284.885 68.128C285.029 68.608 285.253 69 285.557 69.304C285.877 69.592 286.197 69.784 286.517 69.88C286.853 69.96 287.189 70 287.525 70C287.893 70 288.245 69.928 288.581 69.784C288.917 69.64 289.205 69.416 289.445 69.112C289.701 68.792 289.901 68.384 290.045 67.888C290.189 67.392 290.261 66.792 290.261 66.088C290.261 65.352 290.189 64.736 290.045 64.24C289.917 63.744 289.733 63.344 289.493 63.04C289.253 62.72 288.965 62.496 288.629 62.368C288.309 62.224 287.965 62.152 287.597 62.152C287.181 62.152 286.821 62.208 286.517 62.32C286.213 62.432 285.917 62.608 285.629 62.848C285.309 63.152 285.069 63.536 284.909 64C284.765 64.464 284.693 65.056 284.693 65.776V66.16Z" fill="white" fill-opacity="0.5"/>
<path d="M307.548 68.416C307.324 69.824 306.756 70.896 305.844 71.632C304.948 72.352 303.636 72.712 301.908 72.712C299.828 72.712 298.26 72.136 297.204 70.984C296.164 69.832 295.644 68.2 295.644 66.088C295.644 65.032 295.796 64.096 296.1 63.28C296.404 62.448 296.828 61.744 297.372 61.168C297.932 60.592 298.596 60.16 299.364 59.872C300.132 59.568 300.98 59.416 301.908 59.416C303.828 59.416 305.268 59.968 306.228 61.072C307.204 62.176 307.692 63.664 307.692 65.536V66.88H299.004C299.036 67.888 299.292 68.68 299.772 69.256C300.252 69.816 300.972 70.096 301.932 70.096C303.26 70.096 304.044 69.536 304.284 68.416H307.548ZM304.452 64.672C304.452 63.808 304.236 63.136 303.804 62.656C303.388 62.176 302.732 61.936 301.836 61.936C301.388 61.936 300.996 62.008 300.66 62.152C300.324 62.296 300.036 62.496 299.796 62.752C299.572 62.992 299.396 63.28 299.268 63.616C299.14 63.936 299.068 64.288 299.052 64.672H304.452Z" fill="white" fill-opacity="0.5"/>
<path d="M310.209 59.8H313.473V61.552C313.889 60.896 314.393 60.408 314.985 60.088C315.577 59.752 316.201 59.584 316.857 59.584C317.177 59.584 317.441 59.6 317.649 59.632C317.857 59.648 318.041 59.672 318.201 59.704L317.793 62.752C317.409 62.656 316.937 62.608 316.377 62.608C316.009 62.608 315.657 62.656 315.321 62.752C314.985 62.832 314.681 62.992 314.409 63.232C314.121 63.488 313.905 63.776 313.761 64.096C313.633 64.416 313.569 64.744 313.569 65.08V72.328H310.209V59.8Z" fill="white" fill-opacity="0.5"/>
<path d="M322.453 68.344C322.565 69.08 322.861 69.56 323.341 69.784C323.821 70.008 324.397 70.12 325.069 70.12C325.869 70.12 326.437 70.024 326.773 69.832C327.125 69.624 327.301 69.296 327.301 68.848C327.301 68.528 327.189 68.248 326.965 68.008C326.757 67.768 326.349 67.6 325.741 67.504L324.013 67.216C322.493 66.976 321.357 66.568 320.605 65.992C319.869 65.4 319.501 64.512 319.501 63.328C319.501 62.72 319.629 62.176 319.885 61.696C320.157 61.216 320.533 60.808 321.013 60.472C321.493 60.136 322.061 59.88 322.717 59.704C323.389 59.512 324.125 59.416 324.925 59.416C325.917 59.416 326.749 59.52 327.421 59.728C328.093 59.92 328.637 60.184 329.053 60.52C329.485 60.856 329.805 61.256 330.013 61.72C330.237 62.184 330.397 62.68 330.493 63.208L327.493 63.592C327.349 63.016 327.093 62.592 326.725 62.32C326.373 62.048 325.797 61.912 324.997 61.912C324.549 61.912 324.173 61.952 323.869 62.032C323.581 62.096 323.349 62.184 323.173 62.296C323.013 62.408 322.893 62.536 322.813 62.68C322.749 62.824 322.717 62.96 322.717 63.088C322.717 63.488 322.837 63.784 323.077 63.976C323.333 64.152 323.821 64.304 324.541 64.432L326.125 64.696C327.005 64.84 327.733 65.024 328.309 65.248C328.885 65.472 329.341 65.752 329.677 66.088C330.029 66.408 330.269 66.792 330.397 67.24C330.541 67.688 330.613 68.208 330.613 68.8C330.613 69.984 330.165 70.936 329.269 71.656C328.373 72.36 326.989 72.712 325.117 72.712C324.365 72.712 323.645 72.64 322.957 72.496C322.285 72.368 321.677 72.136 321.133 71.8C320.605 71.464 320.165 71.016 319.813 70.456C319.477 69.896 319.285 69.192 319.237 68.344H322.453Z" fill="white" fill-opacity="0.5"/>
<path d="M338.59 72.712C336.574 72.712 335.014 72.136 333.91 70.984C332.806 69.832 332.254 68.184 332.254 66.04C332.254 65.016 332.398 64.096 332.686 63.28C332.99 62.448 333.414 61.752 333.958 61.192C334.518 60.616 335.19 60.176 335.974 59.872C336.758 59.568 337.63 59.416 338.59 59.416C339.566 59.416 340.446 59.568 341.23 59.872C342.014 60.176 342.677 60.616 343.221 61.192C343.781 61.752 344.205 62.448 344.493 63.28C344.781 64.096 344.926 65.016 344.926 66.04C344.926 67.08 344.774 68.016 344.47 68.848C344.182 69.664 343.758 70.36 343.198 70.936C342.654 71.512 341.99 71.952 341.206 72.256C340.422 72.56 339.55 72.712 338.59 72.712ZM338.59 70.024C339.55 70.024 340.262 69.68 340.726 68.992C341.206 68.304 341.445 67.32 341.445 66.04C341.445 64.76 341.206 63.784 340.726 63.112C340.262 62.44 339.55 62.104 338.59 62.104C337.63 62.104 336.91 62.44 336.43 63.112C335.966 63.784 335.734 64.76 335.734 66.04C335.734 67.336 335.966 68.328 336.43 69.016C336.894 69.688 337.614 70.024 338.59 70.024Z" fill="white" fill-opacity="0.5"/>
<path d="M347.475 59.8H350.739V61.528C351.235 60.792 351.819 60.256 352.491 59.92C353.179 59.584 353.891 59.416 354.627 59.416C356.051 59.416 357.107 59.792 357.795 60.544C358.483 61.28 358.827 62.448 358.827 64.048V72.328H355.467V64.504C355.467 63.624 355.299 63.024 354.963 62.704C354.627 62.384 354.179 62.224 353.619 62.224C353.187 62.224 352.811 62.288 352.491 62.416C352.187 62.544 351.899 62.728 351.627 62.968C351.403 63.192 351.211 63.464 351.051 63.784C350.907 64.088 350.835 64.424 350.835 64.792V72.328H347.475V59.8Z" fill="white" fill-opacity="0.5"/>
<path d="M369.118 70.744C368.622 71.304 368.062 71.76 367.438 72.112C366.83 72.464 366.038 72.64 365.062 72.64C364.502 72.64 363.966 72.568 363.454 72.424C362.958 72.28 362.518 72.056 362.134 71.752C361.766 71.448 361.47 71.064 361.246 70.6C361.022 70.12 360.91 69.552 360.91 68.896C360.91 68.032 361.102 67.328 361.486 66.784C361.87 66.24 362.374 65.816 362.998 65.512C363.622 65.208 364.318 64.992 365.086 64.864C365.87 64.736 366.662 64.656 367.462 64.624L369.07 64.552V63.928C369.07 63.16 368.854 62.632 368.422 62.344C368.006 62.056 367.51 61.912 366.934 61.912C365.606 61.912 364.846 62.416 364.654 63.424L361.582 63.136C361.806 61.824 362.382 60.88 363.31 60.304C364.238 59.712 365.486 59.416 367.054 59.416C368.014 59.416 368.83 59.536 369.502 59.776C370.174 60 370.71 60.328 371.11 60.76C371.526 61.192 371.822 61.72 371.998 62.344C372.19 62.952 372.286 63.64 372.286 64.408V72.328H369.118V70.744ZM369.046 66.736L367.558 66.808C366.854 66.84 366.286 66.912 365.854 67.024C365.422 67.136 365.086 67.28 364.846 67.456C364.622 67.616 364.47 67.808 364.39 68.032C364.31 68.256 364.27 68.504 364.27 68.776C364.27 69.192 364.414 69.52 364.702 69.76C364.99 70 365.39 70.12 365.902 70.12C366.766 70.12 367.47 69.92 368.014 69.52C368.318 69.296 368.566 69.016 368.758 68.68C368.95 68.328 369.046 67.896 369.046 67.384V66.736Z" fill="white" fill-opacity="0.5"/>
<path d="M375.155 55.192H378.515V72.328H375.155V55.192Z" fill="white" fill-opacity="0.5"/>
<path d="M381.53 59.8H384.89V72.328H381.53V59.8ZM381.482 55.192H384.938V58.216H381.482V55.192Z" fill="white" fill-opacity="0.5"/>
<path d="M387.281 70.048L393.377 62.416H387.401V59.8H397.649V62.08L391.577 69.712H397.937L397.625 72.328H387.281V70.048Z" fill="white" fill-opacity="0.5"/>
<path d="M411.118 68.416C410.894 69.824 410.326 70.896 409.414 71.632C408.518 72.352 407.206 72.712 405.478 72.712C403.398 72.712 401.83 72.136 400.774 70.984C399.734 69.832 399.214 68.2 399.214 66.088C399.214 65.032 399.366 64.096 399.67 63.28C399.974 62.448 400.398 61.744 400.942 61.168C401.502 60.592 402.166 60.16 402.934 59.872C403.702 59.568 404.55 59.416 405.478 59.416C407.398 59.416 408.838 59.968 409.798 61.072C410.774 62.176 411.262 63.664 411.262 65.536V66.88H402.574C402.606 67.888 402.862 68.68 403.342 69.256C403.822 69.816 404.542 70.096 405.502 70.096C406.83 70.096 407.614 69.536 407.854 68.416H411.118ZM408.022 64.672C408.022 63.808 407.806 63.136 407.374 62.656C406.958 62.176 406.302 61.936 405.406 61.936C404.958 61.936 404.566 62.008 404.23 62.152C403.894 62.296 403.606 62.496 403.366 62.752C403.142 62.992 402.966 63.28 402.838 63.616C402.71 63.936 402.638 64.288 402.622 64.672H408.022Z" fill="white" fill-opacity="0.5"/>
<path d="M422.467 70.672C421.507 72.032 420.211 72.712 418.579 72.712C416.819 72.712 415.507 72.12 414.643 70.936C413.779 69.752 413.347 68.112 413.347 66.016C413.347 65.04 413.467 64.152 413.707 63.352C413.963 62.536 414.323 61.84 414.787 61.264C415.251 60.672 415.819 60.216 416.491 59.896C417.163 59.576 417.923 59.416 418.771 59.416C419.395 59.416 420.011 59.528 420.619 59.752C421.243 59.976 421.827 60.408 422.371 61.048V55.192H425.731V72.328H422.467V70.672ZM422.395 65.92C422.395 65.12 422.323 64.48 422.179 64C422.051 63.52 421.835 63.128 421.531 62.824C421.243 62.536 420.923 62.352 420.571 62.272C420.235 62.176 419.899 62.128 419.563 62.128C419.195 62.128 418.843 62.2 418.507 62.344C418.187 62.488 417.899 62.712 417.643 63.016C417.403 63.32 417.211 63.72 417.067 64.216C416.923 64.712 416.851 65.304 416.851 65.992C416.851 66.744 416.915 67.376 417.043 67.888C417.187 68.384 417.379 68.792 417.619 69.112C417.859 69.416 418.139 69.64 418.459 69.784C418.779 69.912 419.123 69.976 419.491 69.976C420.291 69.976 420.947 69.744 421.459 69.28C421.779 68.96 422.011 68.576 422.155 68.128C422.315 67.664 422.395 67.072 422.395 66.352V65.92Z" fill="white" fill-opacity="0.5"/>
<path d="M69.272 90.8H72.632V103.328H69.272V90.8ZM69.224 86.192H72.68V89.216H69.224V86.192Z" fill="white" fill-opacity="0.5"/>
<path d="M75.623 90.8H78.887V92.528C79.383 91.792 79.967 91.256 80.639 90.92C81.327 90.584 82.039 90.416 82.775 90.416C84.199 90.416 85.255 90.792 85.943 91.544C86.631 92.28 86.975 93.448 86.975 95.048V103.328H83.615V95.504C83.615 94.624 83.447 94.024 83.111 93.704C82.775 93.384 82.327 93.224 81.767 93.224C81.335 93.224 80.959 93.288 80.639 93.416C80.335 93.544 80.047 93.728 79.775 93.968C79.551 94.192 79.359 94.464 79.199 94.784C79.055 95.088 78.983 95.424 78.983 95.792V103.328H75.623V90.8Z" fill="white" fill-opacity="0.5"/>
<path d="M90.5941 93.416H88.6261V90.8H90.5941V87.464H93.9541V90.8H96.8341V93.416H93.9541V99.2C93.9541 99.856 94.0901 100.304 94.3621 100.544C94.6341 100.768 94.9861 100.88 95.4181 100.88C95.6421 100.88 95.8661 100.872 96.0901 100.856C96.3301 100.824 96.5621 100.776 96.7861 100.712L97.2661 103.184C96.8021 103.328 96.3461 103.424 95.8981 103.472C95.4661 103.536 95.0501 103.568 94.6501 103.568C93.2741 103.568 92.2501 103.24 91.5781 102.584C90.9221 101.928 90.5941 100.824 90.5941 99.272V93.416Z" fill="white" fill-opacity="0.5"/>
<path d="M98.9199 90.8H102.184V92.552C102.6 91.896 103.104 91.408 103.696 91.088C104.288 90.752 104.912 90.584 105.568 90.584C105.888 90.584 106.152 90.6 106.36 90.632C106.568 90.648 106.752 90.672 106.912 90.704L106.504 93.752C106.12 93.656 105.648 93.608 105.088 93.608C104.72 93.608 104.368 93.656 104.032 93.752C103.696 93.832 103.392 93.992 103.12 94.232C102.832 94.488 102.616 94.776 102.472 95.096C102.344 95.416 102.28 95.744 102.28 96.08V103.328H98.9199V90.8Z" fill="white" fill-opacity="0.5"/>
<path d="M114.269 103.712C112.253 103.712 110.693 103.136 109.589 101.984C108.485 100.832 107.933 99.184 107.933 97.04C107.933 96.016 108.077 95.096 108.365 94.28C108.669 93.448 109.093 92.752 109.637 92.192C110.197 91.616 110.869 91.176 111.653 90.872C112.437 90.568 113.309 90.416 114.269 90.416C115.245 90.416 116.125 90.568 116.909 90.872C117.693 91.176 118.357 91.616 118.901 92.192C119.461 92.752 119.885 93.448 120.173 94.28C120.461 95.096 120.605 96.016 120.605 97.04C120.605 98.08 120.453 99.016 120.149 99.848C119.861 100.664 119.437 101.36 118.877 101.936C118.333 102.512 117.669 102.952 116.885 103.256C116.101 103.56 115.229 103.712 114.269 103.712ZM114.269 101.024C115.229 101.024 115.941 100.68 116.405 99.992C116.885 99.304 117.125 98.32 117.125 97.04C117.125 95.76 116.885 94.784 116.405 94.112C115.941 93.44 115.229 93.104 114.269 93.104C113.309 93.104 112.589 93.44 112.109 94.112C111.645 94.784 111.413 95.76 111.413 97.04C111.413 98.336 111.645 99.328 112.109 100.016C112.573 100.688 113.293 101.024 114.269 101.024Z" fill="white" fill-opacity="0.5"/>
<path d="M131.608 101.672C130.648 103.032 129.352 103.712 127.72 103.712C125.96 103.712 124.648 103.12 123.784 101.936C122.92 100.752 122.488 99.112 122.488 97.016C122.488 96.04 122.608 95.152 122.848 94.352C123.104 93.536 123.464 92.84 123.928 92.264C124.392 91.672 124.96 91.216 125.632 90.896C126.304 90.576 127.064 90.416 127.912 90.416C128.536 90.416 129.152 90.528 129.76 90.752C130.384 90.976 130.968 91.408 131.512 92.048V86.192H134.872V103.328H131.608V101.672ZM131.536 96.92C131.536 96.12 131.464 95.48 131.32 95C131.192 94.52 130.976 94.128 130.672 93.824C130.384 93.536 130.064 93.352 129.712 93.272C129.376 93.176 129.04 93.128 128.704 93.128C128.336 93.128 127.984 93.2 127.648 93.344C127.328 93.488 127.04 93.712 126.784 94.016C126.544 94.32 126.352 94.72 126.208 95.216C126.064 95.712 125.992 96.304 125.992 96.992C125.992 97.744 126.056 98.376 126.184 98.888C126.328 99.384 126.52 99.792 126.76 100.112C127 100.416 127.28 100.64 127.6 100.784C127.92 100.912 128.264 100.976 128.632 100.976C129.432 100.976 130.088 100.744 130.6 100.28C130.92 99.96 131.152 99.576 131.296 99.128C131.456 98.664 131.536 98.072 131.536 97.352V96.92Z" fill="white" fill-opacity="0.5"/>
<path d="M137.73 90.8H141.09V98.624C141.09 99.52 141.25 100.128 141.57 100.448C141.89 100.752 142.33 100.904 142.89 100.904C143.322 100.904 143.674 100.84 143.946 100.712C144.234 100.584 144.506 100.4 144.762 100.16C145.018 99.936 145.218 99.672 145.362 99.368C145.522 99.048 145.602 98.704 145.602 98.336V90.8H148.962V103.328H145.698V101.6C145.186 102.336 144.602 102.872 143.946 103.208C143.306 103.544 142.618 103.712 141.882 103.712C140.458 103.712 139.41 103.344 138.738 102.608C138.066 101.856 137.73 100.68 137.73 99.08V90.8Z" fill="white" fill-opacity="0.5"/>
<path d="M163.192 98.792C163.064 100.296 162.543 101.496 161.632 102.392C160.736 103.272 159.384 103.712 157.576 103.712C156.52 103.712 155.608 103.552 154.84 103.232C154.072 102.912 153.44 102.464 152.944 101.888C152.464 101.312 152.104 100.616 151.864 99.8C151.624 98.984 151.504 98.08 151.504 97.088C151.504 96.096 151.639 95.192 151.911 94.376C152.199 93.544 152.608 92.84 153.136 92.264C153.664 91.672 154.312 91.216 155.08 90.896C155.848 90.576 156.728 90.416 157.72 90.416C158.568 90.416 159.304 90.528 159.928 90.752C160.568 90.96 161.103 91.256 161.535 91.64C161.967 92.024 162.304 92.488 162.544 93.032C162.784 93.56 162.944 94.144 163.024 94.784L159.64 95.24C159.56 94.6 159.376 94.088 159.088 93.704C158.8 93.304 158.304 93.104 157.6 93.104C157.088 93.104 156.663 93.216 156.327 93.44C155.991 93.648 155.72 93.936 155.512 94.304C155.32 94.672 155.184 95.096 155.104 95.576C155.024 96.04 154.984 96.528 154.984 97.04C154.984 97.568 155.024 98.072 155.104 98.552C155.184 99.032 155.32 99.456 155.512 99.824C155.704 100.192 155.968 100.488 156.304 100.712C156.64 100.92 157.064 101.024 157.576 101.024C158.248 101.024 158.768 100.832 159.136 100.448C159.504 100.064 159.72 99.512 159.784 98.792H163.192Z" fill="white" fill-opacity="0.5"/>
<path d="M166.368 93.416H164.4V90.8H166.368V87.464H169.728V90.8H172.608V93.416H169.728V99.2C169.728 99.856 169.864 100.304 170.136 100.544C170.408 100.768 170.76 100.88 171.192 100.88C171.416 100.88 171.64 100.872 171.864 100.856C172.104 100.824 172.336 100.776 172.56 100.712L173.04 103.184C172.576 103.328 172.12 103.424 171.672 103.472C171.24 103.536 170.824 103.568 170.424 103.568C169.048 103.568 168.024 103.24 167.352 102.584C166.696 101.928 166.368 100.824 166.368 99.272V93.416Z" fill="white" fill-opacity="0.5"/>
<path d="M174.717 90.8H178.077V103.328H174.717V90.8ZM174.669 86.192H178.125V89.216H174.669V86.192Z" fill="white" fill-opacity="0.5"/>
<path d="M186.972 103.712C184.956 103.712 183.396 103.136 182.292 101.984C181.188 100.832 180.636 99.184 180.636 97.04C180.636 96.016 180.78 95.096 181.068 94.28C181.372 93.448 181.796 92.752 182.34 92.192C182.9 91.616 183.572 91.176 184.356 90.872C185.14 90.568 186.012 90.416 186.972 90.416C187.948 90.416 188.828 90.568 189.612 90.872C190.396 91.176 191.06 91.616 191.604 92.192C192.164 92.752 192.588 93.448 192.876 94.28C193.164 95.096 193.308 96.016 193.308 97.04C193.308 98.08 193.156 99.016 192.852 99.848C192.564 100.664 192.14 101.36 191.58 101.936C191.036 102.512 190.372 102.952 189.588 103.256C188.804 103.56 187.932 103.712 186.972 103.712ZM186.972 101.024C187.932 101.024 188.644 100.68 189.108 99.992C189.588 99.304 189.828 98.32 189.828 97.04C189.828 95.76 189.588 94.784 189.108 94.112C188.644 93.44 187.932 93.104 186.972 93.104C186.012 93.104 185.292 93.44 184.812 94.112C184.348 94.784 184.116 95.76 184.116 97.04C184.116 98.336 184.348 99.328 184.812 100.016C185.276 100.688 185.996 101.024 186.972 101.024Z" fill="white" fill-opacity="0.5"/>
<path d="M195.857 90.8H199.121V92.528C199.617 91.792 200.201 91.256 200.873 90.92C201.561 90.584 202.273 90.416 203.009 90.416C204.433 90.416 205.489 90.792 206.177 91.544C206.865 92.28 207.209 93.448 207.209 95.048V103.328H203.849V95.504C203.849 94.624 203.681 94.024 203.345 93.704C203.009 93.384 202.561 93.224 202.001 93.224C201.569 93.224 201.193 93.288 200.873 93.416C200.569 93.544 200.281 93.728 200.009 93.968C199.785 94.192 199.593 94.464 199.433 94.784C199.289 95.088 199.217 95.424 199.217 95.792V103.328H195.857V90.8Z" fill="white" fill-opacity="0.5"/>
<path d="M226.876 99.416C226.652 100.824 226.084 101.896 225.172 102.632C224.276 103.352 222.964 103.712 221.236 103.712C219.156 103.712 217.588 103.136 216.532 101.984C215.492 100.832 214.972 99.2 214.972 97.088C214.972 96.032 215.124 95.096 215.428 94.28C215.732 93.448 216.156 92.744 216.7 92.168C217.26 91.592 217.924 91.16 218.692 90.872C219.46 90.568 220.308 90.416 221.236 90.416C223.156 90.416 224.596 90.968 225.556 92.072C226.532 93.176 227.02 94.664 227.02 96.536V97.88H218.332C218.364 98.888 218.62 99.68 219.1 100.256C219.58 100.816 220.3 101.096 221.26 101.096C222.588 101.096 223.372 100.536 223.612 99.416H226.876ZM223.78 95.672C223.78 94.808 223.564 94.136 223.132 93.656C222.716 93.176 222.06 92.936 221.164 92.936C220.716 92.936 220.324 93.008 219.988 93.152C219.652 93.296 219.364 93.496 219.124 93.752C218.9 93.992 218.724 94.28 218.596 94.616C218.468 94.936 218.396 95.288 218.38 95.672H223.78Z" fill="white" fill-opacity="0.5"/>
<path d="M229.537 90.8H232.801V92.48C233.265 91.776 233.809 91.256 234.433 90.92C235.057 90.584 235.713 90.416 236.401 90.416C237.313 90.416 238.057 90.6 238.633 90.968C239.209 91.336 239.617 91.872 239.857 92.576C240.433 91.808 241.041 91.256 241.681 90.92C242.321 90.584 243.025 90.416 243.793 90.416C245.089 90.416 246.057 90.776 246.697 91.496C247.353 92.2 247.681 93.352 247.681 94.952V103.328H244.321V95.408C244.321 94.96 244.281 94.6 244.201 94.328C244.121 94.04 244.009 93.816 243.865 93.656C243.737 93.496 243.577 93.384 243.385 93.32C243.193 93.256 242.993 93.224 242.785 93.224C242.449 93.224 242.137 93.28 241.849 93.392C241.577 93.504 241.305 93.696 241.033 93.968C240.809 94.192 240.625 94.448 240.481 94.736C240.353 95.024 240.289 95.328 240.289 95.648V103.328H236.929V95.408C236.929 94.96 236.889 94.6 236.809 94.328C236.729 94.04 236.617 93.816 236.473 93.656C236.345 93.496 236.185 93.384 235.993 93.32C235.801 93.256 235.601 93.224 235.393 93.224C235.057 93.224 234.745 93.28 234.457 93.392C234.185 93.504 233.913 93.696 233.641 93.968C233.417 94.192 233.233 94.464 233.089 94.784C232.961 95.088 232.897 95.424 232.897 95.792V103.328H229.537V90.8Z" fill="white" fill-opacity="0.5"/>
<path d="M257.977 101.744C257.481 102.304 256.921 102.76 256.297 103.112C255.689 103.464 254.897 103.64 253.921 103.64C253.361 103.64 252.825 103.568 252.313 103.424C251.817 103.28 251.377 103.056 250.993 102.752C250.625 102.448 250.329 102.064 250.105 101.6C249.881 101.12 249.769 100.552 249.769 99.896C249.769 99.032 249.961 98.328 250.345 97.784C250.729 97.24 251.233 96.816 251.857 96.512C252.481 96.208 253.177 95.992 253.945 95.864C254.729 95.736 255.521 95.656 256.321 95.624L257.929 95.552V94.928C257.929 94.16 257.713 93.632 257.281 93.344C256.865 93.056 256.369 92.912 255.793 92.912C254.465 92.912 253.705 93.416 253.513 94.424L250.441 94.136C250.665 92.824 251.241 91.88 252.169 91.304C253.097 90.712 254.345 90.416 255.913 90.416C256.873 90.416 257.689 90.536 258.361 90.776C259.033 91 259.569 91.328 259.969 91.76C260.385 92.192 260.681 92.72 260.857 93.344C261.049 93.952 261.145 94.64 261.145 95.408V103.328H257.977V101.744ZM257.905 97.736L256.417 97.808C255.713 97.84 255.145 97.912 254.713 98.024C254.281 98.136 253.945 98.28 253.705 98.456C253.481 98.616 253.329 98.808 253.249 99.032C253.169 99.256 253.129 99.504 253.129 99.776C253.129 100.192 253.273 100.52 253.561 100.76C253.849 101 254.249 101.12 254.761 101.12C255.625 101.12 256.329 100.92 256.873 100.52C257.177 100.296 257.425 100.016 257.617 99.68C257.809 99.328 257.905 98.896 257.905 98.384V97.736Z" fill="white" fill-opacity="0.5"/>
<path d="M264.014 90.8H267.374V103.328H264.014V90.8ZM263.966 86.192H267.422V89.216H263.966V86.192Z" fill="white" fill-opacity="0.5"/>
<path d="M270.389 86.192H273.749V103.328H270.389V86.192Z" fill="white" fill-opacity="0.5"/>
<path d="M276.5 99.464H279.932V103.328H276.5V99.464Z" fill="white" fill-opacity="0.5"/>
<path fill-rule="evenodd" clip-rule="evenodd" d="M21.5 40.3125C31.8899 40.3125 40.3125 31.8899 40.3125 21.5C40.3125 11.1101 31.8899 2.6875 21.5 2.6875C11.1101 2.6875 2.6875 11.1101 2.6875 21.5C2.6875 31.8899 11.1101 40.3125 21.5 40.3125Z" fill="white"/>
<path fill-rule="evenodd" clip-rule="evenodd" d="M15.4531 21.5C17.3085 21.5 18.8125 19.996 18.8125 18.1406C18.8125 16.2853 17.3085 14.7812 15.4531 14.7812C13.5978 14.7812 12.0938 16.2853 12.0938 18.1406C12.0938 19.996 13.5978 21.5 15.4531 21.5ZM21.5 32.25C17.7271 32.2436 14.2337 30.2598 12.2953 27.0228L14.5931 25.6791C16.0517 28.1012 18.6726 29.5824 21.5 29.5824C24.3274 29.5824 26.9483 28.1012 28.4069 25.6791L30.7047 27.0228C28.7663 30.2598 25.2729 32.2436 21.5 32.25ZM30.9062 18.1406C30.9062 19.996 29.4022 21.5 27.5469 21.5C25.6915 21.5 24.1875 19.996 24.1875 18.1406C24.1875 16.2853 25.6915 14.7812 27.5469 14.7812C29.4022 14.7812 30.9062 16.2853 30.9062 18.1406Z" fill="black"/>
<mask id="mask0" mask-type="alpha" maskUnits="userSpaceOnUse" x="12" y="14" width="19" height="19">
<path fill-rule="evenodd" clip-rule="evenodd" d="M15.4531 21.5C17.3085 21.5 18.8125 19.996 18.8125 18.1406C18.8125 16.2853 17.3085 14.7812 15.4531 14.7812C13.5978 14.7812 12.0938 16.2853 12.0938 18.1406C12.0938 19.996 13.5978 21.5 15.4531 21.5ZM21.5 32.25C17.7271 32.2436 14.2337 30.2598 12.2953 27.0228L14.5931 25.6791C16.0517 28.1012 18.6726 29.5824 21.5 29.5824C24.3274 29.5824 26.9483 28.1012 28.4069 25.6791L30.7047 27.0228C28.7663 30.2598 25.2729 32.2436 21.5 32.25ZM30.9062 18.1406C30.9062 19.996 29.4022 21.5 27.5469 21.5C25.6915 21.5 24.1875 19.996 24.1875 18.1406C24.1875 16.2853 25.6915 14.7812 27.5469 14.7812C29.4022 14.7812 30.9062 16.2853 30.9062 18.1406Z" fill="white"/>
</mask>
<g mask="url(#mask0)">
</g>
<path fill-rule="evenodd" clip-rule="evenodd" d="M21.5 193.312C31.8899 193.312 40.3125 184.89 40.3125 174.5C40.3125 164.11 31.8899 155.688 21.5 155.688C11.1101 155.688 2.6875 164.11 2.6875 174.5C2.6875 184.89 11.1101 193.312 21.5 193.312Z" fill="white"/>
<path fill-rule="evenodd" clip-rule="evenodd" d="M12.0939 175.051L10.1992 173.156L12.8867 170.469L10.1992 167.781L12.0939 165.887L14.7814 168.574L17.4689 165.887L19.3636 167.781L16.6761 170.469L19.3636 173.156L17.4689 175.051L14.7814 172.364L12.0939 175.051ZM21.5002 186.594C23.7266 186.594 25.5314 184.789 25.5314 182.563C25.5314 180.336 23.7266 178.531 21.5002 178.531C19.2738 178.531 17.4689 180.336 17.4689 182.563C17.4689 184.789 19.2738 186.594 21.5002 186.594ZM30.9064 175.051L32.8011 173.156L30.1136 170.469L32.8011 167.781L30.9064 165.887L28.2189 168.574L25.5314 165.887L23.6367 167.781L26.3242 170.469L23.6367 173.156L25.5314 175.051L28.2189 172.364L30.9064 175.051Z" fill="black"/>
<mask id="mask1" mask-type="alpha" maskUnits="userSpaceOnUse" x="10" y="165" width="23" height="22">
<path fill-rule="evenodd" clip-rule="evenodd" d="M12.0939 175.051L10.1992 173.156L12.8867 170.469L10.1992 167.781L12.0939 165.887L14.7814 168.574L17.4689 165.887L19.3636 167.781L16.6761 170.469L19.3636 173.156L17.4689 175.051L14.7814 172.364L12.0939 175.051ZM21.5002 186.594C23.7266 186.594 25.5314 184.789 25.5314 182.563C25.5314 180.336 23.7266 178.531 21.5002 178.531C19.2738 178.531 17.4689 180.336 17.4689 182.563C17.4689 184.789 19.2738 186.594 21.5002 186.594ZM30.9064 175.051L32.8011 173.156L30.1136 170.469L32.8011 167.781L30.9064 165.887L28.2189 168.574L25.5314 165.887L23.6367 167.781L26.3242 170.469L23.6367 173.156L25.5314 175.051L28.2189 172.364L30.9064 175.051Z" fill="white"/>
</mask>
<g mask="url(#mask1)">
</g>
</svg>
