<?xml version="1.0" encoding="UTF-8"?>
<svg width="28px" height="28px" viewBox="0 0 28 28" version="1.1" xmlns="http://www.w3.org/2000/svg" xmlns:xlink="http://www.w3.org/1999/xlink">
    <!-- Generator: Sketch 53 (72520) - https://sketchapp.com -->
    <title>icon/formatting/crop/32</title>
    <desc>Created with Sketch.</desc>
    <defs>
        <path d="M25,20 L23,20 L23,9 L12,9 L12,7 L23,7 C24.1045695,7 25,7.8954305 25,9 L25,20 Z M9,23 L9,2 L7,2 L7,7 L2,7 L2,9 L7,9 L7,23 C7,24.1045695 7.8954305,25 9,25 L23,25 L23,30 L25,30 L25,25 L30,25 L30,23 L9,23 Z" id="path-1"></path>
    </defs>
    <g stroke="none" stroke-width="1" fill="none" fill-rule="evenodd">
        <g transform="translate(-719.000000, -2871.000000)">
            <g transform="translate(717.000000, 2869.000000)">
                <mask id="mask-2" fill="white">
                    <use xlink:href="#path-1"></use>
                </mask>
                <use fill="#000000" fill-rule="evenodd" xlink:href="#path-1"></use>
            </g>
        </g>
    </g>
</svg>