<svg width="64" height="64" viewBox="0 0 64 64" fill="none" xmlns="http://www.w3.org/2000/svg">
<circle cx="32" cy="32" r="32" fill="black"/>
<path fill-rule="evenodd" clip-rule="evenodd" d="M33.34 46.8242C33.215 46.8242 33.094 46.7602 33.028 46.6442C32.928 46.4722 32.987 46.2522 33.16 46.1522L36.858 44.0202L34.376 39.7222C34.305 39.5992 34.313 39.4472 34.395 39.3322L37.966 34.3542C39.948 31.5912 40.997 28.3342 40.997 24.9332V18.6272C40.997 18.3002 40.828 18.0072 40.545 17.8432C40.263 17.6802 39.926 17.6812 39.644 17.8432L34.181 20.9972C31.236 22.6982 28.938 25.2342 27.537 28.3322L25.012 33.9142C24.953 34.0432 24.825 34.1262 24.684 34.1262H19.72L19.722 38.4062C19.722 38.6052 19.561 38.7662 19.362 38.7662C19.163 38.7662 19.002 38.6052 19.002 38.4062L19 33.7662C19 33.6712 19.038 33.5792 19.106 33.5112C19.173 33.4442 19.264 33.4062 19.36 33.4062H24.451L26.881 28.0352C28.344 24.8002 30.744 22.1502 33.82 20.3742L39.283 17.2202C39.791 16.9272 40.397 16.9272 40.905 17.2202C41.414 17.5132 41.717 18.0392 41.717 18.6272V24.9332C41.716 28.4852 40.622 31.8882 38.551 34.7742L35.115 39.5632L37.661 43.9722C37.709 44.0552 37.722 44.1532 37.697 44.2452C37.672 44.3382 37.612 44.4162 37.529 44.4642L33.519 46.7762C33.463 46.8092 33.401 46.8242 33.34 46.8242ZM31.9704 27.7521C32.4284 26.9591 33.2614 26.5151 34.1174 26.5151C34.5364 26.5151 34.9614 26.6221 35.3494 26.8461C36.5304 27.5281 36.9374 29.0441 36.2554 30.2251C35.9254 30.7971 35.3914 31.2071 34.7534 31.3781C34.1134 31.5491 33.4474 31.4601 32.8764 31.1301C32.3044 30.8001 31.8944 30.2671 31.7234 29.6291C31.5524 28.9901 31.6394 28.3241 31.9704 27.7521ZM32.5154 31.7541C33.0084 32.0381 33.5544 32.1831 34.1074 32.1831C34.3854 32.1831 34.6644 32.1471 34.9394 32.0731C35.7634 31.8521 36.4524 31.3241 36.8794 30.5851C37.7594 29.0601 37.2344 27.1031 35.7094 26.2231V26.2221C34.1834 25.3451 32.2274 25.8671 31.3464 27.3911C30.9204 28.1301 30.8064 28.9911 31.0284 29.8151C31.2484 30.6391 31.7774 31.3271 32.5154 31.7541ZM22.3604 45.9744C22.3714 46.1664 22.5304 46.3144 22.7194 46.3144H22.7404C22.9384 46.3024 23.0904 46.1334 23.0794 45.9344C23.0414 45.2624 22.9424 43.4754 23.3744 42.7254L23.4204 42.6474L23.4214 42.6464C23.7494 42.0784 24.2784 41.6724 24.9114 41.5024C25.5401 41.3336 26.1974 41.4193 26.7618 41.7408" fill="white"/>
</svg>
