<svg width="32" height="32" viewBox="0 0 32 32" fill="none" xmlns="http://www.w3.org/2000/svg">
<path fill-rule="evenodd" clip-rule="evenodd" d="M14.0556 3.37451L16.4316 0.999512L18.8066 3.37451L18.2986 3.88451L16.791 2.37691V6.50861H16.072V2.37711L14.5646 3.88451L14.0556 3.37451ZM4.01363 9.75456L7.591 11.82L7.951 11.197L4.37325 9.13133L6.432 8.57991L6.245 7.88491L3 8.75391L3.869 11.9999L4.565 11.8139L4.01363 9.75456ZM4.3742 23.8856L6.432 24.4376L6.245 25.1326L3 24.2636L3.869 21.0186L4.565 21.2036L4.01338 23.2631L7.591 21.1975L7.951 21.8205L4.3742 23.8856ZM28.4886 23.8855L26.4302 24.4376L26.6172 25.1326L29.8622 24.2636L28.9932 21.0186L28.2972 21.2036L28.8487 23.2625L25.2714 21.1971L24.9114 21.8201L28.4886 23.8855ZM24.9114 11.1974L25.2714 11.8204L28.849 9.75484L28.2976 11.8142L28.9926 12.0002L29.8626 8.75421L26.6166 7.88421L26.4306 8.58021L28.4893 9.13163L24.9114 11.1974ZM18.291 31.5086H17.571V24.5086C17.571 24.3576 17.666 24.2216 17.809 24.1696C18.661 23.8626 19.571 23.1596 19.571 22.1096V18.0926C19.571 16.2846 18.192 14.8686 16.431 14.8686C14.67 14.8686 13.291 16.2886 13.291 18.1016V22.1176C13.291 23.1616 14.202 23.8626 15.053 24.1696C15.196 24.2216 15.291 24.3576 15.291 24.5086V31.5086H14.571V24.7536C13.331 24.2256 12.571 23.2336 12.571 22.1176V18.1016C12.571 15.8846 14.267 14.1486 16.431 14.1486C18.596 14.1486 20.291 15.8806 20.291 18.0926V22.1096C20.291 23.2306 19.531 24.2256 18.291 24.7536V31.5086ZM14.7912 10.509C14.7912 9.60401 15.5272 8.86901 16.4312 8.86901C17.3352 8.86901 18.0712 9.60401 18.0712 10.509C18.0712 11.413 17.3352 12.148 16.4312 12.148C15.5272 12.148 14.7912 11.413 14.7912 10.509ZM14.0712 10.509C14.0712 11.81 15.1302 12.869 16.4312 12.869C17.7322 12.869 18.7912 11.81 18.7912 10.509C18.7912 9.20701 17.7322 8.14801 16.4312 8.14801C15.1302 8.14801 14.0712 9.20701 14.0712 10.509Z" fill="white"/>
</svg>
