<svg width="64" height="64" viewBox="0 0 64 64" fill="none" xmlns="http://www.w3.org/2000/svg">
<circle cx="32" cy="32" r="32" fill="black"/>
<path fill-rule="evenodd" clip-rule="evenodd" d="M32.36 47.005C24.287 47.005 17.72 40.437 17.72 32.362C17.72 24.289 24.287 17.721 32.36 17.721C40.433 17.721 47 24.289 47 32.362C47 40.437 40.433 47.005 32.36 47.005M32.36 17C23.89 17 17 23.892 17 32.362C17 40.833 23.89 47.726 32.36 47.726C40.83 47.726 47.72 40.833 47.72 32.362C47.72 23.892 40.83 17 32.36 17M32.36 42.004C27.045 42.004 22.72 37.679 22.72 32.362C22.72 27.046 27.045 22.722 32.36 22.722C37.675 22.722 42 27.046 42 32.362C42 37.679 37.675 42.004 32.36 42.004M32.36 22.001C26.648 22.001 22 26.65 22 32.362C22 38.076 26.648 42.725 32.36 42.725C38.072 42.725 42.72 38.076 42.72 32.362C42.72 26.65 38.072 22.001 32.36 22.001M32.36 37.003C29.801 37.003 27.72 34.921 27.72 32.362C27.72 29.804 29.801 27.722 32.36 27.722C34.919 27.722 37 29.804 37 32.362C37 34.921 34.919 37.003 32.36 37.003M32.36 27.001C29.404 27.001 27 29.406 27 32.362C27 35.318 29.404 37.724 32.36 37.724C35.316 37.724 37.72 35.318 37.72 32.362C37.72 29.406 35.316 27.001 32.36 27.001M32.36 31.3624C31.808 31.3624 31.36 31.8104 31.36 32.3624C31.36 32.9154 31.808 33.3624 32.36 33.3624C32.912 33.3624 33.36 32.9154 33.36 32.3624C33.36 31.8104 32.912 31.3624 32.36 31.3624" fill="white"/>
</svg>
