<?xml version="1.0" encoding="UTF-8"?>
<svg width="44px" height="39px" viewBox="0 0 44 39" version="1.1" xmlns="http://www.w3.org/2000/svg" xmlns:xlink="http://www.w3.org/1999/xlink">
    <!-- Generator: Sketch 53 (72520) - https://sketchapp.com -->
    <title>folder-icon</title>
    <desc>Created with Sketch.</desc>
    <defs>
        <path d="M16.3631397,9.37125001 C16.8613937,9.37208348 17.329556,9.60981758 17.6241975,10.0116188 L20.7859011,14.3380125 L21.7217766,15.61875 L43.4922837,15.61875 C43.6355637,15.6336321 43.741567,15.7589337 43.7325001,15.9026989 L43.7325001,40.3248012 C43.741567,40.4685664 43.6355637,40.593868 43.4922837,40.6087501 L6.48771639,40.6087501 C6.34443633,40.593868 6.23843309,40.4685664 6.24750001,40.3248012 L6.24750001,9.65519889 C6.23843309,9.51143367 6.34443633,9.38613204 6.48771639,9.37125001 L16.3631397,9.37125001 L16.3631397,9.37125001 Z M16.3631397,6.24750001 L6.48771639,6.24750001 C4.61782882,6.25970955 3.11180747,7.7853096 3.12375,9.65519889 L3.12375,40.3248012 C3.11180747,42.1946905 4.61782882,43.7202905 6.48771639,43.7325001 L43.4922837,43.7325001 C45.3621713,43.7202905 46.8681926,42.1946905 46.8562501,40.3248012 L46.8562501,15.9026989 C46.8681926,14.0328096 45.3621713,12.5072096 43.4922837,12.495 L23.3080168,12.495 L20.1463133,8.16860626 C19.2640505,6.96124716 17.8585004,6.24750486 16.3631397,6.24750001 Z" id="path-1"></path>
    </defs>
    <g stroke="none" stroke-width="1" fill="none" fill-rule="evenodd">
        <g transform="translate(-1782.000000, -1010.000000)">
            <g transform="translate(232.000000, 330.000000)">
                <g>
                    <g transform="translate(453.320001, 670.140001)">
                        <g>
                            <g transform="translate(1093.679999, 0.000000)">
                                <g transform="translate(0.000000, 4.590000)">
                                    <mask id="mask-2" fill="white">
                                        <use xlink:href="#path-1"></use>
                                    </mask>
                                    <use fill="#000000" fill-rule="evenodd" xlink:href="#path-1"></use>
                                </g>
                            </g>
                        </g>
                    </g>
                </g>
            </g>
        </g>
    </g>
</svg>