<?xml version="1.0" encoding="UTF-8"?>
<svg width="24px" height="24px" viewBox="0 0 24 24" version="1.1" xmlns="http://www.w3.org/2000/svg" xmlns:xlink="http://www.w3.org/1999/xlink">
    <!-- Generator: Sketch 53 (72520) - https://sketchapp.com -->
    <title>icon/formatting/image/32</title>
    <desc>Created with Sketch.</desc>
    <defs>
        <path d="M19,14 C17.3431458,14 16,12.6568542 16,11 C16,9.34314575 17.3431458,8 19,8 C20.6568542,8 22,9.34314575 22,11 C22,11.7956495 21.6839295,12.5587112 21.1213203,13.1213203 C20.5587112,13.6839295 19.7956495,14 19,14 L19,14 Z M19,10 C18.4477153,10 18,10.4477153 18,11 C18,11.5522847 18.4477153,12 19,12 C19.5522847,12 20,11.5522847 20,11 C20,10.4477153 19.5522847,10 19,10 Z M26.15,4 L5.85,4 C4.82827321,4 4,4.82827321 4,5.85 L4,26.15 C4,26.6406505 4.19491015,27.1112052 4.54185245,27.4581475 C4.88879475,27.8050898 5.35934949,28 5.85,28 L26.15,28 C26.6406505,28 27.1112052,27.8050898 27.4581475,27.4581475 C27.8050898,27.1112052 28,26.6406505 28,26.15 L28,5.85 C28,4.82827321 27.1717268,4 26.15,4 Z M26,6 L26,21.33 L22.26,17.59 C21.8848635,17.2144459 21.3758185,17.0034267 20.845,17.0034267 C20.3141815,17.0034267 19.8051365,17.2144459 19.43,17.59 L18,19.05 L12.5,13.59 C12.1248635,13.2144459 11.6158185,13.0034267 11.085,13.0034267 C10.5541815,13.0034267 10.0451365,13.2144459 9.67,13.59 L6,17.26 L6,6 L26,6 Z M6,26 L6,20.08 L11.08,15 L11.08,15 L16.55,20.47 C16.9251365,20.8455541 17.4341815,21.0565733 17.965,21.0565733 C18.4958185,21.0565733 19.0048635,20.8455541 19.38,20.47 L20.84,19 L20.84,19 L26,24.16 L26,26 L6,26 Z" id="path-1"></path>
    </defs>
    <g stroke="none" stroke-width="1" fill="none" fill-rule="evenodd">
        <g transform="translate(-362.000000, -2876.000000)">
            <g transform="translate(358.000000, 2866.000000)">
                <g transform="translate(0.000000, 4.000000)">
                    <g transform="translate(0.000000, 2.000000)">
                        <mask id="mask-2" fill="white">
                            <use xlink:href="#path-1"></use>
                        </mask>
                        <use fill="#000000" fill-rule="evenodd" xlink:href="#path-1"></use>
                    </g>
                </g>
            </g>
        </g>
    </g>
</svg>