<?xml version="1.0" encoding="UTF-8"?>
<svg width="601px" height="206px" viewBox="0 0 601 206" version="1.1" xmlns="http://www.w3.org/2000/svg" xmlns:xlink="http://www.w3.org/1999/xlink">
    <!-- Generator: Sketch 53 (72520) - https://sketchapp.com -->
    <title>invision-logo-vector</title>
    <desc>Created with Sketch.</desc>
    <g stroke="none" stroke-width="1" fill="none" fill-rule="evenodd">
        <g fill-rule="nonzero">
            <path d="M182.036897,0.805894 L18.336897,0.805894 C8.336897,0.805894 0.236897,9.205894 0.236897,19.405894 L0.236897,187.305894 C0.236897,197.505894 8.436897,205.905894 18.336897,205.905894 L182.036897,205.905894 C192.036897,205.905894 200.136897,197.505894 200.136897,187.305894 L200.136897,19.405894 C200.136897,9.205894 191.936897,0.805894 182.036897,0.805894 Z" fill="#FF3366"></path>
            <path d="M281.736897,161.105894 L301.036897,161.105894 L301.036897,74.205894 L281.736897,74.205894 L281.736897,161.105894 Z M352.336897,109.705894 C342.436897,106.505894 333.336897,103.705894 333.336897,97.505894 L333.336897,97.205894 C333.336897,92.105894 337.636897,88.505894 345.236897,88.505894 C348.836897,88.505894 352.936897,89.405894 357.236897,90.905894 C357.236897,90.905894 357.236897,90.905894 357.436897,90.905894 C357.736897,91.105894 358.136897,91.205894 358.636897,91.405894 C361.736897,92.405894 369.836897,93.805894 376.936897,82.605894 C368.036897,76.505894 356.536897,72.705894 345.936897,72.705894 C329.136897,72.705894 315.936897,82.705894 315.936897,99.205894 L315.936897,99.505894 C315.936897,116.205894 329.736897,121.405894 342.336897,125.005894 C352.236897,128.105894 361.136897,130.405894 361.136897,137.205894 L361.136897,137.505894 C361.136897,143.305894 356.336897,146.905894 348.136897,146.905894 C342.736897,146.905894 336.636897,145.405894 330.536897,142.505894 C328.736897,141.805894 319.836897,138.605894 312.036897,149.805894 C322.536897,158.305894 335.636897,162.705894 347.636897,162.705894 C365.136897,162.705894 378.936897,153.705894 378.936897,135.305894 L378.936897,135.105894 C378.536897,119.405894 364.636897,113.705894 352.336897,109.705894 Z M229.236897,138.005894 L206.636897,74.005894 L185.836897,74.005894 L220.436897,161.605894 L237.736897,161.605894 L272.136897,74.205894 L251.836897,74.205894 L229.236897,138.005894 Z M468.136897,72.305894 C442.236897,72.305894 423.136897,92.905894 423.136897,117.905894 C423.136897,142.705894 442.136897,163.005894 467.836897,163.005894 C493.836897,163.005894 513.036897,142.405894 513.036897,117.605894 C512.936897,92.605894 493.836897,72.305894 468.136897,72.305894 Z M468.136897,145.805894 C453.136897,145.805894 442.436897,133.005894 442.436897,117.605894 C442.436897,102.305894 452.336897,89.705894 467.836897,89.705894 C483.036897,89.705894 493.736897,102.505894 493.736897,117.905894 C493.536897,133.205894 483.636897,145.805894 468.136897,145.805894 Z M570.136897,72.305894 C557.136897,72.305894 549.236897,79.405894 543.736897,87.605894 L543.736897,74.205894 L524.436897,74.205894 L524.436897,161.105894 L543.736897,161.105894 L543.736897,112.005894 C543.736897,98.605894 551.436897,90.405894 562.736897,90.405894 C574.236897,90.405894 580.736897,98.105894 580.736897,111.705894 L580.736897,161.005894 L600.136897,161.005894 L600.136897,105.905894 C600.136897,85.605894 589.136897,72.305894 570.136897,72.305894 Z M391.236897,161.105894 L410.536897,161.105894 L410.536897,74.205894 L391.236897,74.205894 L391.236897,161.105894 Z" fill="#FF3366"></path>
            <path d="M69.236897,62.805894 C75.736897,62.805894 81.136897,57.605894 81.136897,50.905894 C81.136897,44.105894 75.736897,39.005894 69.236897,39.005894 C62.736897,39.005894 57.336897,44.205894 57.336897,50.905894 C57.336897,57.605894 62.736897,62.805894 69.236897,62.805894 Z" fill="#FFFFFF"></path>
            <path d="M43.436897,131.605894 C42.736897,134.705894 42.236897,137.905894 42.236897,140.505894 C42.236897,151.105894 48.036897,158.105894 60.536897,158.105894 C70.836897,158.105894 79.136897,152.105894 85.136897,142.505894 L81.436897,157.005894 L101.936897,157.005894 L113.636897,111.105894 C116.636897,99.605894 122.336897,93.405894 130.736897,93.405894 C137.536897,93.405894 141.736897,97.505894 141.736897,104.305894 C141.736897,106.305894 141.536897,108.405894 140.936897,110.805894 L134.936897,131.905894 C134.136897,135.005894 133.636897,137.905894 133.636897,140.805894 C133.636897,150.905894 139.636897,158.205894 152.236897,158.205894 C163.036897,158.205894 171.736897,151.405894 176.336897,135.105894 L168.336897,132.005894 C164.336897,142.905894 160.836897,144.805894 158.036897,144.805894 C155.336897,144.805894 153.836897,143.005894 153.836897,139.405894 C153.836897,137.805894 154.136897,136.005894 154.636897,133.905894 L160.836897,113.405894 C162.336897,108.505894 162.836897,104.305894 162.836897,100.405894 C162.836897,85.005894 153.336897,77.005894 141.836897,77.005894 C131.036897,77.005894 120.036897,86.405894 114.536897,96.505894 L118.536897,78.505894 L87.236897,78.505894 L82.736897,94.305894 L97.336897,94.305894 L88.336897,129.605894 C81.136897,145.005894 68.236897,145.205894 66.736897,144.905894 C64.036897,144.205894 62.436897,143.305894 62.436897,139.905894 C62.436897,137.905894 62.736897,135.205894 63.736897,131.805894 L77.336897,78.705894 L42.736897,78.705894 L38.236897,94.505894 L52.736897,94.505894 L43.436897,131.605894 Z" fill="#FFFFFF"></path>
        </g>
    </g>
</svg>