<?xml version="1.0" encoding="UTF-8"?>
<svg width="124px" height="50px" viewBox="0 0 124 50" version="1.1" xmlns="http://www.w3.org/2000/svg" xmlns:xlink="http://www.w3.org/1999/xlink">
    <!-- Generator: Sketch 57.1 (83088) - https://sketch.com -->
    <title>istock-logo-2015</title>
    <desc>Created with Sketch.</desc>
    <defs>
        <polygon id="path-1" points="0.0290657439 0.415723982 123.393772 0.415723982 123.393772 30.7241403 0.0290657439 30.7241403"></polygon>
    </defs>
    <g stroke="none" stroke-width="1" fill="none" fill-rule="evenodd">
        <g>
            <g>
                <mask id="mask-2" fill="white">
                    <use xlink:href="#path-1"></use>
                </mask>
                <g></g>
                <path d="M0.859377163,30.3041403 L6.43612457,30.3041403 L6.43612457,9.88520362 L0.859377163,9.88520362 L0.859377163,30.3041403 Z M11.7890657,22.431991 C13.5078201,24.2830317 16.1247059,25.674638 18.8714187,25.674638 C21.447128,25.674638 23.2496886,24.1138914 23.2496886,21.9682805 C23.2496886,18.1811538 17.6710035,17.7174434 13.6366782,15.4036425 C11.2765398,14.0557466 9.38484429,12.0336652 9.38484429,8.70644796 C9.38484429,3.44599548 14.3260208,0.415723982 19.3020761,0.415723982 C22.3476817,0.415723982 25.1806228,1.13219457 28.0155017,3.19608597 L25.0120415,7.40226244 C23.8077509,6.30950226 21.7901038,5.47045249 19.8146021,5.47045249 C17.6283737,5.47045249 15.1815225,6.39264706 15.1815225,8.66606335 C15.1815225,13.4247964 29.0449135,11.9476697 29.0449135,21.886086 C29.0449135,27.1037783 24.2791003,30.7241403 18.8714187,30.7241403 C14.8390311,30.7241403 11.1045675,29.085 8.01294118,26.3022624 L11.7890657,22.431991 Z M46.3763322,30.3041403 C45.6482353,30.5559502 43.9706574,30.7241403 42.9000692,30.7241403 C39.5502422,30.7241403 37.1062976,29.6280543 35.6874048,27.7770136 C34.617301,26.3882579 34.1425606,24.5814027 34.1425606,21.6737104 L34.1425606,14.5166063 L28.3473356,14.5166063 L28.3473356,9.88662896 L34.1425606,9.88662896 L34.1425606,4.20427602 L39.722699,4.20427602 L39.722699,9.88662896 L46.5899654,9.88662896 L46.5899654,14.5166063 L39.722699,14.5166063 L39.722699,22.30181 C39.722699,23.570362 39.9353633,24.3234163 40.4105882,24.8735973 C40.9662284,25.5069231 41.8653287,25.8832127 43.2401384,25.8832127 C44.0568858,25.8832127 45.1332872,25.7592081 45.516955,25.674638 L46.3763322,30.3041403 Z M58.7491349,9.46472851 C65.0554325,9.46472851 69.8217301,14.2234615 69.8217301,20.1172398 C69.8217301,26.0091176 65.0554325,30.7241403 58.7491349,30.7241403 C52.4423529,30.7241403 47.6741176,26.0091176 47.6741176,20.1172398 C47.6741176,14.2234615 52.4423529,9.46472851 58.7491349,9.46472851 L58.7491349,9.46472851 Z M58.7491349,25.674638 C62.0112803,25.674638 64.2401384,23.1888462 64.2401384,20.1172398 C64.2401384,17.0442081 62.0112803,14.5166063 58.7491349,14.5166063 C55.4869896,14.5166063 53.2566782,17.0442081 53.2566782,20.1172398 C53.2566782,23.1888462 55.4869896,25.674638 58.7491349,25.674638 L58.7491349,25.674638 Z M91.8555017,26.1359729 C89.4057439,29.3363348 86.3136332,30.7241403 82.4115571,30.7241403 C75.9744637,30.7241403 71.2512803,26.0091176 71.2512803,20.1172398 C71.2512803,14.1816516 76.1018685,9.46472851 82.4537024,9.46472851 C86.0612457,9.46472851 89.2783391,11.1100452 91.2097578,13.5488009 L87.2616609,16.9577376 C86.1465052,15.5276471 84.4752249,14.5166063 82.4537024,14.5166063 C79.236609,14.5166063 76.8323875,17.0038235 76.8323875,20.1172398 C76.8323875,23.3152262 79.1939792,25.674638 82.5835294,25.674638 C84.8574394,25.674638 86.6590311,24.3234163 87.5620069,22.9793213 L91.8555017,26.1359729 Z M104.404637,19.0634389 L115.86526,30.3041403 L108.352249,30.3041403 L99.553564,21.4613348 L99.553564,30.3041403 L93.9753633,30.3041403 L93.9753633,0.836674208 L99.553564,0.836674208 L99.553564,16.4983032 L106.71827,9.88662896 L114.579585,9.88662896 L104.404637,19.0634389 Z M0,3.99427602 C0,2.0168552 1.6349481,0.415723982 3.64968858,0.415723982 C5.66394464,0.415723982 7.29550173,2.0168552 7.29550173,3.99427602 C7.29550173,5.96837104 5.66394464,7.57282805 3.64968858,7.57282805 C1.6349481,7.57282805 0,5.96837104 0,3.99427602 L0,3.99427602 Z M116.101661,27.1455882 C116.101661,25.1714932 117.732734,23.570362 119.749412,23.570362 C121.762699,23.570362 123.393772,25.1714932 123.393772,27.1455882 C123.393772,29.1215837 121.762699,30.7241403 119.749412,30.7241403 C117.732734,30.7241403 116.101661,29.1215837 116.101661,27.1455882 L116.101661,27.1455882 Z" fill="#1A1919" mask="url(#mask-2)"></path>
            </g>
            <path d="M1.48655496,45.932844 L2.60761222,45.932844 L2.60761222,38.1668235 L1.47058824,38.1668235 L1.47058824,36.9715678 L3.90769028,36.9715678 L3.90769028,40.4331211 C4.67360898,39.6196899 5.55952001,39.2325488 6.65299839,39.2325488 C8.97494652,39.2325488 10.6364531,41.0029579 10.6364531,43.2702222 C10.6364531,45.5602026 8.94107772,47.3214286 6.60800127,47.3214286 C5.55952001,47.3214286 4.74134658,46.9502372 3.93188228,46.1276228 L3.93188228,47.1517825 L1.48655496,47.1517825 L1.48655496,45.932844 Z M6.58332543,40.4872532 C5.14341762,40.4872532 3.90769028,41.6771923 3.90769028,43.3127545 C3.90769028,44.8458525 5.14341762,46.0599577 6.56493952,46.0599577 C8.01404029,46.0599577 9.24589691,44.9028845 9.24589691,43.2426728 C9.24589691,41.6336934 8.01404029,40.4872532 6.58332543,40.4872532 L6.58332543,40.4872532 Z M12.3226354,48.4267864 L13.527397,48.4267864 L14.132197,46.9202712 L11.634615,40.6317665 L10.6170995,40.6317665 L10.6170995,39.4166946 L14.056718,39.4166946 L14.056718,40.6317665 L12.9937215,40.6317665 L14.8008639,45.2252603 L16.6210699,40.6317665 L15.5633957,40.6317665 L15.5633957,39.4166946 L18.9880152,39.4166946 L18.9880152,40.6317665 L17.9850149,40.6317665 L14.8874712,48.4267864 L15.9601445,48.4267864 L15.9601445,49.6394417 L12.3226354,49.6394417 L12.3226354,48.4267864 Z M27.0550794,42.0512837 L33.2467797,42.0512837 L33.2467797,47.1517825 L32.1470114,47.1517825 L32.1470114,45.544253 C31.0259542,46.7636748 29.7471651,47.3523612 28.2080701,47.3523612 C25.1526205,47.3523612 22.9864689,44.968133 22.9864689,41.9918351 C22.9864689,39.2412486 25.1966499,36.7647059 28.3406422,36.7647059 C29.5163734,36.7647059 30.4526038,37.093365 31.4454434,37.8275313 L31.4454434,36.9715678 L32.5582754,36.9715678 L32.5582754,39.7013713 L31.2978722,39.7013713 C30.4211542,38.6863948 29.4655702,38.1934062 28.2612925,38.1934062 C26.0830448,38.1934062 24.4747607,39.9599487 24.4747607,42.0363007 C24.4747607,44.2697324 26.1386864,45.9444437 28.2429065,45.9444437 C29.8255471,45.9444437 31.2451337,44.9028845 31.71591,43.2784387 L27.0550794,43.2784387 L27.0550794,42.0512837 Z M42.2732986,44.7013391 C41.6152762,46.3900668 40.194722,47.3335116 38.4911214,47.3335116 C36.2252987,47.3335116 34.4486383,45.544253 34.4486383,43.2929383 C34.4486383,40.9932915 36.3244859,39.2083827 38.4485435,39.2083827 C40.711947,39.2083827 42.5186055,40.9720253 42.5186055,43.352387 C42.5186055,43.4674176 42.5186055,43.6109643 42.4910266,43.7951101 L35.8658056,43.7951101 C36.0806306,45.1735449 37.1765282,46.0759074 38.474187,46.0759074 C39.4529953,46.0759074 40.2808455,45.602735 40.7545249,44.7013391 L42.2732986,44.7013391 Z M41.0874068,42.6965188 C40.7400097,41.2639519 39.7636206,40.4461708 38.4911214,40.4461708 C37.2016878,40.4461708 36.1203054,41.3209839 35.8658056,42.6965188 L41.0874068,42.6965188 Z M44.1225351,40.6134003 L42.9289018,40.6134003 L42.9289018,39.4166946 L44.1225351,39.4166946 L44.1225351,36.9715678 L45.4255162,36.9715678 L45.4255162,39.4166946 L46.5717331,39.4166946 L46.5717331,40.6134003 L45.4255162,40.6134003 L45.4255162,45.932844 L46.5717331,45.932844 L46.5717331,47.1517825 L44.1225351,47.1517825 L44.1225351,40.6134003 Z M48.4625798,40.6134003 L47.2747526,40.6134003 L47.2747526,39.4166946 L48.4625798,39.4166946 L48.4625798,36.9715678 L49.7689478,36.9715678 L49.7689478,39.4166946 L50.9088748,39.4166946 L50.9088748,40.6134003 L49.7689478,40.6134003 L49.7689478,45.932844 L50.9088748,45.932844 L50.9088748,47.1517825 L48.4625798,47.1517825 L48.4625798,40.6134003 Z M53.3871033,48.4267864 L54.5928325,48.4267864 L55.1976325,46.9202712 L52.6981151,40.6317665 L51.6835026,40.6317665 L51.6835026,39.4166946 L55.123605,39.4166946 L55.123605,40.6317665 L54.0596408,40.6317665 L55.8648479,45.2252603 L57.6932792,40.6317665 L56.6278635,40.6317665 L56.6278635,39.4166946 L60.061676,39.4166946 L60.061676,40.6317665 L59.0533534,40.6317665 L55.9514552,48.4267864 L57.0338053,48.4267864 L57.0338053,49.6394417 L53.3871033,49.6394417 L53.3871033,48.4267864 Z M63.9827153,45.9197943 L65.1158685,45.9197943 L65.1158685,38.1934062 L63.9827153,38.1934062 L63.9827153,36.9715678 L67.6976387,36.9715678 L67.6976387,38.1934062 L66.5330359,38.1934062 L66.5330359,45.9197943 L67.6976387,45.9197943 L67.6976387,47.1517825 L63.9827153,47.1517825 L63.9827153,45.9197943 Z M68.785311,45.932844 L69.8865308,45.932844 L69.8865308,40.6134003 L68.7959555,40.6134003 L68.7959555,39.4166946 L71.1759644,39.4166946 L71.1759644,40.5152859 C71.6510953,39.6825218 72.3226652,39.2895809 73.2855068,39.2895809 C74.41866,39.2895809 75.2440911,39.829935 75.7158351,40.828962 C76.3182159,39.772903 77.0560718,39.2750812 78.098747,39.2750812 C80.0089473,39.2750812 80.8822785,40.6612492 80.8822785,42.5776215 L80.8822785,45.932844 L81.999465,45.932844 L81.999465,47.1517825 L78.4703361,47.1517825 L78.4703361,45.932844 L79.5739752,45.932844 L79.5739752,42.5056065 C79.5739752,41.2030533 78.9744974,40.5032028 77.902308,40.5032028 C76.668516,40.5032028 76.0080744,41.4176483 76.0080744,43.2426728 L76.0080744,45.932844 L77.1300994,45.932844 L77.1300994,47.1517825 L73.6280655,47.1517825 L73.6280655,45.932844 L74.7447682,45.932844 L74.7447682,43.3668866 C74.7447682,41.5515286 74.5430069,40.5032028 73.0227817,40.5032028 C71.8499535,40.5032028 71.1759644,41.4176483 71.1759644,43.2426728 L71.1759644,45.932844 L72.2984732,45.932844 L72.2984732,47.1517825 L68.785311,47.1517825 L68.785311,45.932844 Z M89.1075584,46.1276228 C88.2898688,46.9502372 87.4702438,47.3214286 86.4353101,47.3214286 C84.0872346,47.3214286 82.4073422,45.5602026 82.4073422,43.2702222 C82.4073422,41.0029579 84.0291738,39.2412486 86.3820877,39.2412486 C87.4862106,39.2412486 88.3672832,39.600357 89.139008,40.4331211 L89.139008,39.4166946 L91.5272422,39.4166946 L91.5272422,40.6134003 L90.4284416,40.6134003 L90.4284416,45.9197943 L91.5403059,45.9197943 L91.5403059,47.1517825 L89.1075584,47.1517825 L89.1075584,46.1276228 Z M86.4565991,40.4872532 C85.0215296,40.4872532 83.7877377,41.6336934 83.7877377,43.2426728 C83.7877377,44.9028845 85.0215296,46.0599577 86.4648243,46.0599577 C87.8815078,46.0599577 89.117719,44.8550356 89.117719,43.3127545 C89.117719,41.6771923 87.8815078,40.4872532 86.4565991,40.4872532 L86.4565991,40.4872532 Z M94.1462681,47.6065886 C94.4191538,48.4267864 95.1487845,48.8651596 96.2393599,48.8651596 C97.6192715,48.8651596 98.7785521,47.8767657 98.8341937,46.4480654 L98.8477413,46.0599577 C98.0755326,46.9202712 97.2263934,47.3045123 96.1571071,47.3045123 C93.862254,47.3045123 92.1722009,45.5737356 92.1722009,43.2702222 C92.1722009,41.0488735 93.8066124,39.2325488 96.1121099,39.2325488 C97.2263934,39.2325488 98.1181106,39.6312896 98.8661272,40.5032028 L98.8661272,39.4166946 L101.256781,39.4166946 L101.256781,40.6317665 L100.156045,40.6317665 L100.156045,45.8801619 C100.156045,48.5369838 98.6193688,50 96.2393599,50 C94.35819,50 93.1321394,49.1981685 92.6308812,47.6065886 L94.1462681,47.6065886 Z M98.8661272,43.3243543 C98.8661272,41.693142 97.6434635,40.4872532 96.2103295,40.4872532 C94.7825176,40.4872532 93.5463065,41.6472264 93.5463065,43.2542726 C93.5463065,44.9294672 94.793646,46.0759074 96.2103295,46.0759074 C97.629916,46.0759074 98.8661272,44.8550356 98.8661272,43.3243543 L98.8661272,43.3243543 Z M109.572539,44.7013391 C108.912097,46.3900668 107.49493,47.3335116 105.786491,47.3335116 C103.520184,47.3335116 101.73675,45.544253 101.73675,43.2929383 C101.73675,40.9932915 103.620823,39.2083827 105.743913,39.2083827 C108.009735,39.2083827 109.816878,40.9720253 109.816878,43.352387 C109.816878,43.4674176 109.816878,43.6109643 109.790267,43.7951101 L103.159239,43.7951101 C103.379387,45.1735449 104.469962,46.0759074 105.772943,46.0759074 C106.749332,46.0759074 107.580085,45.602735 108.04941,44.7013391 L109.572539,44.7013391 Z M108.381324,42.6965188 C108.038766,41.2639519 107.062377,40.4461708 105.786491,40.4461708 C104.497057,40.4461708 103.419545,41.3209839 103.159239,42.6965188 L108.381324,42.6965188 Z M110.615214,44.7148721 L111.90755,44.7148721 C111.90755,45.4596716 112.552025,46.2083376 113.512448,46.2083376 C114.327234,46.2083376 114.807203,45.772381 114.807203,45.0261316 C114.807203,44.2006174 114.186437,43.8956411 112.825395,43.6215974 C111.090345,43.2702222 110.718755,42.3678597 110.718755,41.4311814 C110.718755,40.1426445 111.628858,39.1977497 113.095861,39.1977497 C113.730659,39.1977497 114.226595,39.4166946 114.645601,39.8695675 L114.645601,39.4002616 L115.720209,39.4002616 L115.720209,41.4611473 L114.526092,41.4611473 C114.34562,40.7047482 113.913551,40.3630394 113.181017,40.3630394 C112.467353,40.3630394 112.063831,40.7168312 112.063831,41.3209839 C112.063831,42.1779141 112.764431,42.339827 113.972096,42.6472199 C115.476354,43.0532105 116.176471,43.682496 116.176471,44.9439669 C116.176471,46.3900668 115.168148,47.3523612 113.568573,47.3523612 C112.836039,47.3523612 112.279139,47.1213332 111.790945,46.5887122 L111.790945,47.1614489 L110.615214,47.1614489 L110.615214,44.7148721 L110.615214,44.7148721 Z" fill="#1A1919"></path>
            <polyline fill="#1A1919" points="119.117647 36.7647059 119.117647 37.2686555 118.57939 37.2686555 118.57939 39.7058824 118.185316 39.7058824 118.185316 37.2686555 117.647059 37.2686555 117.647059 36.7647059 119.117647 36.7647059"></polyline>
            <polyline fill="#1A1919" points="120.587976 38.525156 121.6574 36.7647059 122.058824 36.7647059 122.058824 39.7058824 121.489363 39.7058824 121.489363 38.0668784 120.784538 39.2226928 120.38882 39.2226928 119.686589 38.0668784 119.686589 39.7058824 119.117647 39.7058824 119.117647 36.7647059 119.51544 36.7647059 120.587976 38.525156"></polyline>
        </g>
    </g>
</svg>