<svg width="64" height="64" viewBox="0 0 64 64" fill="none" xmlns="http://www.w3.org/2000/svg">
<circle cx="32" cy="32" r="32" fill="black"/>
<path fill-rule="evenodd" clip-rule="evenodd" d="M21.3606 18.72C20.1806 18.72 19.2206 19.68 19.2206 20.86C19.2206 22.04 20.1806 23 21.3606 23C22.5406 23 23.5006 22.04 23.5006 20.86C23.5006 19.68 22.5406 18.72 21.3606 18.72ZM21.3606 23.72C19.7836 23.72 18.5006 22.437 18.5006 20.86C18.5006 19.283 19.7836 18 21.3606 18C22.9376 18 24.2206 19.283 24.2206 20.86C24.2206 22.437 22.9376 23.72 21.3606 23.72ZM23.721 46.3601H23.001V37.1901C23.001 37.0381 23.096 36.9031 23.239 36.8511C24.375 36.4421 25.001 35.5671 25.001 34.3891V29.7021C25.001 27.5061 23.368 25.7201 21.361 25.7201C19.353 25.7201 17.72 27.5111 17.72 29.7131V34.4001C17.72 35.5701 18.346 36.4411 19.483 36.8521C19.626 36.9031 19.721 37.0381 19.721 37.1901V46.3601H19.001V37.4351C17.725 36.8841 17 35.7911 17 34.4001V29.7131C17 27.1141 18.956 25.0001 21.361 25.0001C23.765 25.0001 25.721 27.1091 25.721 29.7021V34.3891C25.721 35.7871 24.996 36.8831 23.721 37.4351V46.3601ZM45.0015 46.3601H45.7215V37.4351C46.9965 36.8831 47.7215 35.7871 47.7215 34.3891V29.7021C47.7215 27.1091 45.7655 25.0001 43.3615 25.0001C40.9565 25.0001 39.0005 27.1141 39.0005 29.7131V34.4001C39.0005 35.7911 39.7265 36.8841 41.0015 37.4351V46.3601H41.7215V37.1901C41.7215 37.0381 41.6265 36.9031 41.4835 36.8521C40.3465 36.4411 39.7205 35.5701 39.7205 34.4001V29.7131C39.7205 27.5111 41.3535 25.7201 43.3615 25.7201C45.3685 25.7201 47.0015 27.5061 47.0015 29.7021V34.3891C47.0015 35.5671 46.3755 36.4421 45.2395 36.8511C45.0965 36.9031 45.0015 37.0381 45.0015 37.1901V46.3601ZM43.3611 18.72C42.1811 18.72 41.2211 19.68 41.2211 20.86C41.2211 22.04 42.1811 23 43.3611 23C44.5411 23 45.5011 22.04 45.5011 20.86C45.5011 19.68 44.5411 18.72 43.3611 18.72ZM43.3611 23.72C41.7841 23.72 40.5011 22.437 40.5011 20.86C40.5011 19.283 41.7841 18 43.3611 18C44.9381 18 46.2211 19.283 46.2211 20.86C46.2211 22.437 44.9381 23.72 43.3611 23.72ZM34.9854 34.2266L35.4944 34.7356L37.8704 32.3606L35.4944 29.9846L34.9854 30.4926L36.4913 32.0001H28.2309L29.7368 30.4926L29.2278 29.9846L26.8518 32.3606L29.2278 34.7356L29.7368 34.2266L28.2303 32.7201H36.4919L34.9854 34.2266Z" fill="white"/>
</svg>
