<svg width="64" height="64" viewBox="0 0 64 64" fill="none" xmlns="http://www.w3.org/2000/svg">
<circle cx="32" cy="32" r="32" fill="black"/>
<path fill-rule="evenodd" clip-rule="evenodd" d="M47.36 17H30.36C30.161 17 30 17.161 30 17.36V23.728H25.082C25.828 23.001 26.263 22.001 26.263 20.932C26.263 18.764 24.505 17 22.343 17C20.181 17 18.422 18.764 18.422 20.932C18.422 22.155 18.992 23.288 19.945 24.025C18.159 24.93 17 26.766 17 28.788V31.36H17.72V28.788C17.72 26.837 18.97 25.084 20.83 24.429C20.965 24.381 21.059 24.258 21.069 24.114C21.079 23.972 21.004 23.836 20.877 23.77C19.807 23.211 19.142 22.124 19.142 20.932C19.142 19.161 20.578 17.721 22.343 17.721C24.108 17.721 25.544 19.161 25.544 20.932C25.544 22.123 24.879 23.21 23.81 23.769C23.663 23.846 23.587 24.013 23.627 24.174C23.666 24.335 23.811 24.448 23.976 24.448H30.4H31.36H33.4C33.753 24.448 34.04 24.735 34.04 25.088C34.04 25.44 33.753 25.728 33.4 25.728H26.36C26.161 25.728 26 25.889 26 26.088V31.36H26.72V26.448H33.4C34.15 26.448 34.759 25.838 34.759 25.088C34.759 24.338 34.15 23.728 33.4 23.728H31.36H30.72V17.721H47V31H32.377V31.721H47.36C47.559 31.721 47.72 31.56 47.72 31.36V17.36C47.72 17.161 47.559 17 47.36 17ZM39.7247 24.3604C39.7247 24.0064 39.7947 23.6624 39.9267 23.3444L41.9727 24.5254L41.3657 26.7894C41.0457 26.6644 40.7477 26.4764 40.4977 26.2264C39.9987 25.7284 39.7247 25.0654 39.7247 24.3604ZM43.9567 22.2724L42.3287 23.9004L40.3037 22.7304L40.3286 22.6983L40.3491 22.6716C40.3958 22.6106 40.4425 22.5496 40.4977 22.4944C41.4117 21.5804 42.9387 21.5134 43.9567 22.2724ZM44.2317 26.2264C43.6607 26.7984 42.8477 27.0314 42.0677 26.9484L42.7147 24.5334L44.4677 22.7804C44.8097 23.2354 45.0047 23.7814 45.0047 24.3604C45.0047 25.0654 44.7297 25.7284 44.2317 26.2264ZM44.7407 26.7364C45.3747 26.1014 45.7247 25.2574 45.7247 24.3604C45.7247 23.4634 45.3747 22.6194 44.7407 21.9844C43.4717 20.7144 41.2587 20.7144 39.9887 21.9844C39.3537 22.6194 39.0047 23.4634 39.0047 24.3604C39.0047 25.2574 39.3537 26.1014 39.9887 26.7364C40.6237 27.3714 41.4677 27.7204 42.3647 27.7204C43.2627 27.7204 44.1057 27.3714 44.7407 26.7364ZM37.3671 19.7214H32.3591V19.0004H37.3671V19.7214ZM32.3591 21.7204H36.3671V20.9994H32.3591V21.7204ZM46.2903 37.9315C46.2903 39.1545 45.7203 40.2865 44.7643 41.0235C46.5563 41.9285 47.7203 43.7655 47.7203 45.7885V48.3605H47.0003V45.7885C47.0003 43.8365 45.7453 42.0845 43.8783 41.4275C43.7433 41.3795 43.6483 41.2565 43.6393 41.1135C43.6283 40.9705 43.7043 40.8355 43.8313 40.7685C44.9043 40.2105 45.5713 39.1235 45.5713 37.9315C45.5713 36.1615 44.1303 34.7205 42.3593 34.7205C40.5883 34.7205 39.1473 36.1615 39.1473 37.9315C39.1473 39.1235 39.8143 40.2115 40.8873 40.7695C41.0143 40.8365 41.0903 40.9715 41.0803 41.1145C41.0703 41.2575 40.9763 41.3805 40.8413 41.4285C38.9743 42.0855 37.7213 43.8365 37.7213 45.7885V48.3605H37.7193H37.0013H36.9993V45.7885C36.9993 43.8365 35.7443 42.0845 33.8773 41.4275C33.7423 41.3795 33.6483 41.2565 33.6383 41.1135C33.6283 40.9705 33.7033 40.8355 33.8303 40.7685C34.9033 40.2105 35.5703 39.1235 35.5703 37.9315C35.5703 36.1615 34.1293 34.7205 32.3583 34.7205C30.5873 34.7205 29.1463 36.1615 29.1463 37.9315C29.1463 39.1235 29.8133 40.2115 30.8873 40.7695C31.0143 40.8365 31.0903 40.9715 31.0793 41.1145C31.0703 41.2575 30.9753 41.3805 30.8403 41.4285C28.9743 42.0855 27.7203 43.8365 27.7203 45.7885V48.3605H27.7193H27.0003H26.9993V45.7885C26.9993 43.8365 25.7443 42.0845 23.8773 41.4275C23.7413 41.3795 23.6473 41.2565 23.6373 41.1135C23.6273 40.9705 23.7023 40.8355 23.8303 40.7685C24.9033 40.2105 25.5693 39.1235 25.5693 37.9315C25.5693 36.1615 24.1283 34.7205 22.3583 34.7205C20.5873 34.7205 19.1463 36.1615 19.1463 37.9315C19.1463 39.1235 19.8133 40.2115 20.8863 40.7695C21.0143 40.8365 21.0893 40.9715 21.0793 41.1145C21.0693 41.2575 20.9753 41.3805 20.8403 41.4285C18.9733 42.0855 17.7203 43.8365 17.7203 45.7885V48.3605H17.0003V45.7885C17.0003 43.7655 18.1623 41.9295 19.9533 41.0255C18.9973 40.2885 18.4263 39.1555 18.4263 37.9315C18.4263 35.7635 20.1903 34.0005 22.3583 34.0005C24.5263 34.0005 26.2893 35.7635 26.2893 37.9315C26.2893 39.1545 25.7183 40.2875 24.7633 41.0235C25.9753 41.6355 26.8883 42.6775 27.3593 43.9115C27.8303 42.6785 28.7433 41.6365 29.9543 41.0255C28.9983 40.2885 28.4273 39.1555 28.4273 37.9315C28.4273 35.7635 30.1903 34.0005 32.3583 34.0005C34.5263 34.0005 36.2893 35.7635 36.2893 37.9315C36.2893 39.1545 35.7193 40.2865 34.7643 41.0235C35.9753 41.6355 36.8893 42.6775 37.3603 43.9115C37.8313 42.6785 38.7433 41.6365 39.9543 41.0255C38.9983 40.2885 38.4273 39.1555 38.4273 37.9315C38.4273 35.7635 40.1913 34.0005 42.3593 34.0005C44.5273 34.0005 46.2903 35.7635 46.2903 37.9315Z" fill="white"/>
</svg>
