<?xml version="1.0" encoding="UTF-8"?>
<svg width="26px" height="25px" viewBox="0 0 26 25" version="1.1" xmlns="http://www.w3.org/2000/svg" xmlns:xlink="http://www.w3.org/1999/xlink">
    <!-- Generator: Sketch 53 (72520) - https://sketchapp.com -->
    <title>Sketch_logo_frame</title>
    <desc>Created with Sketch.</desc>
    <g stroke="none" stroke-width="1" fill="none" fill-rule="evenodd">
        <g transform="translate(-1027.000000, -763.000000)">
            <g transform="translate(988.000000, 748.000000)">
                <g transform="translate(39.000000, 15.000000)">
                    <g fill="#FFAE00" fill-rule="nonzero">
                        <polygon transform="translate(13.000000, 12.500000) rotate(-180.000000) translate(-13.000000, -12.500000) " points="13 -2.84217094e-14 26 16.0514541 20.3684211 24.1610738 13 25 5.63157895 24.1610738 2.84217094e-14 16.0514541"></polygon>
                    </g>
                    <g transform="translate(0.000000, 8.870968)" fill="#EC6C00" fill-rule="nonzero">
                        <polygon transform="translate(13.000000, 8.064516) rotate(-180.000000) translate(-13.000000, -8.064516) " points="13 -2.84217094e-14 26 16.1290323 2.84217094e-14 16.1290323"></polygon>
                    </g>
                    <g transform="translate(5.687500, 8.870968)"></g>
                    <g transform="translate(5.687500, 0.000000)" fill="#FFEFB4" fill-rule="nonzero">
                        <polygon transform="translate(7.718750, 4.435484) rotate(-180.000000) translate(-7.718750, -4.435484) " points="7.71875 8.87096774 15.4375 1.39183468e-13 0 -1.42108547e-14"></polygon>
                    </g>
                    <g transform="translate(0.000000, 0.806452)" fill="#FFAE00" fill-rule="nonzero">
                        <polygon transform="translate(2.843750, 4.032258) rotate(-180.000000) translate(-2.843750, -4.032258) " points="7.10542736e-15 8.06451613 2.92348131 4.00444939 5.6875 1.48589582e-13 0.318925234 0"></polygon>
                    </g>
                    <g transform="translate(23.156250, 4.838710) scale(-1, 1) translate(-23.156250, -4.838710) translate(20.312500, 0.806452)" fill="#FFAE00" fill-rule="nonzero">
                        <polygon transform="translate(2.843750, 4.032258) rotate(-180.000000) translate(-2.843750, -4.032258) " points="7.10542736e-15 8.06451613 2.92348131 4.00444939 5.6875 1.48589582e-13 0.318925234 0"></polygon>
                    </g>
                    <g transform="translate(5.687500, 0.000000)" fill="#FED305" fill-rule="nonzero">
                        <polygon transform="translate(3.656250, 4.435484) rotate(-180.000000) translate(-3.656250, -4.435484) " points="6.96428571 8.03931452 7.3125 -1.42108547e-14 1.42108547e-14 8.87096774"></polygon>
                    </g>
                    <g transform="translate(13.000000, 0.000000)" fill="#FED305" fill-rule="nonzero">
                        <polygon transform="translate(3.656250, 4.435484) scale(-1, 1) rotate(-180.000000) translate(-3.656250, -4.435484) " points="6.96428571 8.03931452 7.3125 -1.42108547e-14 -1.42108547e-14 8.87096774"></polygon>
                    </g>
                    <polygon fill="#FFAE00" fill-rule="nonzero" transform="translate(13.406250, 16.935484) rotate(-180.000000) translate(-13.406250, -16.935484) " points="13.40625 8.87096774 21.125 25 5.6875 25"></polygon>
                </g>
            </g>
        </g>
    </g>
</svg>