<?xml version="1.0" encoding="UTF-8"?>
<svg width="29px" height="30px" viewBox="0 0 29 30" version="1.1" xmlns="http://www.w3.org/2000/svg" xmlns:xlink="http://www.w3.org/1999/xlink">
    <!-- Generator: Sketch 53.2 (72643) - https://sketchapp.com -->
    <title>skills</title>
    <desc>Created with Sketch.</desc>
    <g stroke="none" stroke-width="1" fill="none" fill-rule="evenodd">
        <g fill="#000000">
            <path d="M19.31775,14.0609062 L18.8405625,13.5837187 L27.569625,4.85559375 C27.9286875,4.49653125 28.1255625,4.01934375 28.1255625,3.51215625 C28.1255625,3.00496875 27.9286875,2.52778125 27.569625,2.16871875 C26.8515,1.45059375 25.600875,1.45059375 24.88275,2.16871875 L16.1536875,10.8968437 L15.6774375,10.4205937 L24.4055625,1.69153125 C25.37775,0.71840625 27.0736875,0.71840625 28.0468125,1.69153125 C28.533375,2.17809375 28.8005625,2.82403125 28.8005625,3.51215625 C28.8005625,4.19934375 28.533375,4.84621875 28.0468125,5.33184375 L19.31775,14.0609062 Z"></path>
            <polygon points="17.7357187 12.478875 17.2585312 12.0016875 25.9604062 3.2998125 26.4375937 3.777"></polygon>
            <path d="M1.982625,28.9340625 L0.8041875,27.755625 L3.1010625,25.228125 L4.5091875,26.63625 L1.982625,28.9340625 Z M4.521375,25.693125 L11.530125,18.684375 L11.0529375,18.208125 L4.0441875,25.216875 L3.328875,24.500625 C3.26325,24.435 3.162,24.3965625 3.0823125,24.4021875 C2.9895,24.4040625 2.9023125,24.444375 2.8404375,24.5128125 L0.0879375,27.5390625 C-0.033,27.6721875 -0.02925,27.8775 0.0991875,28.005 L1.73325,29.6390625 C1.798875,29.7046875 1.885125,29.7375 1.971375,29.7375 C2.0529375,29.7375 2.1345,29.709375 2.19825,29.6503125 L5.2245,26.8978125 C5.2929375,26.8359375 5.33325,26.7478125 5.335125,26.6559375 C5.3379375,26.5640625 5.3023125,26.4740625 5.2366875,26.409375 L4.521375,25.693125 Z"></path>
            <path d="M28.0134375,25.82175 L24.6290625,22.4364375 C23.7665625,21.5739375 22.363125,21.573 21.4996875,22.4364375 C20.6371875,23.2989375 20.6371875,24.702375 21.4996875,25.564875 L24.885,28.9501875 C22.96875,29.6533125 20.79,29.2051875 19.325625,27.739875 C17.86875,26.2820625 17.3896875,24.0920625 18.106875,22.1589375 C18.12,22.1233125 18.1228125,22.0876875 18.12375,22.0520625 C18.12375,22.0464375 18.1265625,22.0426875 18.1265625,22.0370625 C18.1246875,21.95175 18.0909375,21.871125 18.031875,21.80925 C18.03,21.807375 18.0309375,21.8045625 18.0290625,21.8026875 L18.0225,21.796125 C18.0215625,21.796125 18.0215625,21.796125 18.0215625,21.796125 L8.1684375,11.9439375 C8.1675,11.943 8.1675,11.943 8.1665625,11.9420625 L8.16,11.9355 C8.158125,11.9345625 8.15625,11.9345625 8.154375,11.933625 C8.0925,11.873625 8.011875,11.8389375 7.925625,11.838 C7.9209375,11.838 7.9171875,11.839875 7.9134375,11.839875 C7.876875,11.8408125 7.8403125,11.8445625 7.8046875,11.8576875 C5.870625,12.5739375 3.6815625,12.094875 2.2246875,10.6389375 C0.7603125,9.173625 0.3103125,6.9958125 1.014375,5.0795625 L4.3996875,8.4639375 C4.83,8.896125 5.3971875,9.11175 5.9634375,9.11175 C6.5296875,9.11175 7.096875,8.896125 7.528125,8.4639375 C8.390625,7.6014375 8.390625,6.198 7.528125,5.3355 L4.1428125,1.9501875 C6.06,1.2470625 8.2378125,1.6970625 9.7021875,3.1605 C11.16,4.6183125 11.638125,6.8101875 10.9209375,8.7433125 C10.906875,8.7789375 10.9040625,8.8145625 10.9040625,8.851125 C10.903125,8.8558125 10.90125,8.8595625 10.90125,8.8651875 C10.9021875,8.9505 10.936875,9.0320625 10.9959375,9.093 C10.9978125,9.094875 10.996875,9.0976875 10.99875,9.0995625 L11.004375,9.1051875 L11.00625,9.1070625 L20.859375,18.9583125 C20.859375,18.9583125 20.859375,18.95925 20.8603125,18.95925 L20.8659375,18.9658125 C20.8678125,18.96675 20.870625,18.96675 20.8715625,18.9676875 C20.934375,19.0276875 21.0159375,19.0633125 21.1021875,19.0633125 C21.103125,19.0633125 21.1040625,19.06425 21.105,19.06425 C21.106875,19.06425 21.10875,19.062375 21.1115625,19.0614375 C21.148125,19.0614375 21.185625,19.0576875 21.2221875,19.043625 C23.1553125,18.3264375 25.34625,18.8055 26.803125,20.262375 C28.2675,21.72675 28.7175,23.9055 28.0134375,25.82175 M27.2803125,19.7851875 C25.69125,18.1951875 23.32875,17.6505 21.2025,18.348 L11.615625,8.763 C12.3140625,6.63675 11.769375,4.27425 10.179375,2.6833125 C8.3953125,0.9001875 5.668125,0.4305 3.3928125,1.518 C3.3609375,1.533 3.335625,1.5564375 3.31125,1.5789375 C3.3075,1.5826875 3.3028125,1.5808125 3.3,1.583625 C3.298125,1.5855 3.2990625,1.5883125 3.2971875,1.58925 C3.2390625,1.6501875 3.2071875,1.729875 3.204375,1.8133125 C3.204375,1.818 3.2025,1.82175 3.2025,1.827375 C3.2034375,1.8751875 3.211875,1.9220625 3.2334375,1.968 C3.249375,2.0008125 3.271875,2.026125 3.2953125,2.0514375 C3.298125,2.05425 3.2971875,2.058 3.3,2.0608125 L3.3121875,2.0739375 C3.313125,2.0739375 3.3140625,2.074875 3.3140625,2.0758125 L7.0509375,5.8126875 C7.3396875,6.1014375 7.4990625,6.4876875 7.4990625,6.89925 C7.4990625,7.31175 7.3396875,7.698 7.0509375,7.9876875 C6.4725,8.5651875 5.4553125,8.5651875 4.8759375,7.9876875 L1.125,4.2358125 C1.12125,4.233 1.1165625,4.2339375 1.11375,4.231125 C1.0884375,4.2076875 1.0640625,4.1851875 1.0321875,4.1701875 C0.9853125,4.1476875 0.9375,4.13925 0.8896875,4.1383125 C0.8859375,4.1383125 0.883125,4.1401875 0.8784375,4.1401875 C0.7940625,4.1420625 0.714375,4.174875 0.6534375,4.2339375 C0.6515625,4.234875 0.6496875,4.234875 0.6478125,4.2358125 C0.645,4.2395625 0.6459375,4.24425 0.643125,4.2470625 C0.6196875,4.2714375 0.5971875,4.29675 0.5821875,4.328625 C-0.5053125,6.6039375 -0.0365625,9.3320625 1.7475,11.1151875 C2.88375,12.252375 4.415625,12.8608125 5.97375,12.8608125 C6.5934375,12.8608125 7.215,12.7483125 7.820625,12.5505 L17.41125,22.1401875 C16.71375,24.2645625 17.2584375,26.6270625 18.8484375,28.2170625 C19.99125,29.359875 21.52125,29.9626875 23.071875,29.9626875 C23.9409375,29.9626875 24.8175,29.7733125 25.635,29.382375 C25.6678125,29.367375 25.693125,29.3439375 25.7184375,29.3205 C25.72125,29.3176875 25.7259375,29.318625 25.7278125,29.31675 C25.7296875,29.314875 25.72875,29.313 25.7296875,29.311125 C25.78875,29.2501875 25.8215625,29.1705 25.8234375,29.0870625 C25.8234375,29.082375 25.8253125,29.078625 25.8253125,29.0739375 C25.8253125,29.026125 25.8159375,28.9783125 25.794375,28.932375 C25.7784375,28.9005 25.7559375,28.8751875 25.7325,28.8508125 C25.7296875,28.848 25.7315625,28.842375 25.7278125,28.8395625 L21.976875,25.0876875 C21.688125,24.7989375 21.52875,24.4126875 21.52875,24.001125 C21.52875,23.588625 21.688125,23.2033125 21.976875,22.913625 C22.5553125,22.336125 23.5725,22.3351875 24.151875,22.913625 L27.9028125,26.6645625 C27.9065625,26.6683125 27.91125,26.6664375 27.915,26.6701875 C27.939375,26.6926875 27.96375,26.716125 27.995625,26.731125 C28.0434375,26.753625 28.0921875,26.7639375 28.1409375,26.7639375 L28.141875,26.7639375 C28.141875,26.7639375 28.141875,26.763 28.1428125,26.763 C28.2215625,26.763 28.291875,26.727375 28.3528125,26.67675 C28.3603125,26.66925 28.3725,26.673 28.38,26.6645625 C28.3903125,26.6551875 28.3865625,26.6401875 28.395,26.6289375 C28.4109375,26.6083125 28.434375,26.596125 28.445625,26.57175 C29.533125,24.2964375 29.0653125,21.56925 27.2803125,19.7851875"></path>
        </g>
    </g>
</svg>