<?xml version="1.0" encoding="UTF-8"?>
<svg width="52px" height="50px" viewBox="0 0 52 50" version="1.1" xmlns="http://www.w3.org/2000/svg" xmlns:xlink="http://www.w3.org/1999/xlink">
    <!-- Generator: Sketch 58 (84663) - https://sketch.com -->
    <title>squarespace-logo-tertiary-black</title>
    <desc>Created with Sketch.</desc>
    <defs>
        <polygon id="path-1" points="0.0599425484 0.0851955068 29.9398409 0.0851955068 29.9398409 27.9072037 0.0599425484 27.9072037"></polygon>
        <polygon id="path-3" points="0.0921334248 0.0786961928 4.84168324 0.0786961928 4.84168324 5.31641228 0.0921334248 5.31641228"></polygon>
        <polygon id="path-5" points="0.089209398 0.0381452581 3.20287258 0.0381452581 3.20287258 4.77453696 0.089209398 4.77453696"></polygon>
    </defs>
    <g stroke="none" stroke-width="1" fill="none" fill-rule="evenodd">
        <g>
            <g>
                <g>
                    <path d="M12.1638583,20.4503507 L27.1732863,5.44105557 C28.1929742,4.4215006 29.5503872,3.86008746 30.9964513,3.86008746 C32.4415851,3.86008746 33.7985993,4.42083605 34.8174897,5.43985937 L35.9871004,6.60933716 L38.326056,4.27038158 L37.1564453,3.10077088 C35.5139397,1.4581324 33.3262361,0.553279026 30.995388,0.553279026 C28.6656032,0.553544847 26.4775009,1.45866404 24.8343307,3.10196707 L9.82490268,18.111528 L12.1638583,20.4503507 Z" fill="#030303" fill-rule="nonzero"></path>
                    <g transform="translate(2.259475, 0.047848)">
                        <g>
                            <mask id="mask-2" fill="white">
                                <use xlink:href="#path-1"></use>
                            </mask>
                            <g></g>
                            <path d="M29.9398409,10.3490876 L27.6008854,8.01013205 L12.5914573,23.0195601 C10.4833669,25.1272518 7.05441391,25.1277834 4.94712099,23.0207563 C2.83956225,20.9126659 2.83956225,17.4830484 4.94712099,15.3752238 L17.8981671,2.42417767 L15.5592115,0.0850891785 L2.6080325,13.0362682 C-0.789420768,16.4337215 -0.789420768,21.9622586 2.6080325,25.3597119 C4.25106971,27.0024833 6.43877337,27.9072037 8.76829232,27.9072037 C11.0984758,27.9072037 13.2871098,27.0022175 14.9304129,25.3586486 L29.9398409,10.3490876 Z" fill="#030303" fill-rule="nonzero" mask="url(#mask-2)"></path>
                        </g>
                    </g>
                    <path d="M47.13991,13.0840761 C45.4971386,11.4415705 43.3094349,10.5365842 40.9787198,10.5365842 C38.6484034,10.5365842 36.460301,11.4421021 34.8175296,13.0852723 L19.8082344,28.0945674 L22.14719,30.4336559 L37.1564852,15.423962 C39.2647085,13.3162704 42.6937944,13.3166691 44.8008215,15.4231646 C45.8202435,16.4424537 46.3816567,17.7999996 46.3816567,19.245665 C46.3816567,20.6917291 45.8202435,22.049275 44.8008215,23.0685641 L31.8496424,36.0196103 L34.1888638,38.3584329 L47.13991,25.4076526 C50.5374961,22.0100665 50.5374961,16.4815293 47.13991,13.0840761" fill="#030303" fill-rule="nonzero"></path>
                    <path d="M39.8437987,18.0413514 L24.8343706,33.0507795 C22.7262802,35.1580724 19.2973272,35.1587369 17.1899014,33.0519756 L16.0204236,31.8823649 L13.6813351,34.2214534 L14.8509458,35.3906654 C16.4934514,37.0337026 18.6810221,37.9384231 21.012136,37.9384231 C23.3419208,37.9381573 25.5301561,37.0330381 27.1733262,35.389735 L42.1827542,20.3805728 L39.8437987,18.0413514 Z" fill="#030303" fill-rule="nonzero"></path>
                    <path d="M0.804771909,47.9883562 C0.853151261,48.2258669 0.966390842,48.4118084 1.14449065,48.545782 C1.32259046,48.6800214 1.55677843,48.7470082 1.84705454,48.7470082 C2.13294461,48.7470082 2.35384154,48.6810847 2.51001115,48.5491048 C2.66604785,48.4172578 2.74419911,48.243544 2.74419911,48.0279635 C2.74419911,47.9224327 2.72333219,47.8333828 2.68159835,47.7608138 C2.63973161,47.6882447 2.58151689,47.6267073 2.50668839,47.5760684 C2.43185989,47.5256954 2.33948722,47.4826325 2.22970331,47.4475442 C2.11965358,47.4123229 1.99644572,47.3749751 1.86021266,47.3353679 L1.50401303,47.2364826 C1.29295147,47.1793312 1.1038201,47.1100849 0.936751844,47.0286109 C0.769550677,46.9472698 0.626672097,46.8515743 0.507983193,46.7416575 C0.389294289,46.6317407 0.299048191,46.505343 0.237510719,46.3623315 C0.175840336,46.2194529 0.145138055,46.053315 0.145138055,45.8643166 C0.145138055,45.6664131 0.184745327,45.4839273 0.263826959,45.3167261 C0.343041502,45.1497908 0.455217801,45.0066464 0.600222946,44.8879575 C0.745493912,44.7692686 0.921201338,44.6758326 1.12800978,44.6075167 C1.3346853,44.5395996 1.56767707,44.5054416 1.8272509,44.5054416 C2.31543046,44.5054416 2.70233236,44.6208078 2.98822243,44.851673 C3.2741125,45.0826711 3.44118076,45.3915546 3.48969302,45.7785894 L2.69807923,45.8445129 C2.64956697,45.6466095 2.55294118,45.4926994 2.40780312,45.3827825 C2.26266507,45.2728657 2.06037558,45.2178409 1.80093466,45.2178409 C1.55890499,45.2178409 1.36977362,45.273929 1.23354056,45.3861053 C1.09717458,45.4982816 1.0289916,45.6423564 1.0289916,45.8181967 C1.0289916,45.9193415 1.04879523,46.0038724 1.0884025,46.0720554 C1.12800978,46.1403713 1.18516121,46.1996493 1.25998971,46.2501552 C1.3346853,46.300794 1.42586177,46.3458506 1.53365203,46.385325 C1.64144229,46.4249323 1.76345395,46.4669319 1.89981993,46.5107923 L2.23634883,46.6163231 C2.44727748,46.6822466 2.63760504,46.7514929 2.80679986,46.8240619 C2.97612759,46.8966309 3.12020237,46.9835543 3.23889127,47.084699 C3.35771309,47.1858438 3.44888956,47.3067921 3.5126865,47.4475442 C3.57648345,47.5882962 3.60838192,47.7620099 3.60838192,47.9686855 C3.60838192,48.188652 3.56438861,48.3898782 3.47640199,48.5722312 C3.38841537,48.7548499 3.26534042,48.9098234 3.10704425,49.0372843 C2.94874807,49.1648782 2.76067999,49.2638964 2.5429729,49.3340731 C2.32526582,49.4043826 2.08456525,49.4397368 1.8207383,49.4397368 C1.33255874,49.4397368 0.925720288,49.3254339 0.600222946,49.0966952 C0.274858515,48.8679566 0.0746955925,48.5227885 0,48.0609252 L0.804771909,47.9883562 Z" fill="#000000" fill-rule="nonzero"></path>
                    <g transform="translate(4.518950, 44.439890)">
                        <g>
                            <mask id="mask-4" fill="white">
                                <use xlink:href="#path-3"></use>
                            </mask>
                            <g></g>
                            <path d="M2.45368376,0.791095438 C2.21617304,0.791095438 2.00404819,0.83508875 1.81704339,0.922809552 C1.6301715,1.01066327 1.47187532,1.13240911 1.34215486,1.28817999 C1.2124344,1.44408378 1.11341622,1.62856328 1.04523324,1.84121977 C0.977050249,2.054275 0.94302521,2.28580475 0.94302521,2.53594195 C0.94302521,2.78621206 0.978246441,3.01880509 1.04855599,3.23398688 C1.11886555,3.44903576 1.21894701,3.63550892 1.34880038,3.79367218 C1.47838793,3.95156963 1.63681701,4.07557494 1.8236889,4.16568813 C2.0105608,4.2555355 2.22281856,4.30045918 2.46032927,4.30045918 C2.69770708,4.30045918 2.90996484,4.25779498 3.09683673,4.17220074 C3.28370863,4.0866065 3.44213771,3.96698722 3.57185817,3.81321 C3.70144572,3.65969859 3.80152718,3.47415581 3.87196965,3.25698036 C3.9422792,3.03967201 3.97750043,2.80149674 3.97750043,2.54258746 C3.97750043,2.28793132 3.9422792,2.0530788 3.87196965,1.83802993 C3.80152718,1.62311396 3.70144572,1.43863445 3.57185817,1.28499014 C3.44213771,1.13147873 3.28264534,1.01066327 3.09351398,0.922809552 C2.90438261,0.83508875 2.69119448,0.791095438 2.45368376,0.791095438 M2.46032927,0.0786961928 C2.8165289,0.0786961928 3.14189333,0.139170382 3.43655548,0.260118762 C3.73121763,0.381067141 3.98188647,0.550261962 4.188562,0.767969045 C4.39523752,0.985809038 4.55566026,1.24631324 4.67009604,1.54974747 C4.78453181,1.8531817 4.84168324,2.18519165 4.84168324,2.54577731 C4.84168324,2.91978691 4.78120906,3.25724618 4.66026068,3.55842094 C4.53917939,3.85972861 4.36679472,4.12023281 4.14244212,4.34006646 L4.77575973,5.08556037 L4.77575973,5.31642557 L3.97098782,5.31642557 L3.52892814,4.77561353 C3.37501801,4.84592308 3.20994341,4.90081504 3.03423598,4.94042231 C2.85826273,4.98002958 2.66913137,4.99983322 2.46684188,4.99983322 C2.10187018,4.99983322 1.77305008,4.93922612 1.4806474,4.81841065 C1.18824473,4.69746227 0.939702452,4.52813454 0.7352864,4.31042746 C0.530737438,4.09272037 0.372441262,3.83341236 0.260397873,3.53197179 C0.148221574,3.23079703 0.0921334248,2.90210984 0.0921334248,2.54577731 C0.0921334248,2.18519165 0.148221574,1.85437789 0.260397873,1.55293732 C0.372441262,1.25189547 0.53180072,0.992321643 0.738609158,0.77461456 C0.945151775,0.556907477 1.19475733,0.386516464 1.48729292,0.263308609 C1.77969559,0.140366575 2.10412965,0.0786961928 2.46032927,0.0786961928" fill="#000000" fill-rule="nonzero" mask="url(#mask-4)"></path>
                        </g>
                    </g>
                    <path d="M12.4938745,48.7733511 C12.83253,48.7733511 13.096357,48.6690165 13.2854883,48.4600815 C13.4744868,48.2511465 13.5691189,47.9312313 13.5691189,47.5002032 L13.5691189,44.610999 L14.40034,44.610999 L14.40034,47.5200069 C14.40034,47.8630484 14.3563467,48.1565143 14.2683601,48.4006706 C14.1803734,48.6446939 14.055039,48.8448568 13.8923568,49.0010264 C13.7296746,49.157196 13.5295117,49.2714989 13.2921339,49.3440679 C13.0546231,49.4166369 12.7885367,49.4527885 12.4938745,49.4527885 C12.1948264,49.4527885 11.9276766,49.4166369 11.6924254,49.3440679 C11.4570412,49.2714989 11.2580745,49.157196 11.0953923,49.0010264 C10.9327101,48.8448568 10.8073757,48.6446939 10.719389,48.4006706 C10.6314024,48.1565143 10.587542,47.8630484 10.587542,47.5200069 L10.587542,44.610999 L11.4186302,44.610999 L11.4186302,47.5002032 C11.4186302,47.9312313 11.5131294,48.2511465 11.7022608,48.4600815 C11.8913921,48.6690165 12.1552191,48.7733511 12.4938745,48.7733511" fill="#000000" fill-rule="nonzero"></path>
                    <path d="M16.7286362,47.2825227 L18.2920601,47.2825227 L18.0347458,46.5305162 C17.9334681,46.235987 17.8522599,45.9962168 17.7907224,45.8116044 C17.729052,45.626859 17.6740272,45.4641768 17.6257807,45.3234248 L17.4212318,45.3234248 C17.3949155,45.3981204 17.3684664,45.4729489 17.3421501,45.5476445 C17.315701,45.622473 17.286062,45.7060736 17.2531002,45.7983133 C17.2200056,45.890686 17.1837211,45.9962168 17.1441138,46.1150386 C17.1046394,46.2335946 17.0561272,46.37222 16.9991086,46.5305162 L16.7286362,47.2825227 Z M15.2311357,49.1164191 L16.9133815,44.6108926 L18.1600802,44.6108926 L19.8223894,49.1164191 L19.8223894,49.3472843 L19.0044594,49.3472843 L18.5294379,47.994922 L16.4779673,47.994922 L16.0030788,49.3472843 L15.2311357,49.3472843 L15.2311357,49.1164191 Z" fill="#000000" fill-rule="nonzero"></path>
                    <path d="M21.6892741,46.7746326 L22.4083189,46.7746326 C22.7250442,46.7746326 22.9745168,46.7168166 23.1570027,46.6014504 C23.3394885,46.4859514 23.4309308,46.2974846 23.4309308,46.0357842 C23.4309308,45.7699636 23.3384252,45.5848195 23.1536799,45.4802191 C22.9690675,45.3757516 22.7206581,45.3233849 22.4083189,45.3233849 L21.6892741,45.3233849 L21.6892741,46.7746326 Z M24.466435,49.3472445 L23.6681757,49.3472445 L22.2235736,47.4870318 L21.6892741,47.4870318 L21.6892741,49.3472445 L20.8713441,49.3472445 L20.8713441,44.6109857 L22.4083189,44.6109857 C22.6500827,44.6109857 22.8800176,44.6274666 23.0975918,44.6604283 C23.3152988,44.6933901 23.512139,44.7692819 23.6881122,44.8879708 C24.0617231,45.1341206 24.2488608,45.5057379 24.2488608,46.0024237 C24.2488608,46.2180042 24.2169624,46.4059394 24.1530325,46.566495 C24.0892356,46.7269178 24.0045717,46.8631508 23.8991738,46.9753271 C23.7935101,47.0875034 23.6714985,47.1786799 23.5331388,47.2488565 C23.3945134,47.319299 23.2504386,47.3720644 23.1009145,47.4071527 L24.466435,49.1162464 L24.466435,49.3472445 Z" fill="#000000" fill-rule="nonzero"></path>
                    <polygon fill="#000000" fill-rule="nonzero" points="25.5219289 44.6109458 28.5893659 44.6109458 28.5893659 45.3365032 26.3333463 45.3365032 26.3333463 46.5766892 28.4310697 46.5766892 28.4310697 47.2890885 26.3333463 47.2890885 26.3333463 48.6216472 28.6356187 48.6216472 28.6356187 49.3473375 25.5219289 49.3473375"></polygon>
                    <path d="M30.4694088,47.9883562 C30.5176552,48.2258669 30.6310277,48.4118084 30.8091275,48.545782 C30.9872273,48.6800214 31.2214153,48.7470082 31.5116914,48.7470082 C31.7974486,48.7470082 32.0183455,48.6810847 32.174648,48.5491048 C32.3306847,48.4172578 32.408836,48.243544 32.408836,48.0279635 C32.408836,47.9224327 32.387969,47.8333828 32.3461023,47.7608138 C32.3043685,47.6882447 32.2460208,47.6267073 32.1713252,47.5760684 C32.0964967,47.5256954 32.0041241,47.4826325 31.8943402,47.4475442 C31.7842904,47.4123229 31.6610826,47.3749751 31.5247166,47.3353679 L31.1686499,47.2364826 C30.9575883,47.1793312 30.768324,47.1100849 30.6012558,47.0286109 C30.4340546,46.9472698 30.291176,46.8515743 30.17262,46.7416575 C30.0537982,46.6317407 29.9635521,46.505343 29.9020147,46.3623315 C29.8404772,46.2194529 29.809642,46.053315 29.809642,45.8643166 C29.809642,45.6664131 29.8492493,45.4839273 29.9284638,45.3167261 C30.0075454,45.1497908 30.1197217,45.0066464 30.2648598,44.8879575 C30.4099979,44.7692686 30.5858382,44.6758326 30.7926466,44.6075167 C30.9991892,44.5395996 31.2323139,44.5054416 31.4917548,44.5054416 C31.9799344,44.5054416 32.3668363,44.6208078 32.6528593,44.851673 C32.9386164,45.0826711 33.1058176,45.3915546 33.154197,45.7785894 L32.3625832,45.8445129 C32.3142038,45.6466095 32.2174451,45.4926994 32.07244,45.3827825 C31.9273019,45.2728657 31.7248795,45.2178409 31.4654386,45.2178409 C31.2235418,45.2178409 31.0344105,45.273929 30.8981774,45.3861053 C30.7618114,45.4982816 30.6936285,45.6423564 30.6936285,45.8181967 C30.6936285,45.9193415 30.7134321,46.0038724 30.7530394,46.0720554 C30.7926466,46.1403713 30.8496652,46.1996493 30.9244937,46.2501552 C30.9991892,46.300794 31.0904986,46.3458506 31.1982889,46.385325 C31.3060791,46.4249323 31.4280908,46.4669319 31.5643239,46.5107923 L31.9008528,46.6163231 C32.1119143,46.6822466 32.302109,46.7514929 32.4714367,46.8240619 C32.6406315,46.8966309 32.7848392,46.9835543 32.9033952,47.084699 C33.022217,47.1858438 33.1135264,47.3067921 33.1773234,47.4475442 C33.2409874,47.5882962 33.2730188,47.7620099 33.2730188,47.9686855 C33.2730188,48.188652 33.2290255,48.3898782 33.1410388,48.5722312 C33.0529193,48.7548499 32.9299773,48.9098234 32.7715482,49.0372843 C32.613252,49.1648782 32.4253168,49.2638964 32.2076098,49.3340731 C31.9897698,49.4043826 31.7490692,49.4397368 31.4852422,49.4397368 C30.9971956,49.4397368 30.5902242,49.3254339 30.2648598,49.0966952 C29.9393625,48.8679566 29.7393324,48.5227885 29.6645039,48.0609252 L30.4694088,47.9883562 Z" fill="#000000" fill-rule="nonzero"></path>
                    <path d="M35.2847359,46.8142265 L36.0763497,46.8142265 C36.2214877,46.8142265 36.354531,46.8022646 36.4754793,46.7782079 C36.5962948,46.754284 36.7019585,46.7140122 36.7920717,46.6572595 C36.8823178,46.6006397 36.9526273,46.5243492 37.0032662,46.4283879 C37.0537721,46.3325596 37.079025,46.2148011 37.079025,46.0752452 C37.079025,45.9314363 37.0537721,45.8106208 37.0032662,45.712533 C36.9526273,45.6144452 36.8832482,45.5370914 36.7953944,45.4803387 C36.7074078,45.423586 36.6029403,45.3833142 36.4821248,45.3593903 C36.3610436,45.3354665 36.2302598,45.3233716 36.0896407,45.3233716 L35.2847359,45.3233716 L35.2847359,46.8142265 Z M34.4601603,44.6109724 L36.188526,44.6109724 C36.5095044,44.6109724 36.7789136,44.6483202 36.9966206,44.7231487 C37.2143277,44.7978443 37.3901681,44.9011156 37.5244075,45.0332284 C37.6583811,45.1650755 37.7552727,45.3200489 37.8145507,45.4982816 C37.8738287,45.6762485 37.9036006,45.8687026 37.9036006,46.0753782 C37.9036006,46.3217939 37.86293,46.5360453 37.7815889,46.7185311 C37.7002478,46.901017 37.5826222,47.0516044 37.4287121,47.1704262 C37.274669,47.2891151 37.0877971,47.378165 36.8679635,47.4375759 C36.6479969,47.4969868 36.3995875,47.5266258 36.1226025,47.5266258 L35.2847359,47.5266258 L35.2847359,49.3473641 L34.4601603,49.3473641 L34.4601603,44.6109724 Z" fill="#000000" fill-rule="nonzero"></path>
                    <path d="M39.6320327,47.2825227 L41.1954566,47.2825227 L40.9381423,46.5305162 C40.8368646,46.235987 40.7555235,45.9962168 40.693986,45.8116044 C40.6324486,45.626859 40.5774237,45.4641768 40.5291772,45.3234248 L40.3246283,45.3234248 C40.298312,45.3981204 40.2718629,45.4729489 40.2454137,45.5476445 C40.2190975,45.622473 40.1893256,45.7060736 40.1563638,45.7983133 C40.1234021,45.890686 40.0872505,45.9962168 40.0476432,46.1150386 C40.0080359,46.2335946 39.9596566,46.37222 39.9025051,46.5305162 L39.6320327,47.2825227 Z M38.1345322,49.1164191 L39.816778,44.6108926 L41.0634767,44.6108926 L42.7257859,49.1164191 L42.7257859,49.3472843 L41.9078559,49.3472843 L41.4329673,47.994922 L39.3813638,47.994922 L38.9063424,49.3472843 L38.1345322,49.3472843 L38.1345322,49.1164191 Z" fill="#000000" fill-rule="nonzero"></path>
                    <path d="M47.7524803,48.0940066 C47.6777847,48.2787519 47.5798298,48.4525986 47.4590143,48.6156796 C47.337933,48.7787605 47.1917317,48.9216391 47.0202774,49.0436507 C46.8488231,49.1656624 46.6497235,49.2621553 46.4232443,49.3331294 C46.1967651,49.4041035 45.945033,49.4397235 45.667915,49.4397235 C45.3161014,49.4397235 44.9961863,49.3780531 44.7081697,49.2548452 C44.4201531,49.1319032 44.174269,48.9613793 43.9706504,48.7438051 C43.7670318,48.5259651 43.6097989,48.2666571 43.4989517,47.9653494 C43.3881045,47.6641747 43.3328138,47.337614 43.3328138,46.9856676 C43.3328138,46.6339869 43.3881045,46.3074263 43.4989517,46.0061186 C43.6097989,45.7049438 43.7679622,45.4443067 43.9738403,45.2243402 C44.1797183,45.0046394 44.4267986,44.831856 44.7148152,44.7066545 C45.0028318,44.5811872 45.3248735,44.5185864 45.6812061,44.5185864 C46.199955,44.5185864 46.6344388,44.6396677 46.9839929,44.8814316 C47.3336799,45.1231954 47.581026,45.4443067 47.726164,45.8444997 L46.8884304,46.0093084 C46.7739946,45.7675446 46.6145022,45.577217 46.4100862,45.4387245 C46.2055372,45.3002319 45.9581911,45.2309857 45.667915,45.2309857 C45.4349233,45.2309857 45.2270515,45.2759094 45.0445657,45.3657567 C44.8620798,45.4556041 44.7081697,45.5793436 44.5828353,45.7371081 C44.4575009,45.8947398 44.3618054,46.0809471 44.2958819,46.2957301 C44.2299584,46.5103803 44.1969967,46.7403151 44.1969967,46.9856676 C44.1969967,47.235406 44.2310217,47.466537 44.2992047,47.6790606 C44.3672548,47.8917171 44.4662729,48.0755321 44.5959934,48.23117 C44.7257139,48.3866751 44.8829468,48.5081551 45.0676921,48.595743 C45.2523045,48.6834638 45.463499,48.7273242 45.7008768,48.7273242 C46.00883,48.7273242 46.2626886,48.6524957 46.4628516,48.5029716 C46.6630145,48.3534475 46.8179879,48.1709617 46.9279047,47.9553812 L47.7524803,48.0940066 Z" fill="#000000" fill-rule="nonzero"></path>
                    <g transform="translate(48.778083, 44.572801)">
                        <g>
                            <mask id="mask-6" fill="white">
                                <use xlink:href="#path-5"></use>
                            </mask>
                            <g></g>
                            <polygon fill="#000000" fill-rule="nonzero" mask="url(#mask-6)" points="0.089209398 0.0381452581 3.15664637 0.0381452581 3.15664637 0.763702624 0.900626822 0.763702624 0.900626822 2.0038887 2.9983502 2.0038887 2.9983502 2.71628794 0.900626822 2.71628794 0.900626822 4.04884668 3.20289916 4.04884668 3.20289916 4.77453696 0.089209398 4.77453696"></polygon>
                        </g>
                    </g>
                </g>
            </g>
        </g>
    </g>
</svg>