<?xml version="1.0" encoding="UTF-8"?>
<svg width="50px" height="50px" viewBox="0 0 50 50" version="1.1" xmlns="http://www.w3.org/2000/svg" xmlns:xlink="http://www.w3.org/1999/xlink">
    <!-- Generator: Sketch 53 (72520) - https://sketchapp.com -->
    <title>ui8</title>
    <desc>Created with Sketch.</desc>
    <g stroke="none" stroke-width="1" fill="none" fill-rule="evenodd">
        <g transform="translate(3.000000, 6.000000)" fill-rule="nonzero">
            <path d="M15.325,0.878 C16.802,0.074 19.195,0.073 20.675,0.878 L33.325,7.758 C34.802,8.562 36,10.575 36,12.252 L36,25.758 C36,27.436 34.805,29.446 33.325,30.251 L20.675,37.131 C19.198,37.935 16.805,37.937 15.325,37.131 L2.675,30.251 C1.198,29.447 0,27.434 0,25.758 L0,12.252 C0,10.574 1.195,8.564 2.675,7.758 L15.325,0.878 Z" fill="#000000"></path>
            <ellipse fill="#2F8BE6" cx="35.498" cy="8.605" rx="8.498" ry="8.605"></ellipse>
            <path d="M23.213,23.447 L23.213,14.458 C23.213,13.644 23.829,13 24.607,13 C25.385,13 26,13.644 26,14.458 L26,23.448 C26,24.261 25.385,24.905 24.607,24.905 C23.829,24.905 23.213,24.261 23.213,23.447 L23.213,23.447 Z M21.038,19.016 C21.038,23.031 18.884,25 15.483,25 C12.08,25 10,23.012 10,19.11 L10,14.458 C10,13.644 10.615,13 11.393,13 C12.171,13 12.787,13.644 12.787,14.458 L12.787,19.035 C12.787,21.194 13.817,22.311 15.519,22.311 C17.219,22.311 18.251,21.231 18.251,19.129 L18.251,14.459 C18.251,13.644 18.866,13 19.644,13 C20.422,13 21.038,13.644 21.038,14.458 L21.038,19.016 Z" fill="#FFFFFF"></path>
            <path d="M35.5,12 C34.065,12 33,11.222 33,10.036 L33,10.016 C33,9.19 33.361,8.704 34.046,8.374 C33.546,8.053 33.222,7.615 33.222,6.886 L33.222,6.866 C33.222,5.827 34.13,5 35.5,5 C36.87,5 37.778,5.817 37.778,6.867 L37.778,6.887 C37.778,7.615 37.454,8.053 36.954,8.374 C37.611,8.734 38,9.171 38,9.978 L38,9.998 C38,11.26 36.935,12 35.5,12 Z M35.5,7.878 C36.065,7.878 36.426,7.528 36.426,7.051 L36.426,7.031 C36.426,6.614 36.083,6.235 35.5,6.235 C34.917,6.235 34.574,6.605 34.574,7.022 L34.574,7.042 C34.574,7.518 34.935,7.878 35.5,7.878 Z M35.5,10.765 C36.204,10.765 36.62,10.395 36.62,9.919 L36.62,9.9 C36.62,9.375 36.148,9.064 35.5,9.064 C34.852,9.064 34.38,9.375 34.38,9.9 L34.38,9.92 C34.38,10.386 34.796,10.765 35.5,10.765 Z" fill="#FFFFFF"></path>
        </g>
    </g>
</svg>